<svg width="18" height="26" viewBox="0 0 31 39" fill="none"
                                            xmlns="http://www.w3.org/2000/svg">
                                            <path
                                                d="M3 15.385C3 12.0919 3 10.4453 3.43297 9.11273C4.30805 6.41954 6.41954 4.30805 9.11273 3.43297C10.4453 3 12.0919 3 15.385 3C18.6781 3 20.3247 3 21.6573 3.43297C24.3505 4.30805 26.462 6.41954 27.337 9.11273C27.77 10.4453 27.77 12.0919 27.77 15.385V28.4553C27.77 31.8473 27.77 33.5433 27.165 34.4402C26.4259 35.5359 25.1377 36.1284 23.8247 35.9765C22.75 35.8521 21.4623 34.7484 18.887 32.541C17.7533 31.5693 17.1865 31.0834 16.5639 30.8634C15.8011 30.5939 14.9689 30.5939 14.2061 30.8634C13.5835 31.0834 13.0167 31.5693 11.883 32.541C9.30768 34.7484 8.02 35.8521 6.94527 35.9765C5.63231 36.1284 4.34414 35.5359 3.60502 34.4402C3 33.5433 3 31.8473 3 28.4553V15.385Z"
                                                fill="#646464" stroke="#646464" stroke-width="5" />
                                        </svg>