<svg  viewBox="0 0 134 36" fill="none" xmlns="http://www.w3.org/2000/svg">
<path d="M111.491 33.4781H111.491C110.447 33.4773 109.446 33.0599 108.707 32.3179C107.969 31.5759 107.554 30.5699 107.552 29.5207V29.5205V4.80865V4.80849C107.553 3.75887 107.969 2.75243 108.707 2.01019C109.446 1.26792 110.448 0.850555 111.492 0.85H111.492L129.75 0.85L129.75 0.85C130.794 0.850832 131.796 1.26818 132.534 2.01019C133.272 2.75217 133.688 3.75819 133.689 4.80744V4.80764L133.689 29.5195L133.689 29.5196C133.688 30.5692 133.273 31.5757 132.534 32.3179C131.795 33.0602 130.794 33.4776 129.749 33.4781H129.749H111.491ZM109.494 2.7991L109.388 2.69328L109.494 2.7991C108.964 3.33173 108.665 4.05408 108.664 4.80794V29.5193C108.665 30.2737 108.963 30.9968 109.493 31.53C110.023 32.0632 110.742 32.3631 111.492 32.3641H129.749C130.499 32.3636 131.218 32.0641 131.748 31.531C132.279 30.998 132.577 30.2749 132.578 29.5204V4.80872C132.577 4.05424 132.279 3.33116 131.748 2.79809C131.218 2.26502 130.499 1.96549 129.749 1.96499L111.492 1.96599C111.491 1.96599 111.491 1.96599 111.491 1.96599C110.742 1.96703 110.024 2.26651 109.494 2.7991Z" fill="#444444" stroke="#444444" stroke-width="0.3"/>
<path d="M118.21 28.8285H121.451C121.949 28.8277 122.426 28.6286 122.778 28.2749C123.129 27.9212 123.327 27.4416 123.328 26.9413V6.92477C123.327 6.42468 123.129 5.94529 122.778 5.59158C122.426 5.23787 121.95 5.03866 121.452 5.0376H118.209C117.711 5.0384 117.234 5.23748 116.883 5.59122C116.531 5.94496 116.333 6.42451 116.332 6.92477V26.9413C116.333 27.4413 116.531 27.9206 116.882 28.2742C117.234 28.6277 117.711 28.8267 118.208 28.8275L118.21 28.8285ZM121.451 5.85157C121.734 5.85184 122.005 5.96503 122.205 6.16626C122.405 6.3675 122.518 6.64032 122.518 6.92477V26.9413C122.517 27.2256 122.405 27.4982 122.205 27.6992C122.005 27.9002 121.734 28.0133 121.451 28.0135H118.209C117.926 28.0133 117.655 27.9002 117.455 27.6992C117.255 27.4982 117.143 27.2256 117.143 26.9413V6.92477C117.143 6.64049 117.255 6.36793 117.455 6.16692C117.655 5.9659 117.926 5.85285 118.209 5.85258L121.451 5.85157Z" fill="#444444"/>
<path d="M119.827 25.5999C119.876 25.5999 119.925 25.5901 119.971 25.571C120.017 25.552 120.058 25.524 120.093 25.4888C120.128 25.4536 120.156 25.4117 120.175 25.3657C120.194 25.3197 120.203 25.2704 120.203 25.2207V8.09992C120.203 7.99961 120.163 7.9034 120.093 7.83246C120.022 7.76153 119.927 7.72168 119.827 7.72168C119.727 7.72168 119.631 7.76153 119.561 7.83246C119.49 7.9034 119.451 7.99961 119.451 8.09992V25.2207C119.451 25.321 119.49 25.4172 119.561 25.4881C119.631 25.5591 119.727 25.5989 119.827 25.5989V25.5999Z" fill="#444444"/>
<path d="M115.415 10.6147H124.239C125.052 10.6147 125.711 11.2772 125.711 12.0944V14.9398C125.711 15.757 125.052 16.4195 124.239 16.4195H115.415C114.603 16.4195 113.944 15.757 113.944 14.9398V12.0944C113.944 11.2772 114.603 10.6147 115.415 10.6147Z" fill="#444444"/>
<path d="M115.415 16.8122H124.239C124.733 16.8116 125.206 16.6141 125.555 16.263C125.905 15.9118 126.101 15.4357 126.102 14.9391V12.0947C126.101 11.5981 125.905 11.122 125.555 10.7709C125.206 10.4197 124.733 10.2222 124.239 10.2217H115.415C114.921 10.2225 114.448 10.4201 114.098 10.7712C113.749 11.1223 113.553 11.5982 113.552 12.0947V14.9391C113.553 15.4358 113.749 15.9119 114.099 16.263C114.448 16.6142 114.922 16.8116 115.416 16.8122H115.415ZM124.239 11.0074C124.525 11.0077 124.8 11.1223 125.003 11.3262C125.206 11.53 125.32 11.8064 125.32 12.0947V14.9391C125.32 15.2272 125.205 15.5034 125.003 15.707C124.8 15.9107 124.525 16.0252 124.239 16.0254H115.415C115.128 16.0252 114.853 15.9107 114.651 15.707C114.448 15.5034 114.334 15.2272 114.333 14.9391V12.0947C114.334 11.8064 114.448 11.53 114.65 11.3262C114.853 11.1223 115.128 11.0077 115.415 11.0074H124.239Z" fill="#444444"/>
<path d="M125.668 8.4533C125.668 8.00097 126.032 7.63428 126.482 7.63428C126.932 7.63428 127.297 8.00097 127.297 8.4533V9.91987C127.297 10.3722 126.932 10.7389 126.482 10.7389C126.032 10.7389 125.668 10.3722 125.668 9.91987V8.4533Z" fill="#444444"/>
<path d="M126.481 15.6936C126.801 15.6934 127.107 15.5655 127.334 15.3382C127.56 15.1109 127.687 14.8027 127.687 14.4812V13.0157C127.692 12.8536 127.664 12.6922 127.605 12.5411C127.547 12.39 127.459 12.2522 127.347 12.1359C127.234 12.0196 127.1 11.9271 126.951 11.864C126.803 11.8008 126.643 11.7683 126.482 11.7683C126.32 11.7683 126.161 11.8008 126.012 11.864C125.864 11.9271 125.729 12.0196 125.617 12.1359C125.504 12.2522 125.416 12.39 125.358 12.5411C125.299 12.6922 125.272 12.8536 125.276 13.0157V14.4812C125.277 14.8023 125.403 15.1103 125.629 15.3375C125.855 15.5648 126.161 15.6928 126.48 15.6936H126.481ZM126.481 12.589C126.594 12.589 126.702 12.634 126.781 12.714C126.861 12.794 126.906 12.9025 126.906 13.0157V14.4812C126.906 14.5372 126.895 14.5926 126.873 14.6443C126.852 14.696 126.821 14.743 126.781 14.7826C126.742 14.8221 126.695 14.8535 126.644 14.8749C126.592 14.8964 126.537 14.9074 126.482 14.9074C126.426 14.9074 126.371 14.8964 126.319 14.8749C126.268 14.8535 126.221 14.8221 126.182 14.7826C126.143 14.743 126.111 14.696 126.09 14.6443C126.069 14.5926 126.058 14.5372 126.058 14.4812V13.0157C126.058 12.9027 126.102 12.7943 126.182 12.7143C126.261 12.6343 126.369 12.5893 126.481 12.589Z" fill="#444444"/>
<path d="M126.479 9.96733C126.04 9.96733 125.684 9.60967 125.684 9.16848C125.684 8.72729 126.04 8.36963 126.479 8.36963C126.918 8.36963 127.273 8.72729 127.273 9.16848C127.273 9.60967 126.918 9.96733 126.479 9.96733Z" fill="#444444"/>
<path d="M126.479 18.8167C126.04 18.8167 125.684 18.459 125.684 18.0178C125.684 17.5766 126.04 17.219 126.479 17.219C126.918 17.219 127.273 17.5766 127.273 18.0178C127.273 18.459 126.918 18.8167 126.479 18.8167Z" fill="#444444"/>
<path d="M126.479 22.0201C126.04 22.0201 125.684 21.6624 125.684 21.2212C125.684 20.78 126.04 20.4224 126.479 20.4224C126.918 20.4224 127.273 20.78 127.273 21.2212C127.273 21.6624 126.918 22.0201 126.479 22.0201Z" fill="#444444"/>
<path d="M126.479 25.2234C126.04 25.2234 125.684 24.8658 125.684 24.4246C125.684 23.9834 126.04 23.6257 126.479 23.6257C126.918 23.6257 127.273 23.9834 127.273 24.4246C127.273 24.8658 126.918 25.2234 126.479 25.2234Z" fill="#444444"/>

</svg>
