  <svg width="30" height="25" viewBox="0 0 41 39" fill="none"
                                        xmlns="http://www.w3.org/2000/svg">
                                        <path
                                            d="M5.33344 12.4286L5.33344 14.9286H5.33344V12.4286ZM7.66677 33.5C6.28606 33.5 5.16677 34.6193 5.16677 36C5.16677 37.3807 6.28606 38.5 7.66677 38.5V33.5ZM8.69779 23.6238C9.6735 24.6007 11.2564 24.6017 12.2333 23.626C13.2102 22.6503 13.2112 21.0674 12.2355 20.0905L8.69779 23.6238ZM7.17578 18.5622L5.40692 20.3289H5.40692L7.17578 18.5622ZM7.17578 6.29492L5.40692 4.52825L5.40692 4.52825L7.17578 6.29492ZM12.2355 4.76668C13.2112 3.78977 13.2102 2.20685 12.2333 1.23114C11.2564 0.255435 9.6735 0.25641 8.69779 1.23332L12.2355 4.76668ZM3.03713 13.0194L0.556792 13.3324L0.556793 13.3324L3.03713 13.0194ZM3.03713 11.8377L0.556793 11.5248L0.556792 11.5248L3.03713 11.8377ZM5.33344 14.9286H26.3334V9.92858H5.33344V14.9286ZM26.3334 33.5H7.66677V38.5H26.3334V33.5ZM35.5 24.2143C35.5 29.3666 31.3721 33.5 26.3334 33.5V38.5C34.1813 38.5 40.5 32.0801 40.5 24.2143H35.5ZM26.3334 14.9286C31.3721 14.9286 35.5 19.0619 35.5 24.2143H40.5C40.5 16.3485 34.1813 9.92858 26.3334 9.92858V14.9286ZM12.2355 20.0905L8.94463 16.7955L5.40692 20.3289L8.69779 23.6238L12.2355 20.0905ZM8.94463 8.0616L12.2355 4.76668L8.69779 1.23332L5.40692 4.52825L8.94463 8.0616ZM8.94463 16.7955C7.59101 15.4402 6.72749 14.5703 6.15503 13.8502C5.61466 13.1705 5.53782 12.8679 5.51746 12.7065L0.556793 13.3324C0.738477 14.7723 1.41877 15.9273 2.24111 16.9617C3.03136 17.9557 4.13614 19.0565 5.40692 20.3289L8.94463 16.7955ZM5.40692 4.52825C4.13615 5.80059 3.03136 6.90139 2.24111 7.89544C1.41877 8.92987 0.738478 10.0848 0.556793 11.5248L5.51746 12.1507C5.53782 11.9893 5.61466 11.6866 6.15503 11.0069C6.72749 10.2868 7.59101 9.41689 8.94463 8.0616L5.40692 4.52825ZM5.51746 12.7065C5.50582 12.6142 5.5 12.5214 5.5 12.4286H0.5C0.5 12.7304 0.51893 13.0323 0.556792 13.3324L5.51746 12.7065ZM5.5 12.4286C5.5 12.3357 5.50582 12.2429 5.51746 12.1507L0.556792 11.5248C0.51893 11.8248 0.5 12.1267 0.5 12.4286H5.5ZM5.33345 9.92858L3 9.92857L3 14.9286L5.33344 14.9286L5.33345 9.92858Z"
                                            fill="#8B8B8B" />
                                    </svg>