    <svg width="80" height="118" viewBox="0 0 118 118" fill="none"
                            xmlns="http://www.w3.org/2000/svg">
                            <path
                                d="M6.40426 101.236H3.52569V115H114.573V101.236H111.472M6.40426 101.236V32.4549M6.40426 101.236H111.472M6.40426 32.4549H3.5C3.22386 32.4549 3 32.231 3 31.9549V18.4222C3 18.1461 3.22386 17.9222 3.5 17.9222H11.49M6.40426 32.4549H111.472M111.472 101.236V32.4549M111.472 32.4549H114.5C114.776 32.4549 115 32.231 115 31.9549V18.4222C115 18.1461 114.776 17.9222 114.5 17.9222H106.311M11.49 17.9222V4.1475C11.49 3.59521 11.9377 3.1475 12.49 3.1475H32.5772C33.1282 3.1475 33.5754 3.5933 33.5772 4.14435L33.6205 17.9222M11.49 17.9222H33.6205M33.6205 17.9222H84.3965M84.3965 17.9222V4C84.3965 3.44772 84.8442 3 85.3965 3H105.311C105.863 3 106.311 3.44772 106.311 4V17.9222M84.3965 17.9222H106.311"
                                stroke="white" stroke-width="5" stroke-linecap="round" stroke-linejoin="round" />
                            <path
                                d="M57.5966 61.143L57.1274 64.0424H60.0645H65.8934L59.7176 75.9895L60.4212 69.4364L60.7183 66.6695H57.9355H52.3857L58.3257 56.6376L57.5966 61.143Z"
                                stroke="white" stroke-width="5" />
                        </svg>