<svg width="62" height="30" viewBox="0 0 62 30" fill="none" xmlns="http://www.w3.org/2000/svg">
<path d="M61.3211 18.3591C61.3191 16.23 60.4513 14.1887 58.9081 12.6832C57.3648 11.1778 55.2724 10.3311 53.09 10.3292H47.7697L43.4223 3.02583C42.9663 2.26126 42.3132 1.62635 41.528 1.18412C40.7427 0.741896 39.8525 0.507733 38.9457 0.504883H23.2738C22.3671 0.507733 21.4769 0.741896 20.6916 1.18412C19.9063 1.62635 19.2532 2.26126 18.7972 3.02583L14.4802 10.3292H9.16C8.0768 10.3262 7.00363 10.5317 6.00192 10.9339C5.00021 11.336 4.08962 11.9269 3.32226 12.6727C2.5549 13.4186 1.94584 14.3047 1.52993 15.2805C1.11403 16.2562 0.899433 17.3024 0.898438 18.3591V23.1489H7.73874C7.87886 24.8189 8.65785 26.3763 9.92091 27.5118C11.184 28.6472 12.8387 29.2776 14.5562 29.2776C16.2738 29.2776 17.9285 28.6472 19.1916 27.5118C20.4546 26.3763 21.2336 24.8189 21.3737 23.1489H40.5798C40.7199 24.8189 41.4989 26.3763 42.762 27.5118C44.025 28.6472 45.6797 29.2776 47.3973 29.2776C49.1149 29.2776 50.7696 28.6472 52.0326 27.5118C53.2957 26.3763 54.0747 24.8189 54.2148 23.1489H61.3211V18.3591ZM42.4343 3.58192L46.4245 10.3292H31.8698V1.61706H38.9229C39.6336 1.61465 40.3323 1.79501 40.9488 2.13996C41.5653 2.4849 42.0776 2.98226 42.4343 3.58192ZM19.7853 3.58192C20.14 2.98553 20.6488 2.49027 21.2609 2.14551C21.873 1.80076 22.567 1.61855 23.2738 1.61706H30.7526V10.3292H15.7951L19.7853 3.58192ZM3.82457 13.7621C3.94898 13.9662 4.01462 14.1993 4.01458 14.4368C4.01462 14.8027 3.86722 15.1539 3.60416 15.4147C3.34111 15.6755 2.98351 15.8249 2.60851 15.8307H2.54011C2.84631 15.0708 3.289 14.3703 3.84737 13.7621H3.82457ZM14.5714 28.1611C13.4425 28.1611 12.339 27.8346 11.4003 27.2227C10.4617 26.6109 9.73009 25.7412 9.29808 24.7237C8.86606 23.7062 8.75303 22.5866 8.97327 21.5065C9.19351 20.4263 9.73713 19.4342 10.5354 18.6554C11.3336 17.8767 12.3507 17.3463 13.4579 17.1315C14.5651 16.9166 15.7128 17.0269 16.7557 17.4484C17.7987 17.8698 18.6902 18.5835 19.3174 19.4992C19.9445 20.4149 20.2793 21.4915 20.2793 22.5928C20.2773 24.069 19.6753 25.4842 18.6053 26.528C17.5353 27.5719 16.0846 28.1592 14.5714 28.1611ZM47.3973 28.1611C46.2684 28.1611 45.1648 27.8346 44.2262 27.2227C43.2875 26.6109 42.556 25.7412 42.1239 24.7237C41.6919 23.7062 41.5789 22.5866 41.7991 21.5065C42.0194 20.4263 42.563 19.4342 43.3612 18.6554C44.1595 17.8767 45.1765 17.3463 46.2838 17.1315C47.391 16.9166 48.5386 17.0269 49.5816 17.4484C50.6246 17.8698 51.516 18.5835 52.1432 19.4992C52.7704 20.4149 53.1052 21.4915 53.1052 22.5928C53.1031 24.069 52.5011 25.4842 51.4311 26.528C50.3612 27.5719 48.9105 28.1592 47.3973 28.1611ZM60.1811 22.0367H54.2148C54.0747 20.3667 53.2957 18.8093 52.0326 17.6738C50.7696 16.5384 49.1149 15.908 47.3973 15.908C45.6797 15.908 44.025 16.5384 42.762 17.6738C41.4989 18.8093 40.7199 20.3667 40.5798 22.0367H21.3889C21.2488 20.3667 20.4698 18.8093 19.2068 17.6738C17.9437 16.5384 16.289 15.908 14.5714 15.908C12.8539 15.908 11.1992 16.5384 9.93612 17.6738C8.67305 18.8093 7.89406 20.3667 7.75394 22.0367H2.03849V18.3294C2.03953 17.8311 2.09302 17.3342 2.1981 16.8465C2.33342 16.8723 2.47069 16.8872 2.60851 16.891C3.08214 16.8942 3.54733 16.7687 3.95208 16.5288C4.35684 16.2888 4.68521 15.9437 4.90049 15.5321C5.11577 15.1206 5.20948 14.6587 5.17114 14.1982C5.13281 13.7376 4.96394 13.2965 4.68341 12.9242C5.94195 11.9317 7.51123 11.39 9.1296 11.3894H53.09C54.9694 11.3934 56.7707 12.1234 58.0997 13.4199C59.4287 14.7164 60.1771 16.4737 60.1811 18.3072V22.0367Z" fill="#444444"/>
</svg>
