      <svg width="40" height="30" viewBox="0 0 32 42" fill="none"
                                            xmlns="http://www.w3.org/2000/svg">
                                            <path
                                                d="M20.7438 28.0593C22.3101 27.7105 23.752 27.0672 25.0021 26.1934L27.4723 35.7079C28.2139 38.5646 25.0963 40.9386 22.3196 39.6316L18.1567 37.672C16.7978 37.0323 15.2022 37.0323 13.8433 37.672L9.68039 39.6316C6.90372 40.9386 3.78606 38.5646 4.52773 35.7079L6.99791 26.1934C8.24798 27.0672 9.68987 27.7105 11.2562 28.0593M20.7438 28.0593C17.6236 28.7541 14.3764 28.7541 11.2562 28.0593M20.7438 28.0593C25.0642 27.0972 28.4376 23.8948 29.4511 19.7934C30.183 16.8315 30.183 13.7489 29.4511 10.7869C28.4376 6.68555 25.0642 3.48314 20.7438 2.52109C17.6236 1.8263 14.3764 1.8263 11.2562 2.52109C6.93579 3.48314 3.56236 6.68554 2.54892 10.7869C1.81703 13.7489 1.81703 16.8315 2.54892 19.7935C3.56236 23.8948 6.93579 27.0972 11.2562 28.0593"
                                                stroke="#646464" stroke-width="3" />
                                        </svg>