   <svg width="32" height="32" viewBox="0 0 54 34" fill="none"
                                    xmlns="http://www.w3.org/2000/svg">
                                    <mask id="path-1-outside-1_1378_9946" maskUnits="userSpaceOnUse" x="0" y="0"
                                        width="35" height="34" fill="black">
                                        <rect fill="white" width="35" height="34" />
                                        <path
                                            d="M6.13333 25.8214C6.13333 28.6815 8.44653 31 11.3 31C14.1535 31 16.4667 28.6815 16.4667 25.8214C16.4667 22.9614 14.1535 20.6429 11.3 20.6429C8.44653 20.6429 6.13333 22.9614 6.13333 25.8214Z" />
                                    </mask>
                                    <path
                                        d="M13.3667 5.10714L14.7089 5.77673L14.7089 5.77673L13.3667 5.10714ZM10.2667 11.3214L11.6089 11.991C11.5918 12.0253 11.5734 12.059 11.5537 12.0919L10.2667 11.3214ZM4.06667 25.8214L4.06666 24.3214H4.06667V25.8214ZM5.24091 24.3214C6.06934 24.3214 6.74091 24.993 6.74091 25.8214C6.74091 26.6499 6.06934 27.3214 5.24091 27.3214V24.3214ZM18.5333 27.3214C17.7049 27.3214 17.0333 26.6499 17.0333 25.8214C17.0333 24.993 17.7049 24.3214 18.5333 24.3214V27.3214ZM33 24.3214C33.8284 24.3214 34.5 24.993 34.5 25.8214C34.5 26.6499 33.8284 27.3214 33 27.3214V24.3214ZM16.4667 3.5C16.2909 3.5 16.1063 3.54989 15.8063 3.90314C15.4609 4.30988 15.1383 4.91602 14.7089 5.77673L12.0244 4.43756C12.4217 3.64112 12.8976 2.69369 13.5197 1.96115C14.1873 1.17511 15.1394 0.5 16.4667 0.5V3.5ZM14.7089 5.77673L11.6089 11.991L8.92441 10.6518L12.0244 4.43756L14.7089 5.77673ZM10.2667 11.3214C11.5537 12.0919 11.553 12.093 11.5524 12.0941C11.5521 12.0945 11.5514 12.0956 11.551 12.0963C11.5501 12.0979 11.5492 12.0994 11.5482 12.1009C11.5463 12.104 11.5444 12.1072 11.5424 12.1104C11.5384 12.1168 11.5342 12.1235 11.5298 12.1305C11.5209 12.1444 11.5111 12.1593 11.5004 12.1752C11.4789 12.2069 11.4535 12.2423 11.4239 12.2808C11.3646 12.3579 11.2885 12.4469 11.1929 12.5427C11.0006 12.7355 10.7345 12.9504 10.3764 13.1498C9.65392 13.5521 8.61966 13.8571 7.16667 13.8571V10.8571C8.19367 10.8571 8.70941 10.6443 8.91692 10.5288C9.02385 10.4692 9.06773 10.4253 9.06916 10.4238C9.07042 10.4226 9.06219 10.4307 9.04649 10.4511C9.03866 10.4612 9.02902 10.4744 9.0178 10.4909C9.01219 10.4992 9.00619 10.5083 8.99982 10.5183C8.99663 10.5233 8.99336 10.5285 8.98999 10.534C8.98831 10.5367 8.98661 10.5395 8.98488 10.5423C8.98402 10.5437 8.98315 10.5452 8.98228 10.5466C8.98184 10.5473 8.98118 10.5484 8.98096 10.5488C8.9803 10.5499 8.97964 10.551 10.2667 11.3214ZM7.16667 13.8571C6.48796 13.8571 5.47474 14.0303 4.68748 14.4848C3.97506 14.8961 3.5 15.4851 3.5 16.5H0.5C0.5 14.2006 1.74716 12.7182 3.18752 11.8867C4.55303 11.0983 6.12315 10.8571 7.16667 10.8571V13.8571ZM3.5 16.5V23.75H0.5V16.5H3.5ZM3.5 23.75C3.5 23.7269 3.4952 23.7565 3.53378 23.836C3.57146 23.9137 3.63576 24.0072 3.72533 24.097C3.81491 24.1868 3.90798 24.251 3.98478 24.2884C4.06347 24.3268 4.09161 24.3214 4.06666 24.3214L4.06667 27.3214C3.05423 27.3214 2.17764 26.7933 1.60157 26.2159C1.02516 25.6382 0.5 24.7611 0.5 23.75H3.5ZM4.06667 24.3214H5.24091V27.3214H4.06667V24.3214ZM18.5333 24.3214H33V27.3214H18.5333V24.3214ZM16.4667 0.5H33V3.5H16.4667V0.5ZM9.13333 25.8214C9.13333 27.0311 10.1099 28 11.3 28V34C6.78317 34 3.13333 30.3318 3.13333 25.8214H9.13333ZM11.3 28C12.4901 28 13.4667 27.0311 13.4667 25.8214H19.4667C19.4667 30.3318 15.8168 34 11.3 34V28ZM13.4667 25.8214C13.4667 24.6117 12.4901 23.6429 11.3 23.6429V17.6429C15.8168 17.6429 19.4667 21.311 19.4667 25.8214H13.4667ZM11.3 23.6429C10.1099 23.6429 9.13333 24.6117 9.13333 25.8214H3.13333C3.13333 21.311 6.78317 17.6429 11.3 17.6429V23.6429Z"
                                        fill="#FF3919" mask="url(#path-1-outside-1_1378_9946)" />
                                    <mask id="path-3-outside-2_1378_9946" maskUnits="userSpaceOnUse" x="19" y="0"
                                        width="35" height="34" fill="black">
                                        <rect fill="white" x="19" width="35" height="34" />
                                        <path
                                            d="M47.8667 25.8214C47.8667 28.6815 45.5535 31 42.7 31C39.8465 31 37.5333 28.6815 37.5333 25.8214C37.5333 22.9614 39.8465 20.6429 42.7 20.6429C45.5535 20.6429 47.8667 22.9614 47.8667 25.8214Z" />
                                    </mask>
                                    <path
                                        d="M40.6333 5.10714L39.2911 5.77673L39.2911 5.77673L40.6333 5.10714ZM43.7333 11.3214L42.3911 11.991C42.4082 12.0253 42.4266 12.059 42.4463 12.0919L43.7333 11.3214ZM49.9333 25.8214L49.9333 24.3214H49.9333V25.8214ZM48.7591 24.3214C47.9307 24.3214 47.2591 24.993 47.2591 25.8214C47.2591 26.6499 47.9307 27.3214 48.7591 27.3214V24.3214ZM35.4667 27.3214C36.2951 27.3214 36.9667 26.6499 36.9667 25.8214C36.9667 24.993 36.2951 24.3214 35.4667 24.3214V27.3214ZM21 24.3214C20.1716 24.3214 19.5 24.993 19.5 25.8214C19.5 26.6499 20.1716 27.3214 21 27.3214V24.3214ZM37.5333 3.5C37.7091 3.5 37.8937 3.54989 38.1937 3.90314C38.5391 4.30988 38.8617 4.91602 39.2911 5.77673L41.9756 4.43756C41.5783 3.64112 41.1024 2.69369 40.4803 1.96115C39.8127 1.17511 38.8606 0.5 37.5333 0.5V3.5ZM39.2911 5.77673L42.3911 11.991L45.0756 10.6518L41.9756 4.43756L39.2911 5.77673ZM43.7333 11.3214C42.4463 12.0919 42.447 12.093 42.4476 12.0941C42.4479 12.0945 42.4486 12.0956 42.449 12.0963C42.4499 12.0979 42.4508 12.0994 42.4518 12.1009C42.4537 12.104 42.4556 12.1072 42.4576 12.1104C42.4616 12.1168 42.4658 12.1235 42.4702 12.1305C42.4791 12.1444 42.4889 12.1593 42.4996 12.1752C42.5211 12.2069 42.5465 12.2423 42.5761 12.2808C42.6354 12.3579 42.7115 12.4469 42.8071 12.5427C42.9994 12.7355 43.2655 12.9504 43.6236 13.1498C44.3461 13.5521 45.3803 13.8571 46.8333 13.8571V10.8571C45.8063 10.8571 45.2906 10.6443 45.0831 10.5288C44.9762 10.4692 44.9323 10.4253 44.9308 10.4238C44.9296 10.4226 44.9378 10.4307 44.9535 10.4511C44.9613 10.4612 44.971 10.4744 44.9822 10.4909C44.9878 10.4992 44.9938 10.5083 45.0002 10.5183C45.0034 10.5233 45.0066 10.5285 45.01 10.534C45.0117 10.5367 45.0134 10.5395 45.0151 10.5423C45.016 10.5437 45.0168 10.5452 45.0177 10.5466C45.0182 10.5473 45.0188 10.5484 45.019 10.5488C45.0197 10.5499 45.0204 10.551 43.7333 11.3214ZM46.8333 13.8571C47.512 13.8571 48.5253 14.0303 49.3125 14.4848C50.0249 14.8961 50.5 15.4851 50.5 16.5H53.5C53.5 14.2006 52.2528 12.7182 50.8125 11.8867C49.447 11.0983 47.8769 10.8571 46.8333 10.8571V13.8571ZM50.5 16.5V23.75H53.5V16.5H50.5ZM50.5 23.75C50.5 23.7269 50.5048 23.7565 50.4662 23.836C50.4285 23.9137 50.3642 24.0072 50.2747 24.097C50.1851 24.1868 50.092 24.251 50.0152 24.2884C49.9365 24.3268 49.9084 24.3214 49.9333 24.3214L49.9333 27.3214C50.9458 27.3214 51.8224 26.7933 52.3984 26.2159C52.9748 25.6382 53.5 24.7611 53.5 23.75H50.5ZM49.9333 24.3214H48.7591V27.3214H49.9333V24.3214ZM35.4667 24.3214H21V27.3214H35.4667V24.3214ZM37.5333 0.5H21V3.5H37.5333V0.5ZM44.8667 25.8214C44.8667 27.0311 43.8901 28 42.7 28V34C47.2168 34 50.8667 30.3318 50.8667 25.8214H44.8667ZM42.7 28C41.5099 28 40.5333 27.0311 40.5333 25.8214H34.5333C34.5333 30.3318 38.1832 34 42.7 34V28ZM40.5333 25.8214C40.5333 24.6117 41.5099 23.6429 42.7 23.6429V17.6429C38.1832 17.6429 34.5333 21.311 34.5333 25.8214H40.5333ZM42.7 23.6429C43.8901 23.6429 44.8667 24.6117 44.8667 25.8214H50.8667C50.8667 21.311 47.2168 17.6429 42.7 17.6429V23.6429Z"
                                        fill="#FF3919" mask="url(#path-3-outside-2_1378_9946)" />
                                </svg>