<svg width="50" height="40" viewBox="0 0 123 57" fill="none" xmlns="http://www.w3.org/2000/svg">
    <path
        d="M122.616 34.1632C122.612 29.768 120.856 25.5541 117.734 22.4462C114.613 19.3384 110.38 17.5906 105.965 17.5865H39.9754L49.1081 1.92824L47.1094 0.780273L37.3616 17.6171H17.0359C12.6263 17.6212 8.39803 19.3647 5.2771 22.466C2.15617 25.5672 0.396967 29.7734 0.384766 34.1632V44.051H14.2223C14.5057 47.4985 16.0816 50.7136 18.6367 53.0576C21.1918 55.4016 24.5391 56.7028 28.0136 56.7028C31.4881 56.7028 34.8355 55.4016 37.3906 53.0576C39.9457 50.7136 41.5216 47.4985 41.805 44.051H80.6576C80.9411 47.4985 82.5169 50.7136 85.072 53.0576C87.6271 55.4016 90.9745 56.7028 94.449 56.7028C97.9235 56.7028 101.271 55.4016 103.826 53.0576C106.381 50.7136 107.957 47.4985 108.24 44.051H122.616V34.1632ZM6.35026 24.6733C6.60255 25.1083 6.73476 25.6019 6.73348 26.1042C6.7322 26.6065 6.59747 27.0994 6.34296 27.5331C6.08846 27.9668 5.72325 28.3257 5.28438 28.5735C4.84552 28.8212 4.34863 28.949 3.84414 28.9438H3.70577C4.32519 27.3751 5.22071 25.9289 6.35026 24.6733ZM28.0444 54.3981C25.7607 54.3981 23.5283 53.7239 21.6294 52.4608C19.7306 51.1977 18.2506 49.4025 17.3767 47.302C16.5028 45.2016 16.2741 42.8903 16.7196 40.6605C17.1652 38.4307 18.2649 36.3825 19.8797 34.7749C21.4945 33.1673 23.5519 32.0725 25.7917 31.629C28.0316 31.1854 30.3532 31.4131 32.4631 32.2831C34.573 33.1531 36.3763 34.6265 37.6451 36.5168C38.9138 38.4071 39.591 40.6296 39.591 42.9031C39.5869 45.9505 38.3691 48.8719 36.2046 51.0268C34.0401 53.1816 31.1055 54.394 28.0444 54.3981ZM94.449 54.3981C92.1653 54.3981 89.9329 53.7239 88.034 52.4608C86.1352 51.1977 84.6552 49.4025 83.7813 47.302C82.9074 45.2016 82.6787 42.8903 83.1242 40.6605C83.5698 38.4307 84.6695 36.3825 86.2843 34.7749C87.8991 33.1673 89.9565 32.0725 92.1964 31.629C94.4362 31.1854 96.7578 31.4131 98.8677 32.2831C100.978 33.1531 102.781 34.6265 104.05 36.5168C105.318 38.4071 105.996 40.6296 105.996 42.9031C105.992 45.9505 104.774 48.8719 102.609 51.0268C100.445 53.1816 97.5101 54.394 94.449 54.3981ZM120.31 41.7551H108.24C107.957 38.3077 106.381 35.0925 103.826 32.7486C101.271 30.4046 97.9235 29.1033 94.449 29.1033C90.9745 29.1033 87.6271 30.4046 85.072 32.7486C82.5169 35.0925 80.9411 38.3077 80.6576 41.7551H41.8358C41.5523 38.3077 39.9765 35.0925 37.4214 32.7486C34.8663 30.4046 31.5189 29.1033 28.0444 29.1033C24.5699 29.1033 21.2225 30.4046 18.6674 32.7486C16.1123 35.0925 14.5365 38.3077 14.253 41.7551H2.69102V34.102C2.69313 33.0733 2.80132 32.0475 3.01389 31.0407C3.28764 31.0939 3.56533 31.1247 3.84414 31.1326C4.80226 31.139 5.74331 30.8801 6.5621 30.3847C7.38089 29.8893 8.04515 29.177 8.48065 28.3274C8.91615 27.4777 9.10572 26.5243 9.02817 25.5735C8.95062 24.6228 8.60901 23.7123 8.04151 22.9437C10.5875 20.8947 13.762 19.7764 17.0359 19.7753H105.965C109.767 19.7834 113.411 21.2906 116.099 23.967C118.788 26.6434 120.302 30.2711 120.31 34.0561V41.7551Z"
        fill="#646464" />
</svg>