        <svg width="20" height="20" viewBox="0 0 25 25" fill="none"
                                        xmlns="http://www.w3.org/2000/svg">
                                        <path d="M24 12.5H19M21.5 15L21.5 10" stroke="#646464" stroke-width="1.5"
                                            stroke-linecap="round" />
                                        <path
                                            d="M1 21.5869C1 18.5035 3.18227 15.8771 6.14805 15.3912L6.4152 15.3474C8.79004 14.9583 11.21 14.9583 13.5848 15.3474L13.8519 15.3912C16.8177 15.8771 19 18.5035 19 21.5869C19 22.9196 17.9477 24 16.6495 24H3.35045C2.05233 24 1 22.9196 1 21.5869Z"
                                            stroke="#646464" stroke-width="1.5" />
                                        <path
                                            d="M15.25 6.03125C15.25 8.80993 12.8995 11.0625 10 11.0625C7.10053 11.0625 4.75003 8.80993 4.75003 6.03125C4.75003 3.25257 7.10053 1 10 1C12.8995 1 15.25 3.25257 15.25 6.03125Z"
                                            stroke="#646464" stroke-width="1.5" />
                                    </svg>