<svg width="41" height="32" viewBox="0 0 41 32" fill="none" xmlns="http://www.w3.org/2000/svg">
<path d="M34.5714 0.953125H32.8817C29.4568 0.953125 26.6712 3.73873 26.6712 7.16356V14.9829H24.2013V12.6284H17.1199V14.9829H14.6106V7.16356C14.6106 3.73873 11.825 0.953125 8.40011 0.953125H6.71044C3.28621 0.953125 0.5 3.73873 0.5 7.16356V25.1759C0.5 28.6008 3.28621 31.3861 6.71044 31.3861H8.40011C11.825 31.3861 14.6106 28.6005 14.6106 25.1759V17.3563H17.1199V19.7108H24.2013V17.3563H26.6712V25.1759C26.6712 28.6008 29.4568 31.3861 32.8817 31.3861H34.5714C37.9962 31.3861 40.7818 28.6005 40.7818 25.1759V7.16356C40.7818 3.73873 37.9962 0.953125 34.5714 0.953125V0.953125ZM12.2371 22.0492L8.74217 23.5456V20.6948L12.2371 19.1981V22.0492ZM6.369 9.85574V12.7068L2.87348 11.2098V8.35906L6.369 9.85574ZM6.369 15.2886V18.1394L2.87348 16.6427V13.7917L6.369 15.2886ZM2.87348 19.2246L6.369 20.7212V23.5723L2.87348 22.0753V19.2246ZM12.2371 16.6166L8.74217 18.113V15.2619L12.2371 13.7655V16.6166ZM12.2371 11.1837L8.74217 12.6804V9.82931L12.2371 8.33294V11.1837ZM12.0054 5.85005C12.0054 5.85005 12.0054 5.85036 12.0054 5.85005L8.74217 7.24746V3.34166C10.2478 3.47535 11.5063 4.48153 12.0054 5.85005ZM6.36869 3.34166H6.369V7.27389L3.09721 5.8731C3.59108 4.49321 4.85511 3.47596 6.36869 3.34166ZM2.87348 25.1759V24.6572L6.369 26.1538V28.9978C6.36869 28.9978 6.36869 28.9978 6.36869 28.9978C4.41287 28.8245 2.87348 27.1757 2.87348 25.1759ZM8.74217 28.9978V26.1274L12.2371 24.631V25.1759C12.2371 27.1757 10.6986 28.8245 8.74217 28.9978ZM21.8281 17.3373H19.4933V15.0019H21.8281V17.3373ZM38.4083 22.0489L34.9131 23.5456V20.6948L38.4083 19.1981V22.0489ZM32.5396 9.85574V12.7068L29.0447 11.2101V8.35937L32.5396 9.85574ZM34.9131 15.2619L38.4086 13.7655V16.6163L34.9131 18.113V15.2619ZM32.5396 18.1394L29.0447 16.6427V13.792L32.5396 15.2886V18.1394ZM29.0447 19.2246L32.5396 20.7212V23.5723L29.0447 22.0756V19.2246ZM38.4083 11.1837L34.9131 12.6804V9.82931L38.4083 8.33263V11.1837ZM38.1766 5.85005L34.9131 7.24746V3.34166C36.4187 3.47535 37.6766 4.48153 38.1766 5.85005ZM32.5396 3.34166V7.27389L29.2685 5.8731C29.7623 4.49352 31.0254 3.47596 32.5396 3.34166ZM29.0447 25.1759V24.6575L32.5396 26.1541V28.9978C30.5832 28.8245 29.0447 27.1757 29.0447 25.1759ZM34.9131 28.9978V26.1274L38.4086 24.6307V25.1759C38.4083 27.1757 36.8689 28.8245 34.9131 28.9978Z" fill="#444444"/>
</svg>
