   <svg width="40" height="30" viewBox="0 0 24 39" fill="none"
                                            xmlns="http://www.w3.org/2000/svg">
                                            <path fill-rule="evenodd" clip-rule="evenodd"
                                                d="M12.0009 1C13.4029 1 14.5394 2.08036 14.5394 3.41304V5.38721H14.8205C19.5413 5.38721 23 9.28855 23 13.6501C23 14.9827 21.8635 16.0631 20.4615 16.0631C19.0596 16.0631 17.9231 14.9827 17.9231 13.6501C17.9231 11.5501 16.3306 10.2133 14.8205 10.2133H14.5394V17.81L17.9667 18.9947C21.0812 20.0713 23 22.9993 23 26.1001C23 30.0472 19.8653 33.6125 15.5442 33.6125H14.5394V35.587C14.5394 36.9196 13.4029 38 12.0009 38C10.5989 38 9.46244 36.9196 9.46244 35.587V33.6125H9.17949C4.45868 33.6125 1 29.7112 1 25.3497C1 24.017 2.13651 22.9366 3.53846 22.9366C4.94042 22.9366 6.07692 24.017 6.07692 25.3497C6.07692 27.4497 7.66939 28.7864 9.17949 28.7864H9.46244V21.1903L6.03329 20.005C2.91877 18.9284 1 16.0005 1 12.8996C1 8.95255 4.13467 5.38721 8.45579 5.38721H9.46244V3.41304C9.46244 2.08036 10.5989 1 12.0009 1ZM9.46244 10.2133H8.45579C7.34538 10.2133 6.07692 11.2141 6.07692 12.8996C6.07692 14.1885 6.86692 15.1579 7.7683 15.4695L9.46244 16.0551V10.2133ZM14.5394 22.9453V28.7864H15.5442C16.6546 28.7864 17.9231 27.7857 17.9231 26.1001C17.9231 24.8112 17.1331 23.8418 16.2317 23.5303L14.5394 22.9453Z"
                                                stroke="#646464" stroke-width="2" stroke-linecap="round"
                                                stroke-linejoin="round" />
                                        </svg>