<svg width="39" height="34" viewBox="0 0 39 34" fill="none" xmlns="http://www.w3.org/2000/svg">
<path fill-rule="evenodd" clip-rule="evenodd" d="M36.9903 20.4077C37.6049 20.4077 38.1031 19.9219 38.1031 19.3224C38.1031 18.7229 37.6049 18.2371 36.9903 18.2371H33.6516V8.46926C33.6516 7.01822 32.642 5.82777 31.3517 5.39477V4.12801C31.3517 2.33272 29.854 0.87207 28.0131 0.87207C26.1722 0.87207 24.6745 2.33272 24.6745 4.12801V5.21332H22.4488V4.12801C22.4488 2.33272 20.951 0.87207 19.1102 0.87207C17.2693 0.87207 15.7715 2.33272 15.7715 4.12801V5.21332H13.5458V4.12801C13.5458 2.33272 12.0481 0.87207 10.2072 0.87207C8.36633 0.87207 6.86859 2.33272 6.86859 4.12801V5.39477C5.57575 5.82861 4.56866 7.01963 4.56866 8.46926V13.8958H2.34293V12.8105C2.34293 12.211 1.84474 11.7252 1.23006 11.7252C0.61537 11.7252 0.117188 12.211 0.117188 12.8105V21.493C0.117188 22.0925 0.61537 22.5783 1.23006 22.5783C1.84474 22.5783 2.34293 22.0925 2.34293 21.493V20.4077H4.56866V25.8343C4.56866 27.6335 6.13451 29.0902 7.98146 29.0902H17.9973V30.1755C17.9973 31.9708 19.495 33.4314 21.3359 33.4314H30.2388C32.0832 33.4314 33.6516 31.9779 33.6516 30.1755V29.0902H36.9903C37.6049 29.0902 38.1031 28.6044 38.1031 28.0049V23.6636C38.1031 23.0642 37.6049 22.5783 36.9903 22.5783H33.6516V20.4077H36.9903ZM26.9033 4.12805C26.9033 3.52971 27.4026 3.04273 28.0161 3.04273C28.6297 3.04273 29.129 3.52971 29.129 4.12805V5.21336H26.9033V4.12805ZM19.1144 3.04273C18.5009 3.04273 18.0016 3.52971 18.0016 4.12805V5.21336H20.2273V4.12805C20.2273 3.52971 19.728 3.04273 19.1144 3.04273ZM10.2127 3.04273C10.8263 3.04273 11.3256 3.52971 11.3256 4.12805V5.21336H9.09988V4.12805C9.09988 3.52971 9.59922 3.04273 10.2127 3.04273ZM30.2324 7.3836H7.975C7.34264 7.3836 6.78794 7.89065 6.78794 8.46891V9.55423H31.4194V8.46891C31.4194 7.89065 30.8648 7.3836 30.2324 7.3836ZM2.34813 18.2369V16.0663H4.57387V18.2369H2.34813ZM30.2324 31.2603C30.8648 31.2603 31.4194 30.7533 31.4194 30.175V24.7485H6.78794V25.8338C6.78794 26.412 7.34264 26.9191 7.975 26.9191H19.1037C19.7184 26.9191 20.2166 27.4049 20.2166 28.0044V30.175C20.2166 30.7733 20.7159 31.2603 21.3294 31.2603H30.2324ZM35.8808 26.9191H33.655V24.7485H35.8808V26.9191ZM6.78794 22.5781H31.4194V20.4074H14.6522C12.8113 20.4074 11.3136 18.9468 11.3136 17.1515V14.9809C11.3136 14.3814 11.8118 13.8956 12.4265 13.8956C13.0412 13.8956 13.5393 14.3814 13.5393 14.9809V17.1515C13.5393 17.7498 14.0387 18.2368 14.6522 18.2368H15.9564C15.8329 17.8971 15.7651 17.5319 15.7651 17.1515V14.9809C15.7651 14.3814 16.2633 13.8956 16.878 13.8956C17.4926 13.8956 17.9908 14.3814 17.9908 14.9809V17.1515C17.9908 17.7498 18.4902 18.2368 19.1037 18.2368H20.4078C20.2844 17.8971 20.2166 17.5319 20.2166 17.1515V14.9809C20.2166 14.3814 20.7147 13.8956 21.3294 13.8956C21.9441 13.8956 22.4423 14.3814 22.4423 14.9809V17.1515C22.4423 17.7498 22.9416 18.2368 23.5552 18.2368H24.8593C24.7359 17.8971 24.668 17.5319 24.668 17.1515V14.9809C24.668 14.3814 25.1662 13.8956 25.7809 13.8956C26.3956 13.8956 26.8938 14.3814 26.8938 14.9809V17.1515C26.8938 17.7498 27.3931 18.2368 28.0066 18.2368H31.4194V11.7249H6.78794V22.5781Z" fill="#444444"/>
</svg>
