<svg width="30" height="37" viewBox="0 0 30 37" fill="none" xmlns="http://www.w3.org/2000/svg">
<path d="M25.4152 5.85282V0.160156H1.70835V29.5932H0.460938V36.126H26.6626V29.5932H25.4152V26.6697C25.7475 26.7883 26.1053 26.8536 26.478 26.8536C28.2259 26.8536 29.6481 25.4314 29.6481 23.6835V7.79693L25.4152 5.85282ZM27.5407 9.14806V11.7507H25.4152V8.17175L27.5407 9.14806ZM23.3079 2.26753V14.7713H3.81573V2.26753H23.3079ZM24.5553 34.0187H2.56831V31.7006H24.5553V34.0187ZM3.81573 29.5932V16.8787H23.3079V29.5932H3.81573ZM26.478 24.7462C25.8919 24.7462 25.4152 24.2696 25.4152 23.6835V13.8581H27.5407V23.6835C27.5407 24.2696 27.0641 24.7462 26.478 24.7462Z" fill="#444444"/>
</svg>
