<svg width="41" height="41" viewBox="0 0 41 41" fill="none" xmlns="http://www.w3.org/2000/svg">
<path d="M34.8749 5.91181C31.0708 2.10773 26.0128 0.0126953 20.6331 0.0126953C15.2533 0.0126953 10.1954 2.10773 6.3913 5.91181C2.58723 9.71589 0.492188 14.7739 0.492188 20.1536C0.492188 25.5333 2.58723 30.5913 6.3913 34.3954C10.1954 38.1995 15.2533 40.2945 20.6331 40.2945C26.0128 40.2945 31.0708 38.1995 34.8749 34.3954C38.6789 30.5913 40.774 25.5333 40.774 20.1536C40.774 14.7739 38.6789 9.71589 34.8749 5.91181ZM20.6331 37.9342C10.8288 37.9342 2.85245 29.9579 2.85245 20.1536C2.85245 10.3493 10.8288 2.37296 20.6331 2.37296C30.4374 2.37296 38.4137 10.3493 38.4137 20.1536C38.4137 29.9579 30.4374 37.9342 20.6331 37.9342Z" fill="#444444"/>
</svg>
