<svg width="42" height="34" viewBox="0 0 42 34" fill="none" xmlns="http://www.w3.org/2000/svg">
<path fill-rule="evenodd" clip-rule="evenodd" d="M38.504 8.98879V24.8616C40.3369 25.3676 41.6836 27.0102 41.6836 28.9529C41.6836 31.2974 39.7224 33.2049 37.3116 33.2049C34.9008 33.2049 32.9396 31.2974 32.9396 28.9529C32.9396 27.0102 34.2863 25.3676 36.1192 24.8616V18.4683H22.4469V24.8616C24.2798 25.3676 25.6265 27.0102 25.6265 28.9529C25.6265 31.2974 23.6653 33.2049 21.2545 33.2049C18.8437 33.2049 16.8825 31.2974 16.8825 28.9529C16.8825 27.0102 18.2292 25.3676 20.0621 24.8616V18.4683H8.57014C6.1404 18.4683 4.164 16.55 4.164 14.1916V8.98879C2.33106 8.48276 0.984375 6.8402 0.984375 4.89747C0.984375 2.55298 2.94556 0.645508 5.35636 0.645508C7.76716 0.645508 9.72835 2.55298 9.72835 4.89747C9.72835 6.8399 8.38166 8.48246 6.54872 8.98849V14.1916C6.54872 15.2736 7.45541 16.1536 8.57014 16.1536H20.0621V8.98879C18.2292 8.48276 16.8825 6.8402 16.8825 4.89747C16.8825 2.55298 18.8437 0.645508 21.2545 0.645508C23.6653 0.645508 25.6265 2.55298 25.6265 4.89747C25.6265 6.8402 24.2798 8.48276 22.4469 8.98879V16.1536H36.1192V8.98879C34.2863 8.48276 32.9396 6.8402 32.9396 4.89747C32.9396 2.55298 34.9008 0.645508 37.3116 0.645508C39.7224 0.645508 41.6836 2.55298 41.6836 4.89747C41.6836 6.8402 40.3369 8.48276 38.504 8.98879ZM21.2545 2.96016C20.1587 2.96016 19.2672 3.82935 19.2672 4.89747C19.2672 5.96558 20.1587 6.83478 21.2545 6.83478C22.3503 6.83478 23.2418 5.96558 23.2418 4.89747C23.2418 3.82935 22.3503 2.96016 21.2545 2.96016ZM3.36909 4.89747C3.36909 3.82935 4.26057 2.96016 5.35636 2.96016C6.45215 2.96016 7.34363 3.82935 7.34363 4.89747C7.34363 5.96558 6.45215 6.83478 5.35636 6.83478C4.26057 6.83478 3.36909 5.96558 3.36909 4.89747ZM21.2545 30.8902C22.3503 30.8902 23.2418 30.021 23.2418 28.9529C23.2418 27.8848 22.3503 27.0156 21.2545 27.0156C20.1587 27.0156 19.2672 27.8848 19.2672 28.9529C19.2672 30.021 20.1587 30.8902 21.2545 30.8902ZM35.3243 4.89747C35.3243 3.82935 36.2158 2.96016 37.3116 2.96016C38.4074 2.96016 39.2989 3.82935 39.2989 4.89747C39.2989 5.96558 38.4074 6.83478 37.3116 6.83478C36.2158 6.83478 35.3243 5.96558 35.3243 4.89747ZM35.3243 28.9529C35.3243 30.021 36.2158 30.8902 37.3116 30.8902C38.4074 30.8902 39.2989 30.021 39.2989 28.9529C39.2989 27.8848 38.4074 27.0156 37.3116 27.0156C36.2158 27.0156 35.3243 27.8848 35.3243 28.9529Z" fill="#444444"/>
</svg>
