<svg width="24" height="41" viewBox="0 0 24 41" fill="none" xmlns="http://www.w3.org/2000/svg">
<path d="M17.1276 19.8234L17.4358 20.5331H23.4852V0.330078H0.351562V20.5331H6.40096L6.70921 19.8234C7.08384 18.9635 7.64164 18.2923 8.37799 17.8148V29.9059C6.92249 30.9892 5.97839 32.7222 5.97839 34.6719C5.97839 37.9471 8.64321 40.6119 11.9184 40.6119C15.1936 40.6119 17.8584 37.9471 17.8584 34.6719C17.8584 32.7222 16.9143 30.9892 15.4588 29.9059V17.8148C16.1951 18.2923 16.7529 18.9635 17.1276 19.8234ZM21.1249 9.56122H2.71182V7.30606H21.1249V9.56122ZM21.1249 2.69034V4.9458H2.71182V2.69034H21.1249ZM7.6109 15.5255C6.45505 16.1383 5.54506 17.0265 4.89814 18.1728H2.71182V11.9218H21.1249V18.1728H18.9386C18.292 17.0265 17.3823 16.1383 16.2259 15.5255C15.0236 14.8881 13.5746 14.5648 11.9184 14.5648C10.2622 14.5648 8.81316 14.8881 7.6109 15.5255ZM11.9184 38.2516C9.94443 38.2516 8.33865 36.6458 8.33865 34.6719C8.33865 33.343 9.06578 32.1819 10.1436 31.5642C10.6666 31.2636 11.2733 31.0922 11.9184 31.0922C12.5635 31.0922 13.1701 31.2636 13.6932 31.5642C14.7713 32.1819 15.4981 33.343 15.4981 34.6719C15.4981 36.6458 13.8923 38.2516 11.9184 38.2516ZM13.0985 28.8499C12.7171 28.7728 12.3219 28.7319 11.9184 28.7319C11.5149 28.7319 11.1199 28.7728 10.7382 28.8499V16.9991C11.1095 16.9493 11.5029 16.9251 11.9184 16.9251C12.3339 16.9251 12.7273 16.9493 13.0985 16.9991V28.8499Z" fill="#444444"/>
</svg>
