      <svg width="28" height="32" viewBox="0 0 43 43" fill="none"
                                    xmlns="http://www.w3.org/2000/svg">
                                    <path
                                        d="M38.795 16.5579C38.795 15.7295 38.1234 15.0579 37.295 15.0579C36.4666 15.0579 35.795 15.7295 35.795 16.5579H38.795ZM7.20498 16.5579C7.20498 15.7295 6.53341 15.0579 5.70498 15.0579C4.87655 15.0579 4.20498 15.7295 4.20498 16.5579H7.20498ZM26.9454 40.3654L26.6005 38.9056L26.9454 40.3654ZM16.0546 40.3654L16.3994 38.9056L16.0546 40.3654ZM27.6283 6.36416L26.5638 7.42105L27.6283 6.36416ZM39.9356 20.8879C40.5193 21.4758 41.469 21.4791 42.0569 20.8954C42.6448 20.3117 42.6481 19.362 42.0644 18.7741L39.9356 20.8879ZM15.3717 6.36416L16.4362 7.42105L15.3717 6.36416ZM0.935587 18.7741C0.351881 19.362 0.355247 20.3117 0.943106 20.8954C1.53096 21.4791 2.48071 21.4758 3.06441 20.8879L0.935587 18.7741ZM16.5566 35.194L15.0823 34.9173H15.0823L16.5566 35.194ZM16.5985 34.9707L18.0727 35.2475V35.2475L16.5985 34.9707ZM26.4015 34.9707L24.9273 35.2475L24.9273 35.2475L26.4015 34.9707ZM26.4434 35.194L27.9177 34.9173L27.9177 34.9173L26.4434 35.194ZM25.8155 40.0291L24.4611 39.3845H24.4611L25.8155 40.0291ZM24.2081 39.9162C23.8521 40.6642 24.1699 41.5592 24.9179 41.9152C25.666 42.2712 26.561 41.9534 26.917 41.2053L24.2081 39.9162ZM17.1845 40.0291L15.83 40.6737L15.83 40.6737L17.1845 40.0291ZM16.0831 41.2053C16.439 41.9534 17.334 42.2712 18.0821 41.9152C18.8301 41.5592 19.1479 40.6642 18.7919 39.9162L16.0831 41.2053ZM20.1156 31.1255L19.7146 29.6801L20.1156 31.1255ZM22.8844 31.1255L23.2854 29.6801H23.2854L22.8844 31.1255ZM35.795 16.5579V27.2143H38.795V16.5579H35.795ZM7.20498 27.2143V16.5579H4.20498V27.2143H7.20498ZM26.6005 38.9056C23.2456 39.6981 19.7543 39.6981 16.3994 38.9056L15.7097 41.8252C19.5182 42.7249 23.4818 42.7249 27.2902 41.8252L26.6005 38.9056ZM16.3994 38.9056C11.0199 37.6348 7.20498 32.7974 7.20498 27.2143H4.20498C4.20498 34.175 8.96316 40.2314 15.7097 41.8252L16.3994 38.9056ZM27.2902 41.8252C34.0368 40.2314 38.795 34.175 38.795 27.2143H35.795C35.795 32.7974 31.98 37.6348 26.6005 38.9056L27.2902 41.8252ZM26.5638 7.42105L39.9356 20.8879L42.0644 18.7741L28.6927 5.30727L26.5638 7.42105ZM14.3073 5.30727L0.935587 18.7741L3.06441 20.8879L16.4362 7.42105L14.3073 5.30727ZM28.6927 5.30727C27.2782 3.88271 26.1131 2.7048 25.0678 1.90163C23.9884 1.0722 22.8606 0.5 21.5 0.5V3.5C21.9343 3.5 22.4262 3.65516 23.2399 4.28045C24.0879 4.932 25.0895 5.93617 26.5638 7.42105L28.6927 5.30727ZM16.4362 7.42105C17.9105 5.93617 18.9121 4.932 19.7601 4.28045C20.5738 3.65516 21.0657 3.5 21.5 3.5V0.5C20.1394 0.5 19.0116 1.0722 17.9322 1.90163C16.8869 2.7048 15.7218 3.88271 14.3073 5.30727L16.4362 7.42105ZM18.0308 35.4707L18.0727 35.2475L15.1242 34.694L15.0823 34.9173L18.0308 35.4707ZM24.9273 35.2475L24.9692 35.4707L27.9177 34.9173L27.8758 34.694L24.9273 35.2475ZM24.4611 39.3845L24.2081 39.9162L26.917 41.2053L27.17 40.6737L24.4611 39.3845ZM15.83 40.6737L16.0831 41.2053L18.7919 39.9162L18.5389 39.3845L15.83 40.6737ZM24.9692 35.4707C25.2181 36.797 25.0398 38.1683 24.4611 39.3845L27.17 40.6737C28.0219 38.8835 28.2836 36.8669 27.9177 34.9173L24.9692 35.4707ZM15.0823 34.9173C14.7164 36.8669 14.9781 38.8835 15.83 40.6737L18.5389 39.3845C17.9602 38.1683 17.7819 36.797 18.0308 35.4707L15.0823 34.9173ZM20.5167 32.5709C21.1603 32.3923 21.8397 32.3923 22.4833 32.5709L23.2854 29.6801C22.117 29.3559 20.883 29.3559 19.7146 29.6801L20.5167 32.5709ZM27.8758 34.694C27.4233 32.2836 25.6462 30.3352 23.2854 29.6801L22.4833 32.5709C23.7324 32.9175 24.6842 33.9526 24.9273 35.2475L27.8758 34.694ZM18.0727 35.2475C18.3158 33.9526 19.2676 32.9175 20.5167 32.5709L19.7146 29.6801C17.3538 30.3352 15.5767 32.2836 15.1242 34.694L18.0727 35.2475Z"
                                        fill="#646464" />
                                </svg>