     <svg width="30" height="25" viewBox="0 0 34 40" fill="none"
                                        xmlns="http://www.w3.org/2000/svg">
                                        <path
                                            d="M9.37718 20.1405C8.77401 17.0691 8.77402 13.8726 9.37718 10.8011C10.2124 6.54816 12.9925 3.22741 16.553 2.2298C19.1244 1.50934 21.8004 1.50934 24.3718 2.2298C27.9323 3.22741 30.7124 6.54817 31.5476 10.8011C32.1508 13.8726 32.1508 17.0691 31.5476 20.1405C30.7124 24.3935 27.9323 27.7142 24.3718 28.7119C21.8004 29.4323 19.1244 29.4323 16.553 28.7119M9.37718 20.1405C10.2124 24.3935 12.9925 27.7142 16.553 28.7119M9.37718 20.1405C8.9974 18.2066 8.85675 16.2231 8.95522 14.2525C8.81597 14.2864 8.67703 14.3228 8.53845 14.3617C5.48656 15.2167 3.10362 18.0631 2.38775 21.7085C1.87075 24.3412 1.87075 27.081 2.38775 29.7137C3.10362 33.3591 5.48656 36.2055 8.53845 37.0606C10.7425 37.6781 13.0363 37.6781 15.2403 37.0606C18.2922 36.2055 20.6751 33.3591 21.391 29.7137C21.4235 29.5482 21.454 29.3822 21.4824 29.2159C19.8326 29.3335 18.172 29.1655 16.553 28.7119"
                                            stroke="#646464" stroke-width="3" />
                                    </svg>