        <svg width="62" height="62" viewBox="0 0 62 62" fill="none"
                                                    xmlns="http://www.w3.org/2000/svg">
                                                    <path
                                                        d="M5.59091 59C5.59091 60.3807 6.7102 61.5 8.09091 61.5C9.47162 61.5 10.5909 60.3807 10.5909 59L5.59091 59ZM56.4091 3C56.4091 1.61929 55.2898 0.499998 53.9091 0.499998C52.5284 0.499998 51.4091 1.61929 51.4091 3L56.4091 3ZM3 51.4091C1.61929 51.4091 0.5 52.5284 0.5 53.9091C0.5 55.2898 1.61929 56.4091 3 56.4091L3 51.4091ZM59.0001 10.5908C60.3808 10.5907 61.5 9.47139 61.5 8.09068C61.5 6.70997 60.3806 5.59071 58.9999 5.59075L59.0001 10.5908ZM10.5909 53.9091L10.5909 36.0909L5.59091 36.0909L5.59091 53.9091L10.5909 53.9091ZM36.0909 10.5909L53.9091 10.5909L53.9091 5.59091L36.0909 5.59091L36.0909 10.5909ZM51.4091 8.09091L51.4091 25.9091L56.4091 25.9091L56.4091 8.09091L51.4091 8.09091ZM25.9091 51.4091L8.09091 51.4091L8.09091 56.4091L25.9091 56.4091L25.9091 51.4091ZM51.4091 25.9091C51.4091 32.5794 51.4038 37.3307 50.9188 40.9378C50.4435 44.4729 49.5491 46.5325 48.0408 48.0408L51.5764 51.5764C54.1685 48.9842 55.3244 45.6936 55.8742 41.604C56.4144 37.5863 56.4091 32.4381 56.4091 25.9091L51.4091 25.9091ZM25.9091 56.4091C32.4381 56.4091 37.5863 56.4144 41.604 55.8742C45.6936 55.3244 48.9842 54.1685 51.5764 51.5764L48.0408 48.0408C46.5325 49.5491 44.4729 50.4435 40.9378 50.9188C37.3307 51.4038 32.5794 51.4091 25.9091 51.4091L25.9091 56.4091ZM10.5909 36.0909C10.5909 29.4206 10.5962 24.6693 11.0812 21.0622C11.5565 17.527 12.4508 15.4675 13.9592 13.9592L10.4236 10.4236C7.83147 13.0158 6.6756 16.3064 6.12576 20.396C5.5856 24.4137 5.59091 29.5619 5.59091 36.0909L10.5909 36.0909ZM36.0909 5.59091C29.5619 5.59091 24.4137 5.5856 20.396 6.12577C16.3064 6.6756 13.0158 7.83147 10.4236 10.4236L13.9592 13.9592C15.4675 12.4509 17.527 11.5565 21.0622 11.0812C24.6693 10.5962 29.4206 10.5909 36.0909 10.5909L36.0909 5.59091ZM10.5909 59L10.5909 53.9091L5.59091 53.9091L5.59091 59L10.5909 59ZM51.4091 3L51.4091 8.09091L56.4091 8.09091L56.4091 3L51.4091 3ZM3 56.4091L8.09091 56.4091L8.09091 51.4091L3 51.4091L3 56.4091ZM58.9999 5.59075L53.909 5.59091L53.9092 10.5909L59.0001 10.5908L58.9999 5.59075Z"
                                                        fill="#FAFAFA" fill-opacity="0.58" />
                                                </svg>