<svg width="120" height="79" viewBox="0 0 120 79" fill="none" xmlns="http://www.w3.org/2000/svg">
<path d="M115 15.6667H5C2.23858 15.6667 0 17.9053 0 20.6667V58.0001C0 60.7615 2.23858 63.0001 5 63.0001H115C117.761 63.0001 120 60.7615 120 58.0001V20.6667C120 17.9053 117.761 15.6667 115 15.6667Z" fill="#626262"/>
<path d="M3.33594 21.1667C3.33594 19.786 4.45524 18.6667 5.83594 18.6667H36.6693V59.3334H5.83594C4.45524 59.3334 3.33594 58.2141 3.33594 56.8334V21.1667Z" fill="#444444"/>
<path d="M3.33594 21.1667C3.33594 19.786 4.45524 18.6667 5.83594 18.6667H36.6693V31.6667H3.33594V21.1667Z" fill="url(#paint0_linear_3545_14149)"/>
<path d="M36.6693 59.3333H5.83594C4.45524 59.3333 3.33594 58.2139 3.33594 56.8333V46.3333H36.6693V59.3333Z" fill="url(#paint1_linear_3545_14149)"/>
<path d="M14.1562 33.0999V26.9666H24.4229V51.3332H17.5896V33.0999H14.1562Z" fill="white"/>
<path d="M73.3333 18.6667H40V59.3334H73.3333V18.6667Z" fill="#444444"/>
<path d="M73.3333 18.6667H40V31.6667H73.3333V18.6667Z" fill="url(#paint2_linear_3545_14149)"/>
<path d="M40.0026 59.3333L73.3359 59.3333V46.3333H40.0026V59.3333Z" fill="url(#paint3_linear_3545_14149)"/>
<path d="M48.2776 45.4334C50.4333 43.7444 52.1999 42.289 53.5776 41.0667C54.9556 39.8444 56.1109 38.589 57.0443 37.3C57.9776 35.989 58.4443 34.7444 58.4443 33.5667C58.4443 32.8556 58.2776 32.3 57.9443 31.9C57.6333 31.5 57.1666 31.3 56.5443 31.3C55.8999 31.3 55.3999 31.5778 55.0443 32.1334C54.6889 32.6667 54.5223 33.4557 54.5443 34.5H48.2109C48.2776 32.5223 48.7109 30.8889 49.5109 29.6C50.3109 28.2889 51.3556 27.3334 52.6443 26.7334C53.9333 26.1111 55.3666 25.8 56.9443 25.8C59.6776 25.8 61.7109 26.4778 63.0443 27.8334C64.3776 29.1889 65.0443 30.9445 65.0443 33.1C65.0443 35.411 64.2666 37.5777 62.7109 39.6C61.1776 41.6224 59.2556 43.4334 56.9443 45.0334H65.2776V50.3334H48.2776V45.4334Z" fill="white"/>
<path d="M83.3359 19H114.169C115.55 19 116.669 20.1193 116.669 21.5V57.1667C116.669 58.5473 115.55 59.6667 114.169 59.6667H83.3359V19Z" fill="#FBFBFB"/>
<mask id="mask0_3545_14149" style="mask-type:alpha" maskUnits="userSpaceOnUse" x="90" y="12" width="21" height="54">
<path d="M90.1797 32.6667V27.2667L100.413 12.6667H107.58V27.0001H110.146V32.6667H107.58V36.6667H100.98V32.6667H90.1797ZM101.48 20.0334L96.8797 27.0001H101.48V20.0334Z" fill="url(#paint4_linear_3545_14149)"/>
<path d="M108.114 47.0667H98.1135V50.7667C98.5359 50.3224 99.1135 49.9667 99.8469 49.7001C100.58 49.4334 101.392 49.3 102.28 49.3C103.88 49.3 105.214 49.6667 106.28 50.4C107.369 51.1334 108.169 52.1 108.68 53.3C109.192 54.5 109.447 55.811 109.447 57.2334C109.447 59.8557 108.703 61.9224 107.214 63.4334C105.725 64.9224 103.658 65.6667 101.014 65.6667C99.1692 65.6667 97.5692 65.3557 96.2135 64.7334C94.8802 64.089 93.8582 63.2 93.1469 62.0667C92.4359 60.9334 92.0692 59.6334 92.0469 58.1667H98.4135C98.4802 58.6777 98.7025 59.1224 99.0802 59.5C99.4582 59.8777 100.014 60.0667 100.747 60.0667C101.525 60.0667 102.114 59.8001 102.514 59.2667C102.914 58.7334 103.114 58.0224 103.114 57.1334C103.114 56.2667 102.903 55.611 102.48 55.1667C102.058 54.7 101.447 54.4667 100.647 54.4667C100.047 54.4667 99.5582 54.6224 99.1802 54.9334C98.8249 55.2224 98.6135 55.5891 98.5469 56.0334H92.1802V41.3H108.114V47.0667Z" fill="url(#paint5_linear_3545_14149)"/>
</mask>
<g mask="url(#mask0_3545_14149)">
<path d="M83.3359 19H114.169C115.55 19 116.669 20.1193 116.669 21.5V57.1667C116.669 58.5473 115.55 59.6667 114.169 59.6667H83.3359V19Z" fill="url(#paint6_linear_3545_14149)"/>
</g>
<path d="M116.669 57.1667C116.669 58.5474 115.55 59.6667 114.169 59.6667H83.3359V46.6667H116.669V57.1667Z" fill="url(#paint7_linear_3545_14149)"/>
<path d="M83.3359 19H114.169C115.55 19 116.669 20.1193 116.669 21.5V32H83.3359V19Z" fill="url(#paint8_linear_3545_14149)"/>
<defs>
<linearGradient id="paint0_linear_3545_14149" x1="20.0026" y1="18.6667" x2="20.0026" y2="31.6667" gradientUnits="userSpaceOnUse">
<stop stop-color="#D1C9C9"/>
<stop offset="1" stop-color="#383838" stop-opacity="0"/>
</linearGradient>
<linearGradient id="paint1_linear_3545_14149" x1="20.0026" y1="59.3333" x2="20.0026" y2="46.3333" gradientUnits="userSpaceOnUse">
<stop stop-color="#D1C9C9"/>
<stop offset="1" stop-color="#383838" stop-opacity="0"/>
</linearGradient>
<linearGradient id="paint2_linear_3545_14149" x1="56.6667" y1="18.6667" x2="56.6667" y2="31.6667" gradientUnits="userSpaceOnUse">
<stop stop-color="#D1C9C9"/>
<stop offset="1" stop-color="#383838" stop-opacity="0"/>
</linearGradient>
<linearGradient id="paint3_linear_3545_14149" x1="56.6693" y1="59.3333" x2="56.6693" y2="46.3333" gradientUnits="userSpaceOnUse">
<stop stop-color="#D1C9C9"/>
<stop offset="1" stop-color="#383838" stop-opacity="0"/>
</linearGradient>
<linearGradient id="paint4_linear_3545_14149" x1="80.166" y1="-4.08475" x2="115.406" y2="41.6831" gradientUnits="userSpaceOnUse">
<stop stop-color="#2F2F2F"/>
<stop offset="0.973958" stop-color="#151515"/>
</linearGradient>
<linearGradient id="paint5_linear_3545_14149" x1="80.1645" y1="37.9167" x2="111.71" y2="82.5444" gradientUnits="userSpaceOnUse">
<stop stop-color="#2F2F2F"/>
<stop offset="0.973958" stop-color="#151515"/>
</linearGradient>
<linearGradient id="paint6_linear_3545_14149" x1="80.1656" y1="14.9152" x2="115.405" y2="60.683" gradientUnits="userSpaceOnUse">
<stop stop-color="#2F2F2F"/>
<stop offset="0.973958" stop-color="#151515"/>
</linearGradient>
<linearGradient id="paint7_linear_3545_14149" x1="100.003" y1="59.6667" x2="100.003" y2="46.6667" gradientUnits="userSpaceOnUse">
<stop stop-color="#727171"/>
<stop offset="1" stop-color="white" stop-opacity="0"/>
</linearGradient>
<linearGradient id="paint8_linear_3545_14149" x1="100.003" y1="19" x2="100.003" y2="32" gradientUnits="userSpaceOnUse">
<stop stop-color="#727171"/>
<stop offset="1" stop-color="white" stop-opacity="0"/>
</linearGradient>
</defs>
</svg>
