               <svg width="20" height="20" viewBox="0 0 25 25" fill="none"
                                                xmlns="http://www.w3.org/2000/svg">
                                                <path
                                                    d="M11.259 15.2401C10.8393 15.5992 10.7902 16.2304 11.1492 16.6501C11.5083 17.0698 12.1395 17.1189 12.5592 16.7599L11.259 15.2401ZM16 12.5L16.6501 13.2599C16.8722 13.0699 17 12.7922 17 12.5C17 12.2078 16.8722 11.9301 16.6501 11.7401L16 12.5ZM12.5592 8.24015C12.1395 7.88111 11.5083 7.93025 11.1492 8.3499C10.7902 8.76956 10.8393 9.40081 11.259 9.75985L12.5592 8.24015ZM1 11.5C0.447715 11.5 0 11.9477 0 12.5C5.96046e-08 13.0523 0.447715 13.5 1 13.5L1 11.5ZM12.5592 16.7599L16.6501 13.2599L15.3499 11.7401L11.259 15.2401L12.5592 16.7599ZM16.6501 11.7401L12.5592 8.24015L11.259 9.75985L15.3499 13.2599L16.6501 11.7401ZM1 13.5L16 13.5V11.5L1 11.5L1 13.5Z"
                                                    fill="#646464" />
                                                <path
                                                    d="M1 5.3125V2.4375C1 1.64359 1.64359 1 2.4375 1H22.5625C23.3564 1 24 1.64359 24 2.4375V22.5625C24 23.3564 23.3564 24 22.5625 24H2.4375C1.64359 24 1 23.3564 1 22.5625V19.6875"
                                                    stroke="#646464" stroke-width="2" stroke-linecap="round"
                                                    stroke-linejoin="round" />
                                            </svg>