                              <svg width="25" height="20" viewBox="0 0 32 31" fill="none"
                                                xmlns="http://www.w3.org/2000/svg">
                                                <path
                                                    d="M2.28163 6.19939C2.73761 4.25545 4.25546 2.73761 6.19939 2.28162C6.98908 2.09639 7.81092 2.09639 8.60061 2.28162C10.5445 2.73761 12.0624 4.25546 12.5184 6.19939C12.7036 6.98908 12.7036 7.81092 12.5184 8.60061C12.0624 10.5445 10.5445 12.0624 8.60061 12.5184C7.81092 12.7036 6.98908 12.7036 6.1994 12.5184C4.25546 12.0624 2.73761 10.5445 2.28163 8.60061C2.09639 7.81092 2.09639 6.98908 2.28163 6.19939Z"
                                                    fill="white" stroke="white" stroke-width="3" />
                                                <path
                                                    d="M2.28163 22.9992C2.73761 21.0553 4.25546 19.5374 6.19939 19.0814C6.98908 18.8962 7.81092 18.8962 8.60061 19.0814C10.5445 19.5374 12.0624 21.0553 12.5184 22.9992C12.7036 23.7889 12.7036 24.6107 12.5184 25.4004C12.0624 27.3444 10.5445 28.8622 8.60061 29.3182C7.81092 29.5034 6.98908 29.5034 6.1994 29.3182C4.25546 28.8622 2.73761 27.3444 2.28163 25.4004C2.09639 24.6107 2.09639 23.7889 2.28163 22.9992Z"
                                                    fill="white" stroke="white" stroke-width="3" />
                                                <path
                                                    d="M20.1248 5.8887C20.5019 4.13464 21.8389 2.74488 23.577 2.3001C24.3465 2.10321 25.1531 2.10321 25.9226 2.3001C27.6607 2.74488 28.9977 4.13464 29.3748 5.8887L29.4573 6.27227C29.6171 7.0156 29.6171 7.7844 29.4573 8.52773L29.3748 8.9113C28.9977 10.6654 27.6607 12.0551 25.9226 12.4999C25.1531 12.6968 24.3465 12.6968 23.577 12.4999C21.8389 12.0551 20.5019 10.6654 20.1248 8.9113L20.0423 8.52773C19.8825 7.78441 19.8825 7.0156 20.0423 6.27227L20.1248 5.8887Z"
                                                    fill="white" stroke="white" stroke-width="3" />
                                                <path
                                                    d="M20.1248 22.6885C20.5019 20.9344 21.8389 19.5447 23.577 19.0999C24.3465 18.903 25.1531 18.903 25.9226 19.0999C27.6607 19.5447 28.9977 20.9344 29.3748 22.6885L29.4573 23.0721C29.6171 23.8154 29.6171 24.5842 29.4573 25.3275L29.3748 25.7111C28.9977 27.4652 27.6607 28.8549 25.9226 29.2997C25.1531 29.4966 24.3465 29.4966 23.577 29.2997C21.8389 28.8549 20.5019 27.4652 20.1248 25.7111L20.0423 25.3275C19.8825 24.5842 19.8825 23.8154 20.0423 23.0721L20.1248 22.6885Z"
                                                    fill="white" stroke="white" stroke-width="3" />
                                            </svg>
