         <svg width="80" height="116" viewBox="0 0 116 116" fill="none"
                            xmlns="http://www.w3.org/2000/svg">
                            <circle cx="58" cy="58" r="55" stroke="white" stroke-width="5" />
                            <path
                                d="M22.2917 70.9968C20.2407 65.3616 19.5524 59.3211 20.2832 53.369C21.0141 47.4169 23.1432 41.7222 26.4966 36.7506C29.85 31.7791 34.3323 27.6717 39.5773 24.7644C44.8222 21.8571 50.6807 20.2324 56.6739 20.0231C62.667 19.8139 68.6246 21.026 74.0596 23.5603C79.4945 26.0947 84.2525 29.8794 87.9445 34.6049C91.6364 39.3305 94.1576 44.8627 95.3019 50.7494C96.4461 56.636 96.1809 62.7098 94.5279 68.4743"
                                stroke="white" stroke-width="3" stroke-linecap="round" stroke-linejoin="round"
                                stroke-dasharray="5 5" />
                            <path
                                d="M72.3717 47.2295L63.9841 52.2946C61.0135 54.0411 57.8681 55.613 54.8977 57.0104C54.0239 57.3598 52.9754 57.8837 51.927 58.4077C48.2574 60.329 46.3352 64.346 47.209 68.3632C47.9079 71.507 50.529 74.1269 53.6743 74.8254C54.3732 75 55.0723 75 55.7712 75C59.0913 75 62.0619 73.0787 63.6346 70.1097C63.9841 69.2363 64.5084 68.1884 65.0326 67.1404C66.6053 64.1712 68.0033 61.0273 69.7506 58.0583L74.8182 49.6748C75.1677 48.9762 74.9928 48.2774 74.4686 47.5789C73.9444 46.8801 73.0706 46.8801 72.3717 47.2295ZM66.7799 56.137C64.8577 59.2808 63.285 62.4247 61.8872 65.5685C61.5377 66.6164 61.0135 67.4898 60.4893 68.5377C59.4408 70.8082 56.9944 71.8562 54.5481 71.3322C52.6259 70.9828 51.0532 69.4109 50.7039 67.4898C50.1797 65.0445 51.2281 62.5995 53.4997 61.5515C54.3734 61.0276 55.4219 60.6782 56.4703 60.1542C59.6157 58.5823 62.9357 57.0104 65.9064 55.2639L68.1779 53.8665L66.7799 56.137Z"
                                fill="white" />
                        </svg>