<svg width="101" height="33" viewBox="0 0 101 33" fill="none" xmlns="http://www.w3.org/2000/svg">
<path d="M84.3442 29.7635H97.4973C97.8455 29.7746 98.1925 29.7156 98.5175 29.59C98.8425 29.4644 99.139 29.2747 99.3892 29.0322C99.6395 28.7898 99.8384 28.4995 99.9742 28.1786C100.11 27.8577 100.18 27.5127 100.18 27.1643V2.80986C100.153 2.09993 99.8461 1.42951 99.3259 0.945698C98.8057 0.461888 98.1148 0.204209 97.4048 0.229201H84.2517C83.9112 0.221572 83.5726 0.283179 83.2566 0.410288C82.9405 0.537397 82.6536 0.72736 82.4132 0.968661C82.1727 1.20996 81.9838 1.49758 81.8578 1.81407C81.7319 2.13056 81.6715 2.46934 81.6803 2.80986V27.1643C81.6815 27.5108 81.7516 27.8536 81.8867 28.1726C82.0218 28.4917 82.2191 28.7806 82.4671 29.0226C82.7151 29.2646 83.0088 29.4547 83.3311 29.5819C83.6534 29.7091 83.9978 29.7708 84.3442 29.7635ZM97.4973 2.01439C97.6045 2.01069 97.7114 2.02845 97.8116 2.06665C97.9119 2.10485 98.0035 2.16271 98.081 2.23683C98.1586 2.31094 98.2205 2.39982 98.2633 2.49823C98.306 2.59663 98.3286 2.70259 98.3297 2.80986V27.1643C98.3297 27.3777 98.245 27.5824 98.0941 27.7333C97.9431 27.8842 97.7385 27.969 97.525 27.969H84.3442C84.1228 27.972 83.9086 27.8904 83.7453 27.7408C83.5821 27.5913 83.482 27.3851 83.4655 27.1643V2.80986C83.4842 2.59072 83.5853 2.3868 83.7483 2.23919C83.9114 2.09158 84.1243 2.01125 84.3442 2.01439H97.4973Z" fill="#444444"/>
<path d="M75.6373 29.7632C76.0647 29.7669 76.4887 29.6858 76.8847 29.5248C77.2807 29.3637 77.6408 29.1259 77.9444 28.8249C78.248 28.5239 78.4889 28.1658 78.6533 27.7712C78.8178 27.3766 78.9024 26.9533 78.9024 26.5258V19.5886C78.9024 19.0979 79.0973 18.6274 79.4442 18.2805C79.7912 17.9335 80.2617 17.7386 80.7523 17.7386H82.075C82.3203 17.7386 82.5556 17.6412 82.7291 17.4677C82.9025 17.2942 83 17.059 83 16.8137C83 16.5683 82.9025 16.3331 82.7291 16.1596C82.5556 15.9861 82.3203 15.8887 82.075 15.8887H80.7523C79.7711 15.8887 78.83 16.2785 78.1361 16.9724C77.4423 17.6662 77.0525 18.6073 77.0525 19.5886V26.5258C77.0525 26.8938 76.9063 27.2467 76.6461 27.5069C76.3859 27.7671 76.033 27.9133 75.665 27.9133C75.297 27.9133 74.9441 27.7671 74.6839 27.5069C74.4237 27.2467 74.2775 26.8938 74.2775 26.5258V14.3162L77.1727 7.84146C77.3457 7.48065 77.6173 7.17621 77.9562 6.9634C78.295 6.75059 78.6872 6.63812 79.0874 6.639H79.7626C80.0079 6.639 80.2432 6.54155 80.4167 6.36808C80.5901 6.19462 80.6876 5.95935 80.6876 5.71403C80.6876 5.46871 80.5901 5.23345 80.4167 5.05998C80.2432 4.88651 80.0079 4.78906 79.7626 4.78906H79.0874C78.3183 4.78867 77.5656 5.01126 76.9204 5.42989C76.2752 5.84851 75.7653 6.44522 75.4523 7.14773L72.4831 13.7705C72.4288 13.8896 72.4005 14.0189 72.3999 14.1497V26.5258C72.3999 27.3844 72.7409 28.2079 73.3481 28.815C73.9552 29.4221 74.7786 29.7632 75.6373 29.7632Z" fill="#444444"/>
<path d="M86.3019 6.639H95.5516C95.7969 6.639 96.0322 6.54155 96.2056 6.36808C96.3791 6.19462 96.4766 5.95935 96.4766 5.71403C96.4766 5.46871 96.3791 5.23344 96.2056 5.05998C96.0322 4.88651 95.7969 4.78906 95.5516 4.78906H86.3019C86.0566 4.78906 85.8213 4.88651 85.6479 5.05998C85.4744 5.23344 85.3769 5.46871 85.3769 5.71403C85.3769 5.95935 85.4744 6.19462 85.6479 6.36808C85.8213 6.54155 86.0566 6.639 86.3019 6.639Z" fill="#444444"/>
<path d="M86.3019 10.3363H95.5516C95.7969 10.3363 96.0322 10.2388 96.2056 10.0653C96.3791 9.89188 96.4766 9.65661 96.4766 9.4113C96.4766 9.16598 96.3791 8.93071 96.2056 8.75725C96.0322 8.58378 95.7969 8.48633 95.5516 8.48633H86.3019C86.0566 8.48633 85.8213 8.58378 85.6479 8.75725C85.4744 8.93071 85.3769 9.16598 85.3769 9.4113C85.3769 9.65661 85.4744 9.89188 85.6479 10.0653C85.8213 10.2388 86.0566 10.3363 86.3019 10.3363Z" fill="#444444"/>
</svg>
