<svg width="41" height="37" viewBox="0 0 41 37" fill="none" xmlns="http://www.w3.org/2000/svg">
<path d="M10.1891 20.446L10.1813 20.446L10.1735 20.4452C9.70309 20.3985 9.24771 20.2537 8.83673 20.0203C8.42904 19.7887 8.07402 19.475 7.79419 19.099L1.20407 12.5138C1.00307 12.3381 0.840298 12.1231 0.72588 11.8819C0.610701 11.6392 0.547009 11.3753 0.538811 11.1067L0.5385 11.1068L0.538828 11.0971C0.558336 10.5204 0.794268 9.97209 1.19971 9.56122L1.19968 9.5612L1.20218 9.55877C1.20496 9.55609 1.21947 9.54222 1.24478 9.51803C1.50411 9.27013 2.89745 7.93827 4.42325 6.44535C6.09735 4.80732 7.91953 2.98638 8.57902 2.192C8.79315 1.88521 9.07058 1.62781 9.39263 1.43714C9.71657 1.24535 10.0781 1.12559 10.4525 1.08598L10.4524 1.08556L10.4637 1.08522C10.7118 1.07774 10.9589 1.12009 11.1903 1.20975C11.4217 1.29942 11.6327 1.43458 11.8109 1.60723L11.8109 1.60722L11.8126 1.60886L18.3848 8.17662C19.1221 8.77231 19.6229 9.61111 19.7973 10.5426L19.7988 10.5505L19.7994 10.5585C19.8242 10.8746 19.7815 11.1923 19.6742 11.4907C19.5669 11.789 19.3974 12.0612 19.177 12.2893L18.623 12.8642L18.623 12.8642L18.6209 12.8663C18.2294 13.2566 17.7045 13.4842 17.1518 13.5031L17.1518 13.5032L17.1471 13.5032C16.4914 13.5052 15.8559 13.2845 15.3439 12.8796L12.3073 15.9304C12.7399 16.3976 12.9981 17.0018 13.0349 17.6404L13.0351 17.6404L13.0351 17.6484C13.0364 17.9465 12.9786 18.2418 12.8652 18.5174C12.7519 18.7931 12.5851 19.0436 12.3745 19.2546L12.3684 19.2607L12.3616 19.2661L11.4223 20.0123C11.0715 20.2911 10.6372 20.4438 10.1891 20.446ZM15.1805 11.4273L15.2825 11.3211L15.3906 11.4212L15.6886 11.6971C16.3596 12.3181 16.875 12.4157 17.2161 12.3714C17.5643 12.3261 17.7692 12.1282 17.8051 12.0907L17.8055 12.0903L18.3559 11.52L18.3559 11.52L18.357 11.5188C18.469 11.4054 18.5555 11.2695 18.6107 11.1201C18.6652 10.9728 18.6881 10.8158 18.678 10.6591C18.6088 10.244 18.4276 9.85656 18.1553 9.53792L18.1544 9.53873L18.0484 9.43276L11.0141 2.40262C10.9445 2.33785 10.8627 2.2875 10.7735 2.25448C10.6865 2.2223 10.5941 2.20721 10.5015 2.21002C10.2926 2.24816 10.0933 2.32743 9.91524 2.44323C9.73438 2.56086 9.57916 2.71377 9.45888 2.89278L9.45469 2.89902L9.4499 2.9048C8.76618 3.73033 6.95695 5.54123 5.29609 7.16758C3.64465 8.78472 2.13052 10.2284 1.98978 10.3623C1.80049 10.5633 1.68612 10.8232 1.66569 11.0983C1.67432 11.2124 1.70576 11.3237 1.75818 11.4255C1.81208 11.5302 1.88701 11.6226 1.97829 11.697L1.98418 11.7018L1.98955 11.7072L8.63193 18.3484L8.64175 18.3583L8.6496 18.3697C8.64881 18.3686 8.65031 18.3704 8.654 18.3749C8.67177 18.3964 8.74033 18.4796 8.84974 18.5908C8.9796 18.7228 9.16049 18.8875 9.3702 19.0269C9.79651 19.3104 10.2881 19.4591 10.7295 19.1253L11.6217 18.4187C11.8054 18.2133 11.9074 17.9478 11.9087 17.6724C11.8779 17.4147 11.795 17.1658 11.6648 16.9411C11.5333 16.7139 11.3564 16.5161 11.145 16.3602L11.1446 16.3608L11.1342 16.3514L10.8087 16.0608L10.6902 15.9551L10.8025 15.8428L14.2583 12.3877L15.1805 11.4273Z" fill="#444444" stroke="#444444" stroke-width="0.3"/>
<path d="M12.9597 3.3371L13.0659 3.44321L12.9597 3.54932L2.99612 13.5059L2.89009 13.6119L2.78407 13.5059L2.19952 12.9219L2.09333 12.8158L2.19951 12.7097L12.1631 2.75303L12.2691 2.64708L12.3751 2.75302L12.9597 3.3371ZM29.4185 26.5525L29.5247 26.6586L29.4185 26.7647L28.834 27.3488L28.728 27.4547L28.6219 27.3488L14.4699 13.2073L14.3637 13.1012L14.4699 12.9951L15.0544 12.411L15.1604 12.305L15.2665 12.411L29.4185 26.5525ZM26.4864 28.631L26.5926 28.7371L26.4864 28.8432L25.9019 29.4273L25.7958 29.5332L25.6898 29.4273L11.9638 15.7115L11.8576 15.6054L11.9638 15.4993L12.5483 14.9152L12.6544 14.8092L12.7604 14.9152L26.4864 28.631Z" fill="#444444" stroke="#444444" stroke-width="0.3"/>
<path d="M30.3711 36.2873L30.3709 36.2873C28.9943 36.2858 27.6745 35.7386 26.7011 34.7659C25.7277 33.7932 25.1801 32.4744 25.1786 31.0987V31.0985C25.1785 30.0722 25.483 29.0689 26.0536 28.2156C26.6242 27.3622 27.4352 26.6971 28.3841 26.3043C29.3329 25.9116 30.377 25.8088 31.3843 26.009C32.3916 26.2092 33.3169 26.7034 34.0431 27.4291C34.7693 28.1548 35.2639 29.0794 35.4643 30.0861C35.6647 31.0927 35.5618 32.136 35.1687 33.0842C34.7756 34.0324 34.11 34.8428 33.256 35.413C32.4021 35.9831 31.3981 36.2874 30.3711 36.2873ZM32.6308 27.7191C31.9619 27.2726 31.1756 27.0342 30.3712 27.0343C29.2929 27.0357 28.2592 27.4644 27.4967 28.2264C26.7343 28.9883 26.3054 30.0213 26.3041 31.0987C26.3042 31.9024 26.5427 32.6881 26.9896 33.3563C27.4366 34.0246 28.0718 34.5455 28.815 34.8531C29.5582 35.1607 30.376 35.2411 31.165 35.0843C31.954 34.9274 32.6787 34.5403 33.2474 33.9719C33.8162 33.4034 34.2035 32.6793 34.3604 31.8909C34.5173 31.1026 34.4367 30.2855 34.1288 29.5429C33.821 28.8003 33.2996 28.1656 32.6308 27.7191Z" fill="#444444" stroke="#444444" stroke-width="0.3"/>
<path d="M30.37 33.6507H30.3699C29.6929 33.65 29.0438 33.381 28.5651 32.9026C28.0863 32.4242 27.8171 31.7756 27.8164 31.099V31.0988C27.8164 30.5941 27.9662 30.1007 28.2468 29.6811C28.5274 29.2614 28.9263 28.9344 29.3929 28.7413C29.8595 28.5481 30.3729 28.4976 30.8682 28.5961C31.3635 28.6945 31.8185 28.9376 32.1757 29.2944C32.5328 29.6513 32.776 30.106 32.8746 30.601C32.9731 31.096 32.9225 31.6091 32.7292 32.0754C32.5359 32.5417 32.2086 32.9403 31.7887 33.2206C31.3687 33.501 30.875 33.6507 30.37 33.6507ZM31.1272 20.1042L31.1254 20.1041C30.5509 20.097 30.0005 19.872 29.5859 19.4746L29.5855 19.4743L29.0105 18.9201L29.0105 18.9201L29.0086 18.9182C28.6172 18.5276 28.3892 18.0028 28.3707 17.4502L28.3706 17.4502L28.3706 17.4455C28.3695 16.7904 28.5904 16.1557 28.9951 15.6439L25.9415 12.609C25.4743 13.0417 24.8696 13.2997 24.2305 13.3361L24.2305 13.3363L24.224 13.3363L24.1879 13.3368V13.3369L24.184 13.3368C23.5948 13.3291 23.0317 13.0924 22.6141 12.6768L22.6079 12.6706L22.6025 12.6638L21.8566 11.7251L21.8566 11.7251L21.8548 11.7227C21.2997 10.9946 21.3465 10.2225 21.6222 9.57194C21.8933 8.93212 22.3885 8.39834 22.7694 8.1004L29.3608 1.51479C29.5366 1.31393 29.7518 1.15129 29.9931 1.03697C30.236 0.921891 30.5001 0.858259 30.7687 0.85007L30.7687 0.85H30.7733H30.7913V0.849857L30.7979 0.850143C31.3678 0.875046 31.9083 1.11005 32.3151 1.50982L32.3152 1.50977L32.3185 1.51327C32.3472 1.54339 33.794 3.05867 35.4334 4.73163C37.0727 6.40442 38.895 8.22499 39.6899 8.88376C39.9971 9.09766 40.2548 9.37493 40.4457 9.69689L40.3166 9.77338L40.4457 9.69689C40.6376 10.0207 40.7574 10.3822 40.7968 10.7565L40.7973 10.7564L40.7976 10.7677C40.805 11.0155 40.7626 11.2623 40.6729 11.4934C40.5831 11.7245 40.4479 11.9352 40.2751 12.1131L40.2736 12.1148L33.6985 18.6849C33.1028 19.4207 32.2642 19.9203 31.3332 20.094L31.326 20.0953L31.3187 20.096C31.2543 20.1016 31.1911 20.1041 31.1272 20.1042ZM32.3346 18.4566L32.3343 18.4563L32.4446 18.346L39.4826 11.3138C39.6053 11.1759 39.6728 10.9978 39.6723 10.8134C39.6361 10.6033 39.5578 10.4026 39.442 10.2234C39.3242 10.041 39.1702 9.88476 38.9894 9.7644L38.9829 9.76007L38.9769 9.7551C38.151 9.07169 36.3389 7.26385 34.7111 5.60405C33.0935 3.95464 31.6488 2.44211 31.5124 2.2991C31.3125 2.11365 31.0566 1.99983 30.785 1.97551C30.6686 1.98304 30.555 2.01431 30.4512 2.0674C30.3458 2.12134 30.2527 2.19662 30.1779 2.28845L30.1731 2.29444L30.1676 2.29989L23.5214 8.93641L23.5144 8.94342L23.5066 8.94944L23.5063 8.94965C23.5006 8.95421 23.4066 9.02929 23.2791 9.15483C23.1469 9.28495 22.982 9.46603 22.8424 9.67581C22.5584 10.1024 22.41 10.5933 22.7444 11.0329C22.7447 11.0332 22.745 11.0336 22.7452 11.034L23.4474 11.9199C23.6672 12.086 23.9294 12.1868 24.204 12.2107C24.4599 12.1791 24.7069 12.0962 24.9301 11.967C25.1575 11.8354 25.3554 11.6585 25.5115 11.4473L25.5157 11.4416L25.5204 11.4363L25.8118 11.1115L25.9175 10.9937L26.0294 11.1056L29.4862 14.5588L30.4482 15.4813L30.5548 15.5835L30.4543 15.6916L30.1782 15.9889C29.5567 16.6584 29.4589 17.1729 29.5031 17.5135C29.5482 17.8612 29.7461 18.0662 29.7841 18.1027L29.7842 18.1029L30.3555 18.6533L30.3568 18.6546C30.4701 18.7665 30.6061 18.853 30.7556 18.9081C30.9031 18.9625 31.0603 18.9853 31.2171 18.9748C31.6306 18.9063 32.0167 18.7267 32.3346 18.4566ZM31.1634 29.9125C30.9286 29.7557 30.6526 29.672 30.3702 29.672C29.9915 29.6724 29.6285 29.8229 29.3607 30.0905C29.093 30.358 28.9424 30.7207 28.942 31.099C28.942 31.3811 29.0258 31.6569 29.1826 31.8915C29.3395 32.1261 29.5626 32.309 29.8235 32.4171C30.0844 32.5251 30.3716 32.5533 30.6486 32.4983C30.9257 32.4432 31.1801 32.3073 31.3798 32.1077C31.5795 31.9082 31.7155 31.6539 31.7706 31.3772C31.8257 31.1004 31.7974 30.8136 31.6893 30.5528C31.5813 30.2921 31.3983 30.0693 31.1634 29.9125Z" fill="#444444" stroke="#444444" stroke-width="0.3"/>
<path d="M39.1217 12.4638L39.2278 12.5699L39.1217 12.676L38.5371 13.2601L38.4311 13.3661L38.3251 13.2601L28.361 3.30348L28.2548 3.19738L28.361 3.09127L28.9456 2.50718L29.0516 2.40123L29.1576 2.50718L39.1217 12.4638ZM29.4566 15.3937L29.5628 15.4997L29.4566 15.6059L23.5629 21.4975L23.4569 21.6035L23.3509 21.4976L22.7667 20.9141L22.6605 20.808L22.7666 20.7019L28.6603 14.8102L28.7663 14.7042L28.8724 14.8102L29.4566 15.3937ZM26.9097 12.8482L27.0159 12.9543L26.9097 13.0605L21.0151 18.9521L20.909 19.0581L20.803 18.9522L20.2189 18.3686L20.1127 18.2625L20.2188 18.1564L26.1135 12.2647L26.2195 12.1588L26.3255 12.2647L26.9097 12.8482ZM21.0141 23.8303L21.1203 23.9364L21.0141 24.0426L15.6272 29.4269L15.5211 29.5329L15.4151 29.427L14.831 28.8434L14.7248 28.7373L14.8309 28.6312L20.2179 23.2468L20.3239 23.1409L20.43 23.2468L21.0141 23.8303ZM18.4672 21.2844L18.5734 21.3905L18.4672 21.4966L13.1467 26.8146L13.0407 26.9206L12.9346 26.8147L12.3505 26.2311L12.2443 26.125L12.3505 26.0189L17.671 20.7009L17.777 20.5949L17.8831 20.7009L18.4672 21.2844Z" fill="#444444" stroke="#444444" stroke-width="0.3"/>
<path d="M10.7617 35.8462H10.7615C9.38494 35.8446 8.06514 35.2975 7.09171 34.3248C6.11827 33.3521 5.57071 32.0332 5.56919 30.6576V30.6574C5.56914 29.6311 5.87367 28.6278 6.44425 27.7744C7.01484 26.9211 7.82584 26.2559 8.77469 25.8632C9.72353 25.4704 10.7676 25.3677 11.7749 25.5679C12.7822 25.7681 13.7075 26.2623 14.4337 26.988C15.16 27.7137 15.6546 28.6383 15.8549 29.6449C16.0553 30.6515 15.9524 31.6949 15.5593 32.6431C15.1663 33.5913 14.5007 34.4017 13.6467 34.9718C12.7927 35.5419 11.7887 35.8462 10.7617 35.8462ZM13.0214 27.2779C12.3525 26.8314 11.5662 26.5931 10.7618 26.5931C9.68346 26.5945 8.64972 27.0232 7.8873 27.7852C7.12486 28.5471 6.696 29.5801 6.69474 30.6576C6.69482 31.4613 6.93339 32.2469 7.38028 32.9152C7.82722 33.5835 8.46245 34.1044 9.20566 34.4119C9.94887 34.7195 10.7667 34.8 11.5557 34.6431C12.3446 34.4862 13.0693 34.0991 13.6381 33.5307C14.2068 32.9623 14.5942 32.2381 14.751 31.4498C14.9079 30.6614 14.8273 29.8443 14.5195 29.1017C14.2116 28.3592 13.6903 27.7245 13.0214 27.2779Z" fill="#444444" stroke="#444444" stroke-width="0.3"/>
<path d="M10.76 33.2102H10.7598C10.0829 33.2095 9.43378 32.9405 8.95505 32.4621C8.47632 31.9838 8.20706 31.3351 8.2064 30.6585V30.6584C8.20635 30.1536 8.3561 29.6601 8.63672 29.2404C8.91733 28.8207 9.31619 28.4936 9.78284 28.3004C10.2495 28.1072 10.763 28.0567 11.2584 28.1551C11.7538 28.2536 12.2088 28.4966 12.566 28.8535C12.9232 29.2105 13.1665 29.6652 13.265 30.1603C13.3635 30.6554 13.3129 31.1686 13.1196 31.6349C12.9263 32.1013 12.5989 32.4998 12.1789 32.7802C11.7588 33.0606 11.2651 33.2102 10.76 33.2102ZM11.5536 29.4715C11.3187 29.3147 11.0426 29.231 10.7601 29.2311C10.3814 29.2316 10.0184 29.3822 9.75067 29.6498C9.48298 29.9174 9.33242 30.2801 9.33197 30.6584C9.33201 30.9406 9.41581 31.2165 9.57277 31.4511C9.72973 31.6858 9.95282 31.8687 10.2138 31.9767C10.4748 32.0847 10.7621 32.1129 11.0391 32.0578C11.3162 32.0027 11.5707 31.8667 11.7704 31.6671C11.9701 31.4674 12.1061 31.2131 12.1611 30.9363C12.2162 30.6595 12.1879 30.3726 12.0797 30.1118C11.9716 29.8511 11.7885 29.6282 11.5536 29.4715Z" fill="#444444" stroke="#444444" stroke-width="0.3"/>
</svg>
