   <svg width="108" height="55" viewBox="0 0 118 55" fill="none"
                                                            xmlns="http://www.w3.org/2000/svg">
                                                            <path
                                                                d="M114.077 12.1798C113.631 12.1836 113.19 12.2742 112.779 12.4464V6.01776C112.779 5.28512 112.635 4.55967 112.355 3.88298C112.076 3.20629 111.666 2.59165 111.149 2.07428C110.633 1.55691 110.02 1.14698 109.345 0.867956C108.67 0.588935 107.948 0.446313 107.218 0.448262H44.0291C42.0151 0.452142 40.0372 0.986235 38.2929 1.99727C36.5485 3.00831 35.0985 4.46095 34.0876 6.21032L27.8779 17.0234H16.2254C12.0158 17.043 7.98513 18.7351 5.01402 21.7299C2.04292 24.7247 0.372993 28.7787 0.369141 33.0061V42.5454H13.6441C14.0195 45.7931 15.5702 48.7891 18.0014 50.9637C20.4326 53.1383 23.5749 54.3398 26.8306 54.3398C30.0864 54.3398 33.2286 53.1383 35.6599 50.9637C38.0911 48.7891 39.6418 45.7931 40.0171 42.5454H74.1339C74.5092 45.7931 76.0599 48.7891 78.4911 50.9637C80.9224 53.1383 84.0646 54.3398 87.3204 54.3398C90.5761 54.3398 93.7184 53.1383 96.1496 50.9637C98.5809 48.7891 100.132 45.7931 100.507 42.5454H112.779V33.5246C113.191 33.6917 113.632 33.7772 114.077 33.7764C115.012 33.7764 115.908 33.4034 116.57 32.7395C117.231 32.0756 117.602 31.1751 117.602 30.2362V15.7199C117.598 14.7822 117.226 13.884 116.565 13.221C115.905 12.5579 115.011 12.1837 114.077 12.1798ZM110.625 6.01776V17.0234H87.8219V2.67014H107.218C107.662 2.66229 108.102 2.74297 108.514 2.9075C108.926 3.07203 109.302 3.31714 109.619 3.62858C109.936 3.94002 110.188 4.3116 110.361 4.72175C110.534 5.13189 110.623 5.57242 110.625 6.01776ZM57.6729 17.0234V2.67014H85.5504V17.0234H57.6729ZM36.0051 7.32126C36.8206 5.90886 37.9908 4.73602 39.3988 3.91985C40.8068 3.10369 42.4034 2.67277 44.0291 2.67014H55.4604V17.0234H30.3854L36.0051 7.32126ZM6.07739 23.8668C6.31208 24.2869 6.43298 24.7615 6.42803 25.2432C6.42308 25.7249 6.29245 26.1969 6.04917 26.6121C5.80589 27.0272 5.45847 27.3711 5.04156 27.6093C4.62465 27.8476 4.15282 27.9719 3.67314 27.9699H3.55514C4.14055 26.4596 4.99528 25.0692 6.07739 23.8668ZM26.8159 52.5142C24.6338 52.5142 22.5007 51.8644 20.6863 50.6469C18.8719 49.4295 17.4578 47.699 16.6227 45.6745C15.7877 43.6499 15.5692 41.4222 15.9949 39.2729C16.4206 37.1236 17.4714 35.1494 19.0144 33.5999C20.5574 32.0504 22.5233 30.9951 24.6635 30.5676C26.8036 30.1401 29.022 30.3595 31.038 31.1981C33.0541 32.0367 34.7772 33.4568 35.9895 35.2789C37.2018 37.1009 37.8489 39.2431 37.8489 41.4344C37.845 44.3718 36.6813 47.1877 34.6131 49.2647C32.5448 51.3417 29.7408 52.5103 26.8159 52.5142ZM87.2909 52.5142C85.1088 52.5142 82.9756 51.8644 81.1613 50.6469C79.3469 49.4295 77.9328 47.699 77.0977 45.6745C76.2627 43.6499 76.0442 41.4222 76.4699 39.2729C76.8956 37.1236 77.9464 35.1494 79.4894 33.5999C81.0324 32.0504 82.9983 30.9951 85.1385 30.5676C87.2786 30.1401 89.497 30.3595 91.513 31.1981C93.5291 32.0367 95.2522 33.4568 96.4645 35.2789C97.6768 37.1009 98.3239 39.2431 98.3239 41.4344C98.32 44.3667 97.1604 47.1781 95.0985 49.2543C93.0367 51.3304 90.2402 52.5025 87.3204 52.5142H87.2909ZM110.625 40.3235H100.507C100.132 37.0758 98.5809 34.0798 96.1496 31.9052C93.7184 29.7306 90.5761 28.5291 87.3204 28.5291C84.0646 28.5291 80.9224 29.7306 78.4911 31.9052C76.0599 34.0798 74.5092 37.0758 74.1339 40.3235H40.0024C39.6271 37.0758 38.0764 34.0798 35.6451 31.9052C33.2139 29.7306 30.0716 28.5291 26.8159 28.5291C23.5601 28.5291 20.4179 29.7306 17.9867 31.9052C15.5554 34.0798 14.0047 37.0758 13.6294 40.3235H2.58164V33.0061C2.58262 32.0105 2.68642 31.0177 2.89139 30.0436C3.14905 30.0951 3.41054 30.1249 3.67314 30.1325C4.99147 30.1325 6.2558 29.6066 7.18799 28.6704C8.12019 27.7343 8.64389 26.4646 8.64389 25.1407C8.65562 24.0768 8.32448 23.0376 7.69989 22.1782C10.1266 20.2549 13.134 19.2203 16.2254 19.2453H110.625V40.3235ZM115.478 30.2362C115.478 30.5858 115.34 30.9212 115.094 31.1684C114.847 31.4156 114.514 31.5545 114.165 31.5545C113.994 31.5545 113.824 31.5203 113.665 31.4539C113.507 31.3875 113.363 31.2901 113.242 31.1675C113.122 31.0449 113.026 30.8994 112.962 30.7396C112.898 30.5797 112.865 30.4086 112.867 30.2362V15.7199C112.902 15.3925 113.056 15.0895 113.3 14.8692C113.543 14.649 113.86 14.5272 114.188 14.5272C114.515 14.5272 114.832 14.649 115.075 14.8692C115.319 15.0895 115.473 15.3925 115.508 15.7199L115.478 30.2362Z"
                                                                fill="#727372" />
                                                        </svg>