  <svg width="40" height="30" viewBox="0 0 40 40" fill="none"
                                            xmlns="http://www.w3.org/2000/svg">
                                            <path
                                                d="M31.76 33.2C31.76 35.851 29.611 38 26.96 38C24.309 38 22.16 35.851 22.16 33.2C22.16 30.549 24.309 28.4 26.96 28.4C29.611 28.4 31.76 30.549 31.76 33.2Z"
                                                fill="white" fill-opacity="0.15" />
                                            <path
                                                d="M14.96 20C14.96 22.651 12.811 24.8 10.16 24.8C7.50903 24.8 5.36 22.651 5.36 20C5.36 17.349 7.50903 15.2 10.16 15.2C12.811 15.2 14.96 17.349 14.96 20Z"
                                                fill="white" fill-opacity="0.15" />
                                            <path
                                                d="M31.76 6.8C31.76 9.45097 29.611 11.6 26.96 11.6C24.309 11.6 22.16 9.45097 22.16 6.8C22.16 4.14903 24.309 2 26.96 2C29.611 2 31.76 4.14903 31.76 6.8Z"
                                                fill="white" fill-opacity="0.15" />
                                            <path
                                                d="M32.96 33.0737H38M5.36 20L2 20.0881M5.36 20C5.36 22.651 7.50903 24.8 10.16 24.8C12.811 24.8 14.96 22.651 14.96 20C14.96 17.349 12.811 15.2 10.16 15.2C7.50903 15.2 5.36 17.349 5.36 20ZM16.338 20.0882H38M21.6019 7.10247L2 7.10247M38 7.10247H32.96M2 33.0737H21.6019M31.76 33.2C31.76 35.851 29.611 38 26.96 38C24.309 38 22.16 35.851 22.16 33.2C22.16 30.549 24.309 28.4 26.96 28.4C29.611 28.4 31.76 30.549 31.76 33.2ZM31.76 6.8C31.76 9.45097 29.611 11.6 26.96 11.6C24.309 11.6 22.16 9.45097 22.16 6.8C22.16 4.14903 24.309 2 26.96 2C29.611 2 31.76 4.14903 31.76 6.8Z"
                                                stroke="#646464" stroke-width="3" stroke-linecap="round" />
                                        </svg>