                    <svg width="50" height="50" viewBox="0 0 60 56" fill="none" xmlns="http://www.w3.org/2000/svg">
                                                        <path d="M1.24246 55.9986C1.92866 55.9986 2.48493 55.4423 2.48493 54.7561C2.48493 54.0699 1.92866 53.5137 1.24246 53.5137C0.55627 53.5137 0 54.0699 0 54.7561C0 55.4423 0.55627 55.9986 1.24246 55.9986Z" fill="#DE6944"/>
                                                        <path d="M1.24246 45.2603C1.92866 45.2603 2.48493 44.704 2.48493 44.0179C2.48493 43.3317 1.92866 42.7754 1.24246 42.7754C0.55627 42.7754 0 43.3317 0 44.0179C0 44.704 0.55627 45.2603 1.24246 45.2603Z" fill="#DE6944"/>
                                                        <path d="M1.24246 34.522C1.92866 34.522 2.48493 33.9658 2.48493 33.2796C2.48493 32.5934 1.92866 32.0371 1.24246 32.0371C0.55627 32.0371 0 32.5934 0 33.2796C0 33.9658 0.55627 34.522 1.24246 34.522Z" fill="#DE6944"/>
                                                        <path d="M1.24246 23.8716C1.92866 23.8716 2.48493 23.3154 2.48493 22.6292C2.48493 21.943 1.92866 21.3867 1.24246 21.3867C0.55627 21.3867 0 21.943 0 22.6292C0 23.3154 0.55627 23.8716 1.24246 23.8716Z" fill="#DE6944"/>
                                                        <path d="M1.24246 13.1353C1.92866 13.1353 2.48493 12.579 2.48493 11.8929C2.48493 11.2067 1.92866 10.6504 1.24246 10.6504C0.55627 10.6504 0 11.2067 0 11.8929C0 12.579 0.55627 13.1353 1.24246 13.1353Z" fill="#DE6944"/>
                                                        <path d="M1.24442 2.48493C1.93061 2.48493 2.48688 1.92866 2.48688 1.24246C2.48688 0.55627 1.93061 0 1.24442 0C0.558224 0 0.00195312 0.55627 0.00195312 1.24246C0.00195312 1.92866 0.558224 2.48493 1.24442 2.48493Z" fill="#DE6944"/>
                                                        <path d="M58.7522 55.9986C59.4384 55.9986 59.9947 55.4423 59.9947 54.7561C59.9947 54.0699 59.4384 53.5137 58.7522 53.5137C58.066 53.5137 57.5098 54.0699 57.5098 54.7561C57.5098 55.4423 58.066 55.9986 58.7522 55.9986Z" fill="#DE6944"/>
                                                        <path d="M58.7522 45.2603C59.4384 45.2603 59.9947 44.704 59.9947 44.0179C59.9947 43.3317 59.4384 42.7754 58.7522 42.7754C58.066 42.7754 57.5098 43.3317 57.5098 44.0179C57.5098 44.704 58.066 45.2603 58.7522 45.2603Z" fill="#DE6944"/>
                                                        <path d="M58.7522 34.522C59.4384 34.522 59.9947 33.9658 59.9947 33.2796C59.9947 32.5934 59.4384 32.0371 58.7522 32.0371C58.066 32.0371 57.5098 32.5934 57.5098 33.2796C57.5098 33.9658 58.066 34.522 58.7522 34.522Z" fill="#DE6944"/>
                                                        <path d="M58.7522 23.8716C59.4384 23.8716 59.9947 23.3154 59.9947 22.6292C59.9947 21.943 59.4384 21.3867 58.7522 21.3867C58.066 21.3867 57.5098 21.943 57.5098 22.6292C57.5098 23.3154 58.066 23.8716 58.7522 23.8716Z" fill="#DE6944"/>
                                                        <path d="M58.7522 13.1353C59.4384 13.1353 59.9947 12.579 59.9947 11.8929C59.9947 11.2067 59.4384 10.6504 58.7522 10.6504C58.066 10.6504 57.5098 11.2067 57.5098 11.8929C57.5098 12.579 58.066 13.1353 58.7522 13.1353Z" fill="#DE6944"/>
                                                        <path d="M58.7522 2.48493C59.4384 2.48493 59.9947 1.92866 59.9947 1.24246C59.9947 0.55627 59.4384 0 58.7522 0C58.066 0 57.5098 0.55627 57.5098 1.24246C57.5098 1.92866 58.066 2.48493 58.7522 2.48493Z" fill="#DE6944"/>
                                                        <path d="M47.303 55.9986C47.9892 55.9986 48.5455 55.4423 48.5455 54.7561C48.5455 54.0699 47.9892 53.5137 47.303 53.5137C46.6168 53.5137 46.0605 54.0699 46.0605 54.7561C46.0605 55.4423 46.6168 55.9986 47.303 55.9986Z" fill="#DE6944"/>
                                                        <path d="M47.303 45.2603C47.9892 45.2603 48.5455 44.704 48.5455 44.0179C48.5455 43.3317 47.9892 42.7754 47.303 42.7754C46.6168 42.7754 46.0605 43.3317 46.0605 44.0179C46.0605 44.704 46.6168 45.2603 47.303 45.2603Z" fill="#DE6944"/>
                                                        <path d="M47.303 34.522C47.9892 34.522 48.5455 33.9658 48.5455 33.2796C48.5455 32.5934 47.9892 32.0371 47.303 32.0371C46.6168 32.0371 46.0605 32.5934 46.0605 33.2796C46.0605 33.9658 46.6168 34.522 47.303 34.522Z" fill="#DE6944"/>
                                                        <path d="M47.303 23.8716C47.9892 23.8716 48.5455 23.3154 48.5455 22.6292C48.5455 21.943 47.9892 21.3867 47.303 21.3867C46.6168 21.3867 46.0605 21.943 46.0605 22.6292C46.0605 23.3154 46.6168 23.8716 47.303 23.8716Z" fill="#DE6944"/>
                                                        <path d="M47.303 13.1353C47.9892 13.1353 48.5455 12.579 48.5455 11.8929C48.5455 11.2067 47.9892 10.6504 47.303 10.6504C46.6168 10.6504 46.0605 11.2067 46.0605 11.8929C46.0605 12.579 46.6168 13.1353 47.303 13.1353Z" fill="#DE6944"/>
                                                        <path d="M47.303 2.48493C47.9892 2.48493 48.5455 1.92866 48.5455 1.24246C48.5455 0.55627 47.9892 0 47.303 0C46.6168 0 46.0605 0.55627 46.0605 1.24246C46.0605 1.92866 46.6168 2.48493 47.303 2.48493Z" fill="#DE6944"/>
                                                        <path d="M35.7659 55.9986C36.4521 55.9986 37.0084 55.4423 37.0084 54.7561C37.0084 54.0699 36.4521 53.5137 35.7659 53.5137C35.0797 53.5137 34.5234 54.0699 34.5234 54.7561C34.5234 55.4423 35.0797 55.9986 35.7659 55.9986Z" fill="#DE6944"/>
                                                        <path d="M35.7659 45.2603C36.4521 45.2603 37.0084 44.704 37.0084 44.0179C37.0084 43.3317 36.4521 42.7754 35.7659 42.7754C35.0797 42.7754 34.5234 43.3317 34.5234 44.0179C34.5234 44.704 35.0797 45.2603 35.7659 45.2603Z" fill="#DE6944"/>
                                                        <path d="M35.7659 34.522C36.4521 34.522 37.0084 33.9658 37.0084 33.2796C37.0084 32.5934 36.4521 32.0371 35.7659 32.0371C35.0797 32.0371 34.5234 32.5934 34.5234 33.2796C34.5234 33.9658 35.0797 34.522 35.7659 34.522Z" fill="#DE6944"/>
                                                        <path d="M35.7659 23.8716C36.4521 23.8716 37.0084 23.3154 37.0084 22.6292C37.0084 21.943 36.4521 21.3867 35.7659 21.3867C35.0797 21.3867 34.5234 21.943 34.5234 22.6292C34.5234 23.3154 35.0797 23.8716 35.7659 23.8716Z" fill="#DE6944"/>
                                                        <path d="M35.7659 13.1353C36.4521 13.1353 37.0084 12.579 37.0084 11.8929C37.0084 11.2067 36.4521 10.6504 35.7659 10.6504C35.0797 10.6504 34.5234 11.2067 34.5234 11.8929C34.5234 12.579 35.0797 13.1353 35.7659 13.1353Z" fill="#DE6944"/>
                                                        <path d="M35.7659 2.48493C36.4521 2.48493 37.0084 1.92866 37.0084 1.24246C37.0084 0.55627 36.4521 0 35.7659 0C35.0797 0 34.5234 0.55627 34.5234 1.24246C34.5234 1.92866 35.0797 2.48493 35.7659 2.48493Z" fill="#DE6944"/>
                                                        <path d="M24.2288 55.9986C24.915 55.9986 25.4713 55.4423 25.4713 54.7561C25.4713 54.0699 24.915 53.5137 24.2288 53.5137C23.5426 53.5137 22.9863 54.0699 22.9863 54.7561C22.9863 55.4423 23.5426 55.9986 24.2288 55.9986Z" fill="#DE6944"/>
                                                        <path d="M24.2288 45.2603C24.915 45.2603 25.4713 44.704 25.4713 44.0179C25.4713 43.3317 24.915 42.7754 24.2288 42.7754C23.5426 42.7754 22.9863 43.3317 22.9863 44.0179C22.9863 44.704 23.5426 45.2603 24.2288 45.2603Z" fill="#DE6944"/>
                                                        <path d="M24.2288 34.522C24.915 34.522 25.4713 33.9658 25.4713 33.2796C25.4713 32.5934 24.915 32.0371 24.2288 32.0371C23.5426 32.0371 22.9863 32.5934 22.9863 33.2796C22.9863 33.9658 23.5426 34.522 24.2288 34.522Z" fill="#DE6944"/>
                                                        <path d="M24.2288 23.8716C24.915 23.8716 25.4713 23.3154 25.4713 22.6292C25.4713 21.943 24.915 21.3867 24.2288 21.3867C23.5426 21.3867 22.9863 21.943 22.9863 22.6292C22.9863 23.3154 23.5426 23.8716 24.2288 23.8716Z" fill="#DE6944"/>
                                                        <path d="M24.2288 13.1353C24.915 13.1353 25.4713 12.579 25.4713 11.8929C25.4713 11.2067 24.915 10.6504 24.2288 10.6504C23.5426 10.6504 22.9863 11.2067 22.9863 11.8929C22.9863 12.579 23.5426 13.1353 24.2288 13.1353Z" fill="#DE6944"/>
                                                        <path d="M24.2288 2.48493C24.915 2.48493 25.4713 1.92866 25.4713 1.24246C25.4713 0.55627 24.915 0 24.2288 0C23.5426 0 22.9863 0.55627 22.9863 1.24246C22.9863 1.92866 23.5426 2.48493 24.2288 2.48493Z" fill="#DE6944"/>
                                                        <path d="M12.6917 55.9986C13.3779 55.9986 13.9341 55.4423 13.9341 54.7561C13.9341 54.0699 13.3779 53.5137 12.6917 53.5137C12.0055 53.5137 11.4492 54.0699 11.4492 54.7561C11.4492 55.4423 12.0055 55.9986 12.6917 55.9986Z" fill="#DE6944"/>
                                                        <path d="M12.6917 45.2603C13.3779 45.2603 13.9341 44.704 13.9341 44.0179C13.9341 43.3317 13.3779 42.7754 12.6917 42.7754C12.0055 42.7754 11.4492 43.3317 11.4492 44.0179C11.4492 44.704 12.0055 45.2603 12.6917 45.2603Z" fill="#DE6944"/>
                                                        <path d="M12.6917 34.522C13.3779 34.522 13.9341 33.9658 13.9341 33.2796C13.9341 32.5934 13.3779 32.0371 12.6917 32.0371C12.0055 32.0371 11.4492 32.5934 11.4492 33.2796C11.4492 33.9658 12.0055 34.522 12.6917 34.522Z" fill="#DE6944"/>
                                                        <path d="M12.6917 23.8716C13.3779 23.8716 13.9341 23.3154 13.9341 22.6292C13.9341 21.943 13.3779 21.3867 12.6917 21.3867C12.0055 21.3867 11.4492 21.943 11.4492 22.6292C11.4492 23.3154 12.0055 23.8716 12.6917 23.8716Z" fill="#DE6944"/>
                                                        <path d="M12.6917 13.1353C13.3779 13.1353 13.9341 12.579 13.9341 11.8929C13.9341 11.2067 13.3779 10.6504 12.6917 10.6504C12.0055 10.6504 11.4492 11.2067 11.4492 11.8929C11.4492 12.579 12.0055 13.1353 12.6917 13.1353Z" fill="#DE6944"/>
                                                        <path d="M12.6917 2.48493C13.3779 2.48493 13.9341 1.92866 13.9341 1.24246C13.9341 0.55627 13.3779 0 12.6917 0C12.0055 0 11.4492 0.55627 11.4492 1.24246C11.4492 1.92866 12.0055 2.48493 12.6917 2.48493Z" fill="#DE6944"/>
                                                        </svg>