<svg width="32" height="32" viewBox="0 0 45 43" fill="none" xmlns="http://www.w3.org/2000/svg">
    <path
        d="M14.1945 17.9253L19.7415 21.9043C21.3916 23.0881 23.6084 23.0881 25.2585 21.9043L30.8055 17.9253M2.83164 28.3277C1.72279 23.844 1.72279 19.156 2.83164 14.6723C4.28316 8.80297 8.91824 4.2649 14.7975 2.95684L15.7769 2.73894C20.2053 1.75369 24.7947 1.75369 29.2231 2.73894L30.2025 2.95684C36.0818 4.2649 40.7168 8.80298 42.1684 14.6723C43.2772 19.156 43.2772 23.844 42.1684 28.3277C40.7168 34.197 36.0818 38.7351 30.2025 40.0432L29.2231 40.2611C24.7947 41.2463 20.2053 41.2463 15.7769 40.2611L14.7975 40.0432C8.91824 38.7351 4.28316 34.197 2.83164 28.3277Z"
        stroke="#FF3919" stroke-width="3" stroke-linecap="round" />
</svg>