          <svg width="32" height="28"
                                                            viewBox="0 0 32 28" fill="none"
                                                            xmlns="http://www.w3.org/2000/svg">
                                                            <path
                                                                d="M23.8673 15.6368L23.8751 15.6368L23.8829 15.636C24.2412 15.6004 24.5882 15.4901 24.9013 15.3123C25.2111 15.1363 25.4809 14.8981 25.6939 14.6127L30.6388 9.67142C30.7931 9.53633 30.9181 9.37105 31.006 9.18575C31.0947 8.99885 31.1437 8.79563 31.15 8.58886L31.1504 8.58887L31.15 8.57921C31.1351 8.13683 30.9541 7.71628 30.6431 7.40112L30.6431 7.40109L30.6406 7.39867C30.6385 7.39662 30.6275 7.38607 30.6082 7.36769C30.4125 7.18058 29.3673 6.18149 28.2225 5.06133C26.9658 3.83175 25.6005 2.46725 25.1061 1.87208C24.9424 1.63793 24.7304 1.44145 24.4845 1.29584C24.2367 1.14912 23.9601 1.05749 23.6737 1.02719L23.6737 1.02677L23.6624 1.02643C23.4712 1.02067 23.2807 1.05331 23.1023 1.12244C22.9239 1.19156 22.7612 1.29576 22.6238 1.42886L22.6238 1.42885L22.6222 1.43049L17.6893 6.36002C17.1297 6.81276 16.7495 7.44986 16.6171 8.15732L16.6156 8.16521L16.615 8.17322C16.596 8.4158 16.6288 8.65964 16.7111 8.88862C16.7935 9.1176 16.9235 9.3265 17.0927 9.5015L17.5086 9.93311L17.5086 9.93313L17.5107 9.93525C17.8113 10.235 18.2144 10.4097 18.6388 10.4242L18.6388 10.4243L18.6434 10.4243C19.133 10.4258 19.6078 10.2647 19.9943 9.96859L22.2256 12.2104C21.9095 12.5637 21.7211 13.0148 21.6936 13.4909L21.6934 13.4909L21.6934 13.4989C21.6924 13.7276 21.7367 13.9542 21.8237 14.1657C21.9107 14.3772 22.0387 14.5694 22.2003 14.7313L22.2064 14.7375L22.2131 14.7428L22.9184 15.3031C23.1883 15.5176 23.5225 15.6351 23.8673 15.6368ZM20.147 8.80252L20.045 8.69627L19.9369 8.79635L19.7132 9.00349C19.7132 9.00349 19.7132 9.0035 19.7132 9.00351C19.2153 9.46428 18.839 9.53162 18.5966 9.50011C18.3471 9.46767 18.2006 9.32572 18.1765 9.30061L18.1762 9.30022L17.763 8.87202L17.763 8.87202L17.7618 8.87081C17.6815 8.78944 17.6194 8.69193 17.5798 8.58475C17.5409 8.47968 17.5244 8.36769 17.5314 8.25594C17.5818 7.95563 17.712 7.67512 17.9074 7.44327L17.9933 7.35737L23.274 2.07979C23.3226 2.03475 23.3796 1.99971 23.4417 1.97671C23.5016 1.95454 23.5652 1.94398 23.629 1.94556C23.78 1.97351 23.924 2.03097 24.0527 2.1147C24.1843 2.20027 24.2972 2.3115 24.3847 2.44172L24.3889 2.44796L24.3937 2.45375C24.9085 3.07539 26.2685 4.43655 27.5149 5.657C28.752 6.86844 29.8865 7.95027 29.9968 8.05516C30.132 8.19909 30.2139 8.38475 30.2292 8.58138C30.2228 8.66108 30.2006 8.73875 30.164 8.80991L30.2973 8.87858L30.164 8.80991C30.1259 8.88392 30.0729 8.94929 30.0083 9.00193L30.0024 9.00673L29.9971 9.0121L25.0101 13.9982L25.0003 14.008L24.9925 14.0194C24.9936 14.0178 24.9921 14.0196 24.988 14.0245C24.9731 14.0424 24.924 14.1015 24.8464 14.1804C24.75 14.2783 24.6162 14.4001 24.4616 14.5029C24.1455 14.7131 23.7962 14.8137 23.4847 14.5783L22.8176 14.05C22.6877 13.9036 22.6153 13.715 22.6139 13.5192C22.6366 13.3315 22.6971 13.1504 22.7919 12.9867C22.8881 12.8206 23.0175 12.676 23.172 12.562L23.1724 12.5625L23.1828 12.5532L23.4272 12.335L23.5456 12.2293L23.4334 12.117L20.8391 9.52329L20.147 8.80252Z"
                                                                fill="#444444" stroke="#444444"
                                                                stroke-width="0.3" />
                                                            <path
                                                                d="M21.7607 2.72889L21.6545 2.83499L21.7606 2.9411L29.2411 10.4163L29.3471 10.5222L29.4531 10.4163L29.892 9.97779L29.9982 9.87168L29.892 9.76558L22.4116 2.29038L22.3055 2.18443L22.1995 2.29038L21.7607 2.72889ZM9.40374 20.1584L9.29755 20.2646L9.40374 20.3707L9.84259 20.8092L9.94862 20.9151L10.0546 20.8092L20.6797 10.1921L20.7859 10.086L20.6797 9.97985L20.2408 9.54133L20.1348 9.43538L20.0288 9.54133L9.40374 20.1584ZM11.6051 21.7189L11.4989 21.825L11.6051 21.9311L12.044 22.3696L12.15 22.4756L12.256 22.3696L22.5612 12.0722L22.6674 11.9661L22.5612 11.86L22.1223 11.4214L22.0163 11.3155L21.9103 11.4214L11.6051 21.7189Z"
                                                                fill="#444444" stroke="#444444"
                                                                stroke-width="0.3" />
                                                            <path
                                                                d="M8.71683 27.5298H8.717C9.76039 27.5286 10.7607 27.1139 11.4986 26.3766C12.2364 25.6393 12.6514 24.6397 12.6526 23.597V23.5968C12.6527 22.8189 12.4218 22.0584 11.9893 21.4116C11.5568 20.7647 10.9421 20.2606 10.2229 19.9629C9.50371 19.6652 8.71232 19.5873 7.94883 19.739C7.18533 19.8908 6.48399 20.2654 5.93352 20.8154C5.38304 21.3655 5.00816 22.0664 4.85629 22.8294C4.70442 23.5923 4.78238 24.3832 5.08033 25.1019C5.37827 25.8206 5.8828 26.4349 6.53009 26.8671C7.17739 27.2992 7.93838 27.5298 8.71683 27.5298ZM7.04105 21.0907C7.53705 20.7595 8.12018 20.5828 8.71671 20.5828C9.51639 20.5839 10.283 20.9018 10.8484 21.4669C11.4138 22.0319 11.7318 22.798 11.7328 23.597C11.7327 24.193 11.5558 24.7756 11.2244 25.2711C10.893 25.7667 10.4219 26.153 9.87077 26.3811C9.31961 26.6092 8.71314 26.6688 8.12804 26.5525C7.54294 26.4362 7.00552 26.1491 6.58373 25.7276C6.16194 25.3061 5.87473 24.769 5.75839 24.1844C5.64205 23.5998 5.70181 22.9939 5.93011 22.4432C6.15842 21.8925 6.54502 21.4218 7.04105 21.0907Z"
                                                                fill="#444444" stroke="#444444"
                                                                stroke-width="0.3" />
                                                            <path
                                                                d="M8.7168 25.5507H8.71694C9.2351 25.5502 9.7319 25.3443 10.0983 24.9782C10.4647 24.612 10.6708 24.1155 10.6714 23.5976V23.5975C10.6713 23.2112 10.5567 22.8335 10.3419 22.5123C10.1271 22.1911 9.82186 21.9408 9.46472 21.7929C9.10758 21.6451 8.7146 21.6065 8.33548 21.6818C7.95635 21.7572 7.60809 21.9432 7.33473 22.2163C7.06138 22.4895 6.8752 22.8375 6.79978 23.2164C6.72436 23.5954 6.76307 23.9881 6.91102 24.345C7.05898 24.7019 7.30951 25.007 7.63094 25.2216C7.95236 25.4362 8.33024 25.5507 8.7168 25.5507ZM8.14188 22.7379L8.05859 22.6132L8.14188 22.7379C8.312 22.6243 8.51201 22.5637 8.71662 22.5636C8.99104 22.5639 9.2541 22.673 9.44811 22.8669C9.64211 23.0607 9.75122 23.3236 9.75153 23.5977C9.7515 23.8021 9.69083 24.0019 9.57718 24.1718C9.46349 24.3418 9.30189 24.4744 9.11281 24.5526C8.92372 24.6309 8.71565 24.6514 8.51491 24.6115C8.31417 24.5716 8.12979 24.4731 7.98509 24.3285C7.84038 24.1839 7.74185 23.9997 7.70194 23.7992C7.66202 23.5986 7.6825 23.3908 7.76081 23.2019C7.83911 23.013 7.97172 22.8515 8.14188 22.7379ZM8.14828 15.3803L8.15013 15.3803C8.59093 15.3749 9.0132 15.2022 9.33139 14.8973L9.3317 14.897L9.76342 14.4809L9.76344 14.4809L9.7653 14.479C10.0659 14.179 10.241 13.776 10.2552 13.3517L10.2553 13.3517L10.2553 13.3469C10.2561 12.8578 10.0949 12.3836 9.7989 11.9974L12.0427 9.76737C12.3961 10.0835 12.8476 10.2719 13.324 10.299L13.324 10.2991L13.3306 10.2992L13.3577 10.2996L13.3577 10.2996L13.3616 10.2996C13.8137 10.2936 14.2457 10.112 14.5661 9.79317L14.5723 9.78701L14.5778 9.78016L15.1377 9.0754L15.1378 9.07542L15.1396 9.07302C15.5665 8.513 15.5296 7.91835 15.3189 7.42102C15.1127 6.93442 14.7374 6.52956 14.448 6.30276L9.5018 1.36093C9.36661 1.20671 9.20121 1.08182 9.01581 0.993975C8.82879 0.905368 8.62545 0.856375 8.41858 0.85007L8.41859 0.85H8.41402H8.40048V0.849857L8.39393 0.850143C7.9568 0.869243 7.54224 1.04948 7.23027 1.3561L7.23021 1.35605L7.22687 1.35955C7.20536 1.3821 6.11926 2.5196 4.8886 3.77545C3.6581 5.03113 2.2926 6.39527 1.69699 6.88915C1.46254 7.05267 1.26581 7.26448 1.12007 7.51035C0.973199 7.75811 0.881556 8.03463 0.851399 8.32102L0.85098 8.32098L0.850642 8.33223C0.844909 8.52328 0.877609 8.71352 0.9468 8.8917C1.01599 9.06988 1.12027 9.23236 1.25344 9.36953L1.25503 9.37114L6.19004 14.3025C6.64277 14.8609 7.27971 15.2401 7.98684 15.3721L7.99403 15.3734L8.00132 15.3741C8.05082 15.3784 8.09935 15.3803 8.14828 15.3803ZM7.26993 14.0808L7.18566 13.9965L1.90251 8.7177C1.81763 8.62195 1.77067 8.49863 1.77026 8.37092C1.7968 8.21925 1.85353 8.0744 1.93713 7.94497L1.81113 7.86358L1.93713 7.94497C2.02279 7.81235 2.13483 7.69875 2.2663 7.61122L2.27279 7.6069L2.2788 7.60192C2.90069 7.0873 4.26276 5.72834 5.48431 4.48279C6.69588 3.24741 7.77819 2.11431 7.88537 2.00197C8.02855 1.86949 8.21146 1.78792 8.40571 1.76988C8.48696 1.77554 8.56625 1.79756 8.63879 1.83466C8.71336 1.8728 8.77915 1.92602 8.832 1.99094L8.83688 1.99693L8.84234 2.00238L13.8321 6.98492L13.8391 6.99193L13.847 6.99795C13.845 6.99642 13.916 7.0524 14.0143 7.14909C14.1124 7.24568 14.2343 7.37964 14.3372 7.5343C14.5478 7.85065 14.6481 8.19937 14.4124 8.50952L13.8878 9.17138C13.7302 9.2894 13.5429 9.36134 13.3467 9.3791C13.161 9.35565 12.9818 9.29526 12.8197 9.20144C12.6534 9.10519 12.5087 8.97582 12.3945 8.82136L12.3903 8.81565L12.3856 8.81035L12.1669 8.56653L12.0612 8.44871L11.9492 8.56057L9.35418 11.1529L8.63221 11.8452L8.52564 11.9474L8.62613 12.0556L8.8334 12.2787C8.83341 12.2787 8.83343 12.2787 8.83344 12.2788C9.29452 12.7755 9.36199 13.1512 9.3306 13.3931C9.29827 13.6422 9.15637 13.7888 9.13077 13.8134L9.13064 13.8135L8.70177 14.2267L8.70176 14.2267L8.70043 14.228C8.61914 14.3083 8.52161 14.3704 8.41436 14.4099C8.30916 14.4487 8.19701 14.4651 8.08514 14.4579C7.78371 14.4076 7.50223 14.277 7.26993 14.0808Z"
                                                                fill="#444444" stroke="#444444"
                                                                stroke-width="0.3" />
                                                            <path
                                                                d="M2.11858 9.581L2.0124 9.68711L2.11858 9.79321L2.55743 10.2317L2.66346 10.3377L2.76949 10.2317L10.2502 2.75654L10.3564 2.65044L10.2502 2.54433L9.8114 2.10581L9.70537 1.99986L9.59934 2.10581L2.11858 9.581ZM9.37491 11.7807L9.26871 11.8868L9.37487 11.9929L13.7997 16.4162L13.9057 16.5222L14.0118 16.4163L14.4503 15.9782L14.5566 15.8721L14.4504 15.766L10.0256 11.3426L9.91955 11.2367L9.8135 11.3426L9.37491 11.7807ZM11.2871 9.86963L11.1809 9.97572L11.287 10.0818L15.7126 14.5052L15.8186 14.6111L15.9246 14.5052L16.3632 14.0671L16.4694 13.961L16.3632 13.8549L11.9377 9.43154L11.8316 9.32558L11.7256 9.43151L11.2871 9.86963ZM15.7133 18.1147L15.6071 18.2208L15.7133 18.3269L19.7577 22.3694L19.8637 22.4754L19.9697 22.3694L20.4083 21.9313L20.5145 21.8252L20.4083 21.7191L16.3639 17.6766L16.2579 17.5707L16.1519 17.6766L15.7133 18.1147ZM17.6255 16.2033L17.5193 16.3094L17.6254 16.4155L21.62 20.4081L21.726 20.5141L21.832 20.4082L22.2706 19.9701L22.3768 19.864L22.2706 19.7579L18.2761 15.7652L18.17 15.6593L18.064 15.7652L17.6255 16.2033Z"
                                                                fill="#444444" stroke="#444444"
                                                                stroke-width="0.3" />
                                                            <path
                                                                d="M23.4385 27.1997H23.4387C24.4821 27.1986 25.4824 26.7839 26.2203 26.0466C26.9581 25.3093 27.3731 24.3096 27.3743 23.2669V23.2667C27.3743 22.4888 27.1435 21.7283 26.711 21.0815C26.2785 20.4346 25.6638 19.9305 24.9446 19.6328C24.2254 19.3351 23.434 19.2572 22.6705 19.409C21.907 19.5607 21.2057 19.9353 20.6552 20.4854C20.1047 21.0354 19.7298 21.7363 19.578 22.4993C19.4261 23.2623 19.5041 24.0531 19.802 24.7718C20.0999 25.4906 20.6045 26.1048 21.2518 26.537C21.8991 26.9691 22.6601 27.1998 23.4385 27.1997ZM21.7627 20.7606C22.2587 20.4295 22.8419 20.2527 23.4384 20.2527C24.2381 20.2538 25.0047 20.5717 25.5701 21.1368C26.1355 21.7018 26.4536 22.4679 26.4545 23.2669C26.4544 23.8629 26.2775 24.4455 25.9461 24.941C25.6147 25.4366 25.1436 25.8229 24.5924 26.051C24.0413 26.2791 23.4348 26.3388 22.8497 26.2224C22.2646 26.1061 21.7272 25.819 21.3054 25.3975C20.8836 24.976 20.5964 24.4389 20.4801 23.8543C20.3637 23.2697 20.4235 22.6638 20.6518 22.1131C20.8801 21.5624 21.2667 21.0917 21.7627 20.7606Z"
                                                                fill="#444444" stroke="#444444"
                                                                stroke-width="0.3" />
                                                            <path
                                                                d="M23.4387 25.2187L23.4389 25.2187C23.957 25.2182 24.4538 25.0123 24.8202 24.6461C25.1867 24.28 25.3928 23.7835 25.3933 23.2656V23.2655C25.3933 22.8791 25.2787 22.5014 25.0639 22.1801C24.8491 21.8589 24.5438 21.6085 24.1866 21.4606C23.8295 21.3128 23.4364 21.2741 23.0572 21.3494C22.6781 21.4248 22.3298 21.6108 22.0564 21.884C21.783 22.1572 21.5968 22.5053 21.5213 22.8842C21.4459 23.2632 21.4847 23.656 21.6326 24.013C21.7806 24.3699 22.0312 24.675 22.3527 24.8896C22.6742 25.1042 23.0521 25.2187 23.4387 25.2187ZM22.8636 22.4055C23.0339 22.2919 23.234 22.2312 23.4387 22.2313L23.4387 22.0813L23.4385 22.2313C23.713 22.2316 23.976 22.3408 24.1701 22.5347C24.364 22.7286 24.4731 22.9914 24.4734 23.2655C24.4734 23.47 24.4127 23.6699 24.299 23.8399C24.1852 24.0099 24.0236 24.1425 23.8345 24.2207C23.6453 24.299 23.4372 24.3194 23.2364 24.2795C23.0357 24.2395 22.8513 24.141 22.7066 23.9963C22.5618 23.8517 22.4633 23.6674 22.4234 23.4669C22.3835 23.2663 22.4041 23.0584 22.4824 22.8695C22.5608 22.6806 22.6934 22.5191 22.8636 22.4055Z"
                                                                fill="#444444" stroke="#444444"
                                                                stroke-width="0.3" />
                                                        </svg>