  <svg width="21" height="23"
                                                            viewBox="0 0 21 23" fill="none"
                                                            xmlns="http://www.w3.org/2000/svg">
                                                            <path
                                                                d="M11.9719 22.6114H2.0969C1.83543 22.6198 1.57494 22.5755 1.33092 22.4812C1.08691 22.3869 0.864349 22.2445 0.676474 22.0624C0.488599 21.8804 0.339245 21.6624 0.237294 21.4215C0.135342 21.1806 0.0828739 20.9216 0.0830081 20.66V2.37527C0.102909 1.84227 0.333438 1.33893 0.724011 0.9757C1.11458 0.612467 1.6333 0.419008 2.16634 0.437771H12.0413C12.297 0.432044 12.5512 0.478297 12.7885 0.573727C13.0258 0.669157 13.2412 0.811777 13.4217 0.99294C13.6022 1.1741 13.744 1.39004 13.8386 1.62765C13.9332 1.86527 13.9785 2.11961 13.9719 2.37527V20.66C13.971 20.9201 13.9184 21.1775 13.8169 21.417C13.7155 21.6566 13.5674 21.8735 13.3812 22.0552C13.195 22.2368 12.9745 22.3796 12.7325 22.4751C12.4905 22.5706 12.232 22.6169 11.9719 22.6114ZM2.0969 1.77805C2.0164 1.77527 1.93616 1.78861 1.8609 1.81729C1.78564 1.84597 1.71687 1.8894 1.65863 1.94505C1.6004 2.00069 1.55388 2.06742 1.52182 2.1413C1.48975 2.21518 1.47277 2.29473 1.4719 2.37527V20.66C1.4719 20.8202 1.53555 20.9739 1.64885 21.0872C1.76216 21.2005 1.91583 21.2642 2.07606 21.2642H11.9719C12.1381 21.2664 12.2989 21.2051 12.4215 21.0928C12.5441 20.9806 12.6193 20.8258 12.6316 20.66V2.37527C12.6176 2.21074 12.5417 2.05764 12.4193 1.94682C12.2969 1.836 12.137 1.77569 11.9719 1.77805H2.0969Z"
                                                                fill="#444444" />
                                                            <path
                                                                d="M18.5063 22.6113C18.1854 22.6141 17.8671 22.5532 17.5698 22.4323C17.2725 22.3114 17.0021 22.1328 16.7741 21.9068C16.5462 21.6809 16.3653 21.412 16.2419 21.1157C16.1184 20.8195 16.0549 20.5017 16.0549 20.1808V14.9724C16.0549 14.6041 15.9086 14.2508 15.6481 13.9903C15.3876 13.7299 15.0344 13.5836 14.666 13.5836H13.673C13.4888 13.5836 13.3121 13.5104 13.1819 13.3802C13.0517 13.2499 12.9785 13.0733 12.9785 12.8891C12.9785 12.7049 13.0517 12.5283 13.1819 12.3981C13.3121 12.2678 13.4888 12.1947 13.673 12.1947H14.666C15.4027 12.1947 16.1093 12.4873 16.6302 13.0083C17.1511 13.5292 17.4438 14.2357 17.4438 14.9724V20.1808C17.4438 20.457 17.5535 20.722 17.7489 20.9173C17.9442 21.1127 18.2092 21.2224 18.4855 21.2224C18.7617 21.2224 19.0267 21.1127 19.222 20.9173C19.4174 20.722 19.5271 20.457 19.5271 20.1808V11.0141L17.3535 6.153C17.2236 5.8821 17.0197 5.65354 16.7653 5.49377C16.5109 5.334 16.2164 5.24955 15.916 5.25022H15.4091C15.2249 5.25022 15.0483 5.17705 14.918 5.04682C14.7878 4.91659 14.7146 4.73995 14.7146 4.55577C14.7146 4.37159 14.7878 4.19496 14.918 4.06473C15.0483 3.93449 15.2249 3.86133 15.4091 3.86133H15.916C16.4934 3.86103 17.0585 4.02815 17.5429 4.34244C18.0273 4.65674 18.4102 5.10473 18.6452 5.63216L20.8743 10.6044C20.9151 10.6938 20.9364 10.7908 20.9368 10.8891V20.1808C20.9368 20.8254 20.6808 21.4436 20.225 21.8994C19.7691 22.3553 19.1509 22.6113 18.5063 22.6113Z"
                                                                fill="#444444" />
                                                            <path
                                                                d="M10.5002 5.25022H3.55577C3.37159 5.25022 3.19496 5.17705 3.06473 5.04682C2.93449 4.91659 2.86133 4.73995 2.86133 4.55577C2.86133 4.37159 2.93449 4.19496 3.06473 4.06473C3.19496 3.93449 3.37159 3.86133 3.55577 3.86133H10.5002C10.6844 3.86133 10.861 3.93449 10.9913 4.06473C11.1215 4.19496 11.1947 4.37159 11.1947 4.55577C11.1947 4.73995 11.1215 4.91659 10.9913 5.04682C10.861 5.17705 10.6844 5.25022 10.5002 5.25022Z"
                                                                fill="#444444" />
                                                            <path
                                                                d="M10.5002 8.02756H3.55577C3.37159 8.02756 3.19496 7.9544 3.06473 7.82416C2.93449 7.69393 2.86133 7.51729 2.86133 7.33312C2.86133 7.14894 2.93449 6.9723 3.06473 6.84207C3.19496 6.71184 3.37159 6.63867 3.55577 6.63867H10.5002C10.6844 6.63867 10.861 6.71184 10.9913 6.84207C11.1215 6.9723 11.1947 7.14894 11.1947 7.33312C11.1947 7.51729 11.1215 7.69393 10.9913 7.82416C10.861 7.9544 10.6844 8.02756 10.5002 8.02756Z"
                                                                fill="#444444" />
                                                            <path
                                                                d="M15.3605 7.38856C15.1763 7.38856 14.9996 7.3154 14.8694 7.18517C14.7392 7.05493 14.666 6.8783 14.666 6.69412V2.52745C14.666 2.34327 14.7392 2.16664 14.8694 2.03641C14.9996 1.90617 15.1763 1.83301 15.3605 1.83301C15.5446 1.83301 15.7213 1.90617 15.8515 2.03641C15.9817 2.16664 16.0549 2.34327 16.0549 2.52745V6.69412C16.0549 6.8783 15.9817 7.05493 15.8515 7.18517C15.7213 7.3154 15.5446 7.38856 15.3605 7.38856Z"
                                                                fill="#444444" />
                                                        </svg>