    <svg width="21" height="26"
                                                            viewBox="0 0 21 26" fill="none"
                                                            xmlns="http://www.w3.org/2000/svg">
                                                            <path
                                                                d="M17.5529 25.4212H17.5531C18.3471 25.4205 19.1082 25.1032 19.6696 24.5391C20.2309 23.975 20.5466 23.2103 20.5476 22.4127V22.4125V3.85944V3.85928C20.5468 3.06142 20.2311 2.29633 19.6696 1.73206C19.108 1.16775 18.3465 0.850422 17.5523 0.85H17.5522L3.84468 0.85L3.84456 0.85C3.05056 0.850633 2.2894 1.16795 1.72805 1.73206C1.16674 2.29614 0.851049 3.0609 0.85 3.85849V3.85868L0.85 22.4117L0.85 22.4119C0.85084 23.2098 1.16654 23.9748 1.72806 24.5391L1.83438 24.4333L1.72806 24.5391C2.28959 25.1034 3.05108 25.4208 3.84536 25.4212H3.84544H17.5529ZM2.37101 2.37633C2.76234 1.98314 3.29266 1.76225 3.84554 1.76187L17.5527 1.76263C17.5528 1.76263 17.5528 1.76263 17.5528 1.76263C18.1052 1.7634 18.6349 1.98426 19.0259 2.37709C19.4169 2.76997 19.6372 3.30283 19.6383 3.85899V22.4116C19.6377 22.9681 19.4177 23.5015 19.0266 23.8948C18.6355 24.2882 18.1055 24.5093 17.5527 24.5101H3.84554C3.29266 24.5097 2.76234 24.2888 2.37101 23.8956C1.97968 23.5024 1.75932 22.969 1.75855 22.4124V3.85955C1.75932 3.30295 1.97968 2.76954 2.37101 2.37633Z"
                                                                fill="#444444" stroke="#444444"
                                                                stroke-width="0.3" />
                                                            <path
                                                                d="M12.5086 21.8929H10.0752C9.70163 21.8923 9.34355 21.7428 9.07941 21.4773C8.81527 21.2117 8.66661 20.8517 8.66602 20.4761V5.4481C8.66661 5.07264 8.81517 4.71272 9.07914 4.44717C9.34312 4.18161 9.701 4.03205 10.0744 4.03125H12.5094C12.8829 4.03185 13.241 4.18132 13.5052 4.4469C13.7693 4.71248 13.9179 5.07251 13.9185 5.4481V20.4761C13.9179 20.8514 13.7694 21.2113 13.5054 21.4767C13.2414 21.7422 12.8835 21.8916 12.5101 21.8922L12.5086 21.8929ZM10.0752 4.64236C9.86277 4.64257 9.65914 4.72754 9.50901 4.87863C9.35889 5.02971 9.27457 5.23453 9.27457 5.4481V20.4761C9.27477 20.6895 9.35918 20.8941 9.50928 21.045C9.65938 21.196 9.8629 21.2808 10.0752 21.281H12.5094C12.7217 21.2808 12.9252 21.196 13.0753 21.045C13.2254 20.8941 13.3098 20.6895 13.31 20.4761V5.4481C13.3098 5.23467 13.2254 5.03003 13.0753 4.87912C12.9252 4.7282 12.7217 4.64332 12.5094 4.64312L10.0752 4.64236Z"
                                                                fill="#444444" />
                                                            <path
                                                                d="M11.2922 19.4694C11.255 19.4694 11.2183 19.4621 11.1839 19.4477C11.1496 19.4334 11.1185 19.4124 11.0922 19.386C11.066 19.3595 11.0452 19.3281 11.031 19.2936C11.0169 19.2591 11.0097 19.2221 11.0098 19.1847V6.33085C11.0098 6.25554 11.0395 6.18331 11.0925 6.13005C11.1455 6.07679 11.2173 6.04688 11.2922 6.04688C11.3671 6.04688 11.4389 6.07679 11.4919 6.13005C11.5449 6.18331 11.5746 6.25554 11.5746 6.33085V19.1847C11.5746 19.26 11.5449 19.3323 11.4919 19.3855C11.4389 19.4388 11.3671 19.4687 11.2922 19.4687V19.4694Z"
                                                                fill="#444444" />
                                                            <path
                                                                d="M14.6047 8.21875H7.97988C7.36967 8.21875 6.875 8.71612 6.875 9.32966V11.4659C6.875 12.0795 7.36967 12.5768 7.97988 12.5768H14.6047C15.2149 12.5768 15.7096 12.0795 15.7096 11.4659V9.32966C15.7096 8.71612 15.2149 8.21875 14.6047 8.21875Z"
                                                                fill="#444444" />
                                                            <path
                                                                d="M14.6045 12.8718H7.97967C7.60886 12.8714 7.25335 12.7231 6.99114 12.4595C6.72894 12.1959 6.58145 11.8384 6.58105 11.4656V9.33007C6.58145 8.95724 6.72894 8.59979 6.99114 8.33615C7.25335 8.07252 7.60886 7.92423 7.97967 7.92383H14.6045C14.9752 7.92443 15.3306 8.07278 15.5928 8.33637C15.8549 8.59996 16.0025 8.9573 16.0031 9.33007V11.4656C16.0025 11.8385 15.8548 12.1959 15.5925 12.4595C15.3302 12.7232 14.9746 12.8714 14.6037 12.8718H14.6045ZM7.97967 8.51374C7.7644 8.51394 7.55801 8.60001 7.40579 8.75306C7.25357 8.90611 7.16797 9.11363 7.16777 9.33007V11.4656C7.16816 11.6819 7.25386 11.8892 7.40605 12.0421C7.55825 12.195 7.76453 12.2809 7.97967 12.2811H14.6045C14.8196 12.2809 15.0259 12.195 15.1781 12.0421C15.3303 11.8892 15.416 11.6819 15.4164 11.4656V9.33007C15.4162 9.11363 15.3306 8.90611 15.1783 8.75306C15.0261 8.60001 14.8197 8.51394 14.6045 8.51374H7.97967Z"
                                                                fill="#444444" />
                                                            <path
                                                                d="M6.91161 6.59537C6.91161 6.25577 6.6378 5.98047 6.30004 5.98047C5.96228 5.98047 5.68848 6.25577 5.68848 6.59537V7.69644C5.68848 8.03604 5.96228 8.31134 6.30004 8.31134C6.6378 8.31134 6.91161 8.03604 6.91161 7.69644V6.59537Z"
                                                                fill="#444444" />
                                                            <path
                                                                d="M6.30021 12.03C6.06017 12.0298 5.83002 11.9339 5.66028 11.7632C5.49055 11.5926 5.39511 11.3612 5.39491 11.1198V10.0195C5.39142 9.8978 5.41224 9.77664 5.45614 9.66318C5.50005 9.54973 5.56615 9.44628 5.65052 9.35896C5.7349 9.27164 5.83584 9.20223 5.94736 9.15483C6.05889 9.10743 6.17875 9.08301 6.29983 9.08301C6.42091 9.08301 6.54076 9.10743 6.65229 9.15483C6.76382 9.20223 6.86476 9.27164 6.94914 9.35896C7.03351 9.44628 7.09961 9.54973 7.14351 9.66318C7.18742 9.77664 7.20824 9.8978 7.20475 10.0195V11.1198C7.20455 11.3609 7.10931 11.5921 6.93991 11.7627C6.7705 11.9333 6.54074 12.0294 6.30096 12.03H6.30021ZM6.30021 9.69917C6.21571 9.69917 6.13468 9.73292 6.07493 9.79299C6.01518 9.85306 5.98162 9.93454 5.98162 10.0195V11.1198C5.98162 11.1618 5.98985 11.2034 6.00584 11.2422C6.02183 11.2811 6.04527 11.3163 6.07482 11.346C6.10437 11.3757 6.13945 11.3993 6.17806 11.4154C6.21666 11.4315 6.25804 11.4397 6.29983 11.4397C6.34162 11.4397 6.383 11.4315 6.4216 11.4154C6.46021 11.3993 6.49529 11.3757 6.52484 11.346C6.55439 11.3163 6.57782 11.2811 6.59382 11.2422C6.60981 11.2034 6.61804 11.1618 6.61804 11.1198V10.0195C6.61804 9.93467 6.58458 9.85331 6.52499 9.79326C6.46541 9.73321 6.38457 9.69937 6.30021 9.69917Z"
                                                                fill="#444444" />
                                                            <path
                                                                d="M6.29963 7.73174C6.62907 7.73174 6.89613 7.46322 6.89613 7.13198C6.89613 6.80075 6.62907 6.53223 6.29963 6.53223C5.97019 6.53223 5.70312 6.80075 5.70312 7.13198C5.70312 7.46322 5.97019 7.73174 6.29963 7.73174Z"
                                                                fill="#444444" />
                                                            <path
                                                                d="M6.29963 14.3763C6.62907 14.3763 6.89613 14.1077 6.89613 13.7765C6.89613 13.4453 6.62907 13.1768 6.29963 13.1768C5.97019 13.1768 5.70312 13.4453 5.70312 13.7765C5.70312 14.1077 5.97019 14.3763 6.29963 14.3763Z"
                                                                fill="#444444" />
                                                            <path
                                                                d="M6.29963 16.7815C6.62907 16.7815 6.89613 16.513 6.89613 16.1818C6.89613 15.8506 6.62907 15.582 6.29963 15.582C5.97019 15.582 5.70312 15.8506 5.70312 16.1818C5.70312 16.513 5.97019 16.7815 6.29963 16.7815Z"
                                                                fill="#444444" />
                                                            <path
                                                                d="M6.29963 19.1858C6.62907 19.1858 6.89613 18.9173 6.89613 18.5861C6.89613 18.2548 6.62907 17.9863 6.29963 17.9863C5.97019 17.9863 5.70312 18.2548 5.70312 18.5861C5.70312 18.9173 5.97019 19.1858 6.29963 19.1858Z"
                                                                fill="#444444" />
                                                        </svg>