   <svg width="24" height="24"
                                                            viewBox="0 0 24 24" fill="none"
                                                            xmlns="http://www.w3.org/2000/svg">
                                                            <circle cx="12" cy="12" r="11"
                                                                stroke="#444444"
                                                                stroke-width="1.5" />
                                                            <path
                                                                d="M4.76417 14.6353C4.34857 13.4935 4.20911 12.2694 4.3572 11.0634C4.50529 9.85728 4.93672 8.70337 5.61622 7.69597C6.29572 6.68857 7.20399 5.85629 8.26678 5.26718C9.32956 4.67807 10.5167 4.34885 11.7311 4.30645C12.9455 4.26404 14.1527 4.50965 15.254 5.02319C16.3553 5.53674 17.3194 6.30363 18.0675 7.26118C18.8156 8.21872 19.3265 9.33973 19.5583 10.5325C19.7902 11.7254 19.7365 12.9561 19.4015 14.1242"
                                                                stroke="#444444"
                                                                stroke-linecap="round"
                                                                stroke-linejoin="round"
                                                                stroke-dasharray="5 5" />
                                                            <path
                                                                d="M14.7835 9.84488L13.136 10.8398C12.5525 11.1829 11.9346 11.4917 11.3511 11.7661C11.1795 11.8348 10.9736 11.9377 10.7676 12.0406C10.0468 12.418 9.66922 13.2071 9.84086 13.9962C9.97814 14.6137 10.493 15.1283 11.1108 15.2656C11.2481 15.2999 11.3854 15.2999 11.5227 15.2999C12.1749 15.2999 12.7584 14.9225 13.0673 14.3392C13.136 14.1677 13.2389 13.9618 13.3419 13.756C13.6508 13.1727 13.9254 12.5552 14.2687 11.972L15.2641 10.3252C15.3327 10.188 15.2984 10.0507 15.1954 9.91351C15.0925 9.77625 14.9208 9.77625 14.7835 9.84488ZM13.6851 11.5946C13.3076 12.2121 12.9987 12.8297 12.7241 13.4472C12.6554 13.6531 12.5525 13.8246 12.4495 14.0305C12.2435 14.4765 11.763 14.6823 11.2825 14.5794C10.9049 14.5108 10.596 14.202 10.5274 13.8246C10.4244 13.3443 10.6303 12.864 11.0765 12.6582C11.2482 12.5552 11.4541 12.4866 11.66 12.3837C12.2779 12.0749 12.93 11.7661 13.5136 11.4231L13.9598 11.1486L13.6851 11.5946Z"
                                                                fill="#444444" />
                                                        </svg>