       <svg width="24" height="23"
                                                            viewBox="0 0 24 23" fill="none"
                                                            xmlns="http://www.w3.org/2000/svg">
                                                            <path
                                                                d="M22.519 1.94238H18.5732C18.4941 1.94238 18.4183 1.97378 18.3625 2.02966C18.3066 2.08554 18.2752 2.16133 18.2752 2.24036C18.2752 2.29113 18.2912 2.33656 18.3133 2.37798V4.64819C18.3134 4.73138 18.297 4.81378 18.2652 4.89067C18.2334 4.96755 18.1868 5.0374 18.128 5.09623C18.0691 5.15506 17.9993 5.20171 17.9224 5.23351C17.8455 5.26531 17.7631 5.28163 17.6799 5.28154H16.4519C16.3747 5.28154 16.2983 5.26634 16.227 5.23679C16.1556 5.20724 16.0908 5.16394 16.0362 5.10934C15.9816 5.05475 15.9383 4.98994 15.9088 4.91861C15.8792 4.84728 15.864 4.77082 15.864 4.69362V2.41473C15.9034 2.36502 15.9255 2.30378 15.9268 2.24036C15.9269 2.2012 15.9193 2.16241 15.9043 2.12622C15.8894 2.09003 15.8674 2.05715 15.8397 2.02946C15.8121 2.00177 15.7792 1.97983 15.743 1.96489C15.7068 1.94994 15.668 1.9423 15.6288 1.94238H7.67512C7.5961 1.94238 7.52031 1.97378 7.46443 2.02966C7.40855 2.08554 7.37715 2.16133 7.37715 2.24036C7.37715 2.28645 7.38985 2.32855 7.40855 2.36796V4.66422C7.40855 4.74538 7.39257 4.82574 7.36151 4.90072C7.33046 4.97569 7.28493 5.04382 7.22755 5.10121C7.17016 5.15859 7.10204 5.20411 7.02706 5.23517C6.95208 5.26623 6.87172 5.28221 6.79056 5.28221H5.70022C5.53473 5.28221 5.37601 5.21647 5.25899 5.09945C5.14196 4.98242 5.07622 4.8237 5.07622 4.65821V2.38467C5.10275 2.34112 5.11727 2.29133 5.11831 2.24036C5.1184 2.2012 5.11075 2.16241 5.09581 2.12622C5.08086 2.09003 5.05892 2.05715 5.03123 2.02946C5.00354 2.00177 4.97066 1.97983 4.93447 1.96489C4.89828 1.94994 4.85949 1.9423 4.82034 1.94238H0.662754C0.487151 1.94256 0.31878 2.01235 0.194547 2.13646C0.0703141 2.26057 0.000353594 2.42887 0 2.60447V22.3361C0 22.7022 0.297304 22.9995 0.662754 22.9995H22.519C22.6947 22.9992 22.8631 22.9291 22.9872 22.8048C23.1113 22.6804 23.181 22.5118 23.181 22.3361V2.60447C23.1807 2.42898 23.1108 2.26078 22.9867 2.13669C22.8626 2.01261 22.6944 1.94274 22.519 1.94238ZM22.519 22.4036H0.662754C0.653924 22.4036 0.645182 22.4018 0.637032 22.3984C0.628883 22.395 0.621488 22.3901 0.615275 22.3838C0.609062 22.3775 0.604155 22.3701 0.600837 22.3619C0.597519 22.3537 0.595856 22.3449 0.595945 22.3361V7.45554H22.5851V22.3354C22.5853 22.3443 22.5837 22.3531 22.5805 22.3613C22.5772 22.3695 22.5724 22.377 22.5662 22.3833C22.5601 22.3897 22.5527 22.3947 22.5446 22.3982C22.5365 22.4017 22.5278 22.4035 22.519 22.4036Z"
                                                                fill="#444444" />
                                                            <path
                                                                d="M6.32336 4.6032C6.48772 4.6032 6.62134 4.46958 6.62134 4.30523V0.297972C6.62134 0.258842 6.61363 0.220095 6.59865 0.183943C6.58368 0.147792 6.56173 0.114943 6.53406 0.0872741C6.50639 0.0596049 6.47354 0.0376564 6.43739 0.0226819C6.40124 0.00770736 6.36249 0 6.32336 0C6.28423 0 6.24549 0.00770736 6.20933 0.0226819C6.17318 0.0376564 6.14033 0.0596049 6.11266 0.0872741C6.085 0.114943 6.06305 0.147792 6.04807 0.183943C6.0331 0.220095 6.02539 0.258842 6.02539 0.297972V4.3059C6.02539 4.47025 6.15901 4.6032 6.32336 4.6032Z"
                                                                fill="#444444" />
                                                            <path
                                                                d="M17.1154 4.6032C17.2797 4.6032 17.4133 4.46958 17.4133 4.30523V0.297972C17.4133 0.218945 17.3819 0.143155 17.3261 0.0872741C17.2702 0.0313935 17.1944 0 17.1154 0C17.0363 0 16.9605 0.0313935 16.9047 0.0872741C16.8488 0.143155 16.8174 0.218945 16.8174 0.297972V4.3059C16.8174 4.47025 16.9503 4.6032 17.1154 4.6032Z"
                                                                fill="#444444" />
                                                            <path
                                                                d="M4.78281 11.9631C5.68977 11.9631 6.425 11.2279 6.425 10.3209C6.425 9.41394 5.68977 8.67871 4.78281 8.67871C3.87586 8.67871 3.14062 9.41394 3.14062 10.3209C3.14062 11.2279 3.87586 11.9631 4.78281 11.9631Z"
                                                                fill="#444444" />
                                                            <path
                                                                d="M9.50254 11.9631C10.4095 11.9631 11.1447 11.2279 11.1447 10.3209C11.1447 9.41394 10.4095 8.67871 9.50254 8.67871C8.59558 8.67871 7.86035 9.41394 7.86035 10.3209C7.86035 11.2279 8.59558 11.9631 9.50254 11.9631Z"
                                                                fill="#444444" />
                                                            <path
                                                                d="M14.2213 11.9631C15.1282 11.9631 15.8635 11.2279 15.8635 10.3209C15.8635 9.41394 15.1282 8.67871 14.2213 8.67871C13.3143 8.67871 12.5791 9.41394 12.5791 10.3209C12.5791 11.2279 13.3143 11.9631 14.2213 11.9631Z"
                                                                fill="#444444" />
                                                            <path
                                                                d="M4.78281 16.5363C5.68977 16.5363 6.425 15.8011 6.425 14.8941C6.425 13.9872 5.68977 13.252 4.78281 13.252C3.87586 13.252 3.14062 13.9872 3.14062 14.8941C3.14062 15.8011 3.87586 16.5363 4.78281 16.5363Z"
                                                                fill="#444444" />
                                                            <path
                                                                d="M9.50254 16.5363C10.4095 16.5363 11.1447 15.8011 11.1447 14.8941C11.1447 13.9872 10.4095 13.252 9.50254 13.252C8.59558 13.252 7.86035 13.9872 7.86035 14.8941C7.86035 15.8011 8.59558 16.5363 9.50254 16.5363Z"
                                                                fill="#444444" />
                                                            <path
                                                                d="M14.2213 16.5363C15.1282 16.5363 15.8635 15.8011 15.8635 14.8941C15.8635 13.9872 15.1282 13.252 14.2213 13.252C13.3143 13.252 12.5791 13.9872 12.5791 14.8941C12.5791 15.8011 13.3143 16.5363 14.2213 16.5363Z"
                                                                fill="#444444" />
                                                            <path
                                                                d="M4.78281 21.1105C5.68977 21.1105 6.425 20.3753 6.425 19.4684C6.425 18.5614 5.68977 17.8262 4.78281 17.8262C3.87586 17.8262 3.14062 18.5614 3.14062 19.4684C3.14062 20.3753 3.87586 21.1105 4.78281 21.1105Z"
                                                                fill="#444444" />
                                                            <path
                                                                d="M9.50254 21.1105C10.4095 21.1105 11.1447 20.3753 11.1447 19.4684C11.1447 18.5614 10.4095 17.8262 9.50254 17.8262C8.59558 17.8262 7.86035 18.5614 7.86035 19.4684C7.86035 20.3753 8.59558 21.1105 9.50254 21.1105Z"
                                                                fill="#444444" />
                                                            <path
                                                                d="M14.2213 21.1105C15.1282 21.1105 15.8635 20.3753 15.8635 19.4684C15.8635 18.5614 15.1282 17.8262 14.2213 17.8262C13.3143 17.8262 12.5791 18.5614 12.5791 19.4684C12.5791 20.3753 13.3143 21.1105 14.2213 21.1105Z"
                                                                fill="#444444" />
                                                            <path
                                                                d="M18.8297 11.9631C19.7366 11.9631 20.4719 11.2279 20.4719 10.3209C20.4719 9.41394 19.7366 8.67871 18.8297 8.67871C17.9227 8.67871 17.1875 9.41394 17.1875 10.3209C17.1875 11.2279 17.9227 11.9631 18.8297 11.9631Z"
                                                                fill="#444444" />
                                                            <path
                                                                d="M18.8297 16.5363C19.7366 16.5363 20.4719 15.8011 20.4719 14.8941C20.4719 13.9872 19.7366 13.252 18.8297 13.252C17.9227 13.252 17.1875 13.9872 17.1875 14.8941C17.1875 15.8011 17.9227 16.5363 18.8297 16.5363Z"
                                                                fill="#444444" />
                                                            <path
                                                                d="M18.8297 21.1105C19.7366 21.1105 20.4719 20.3753 20.4719 19.4684C20.4719 18.5614 19.7366 17.8262 18.8297 17.8262C17.9227 17.8262 17.1875 18.5614 17.1875 19.4684C17.1875 20.3753 17.9227 21.1105 18.8297 21.1105Z"
                                                                fill="#444444" />
                                                        </svg>
