<svg width="471" height="137" viewBox="0 0 471 137" fill="none" xmlns="http://www.w3.org/2000/svg">
<path d="M462.169 27.5713H8.83125C3.95389 27.5713 0 31.4288 0 36.1874V100.521C0 105.279 3.95389 109.137 8.83125 109.137H462.169C467.046 109.137 471 105.279 471 100.521V36.1874C471 31.4288 467.046 27.5713 462.169 27.5713Z" fill="#626262"/>
<path d="M5.89062 37.0492C5.89062 34.67 7.86759 32.7412 10.3063 32.7412H64.7656V102.819H10.3063C7.86759 102.819 5.89062 100.89 5.89062 98.5106V37.0492Z" fill="#444444"/>
<path d="M5.89062 37.0492C5.89062 34.67 7.86759 32.7412 10.3063 32.7412H64.7656V55.143H5.89062V37.0492Z" fill="url(#paint0_linear_3071_34300)"/>
<path d="M64.7656 102.818H10.3063C7.86759 102.818 5.89062 100.889 5.89062 98.5103V80.4165H64.7656V102.818Z" fill="url(#paint1_linear_3071_34300)"/>
<path d="M18.2734 67.4351C18.2734 60.8484 19.6472 55.6598 22.3947 51.8687C25.1421 48.0777 29.4597 46.1821 35.3472 46.1821C41.2347 46.1821 45.5522 48.0777 48.2997 51.8687C51.0864 55.6598 52.4798 60.8484 52.4798 67.4351C52.4798 74.0982 51.106 79.3253 48.3586 83.1164C45.611 86.9074 41.2739 88.803 35.3472 88.803C29.4204 88.803 25.0833 86.9074 22.3358 83.1164C19.6276 79.3253 18.2734 74.0982 18.2734 67.4351ZM41.0581 67.4351C41.0581 63.9887 40.6852 61.3654 39.9394 59.5658C39.1937 57.7277 37.6629 56.8086 35.3472 56.8086C33.0314 56.8086 31.5007 57.7277 30.7549 59.5658C30.0092 61.3654 29.6363 63.9887 29.6363 67.4351C29.6363 70.9579 29.9896 73.6387 30.6961 75.4768C31.4418 77.2764 32.9922 78.1765 35.3472 78.1765C37.7022 78.1765 39.2329 77.2764 39.9394 75.4768C40.6852 73.6387 41.0581 70.9579 41.0581 67.4351Z" fill="white"/>
<path d="M129.523 33.3154H70.6484V103.393H129.523V33.3154Z" fill="#444444"/>
<path d="M129.523 33.3154H70.6484V55.7172H129.523V33.3154Z" fill="url(#paint2_linear_3071_34300)"/>
<path d="M70.6484 103.393H129.523V80.9913H70.6484V103.393Z" fill="url(#paint3_linear_3071_34300)"/>
<path d="M83.0391 66.8609C83.0391 60.2742 84.4126 55.0856 87.1603 51.2945C89.9074 47.5034 94.2253 45.6079 100.113 45.6079C106 45.6079 110.318 47.5034 113.065 51.2945C115.852 55.0856 117.245 60.2742 117.245 66.8609C117.245 73.524 115.871 78.7511 113.124 82.5422C110.376 86.3332 106.039 88.2288 100.113 88.2288C94.1859 88.2288 89.8485 86.3332 87.1014 82.5422C84.3932 78.7511 83.0391 73.524 83.0391 66.8609ZM105.824 66.8609C105.824 63.4145 105.45 60.7912 104.705 58.9915C103.959 57.1534 102.428 56.2344 100.113 56.2344C97.7967 56.2344 96.2659 57.1534 95.5206 58.9915C94.7746 60.7912 94.4019 63.4145 94.4019 66.8609C94.4019 70.3837 94.7552 73.0645 95.4617 74.9026C96.207 76.7022 97.7578 77.6023 100.113 77.6023C102.468 77.6023 103.999 76.7022 104.705 74.9026C105.45 73.0645 105.824 70.3837 105.824 66.8609Z" fill="white"/>
<path d="M194.289 33.3154H135.414V103.393H194.289V33.3154Z" fill="#444444"/>
<path d="M194.289 33.3154H135.414V55.7172H194.289V33.3154Z" fill="url(#paint4_linear_3071_34300)"/>
<path d="M135.414 103.393H194.289V80.9913H135.414V103.393Z" fill="url(#paint5_linear_3071_34300)"/>
<path d="M147.797 66.8609C147.797 60.2742 149.17 55.0856 151.918 51.2945C154.665 47.5034 158.983 45.6079 164.871 45.6079C170.758 45.6079 175.075 47.5034 177.823 51.2945C180.61 55.0856 182.003 60.2742 182.003 66.8609C182.003 73.524 180.629 78.7511 177.882 82.5422C175.134 86.3332 170.797 88.2288 164.871 88.2288C158.944 88.2288 154.606 86.3332 151.859 82.5422C149.151 78.7511 147.797 73.524 147.797 66.8609ZM170.582 66.8609C170.582 63.4145 170.208 60.7912 169.463 58.9915C168.717 57.1534 167.186 56.2344 164.871 56.2344C162.554 56.2344 161.024 57.1534 160.278 58.9915C159.532 60.7912 159.16 63.4145 159.16 66.8609C159.16 70.3837 159.513 73.0645 160.22 74.9026C160.965 76.7022 162.516 77.6023 164.871 77.6023C167.226 77.6023 168.756 76.7022 169.463 74.9026C170.208 73.0645 170.582 70.3837 170.582 66.8609Z" fill="white"/>
<path d="M259.047 33.3154H200.172V103.393H259.047V33.3154Z" fill="#444444"/>
<path d="M259.047 33.3154H200.172V55.7172H259.047V33.3154Z" fill="url(#paint6_linear_3071_34300)"/>
<path d="M200.172 103.393H259.047V80.9913H200.172V103.393Z" fill="url(#paint7_linear_3071_34300)"/>
<path d="M219.289 57.0383V46.4692H237.423V88.4583H225.353V57.0383H219.289Z" fill="white"/>
<path d="M323.812 33.3154H264.938V103.393H323.812V33.3154Z" fill="#444444"/>
<path d="M323.812 33.3154H264.938V55.7172H323.812V33.3154Z" fill="url(#paint8_linear_3071_34300)"/>
<path d="M264.938 103.393H323.812V80.9913H264.938V103.393Z" fill="url(#paint9_linear_3071_34300)"/>
<path d="M279.555 79.4404C283.363 76.5299 286.483 74.022 288.916 71.9157C291.35 69.8093 293.391 67.6461 295.039 65.4249C296.688 63.1658 297.512 61.0209 297.512 58.9915C297.512 57.7663 297.218 56.8088 296.629 56.1195C296.08 55.4302 295.255 55.0856 294.156 55.0856C293.018 55.0856 292.135 55.5642 291.507 56.5216C290.879 57.4407 290.585 58.8003 290.624 60.5999H279.438C279.555 57.1918 280.321 54.3772 281.734 52.1561C283.147 49.8968 284.992 48.2502 287.268 47.2162C289.545 46.144 292.076 45.6079 294.863 45.6079C299.691 45.6079 303.282 46.7758 305.637 49.1118C307.992 51.4477 309.169 54.4729 309.169 58.1874C309.169 62.1697 307.796 65.9034 305.048 69.3883C302.34 72.8732 298.945 75.9939 294.863 78.7511H309.582V87.8841H279.555V79.4404Z" fill="white"/>
<path d="M388.578 33.3154H329.703V103.393H388.578V33.3154Z" fill="#444444"/>
<path d="M388.578 33.3154H329.703V55.7172H388.578V33.3154Z" fill="url(#paint10_linear_3071_34300)"/>
<path d="M329.703 103.393H388.578V80.9913H329.703V103.393Z" fill="url(#paint11_linear_3071_34300)"/>
<path d="M343.994 58.9914C344.152 54.6642 345.525 51.3518 348.116 49.0542C350.706 46.7182 354.318 45.5503 358.949 45.5503C361.971 45.5503 364.542 46.0673 366.661 47.1012C368.82 48.0968 370.449 49.4754 371.548 51.2369C372.647 52.9601 373.196 54.9131 373.196 57.0958C373.196 59.6996 372.549 61.787 371.254 63.3569C369.958 64.8888 368.486 65.9227 366.838 66.4586V66.6884C371.587 68.4116 373.962 71.7047 373.962 76.5682C373.962 78.9807 373.393 81.106 372.254 82.9441C371.116 84.7822 369.468 86.2182 367.309 87.2521C365.151 88.286 362.58 88.803 359.596 88.803C354.69 88.803 350.805 87.6542 347.939 85.3566C345.113 83.0205 343.641 79.4592 343.523 74.6726H354.769C354.69 76.2046 355.024 77.3913 355.769 78.2339C356.515 79.0766 357.634 79.4976 359.125 79.4976C360.264 79.4976 361.147 79.153 361.775 78.4637C362.442 77.7744 362.776 76.8554 362.776 75.7066C362.776 74.2516 362.285 73.1792 361.304 72.4899C360.362 71.8006 358.812 71.456 356.653 71.456H354.592V62.3229H356.594C358.086 62.3614 359.341 62.1316 360.362 61.6336C361.421 61.0977 361.951 60.0443 361.951 58.4744C361.951 57.2873 361.657 56.4065 361.068 55.8321C360.479 55.2194 359.675 54.9131 358.654 54.9131C357.516 54.9131 356.673 55.3152 356.123 56.1193C355.613 56.8852 355.318 57.8426 355.24 58.9914H343.994Z" fill="white"/>
<path d="M406.234 32.7412H460.694C463.132 32.7412 465.109 34.67 465.109 37.0492V98.5106C465.109 100.89 463.132 102.819 460.694 102.819H406.234V32.7412Z" fill="#FBFBFB"/>
<mask id="mask0_3071_34300" style="mask-type:alpha" maskUnits="userSpaceOnUse" x="418" y="21" width="36" height="93">
<path d="M418.328 56.2919V46.9866L436.403 21.8276H449.061V46.5271H453.594V56.2919H449.061V63.1848H437.404V56.2919H418.328ZM438.287 34.522L430.162 46.5271H438.287V34.522Z" fill="url(#paint12_linear_3071_34300)"/>
<path d="M450.003 81.1062H432.34V87.4821C433.086 86.7164 434.107 86.1035 435.402 85.644C436.697 85.1844 438.13 84.9547 439.7 84.9547C442.526 84.9547 444.881 85.5865 446.765 86.8502C448.688 88.1139 450.101 89.7797 451.004 91.8475C451.907 93.9154 452.358 96.1745 452.358 98.6255C452.358 103.144 451.043 106.706 448.413 109.309C445.784 111.875 442.134 113.158 437.462 113.158C434.205 113.158 431.379 112.622 428.984 111.55C426.629 110.439 424.824 108.907 423.568 106.954C422.312 105.001 421.664 102.761 421.625 100.234H432.87C432.988 101.114 433.381 101.881 434.048 102.531C434.715 103.182 435.696 103.508 436.991 103.508C438.366 103.508 439.405 103.048 440.112 102.129C440.818 101.21 441.172 99.9851 441.172 98.4532C441.172 96.9597 440.799 95.8299 440.053 95.0642C439.308 94.26 438.228 93.8579 436.815 93.8579C435.755 93.8579 434.892 94.1262 434.224 94.6621C433.597 95.1601 433.223 95.792 433.106 96.5577H421.861V71.1689H450.003V81.1062Z" fill="url(#paint13_linear_3071_34300)"/>
</mask>
<g mask="url(#mask0_3071_34300)">
<path d="M406.242 32.7412H460.702C463.14 32.7412 465.117 34.67 465.117 37.0492V98.5106C465.117 100.89 463.14 102.819 460.702 102.819H406.242V32.7412Z" fill="url(#paint14_linear_3071_34300)"/>
</g>
<path d="M465.109 98.5103C465.109 100.889 463.132 102.818 460.694 102.818H406.234V80.4165H465.109V98.5103Z" fill="url(#paint15_linear_3071_34300)"/>
<path d="M406.234 32.7412H460.694C463.132 32.7412 465.109 34.67 465.109 37.0492V55.143H406.234V32.7412Z" fill="url(#paint16_linear_3071_34300)"/>
<defs>
<linearGradient id="paint0_linear_3071_34300" x1="35.3281" y1="32.7412" x2="35.3281" y2="55.143" gradientUnits="userSpaceOnUse">
<stop stop-color="#D1C9C9"/>
<stop offset="1" stop-color="#383838" stop-opacity="0"/>
</linearGradient>
<linearGradient id="paint1_linear_3071_34300" x1="35.3281" y1="102.818" x2="35.3281" y2="80.4165" gradientUnits="userSpaceOnUse">
<stop stop-color="#D1C9C9"/>
<stop offset="1" stop-color="#383838" stop-opacity="0"/>
</linearGradient>
<linearGradient id="paint2_linear_3071_34300" x1="100.086" y1="33.3154" x2="100.086" y2="55.7172" gradientUnits="userSpaceOnUse">
<stop stop-color="#D1C9C9"/>
<stop offset="1" stop-color="#383838" stop-opacity="0"/>
</linearGradient>
<linearGradient id="paint3_linear_3071_34300" x1="100.086" y1="103.393" x2="100.086" y2="80.9913" gradientUnits="userSpaceOnUse">
<stop stop-color="#D1C9C9"/>
<stop offset="1" stop-color="#383838" stop-opacity="0"/>
</linearGradient>
<linearGradient id="paint4_linear_3071_34300" x1="164.852" y1="33.3154" x2="164.852" y2="55.7172" gradientUnits="userSpaceOnUse">
<stop stop-color="#D1C9C9"/>
<stop offset="1" stop-color="#383838" stop-opacity="0"/>
</linearGradient>
<linearGradient id="paint5_linear_3071_34300" x1="164.852" y1="103.393" x2="164.852" y2="80.9913" gradientUnits="userSpaceOnUse">
<stop stop-color="#D1C9C9"/>
<stop offset="1" stop-color="#383838" stop-opacity="0"/>
</linearGradient>
<linearGradient id="paint6_linear_3071_34300" x1="229.609" y1="33.3154" x2="229.609" y2="55.7172" gradientUnits="userSpaceOnUse">
<stop stop-color="#D1C9C9"/>
<stop offset="1" stop-color="#383838" stop-opacity="0"/>
</linearGradient>
<linearGradient id="paint7_linear_3071_34300" x1="229.609" y1="103.393" x2="229.609" y2="80.9913" gradientUnits="userSpaceOnUse">
<stop stop-color="#D1C9C9"/>
<stop offset="1" stop-color="#383838" stop-opacity="0"/>
</linearGradient>
<linearGradient id="paint8_linear_3071_34300" x1="294.375" y1="33.3154" x2="294.375" y2="55.7172" gradientUnits="userSpaceOnUse">
<stop stop-color="#D1C9C9"/>
<stop offset="1" stop-color="#383838" stop-opacity="0"/>
</linearGradient>
<linearGradient id="paint9_linear_3071_34300" x1="294.375" y1="103.393" x2="294.375" y2="80.9913" gradientUnits="userSpaceOnUse">
<stop stop-color="#D1C9C9"/>
<stop offset="1" stop-color="#383838" stop-opacity="0"/>
</linearGradient>
<linearGradient id="paint10_linear_3071_34300" x1="359.141" y1="33.3154" x2="359.141" y2="55.7172" gradientUnits="userSpaceOnUse">
<stop stop-color="#D1C9C9"/>
<stop offset="1" stop-color="#383838" stop-opacity="0"/>
</linearGradient>
<linearGradient id="paint11_linear_3071_34300" x1="359.141" y1="103.393" x2="359.141" y2="80.9913" gradientUnits="userSpaceOnUse">
<stop stop-color="#D1C9C9"/>
<stop offset="1" stop-color="#383838" stop-opacity="0"/>
</linearGradient>
<linearGradient id="paint12_linear_3071_34300" x1="400.641" y1="-7.03881" x2="460.968" y2="73.2678" gradientUnits="userSpaceOnUse">
<stop stop-color="#2F2F2F"/>
<stop offset="0.973958" stop-color="#151515"/>
</linearGradient>
<linearGradient id="paint13_linear_3071_34300" x1="400.638" y1="65.3387" x2="454.537" y2="143.495" gradientUnits="userSpaceOnUse">
<stop stop-color="#2F2F2F"/>
<stop offset="0.973958" stop-color="#151515"/>
</linearGradient>
<linearGradient id="paint14_linear_3071_34300" x1="400.643" y1="25.7022" x2="460.969" y2="106.009" gradientUnits="userSpaceOnUse">
<stop stop-color="#2F2F2F"/>
<stop offset="0.973958" stop-color="#151515"/>
</linearGradient>
<linearGradient id="paint15_linear_3071_34300" x1="435.672" y1="102.818" x2="435.672" y2="80.4165" gradientUnits="userSpaceOnUse">
<stop stop-color="#727171"/>
<stop offset="1" stop-color="white" stop-opacity="0"/>
</linearGradient>
<linearGradient id="paint16_linear_3071_34300" x1="435.672" y1="32.7412" x2="435.672" y2="55.143" gradientUnits="userSpaceOnUse">
<stop stop-color="#727171"/>
<stop offset="1" stop-color="white" stop-opacity="0"/>
</linearGradient>
</defs>
</svg>
