<svg width="800" height="237" viewBox="0 0 800 237" fill="none" xmlns="http://www.w3.org/2000/svg">
<rect y="48" width="800" height="142" rx="15" fill="#626262"/>
<path d="M690 57H782.5C786.642 57 790 60.3579 790 64.5V171.5C790 175.642 786.642 179 782.5 179H690V57Z" fill="#FBFBFB"/>
<mask id="mask0_3904_34336" style="mask-type:alpha" maskUnits="userSpaceOnUse" x="710" y="38" width="61" height="159">
<path d="M710.53 98V81.8L741.23 38H762.73V81H770.43V98H762.73V110H742.93V98H710.53ZM744.43 60.1L730.63 81H744.43V60.1Z" fill="url(#paint0_linear_3904_34336)"/>
<path d="M764.336 141.2H734.336V152.3C735.603 150.967 737.336 149.9 739.536 149.1C741.736 148.3 744.17 147.9 746.836 147.9C751.636 147.9 755.636 149 758.836 151.2C762.103 153.4 764.503 156.3 766.036 159.9C767.57 163.5 768.336 167.433 768.336 171.7C768.336 179.567 766.103 185.767 761.636 190.3C757.17 194.767 750.97 197 743.036 197C737.503 197 732.703 196.067 728.636 194.2C724.636 192.267 721.57 189.6 719.436 186.2C717.303 182.8 716.203 178.9 716.136 174.5H735.236C735.436 176.033 736.103 177.367 737.236 178.5C738.37 179.633 740.036 180.2 742.236 180.2C744.57 180.2 746.336 179.4 747.536 177.8C748.736 176.2 749.336 174.067 749.336 171.4C749.336 168.8 748.703 166.833 747.436 165.5C746.17 164.1 744.336 163.4 741.936 163.4C740.136 163.4 738.67 163.867 737.536 164.8C736.47 165.667 735.836 166.767 735.636 168.1H716.536V123.9H764.336V141.2Z" fill="url(#paint1_linear_3904_34336)"/>
</mask>
<g mask="url(#mask0_3904_34336)">
<path d="M690 57H782.5C786.642 57 790 60.3579 790 64.5V171.5C790 175.642 786.642 179 782.5 179H690V57Z" fill="url(#paint2_linear_3904_34336)"/>
</g>
<path d="M790 171.5C790 175.642 786.642 179 782.5 179H690V140H790V171.5Z" fill="url(#paint3_linear_3904_34336)"/>
<path d="M690 57H782.5C786.642 57 790 60.3579 790 64.5V96H690V57Z" fill="url(#paint4_linear_3904_34336)"/>
<path d="M9 64.5C9 60.3579 12.3579 57 16.5 57H109V179H16.5C12.3579 179 9 175.642 9 171.5V64.5Z" fill="#444444"/>
<path d="M9 64.5C9 60.3579 12.3579 57 16.5 57H109V96H9V64.5Z" fill="url(#paint5_linear_3904_34336)"/>
<path d="M109 179H16.5C12.3579 179 9 175.642 9 171.5V140H109V179Z" fill="url(#paint6_linear_3904_34336)"/>
<path d="M30.0387 117.4C30.0387 105.933 32.372 96.9 37.0387 90.3C41.7053 83.7 49.0387 80.4 59.0387 80.4C69.0387 80.4 76.372 83.7 81.0387 90.3C85.772 96.9 88.1387 105.933 88.1387 117.4C88.1387 129 85.8053 138.1 81.1387 144.7C76.472 151.3 69.1053 154.6 59.0387 154.6C48.972 154.6 41.6053 151.3 36.9387 144.7C32.3387 138.1 30.0387 129 30.0387 117.4ZM68.7387 117.4C68.7387 111.4 68.1053 106.833 66.8387 103.7C65.572 100.5 62.972 98.9 59.0387 98.9C55.1053 98.9 52.5053 100.5 51.2387 103.7C49.972 106.833 49.3387 111.4 49.3387 117.4C49.3387 123.533 49.9387 128.2 51.1387 131.4C52.4053 134.533 55.0387 136.1 59.0387 136.1C63.0387 136.1 65.6387 134.533 66.8387 131.4C68.1053 128.2 68.7387 123.533 68.7387 117.4Z" fill="white"/>
<rect x="118" y="57" width="100" height="122" fill="#444444"/>
<rect x="118" y="57" width="100" height="39" fill="url(#paint7_linear_3904_34336)"/>
<rect x="218" y="179" width="100" height="39" transform="rotate(-180 218 179)" fill="url(#paint8_linear_3904_34336)"/>
<path d="M139.039 115.4C139.039 103.933 141.372 94.9 146.039 88.3C150.705 81.7 158.039 78.4 168.039 78.4C178.039 78.4 185.372 81.7 190.039 88.3C194.772 94.9 197.139 103.933 197.139 115.4C197.139 127 194.805 136.1 190.139 142.7C185.472 149.3 178.105 152.6 168.039 152.6C157.972 152.6 150.605 149.3 145.939 142.7C141.339 136.1 139.039 127 139.039 115.4ZM177.739 115.4C177.739 109.4 177.105 104.833 175.839 101.7C174.572 98.5 171.972 96.9 168.039 96.9C164.105 96.9 161.505 98.5 160.239 101.7C158.972 104.833 158.339 109.4 158.339 115.4C158.339 121.533 158.939 126.2 160.139 129.4C161.405 132.533 164.039 134.1 168.039 134.1C172.039 134.1 174.639 132.533 175.839 129.4C177.105 126.2 177.739 121.533 177.739 115.4Z" fill="white"/>
<rect x="227" y="57" width="100" height="122" fill="#444444"/>
<rect x="227" y="57" width="100" height="39" fill="url(#paint9_linear_3904_34336)"/>
<rect x="327" y="179" width="100" height="39" transform="rotate(-180 327 179)" fill="url(#paint10_linear_3904_34336)"/>
<path d="M248.039 115.4C248.039 103.933 250.372 94.9 255.039 88.3C259.705 81.7 267.039 78.4 277.039 78.4C287.039 78.4 294.372 81.7 299.039 88.3C303.772 94.9 306.139 103.933 306.139 115.4C306.139 127 303.805 136.1 299.139 142.7C294.472 149.3 287.105 152.6 277.039 152.6C266.972 152.6 259.605 149.3 254.939 142.7C250.339 136.1 248.039 127 248.039 115.4ZM286.739 115.4C286.739 109.4 286.105 104.833 284.839 101.7C283.572 98.5 280.972 96.9 277.039 96.9C273.105 96.9 270.505 98.5 269.239 101.7C267.972 104.833 267.339 109.4 267.339 115.4C267.339 121.533 267.939 126.2 269.139 129.4C270.405 132.533 273.039 134.1 277.039 134.1C281.039 134.1 283.639 132.533 284.839 129.4C286.105 126.2 286.739 121.533 286.739 115.4Z" fill="white"/>
<rect x="336" y="57" width="100" height="122" fill="#444444"/>
<rect x="336" y="57" width="100" height="39" fill="url(#paint11_linear_3904_34336)"/>
<rect x="436" y="179" width="100" height="39" transform="rotate(-180 436 179)" fill="url(#paint12_linear_3904_34336)"/>
<path d="M357.039 115.4C357.039 103.933 359.372 94.9 364.039 88.3C368.705 81.7 376.039 78.4 386.039 78.4C396.039 78.4 403.372 81.7 408.039 88.3C412.772 94.9 415.139 103.933 415.139 115.4C415.139 127 412.805 136.1 408.139 142.7C403.472 149.3 396.105 152.6 386.039 152.6C375.972 152.6 368.605 149.3 363.939 142.7C359.339 136.1 357.039 127 357.039 115.4ZM395.739 115.4C395.739 109.4 395.105 104.833 393.839 101.7C392.572 98.5 389.972 96.9 386.039 96.9C382.105 96.9 379.505 98.5 378.239 101.7C376.972 104.833 376.339 109.4 376.339 115.4C376.339 121.533 376.939 126.2 378.139 129.4C379.405 132.533 382.039 134.1 386.039 134.1C390.039 134.1 392.639 132.533 393.839 129.4C395.105 126.2 395.739 121.533 395.739 115.4Z" fill="white"/>
<rect x="445" y="57" width="100" height="122" fill="#444444"/>
<rect x="445" y="57" width="100" height="39" fill="url(#paint13_linear_3904_34336)"/>
<rect x="545" y="179" width="100" height="39" transform="rotate(-180 545 179)" fill="url(#paint14_linear_3904_34336)"/>
<path d="M466.039 115.4C466.039 103.933 468.372 94.9 473.039 88.3C477.705 81.7 485.039 78.4 495.039 78.4C505.039 78.4 512.372 81.7 517.039 88.3C521.772 94.9 524.139 103.933 524.139 115.4C524.139 127 521.805 136.1 517.139 142.7C512.472 149.3 505.105 152.6 495.039 152.6C484.972 152.6 477.605 149.3 472.939 142.7C468.339 136.1 466.039 127 466.039 115.4ZM504.739 115.4C504.739 109.4 504.105 104.833 502.839 101.7C501.572 98.5 498.972 96.9 495.039 96.9C491.105 96.9 488.505 98.5 487.239 101.7C485.972 104.833 485.339 109.4 485.339 115.4C485.339 121.533 485.939 126.2 487.139 129.4C488.405 132.533 491.039 134.1 495.039 134.1C499.039 134.1 501.639 132.533 502.839 129.4C504.105 126.2 504.739 121.533 504.739 115.4Z" fill="white"/>
<rect x="554" y="57" width="100" height="122" fill="#444444"/>
<rect x="554" y="57" width="100" height="39" fill="url(#paint15_linear_3904_34336)"/>
<rect x="654" y="179" width="100" height="39" transform="rotate(-180 654 179)" fill="url(#paint16_linear_3904_34336)"/>
<path d="M575.039 115.4C575.039 103.933 577.372 94.9 582.039 88.3C586.705 81.7 594.039 78.4 604.039 78.4C614.039 78.4 621.372 81.7 626.039 88.3C630.772 94.9 633.139 103.933 633.139 115.4C633.139 127 630.805 136.1 626.139 142.7C621.472 149.3 614.105 152.6 604.039 152.6C593.972 152.6 586.605 149.3 581.939 142.7C577.339 136.1 575.039 127 575.039 115.4ZM613.739 115.4C613.739 109.4 613.105 104.833 611.839 101.7C610.572 98.5 607.972 96.9 604.039 96.9C600.105 96.9 597.505 98.5 596.239 101.7C594.972 104.833 594.339 109.4 594.339 115.4C594.339 121.533 594.939 126.2 596.139 129.4C597.405 132.533 600.039 134.1 604.039 134.1C608.039 134.1 610.639 132.533 611.839 129.4C613.105 126.2 613.739 121.533 613.739 115.4Z" fill="white"/>
<defs>
<linearGradient id="paint0_linear_3904_34336" x1="680.489" y1="-12.2545" x2="786.208" y2="125.049" gradientUnits="userSpaceOnUse">
<stop stop-color="#2F2F2F"/>
<stop offset="0.973958" stop-color="#151515"/>
</linearGradient>
<linearGradient id="paint1_linear_3904_34336" x1="680.489" y1="113.75" x2="775.125" y2="247.633" gradientUnits="userSpaceOnUse">
<stop stop-color="#2F2F2F"/>
<stop offset="0.973958" stop-color="#151515"/>
</linearGradient>
<linearGradient id="paint2_linear_3904_34336" x1="680.489" y1="44.7455" x2="786.208" y2="182.049" gradientUnits="userSpaceOnUse">
<stop stop-color="#2F2F2F"/>
<stop offset="0.973958" stop-color="#151515"/>
</linearGradient>
<linearGradient id="paint3_linear_3904_34336" x1="740" y1="179" x2="740" y2="140" gradientUnits="userSpaceOnUse">
<stop stop-color="#727171"/>
<stop offset="1" stop-color="white" stop-opacity="0"/>
</linearGradient>
<linearGradient id="paint4_linear_3904_34336" x1="740" y1="57" x2="740" y2="96" gradientUnits="userSpaceOnUse">
<stop stop-color="#727171"/>
<stop offset="1" stop-color="white" stop-opacity="0"/>
</linearGradient>
<linearGradient id="paint5_linear_3904_34336" x1="59" y1="57" x2="59" y2="96" gradientUnits="userSpaceOnUse">
<stop stop-color="#D1C9C9"/>
<stop offset="1" stop-color="#383838" stop-opacity="0"/>
</linearGradient>
<linearGradient id="paint6_linear_3904_34336" x1="59" y1="179" x2="59" y2="140" gradientUnits="userSpaceOnUse">
<stop stop-color="#D1C9C9"/>
<stop offset="1" stop-color="#383838" stop-opacity="0"/>
</linearGradient>
<linearGradient id="paint7_linear_3904_34336" x1="168" y1="57" x2="168" y2="96" gradientUnits="userSpaceOnUse">
<stop stop-color="#D1C9C9"/>
<stop offset="1" stop-color="#383838" stop-opacity="0"/>
</linearGradient>
<linearGradient id="paint8_linear_3904_34336" x1="268" y1="179" x2="268" y2="218" gradientUnits="userSpaceOnUse">
<stop stop-color="#D1C9C9"/>
<stop offset="1" stop-color="#383838" stop-opacity="0"/>
</linearGradient>
<linearGradient id="paint9_linear_3904_34336" x1="277" y1="57" x2="277" y2="96" gradientUnits="userSpaceOnUse">
<stop stop-color="#D1C9C9"/>
<stop offset="1" stop-color="#383838" stop-opacity="0"/>
</linearGradient>
<linearGradient id="paint10_linear_3904_34336" x1="377" y1="179" x2="377" y2="218" gradientUnits="userSpaceOnUse">
<stop stop-color="#D1C9C9"/>
<stop offset="1" stop-color="#383838" stop-opacity="0"/>
</linearGradient>
<linearGradient id="paint11_linear_3904_34336" x1="386" y1="57" x2="386" y2="96" gradientUnits="userSpaceOnUse">
<stop stop-color="#D1C9C9"/>
<stop offset="1" stop-color="#383838" stop-opacity="0"/>
</linearGradient>
<linearGradient id="paint12_linear_3904_34336" x1="486" y1="179" x2="486" y2="218" gradientUnits="userSpaceOnUse">
<stop stop-color="#D1C9C9"/>
<stop offset="1" stop-color="#383838" stop-opacity="0"/>
</linearGradient>
<linearGradient id="paint13_linear_3904_34336" x1="495" y1="57" x2="495" y2="96" gradientUnits="userSpaceOnUse">
<stop stop-color="#D1C9C9"/>
<stop offset="1" stop-color="#383838" stop-opacity="0"/>
</linearGradient>
<linearGradient id="paint14_linear_3904_34336" x1="595" y1="179" x2="595" y2="218" gradientUnits="userSpaceOnUse">
<stop stop-color="#D1C9C9"/>
<stop offset="1" stop-color="#383838" stop-opacity="0"/>
</linearGradient>
<linearGradient id="paint15_linear_3904_34336" x1="604" y1="57" x2="604" y2="96" gradientUnits="userSpaceOnUse">
<stop stop-color="#D1C9C9"/>
<stop offset="1" stop-color="#383838" stop-opacity="0"/>
</linearGradient>
<linearGradient id="paint16_linear_3904_34336" x1="704" y1="179" x2="704" y2="218" gradientUnits="userSpaceOnUse">
<stop stop-color="#D1C9C9"/>
<stop offset="1" stop-color="#383838" stop-opacity="0"/>
</linearGradient>
</defs>
</svg>
