<svg width="800" height="237" viewBox="0 0 800 237" fill="none" xmlns="http://www.w3.org/2000/svg">
<rect y="48" width="800" height="142" rx="15" fill="#626262"/>
<path d="M690 57H782.5C786.642 57 790 60.3579 790 64.5V171.5C790 175.642 786.642 179 782.5 179H690V57Z" fill="#FBFBFB"/>
<mask id="mask0_3904_34336" style="mask-type:alpha" maskUnits="userSpaceOnUse" x="710" y="38" width="61" height="159">
<path d="M710.53 98V81.8L741.23 38H762.73V81H770.43V98H762.73V110H742.93V98H710.53ZM744.43 60.1L730.63 81H744.43V60.1Z" fill="url(#paint0_linear_3904_34336)"/>
<path d="M764.336 141.2H734.336V152.3C735.603 150.967 737.336 149.9 739.536 149.1C741.736 148.3 744.17 147.9 746.836 147.9C751.636 147.9 755.636 149 758.836 151.2C762.103 153.4 764.503 156.3 766.036 159.9C767.57 163.5 768.336 167.433 768.336 171.7C768.336 179.567 766.103 185.767 761.636 190.3C757.17 194.767 750.97 197 743.036 197C737.503 197 732.703 196.067 728.636 194.2C724.636 192.267 721.57 189.6 719.436 186.2C717.303 182.8 716.203 178.9 716.136 174.5H735.236C735.436 176.033 736.103 177.367 737.236 178.5C738.37 179.633 740.036 180.2 742.236 180.2C744.57 180.2 746.336 179.4 747.536 177.8C748.736 176.2 749.336 174.067 749.336 171.4C749.336 168.8 748.703 166.833 747.436 165.5C746.17 164.1 744.336 163.4 741.936 163.4C740.136 163.4 738.67 163.867 737.536 164.8C736.47 165.667 735.836 166.767 735.636 168.1H716.536V123.9H764.336V141.2Z" fill="url(#paint1_linear_3904_34336)"/>
</mask>
<g mask="url(#mask0_3904_34336)">
<path d="M690 57H782.5C786.642 57 790 60.3579 790 64.5V171.5C790 175.642 786.642 179 782.5 179H690V57Z" fill="url(#paint2_linear_3904_34336)"/>
</g>
<path d="M790 171.5C790 175.642 786.642 179 782.5 179H690V140H790V171.5Z" fill="url(#paint3_linear_3904_34336)"/>
<path d="M690 57H782.5C786.642 57 790 60.3579 790 64.5V96H690V57Z" fill="url(#paint4_linear_3904_34336)"/>
<path d="M9 64.5C9 60.3579 12.3579 57 16.5 57H109V179H16.5C12.3579 179 9 175.642 9 171.5V64.5Z" fill="#444444"/>
<path d="M9 64.5C9 60.3579 12.3579 57 16.5 57H109V96H9V64.5Z" fill="url(#paint5_linear_3904_34336)"/>
<path d="M109 179H16.5C12.3579 179 9 175.642 9 171.5V140H109V179Z" fill="url(#paint6_linear_3904_34336)"/>
<path d="M33.2824 103.7C33.5491 96.1667 35.8824 90.4 40.2824 86.4C44.6824 82.3333 50.8158 80.3 58.6824 80.3C63.8158 80.3 68.1824 81.2 71.7824 83C75.4491 84.7333 78.2158 87.1333 80.0824 90.2C81.9491 93.2 82.8824 96.6 82.8824 100.4C82.8824 104.933 81.7824 108.567 79.5824 111.3C77.3824 113.967 74.8824 115.767 72.0824 116.7V117.1C80.1491 120.1 84.1824 125.833 84.1824 134.3C84.1824 138.5 83.2158 142.2 81.2824 145.4C79.3491 148.6 76.5491 151.1 72.8824 152.9C69.2158 154.7 64.8491 155.6 59.7824 155.6C51.4491 155.6 44.8491 153.6 39.9824 149.6C35.1824 145.533 32.6824 139.333 32.4824 131H51.5824C51.4491 133.667 52.0158 135.733 53.2824 137.2C54.5491 138.667 56.4491 139.4 58.9824 139.4C60.9158 139.4 62.4158 138.8 63.4824 137.6C64.6158 136.4 65.1824 134.8 65.1824 132.8C65.1824 130.267 64.3491 128.4 62.6824 127.2C61.0824 126 58.4491 125.4 54.7824 125.4H51.2824V109.5H54.6824C57.2158 109.567 59.3491 109.167 61.0824 108.3C62.8824 107.367 63.7824 105.533 63.7824 102.8C63.7824 100.733 63.2824 99.2 62.2824 98.2C61.2824 97.1333 59.9158 96.6 58.1824 96.6C56.2491 96.6 54.8158 97.3 53.8824 98.7C53.0158 100.033 52.5158 101.7 52.3824 103.7H33.2824Z" fill="white"/>

<rect x="118" y="57" width="100" height="122" fill="#444444"/>
<rect x="118" y="57" width="100" height="39" fill="url(#paint7_linear_3904_34336)"/>
<rect x="218" y="179" width="100" height="39" transform="rotate(-180 218 179)" fill="url(#paint8_linear_3904_34336)"/>
<path d="M142.282 101.7C142.549 94.1667 144.882 88.4 149.282 84.4C153.682 80.3333 159.816 78.3 167.682 78.3C172.816 78.3 177.182 79.2 180.782 81C184.449 82.7333 187.216 85.1333 189.082 88.2C190.949 91.2 191.882 94.6 191.882 98.4C191.882 102.933 190.782 106.567 188.582 109.3C186.382 111.967 183.882 113.767 181.082 114.7V115.1C189.149 118.1 193.182 123.833 193.182 132.3C193.182 136.5 192.216 140.2 190.282 143.4C188.349 146.6 185.549 149.1 181.882 150.9C178.216 152.7 173.849 153.6 168.782 153.6C160.449 153.6 153.849 151.6 148.982 147.6C144.182 143.533 141.682 137.333 141.482 129H160.582C160.449 131.667 161.016 133.733 162.282 135.2C163.549 136.667 165.449 137.4 167.982 137.4C169.916 137.4 171.416 136.8 172.482 135.6C173.616 134.4 174.182 132.8 174.182 130.8C174.182 128.267 173.349 126.4 171.682 125.2C170.082 124 167.449 123.4 163.782 123.4H160.282V107.5H163.682C166.216 107.567 168.349 107.167 170.082 106.3C171.882 105.367 172.782 103.533 172.782 100.8C172.782 98.7333 172.282 97.2 171.282 96.2C170.282 95.1333 168.916 94.6 167.182 94.6C165.249 94.6 163.816 95.3 162.882 96.7C162.016 98.0333 161.516 99.7 161.382 101.7H142.282Z" fill="white"/>

<rect x="227" y="57" width="100" height="122" fill="#444444"/>
<rect x="227" y="57" width="100" height="39" fill="url(#paint9_linear_3904_34336)"/>
<rect x="327" y="179" width="100" height="39" transform="rotate(-180 327 179)" fill="url(#paint10_linear_3904_34336)"/>
<path d="M251.282 101.7C251.549 94.1667 253.882 88.4 258.282 84.4C262.682 80.3333 268.816 78.3 276.682 78.3C281.816 78.3 286.182 79.2 289.782 81C293.449 82.7333 296.216 85.1333 298.082 88.2C299.949 91.2 300.882 94.6 300.882 98.4C300.882 102.933 299.782 106.567 297.582 109.3C295.382 111.967 292.882 113.767 290.082 114.7V115.1C298.149 118.1 302.182 123.833 302.182 132.3C302.182 136.5 301.216 140.2 299.282 143.4C297.349 146.6 294.549 149.1 290.882 150.9C287.216 152.7 282.849 153.6 277.782 153.6C269.449 153.6 262.849 151.6 257.982 147.6C253.182 143.533 250.682 137.333 250.482 129H269.582C269.449 131.667 270.016 133.733 271.282 135.2C272.549 136.667 274.449 137.4 276.982 137.4C278.916 137.4 280.416 136.8 281.482 135.6C282.616 134.4 283.182 132.8 283.182 130.8C283.182 128.267 282.349 126.4 280.682 125.2C279.082 124 276.449 123.4 272.782 123.4H269.282V107.5H272.682C275.216 107.567 277.349 107.167 279.082 106.3C280.882 105.367 281.782 103.533 281.782 100.8C281.782 98.7333 281.282 97.2 280.282 96.2C279.282 95.1333 277.916 94.6 276.182 94.6C274.249 94.6 272.816 95.3 271.882 96.7C271.016 98.0333 270.516 99.7 270.382 101.7H251.282Z" fill="white"/>

<rect x="336" y="57" width="100" height="122" fill="#444444"/>
<rect x="336" y="57" width="100" height="39" fill="url(#paint11_linear_3904_34336)"/>
<rect x="436" y="179" width="100" height="39" transform="rotate(-180 436 179)" fill="url(#paint12_linear_3904_34336)"/>
<path d="M360.282 101.7C360.549 94.1667 362.882 88.4 367.282 84.4C371.682 80.3333 377.816 78.3 385.682 78.3C390.816 78.3 395.182 79.2 398.782 81C402.449 82.7333 405.216 85.1333 407.082 88.2C408.949 91.2 409.882 94.6 409.882 98.4C409.882 102.933 408.782 106.567 406.582 109.3C404.382 111.967 401.882 113.767 399.082 114.7V115.1C407.149 118.1 411.182 123.833 411.182 132.3C411.182 136.5 410.216 140.2 408.282 143.4C406.349 146.6 403.549 149.1 399.882 150.9C396.216 152.7 391.849 153.6 386.782 153.6C378.449 153.6 371.849 151.6 366.982 147.6C362.182 143.533 359.682 137.333 359.482 129H378.582C378.449 131.667 379.016 133.733 380.282 135.2C381.549 136.667 383.449 137.4 385.982 137.4C387.916 137.4 389.416 136.8 390.482 135.6C391.616 134.4 392.182 132.8 392.182 130.8C392.182 128.267 391.349 126.4 389.682 125.2C388.082 124 385.449 123.4 381.782 123.4H378.282V107.5H381.682C384.216 107.567 386.349 107.167 388.082 106.3C389.882 105.367 390.782 103.533 390.782 100.8C390.782 98.7333 390.282 97.2 389.282 96.2C388.282 95.1333 386.916 94.6 385.182 94.6C383.249 94.6 381.816 95.3 380.882 96.7C380.016 98.0333 379.516 99.7 379.382 101.7H360.282Z" fill="white"/>

<rect x="445" y="57" width="100" height="122" fill="#444444"/>
<rect x="445" y="57" width="100" height="39" fill="url(#paint13_linear_3904_34336)"/>
<rect x="545" y="179" width="100" height="39" transform="rotate(-180 545 179)" fill="url(#paint14_linear_3904_34336)"/>
<path d="M469.282 101.7C469.549 94.1667 471.882 88.4 476.282 84.4C480.682 80.3333 486.816 78.3 494.682 78.3C499.816 78.3 504.182 79.2 507.782 81C511.449 82.7333 514.216 85.1333 516.082 88.2C517.949 91.2 518.882 94.6 518.882 98.4C518.882 102.933 517.782 106.567 515.582 109.3C513.382 111.967 510.882 113.767 508.082 114.7V115.1C516.149 118.1 520.182 123.833 520.182 132.3C520.182 136.5 519.216 140.2 517.282 143.4C515.349 146.6 512.549 149.1 508.882 150.9C505.216 152.7 500.849 153.6 495.782 153.6C487.449 153.6 480.849 151.6 475.982 147.6C471.182 143.533 468.682 137.333 468.482 129H487.582C487.449 131.667 488.016 133.733 489.282 135.2C490.549 136.667 492.449 137.4 494.982 137.4C496.916 137.4 498.416 136.8 499.482 135.6C500.616 134.4 501.182 132.8 501.182 130.8C501.182 128.267 500.349 126.4 498.682 125.2C497.082 124 494.449 123.4 490.782 123.4H487.282V107.5H490.682C493.216 107.567 495.349 107.167 497.082 106.3C498.882 105.367 499.782 103.533 499.782 100.8C499.782 98.7333 499.282 97.2 498.282 96.2C497.282 95.1333 495.916 94.6 494.182 94.6C492.249 94.6 490.816 95.3 489.882 96.7C489.016 98.0333 488.516 99.7 488.382 101.7H469.282Z" fill="white"/>

<rect x="554" y="57" width="100" height="122" fill="#444444"/>
<rect x="554" y="57" width="100" height="39" fill="url(#paint15_linear_3904_34336)"/>
<rect x="654" y="179" width="100" height="39" transform="rotate(-180 654 179)" fill="url(#paint16_linear_3904_34336)"/>
<path d="M578.282 101.7C578.549 94.1667 580.882 88.4 585.282 84.4C589.682 80.3333 595.816 78.3 603.682 78.3C608.816 78.3 613.182 79.2 616.782 81C620.449 82.7333 623.216 85.1333 625.082 88.2C626.949 91.2 627.882 94.6 627.882 98.4C627.882 102.933 626.782 106.567 624.582 109.3C622.382 111.967 619.882 113.767 617.082 114.7V115.1C625.149 118.1 629.182 123.833 629.182 132.3C629.182 136.5 628.216 140.2 626.282 143.4C624.349 146.6 621.549 149.1 617.882 150.9C614.216 152.7 609.849 153.6 604.782 153.6C596.449 153.6 589.849 151.6 584.982 147.6C580.182 143.533 577.682 137.333 577.482 129H596.582C596.449 131.667 597.016 133.733 598.282 135.2C599.549 136.667 601.449 137.4 603.982 137.4C605.916 137.4 607.416 136.8 608.482 135.6C609.616 134.4 610.182 132.8 610.182 130.8C610.182 128.267 609.349 126.4 607.682 125.2C606.082 124 603.449 123.4 599.782 123.4H596.282V107.5H599.682C602.216 107.567 604.349 107.167 606.082 106.3C607.882 105.367 608.782 103.533 608.782 100.8C608.782 98.7333 608.282 97.2 607.282 96.2C606.282 95.1333 604.916 94.6 603.182 94.6C601.249 94.6 599.816 95.3 598.882 96.7C598.016 98.0333 597.516 99.7 597.382 101.7H578.282Z" fill="white"/>

<defs>
<linearGradient id="paint0_linear_3904_34336" x1="680.489" y1="-12.2545" x2="786.208" y2="125.049" gradientUnits="userSpaceOnUse">
<stop stop-color="#2F2F2F"/>
<stop offset="0.973958" stop-color="#151515"/>
</linearGradient>
<linearGradient id="paint1_linear_3904_34336" x1="680.489" y1="113.75" x2="775.125" y2="247.633" gradientUnits="userSpaceOnUse">
<stop stop-color="#2F2F2F"/>
<stop offset="0.973958" stop-color="#151515"/>
</linearGradient>
<linearGradient id="paint2_linear_3904_34336" x1="680.489" y1="44.7455" x2="786.208" y2="182.049" gradientUnits="userSpaceOnUse">
<stop stop-color="#2F2F2F"/>
<stop offset="0.973958" stop-color="#151515"/>
</linearGradient>
<linearGradient id="paint3_linear_3904_34336" x1="740" y1="179" x2="740" y2="140" gradientUnits="userSpaceOnUse">
<stop stop-color="#727171"/>
<stop offset="1" stop-color="white" stop-opacity="0"/>
</linearGradient>
<linearGradient id="paint4_linear_3904_34336" x1="740" y1="57" x2="740" y2="96" gradientUnits="userSpaceOnUse">
<stop stop-color="#727171"/>
<stop offset="1" stop-color="white" stop-opacity="0"/>
</linearGradient>
<linearGradient id="paint5_linear_3904_34336" x1="59" y1="57" x2="59" y2="96" gradientUnits="userSpaceOnUse">
<stop stop-color="#D1C9C9"/>
<stop offset="1" stop-color="#383838" stop-opacity="0"/>
</linearGradient>
<linearGradient id="paint6_linear_3904_34336" x1="59" y1="179" x2="59" y2="140" gradientUnits="userSpaceOnUse">
<stop stop-color="#D1C9C9"/>
<stop offset="1" stop-color="#383838" stop-opacity="0"/>
</linearGradient>
<linearGradient id="paint7_linear_3904_34336" x1="168" y1="57" x2="168" y2="96" gradientUnits="userSpaceOnUse">
<stop stop-color="#D1C9C9"/>
<stop offset="1" stop-color="#383838" stop-opacity="0"/>
</linearGradient>
<linearGradient id="paint8_linear_3904_34336" x1="268" y1="179" x2="268" y2="218" gradientUnits="userSpaceOnUse">
<stop stop-color="#D1C9C9"/>
<stop offset="1" stop-color="#383838" stop-opacity="0"/>
</linearGradient>
<linearGradient id="paint9_linear_3904_34336" x1="277" y1="57" x2="277" y2="96" gradientUnits="userSpaceOnUse">
<stop stop-color="#D1C9C9"/>
<stop offset="1" stop-color="#383838" stop-opacity="0"/>
</linearGradient>
<linearGradient id="paint10_linear_3904_34336" x1="377" y1="179" x2="377" y2="218" gradientUnits="userSpaceOnUse">
<stop stop-color="#D1C9C9"/>
<stop offset="1" stop-color="#383838" stop-opacity="0"/>
</linearGradient>
<linearGradient id="paint11_linear_3904_34336" x1="386" y1="57" x2="386" y2="96" gradientUnits="userSpaceOnUse">
<stop stop-color="#D1C9C9"/>
<stop offset="1" stop-color="#383838" stop-opacity="0"/>
</linearGradient>
<linearGradient id="paint12_linear_3904_34336" x1="486" y1="179" x2="486" y2="218" gradientUnits="userSpaceOnUse">
<stop stop-color="#D1C9C9"/>
<stop offset="1" stop-color="#383838" stop-opacity="0"/>
</linearGradient>
<linearGradient id="paint13_linear_3904_34336" x1="495" y1="57" x2="495" y2="96" gradientUnits="userSpaceOnUse">
<stop stop-color="#D1C9C9"/>
<stop offset="1" stop-color="#383838" stop-opacity="0"/>
</linearGradient>
<linearGradient id="paint14_linear_3904_34336" x1="595" y1="179" x2="595" y2="218" gradientUnits="userSpaceOnUse">
<stop stop-color="#D1C9C9"/>
<stop offset="1" stop-color="#383838" stop-opacity="0"/>
</linearGradient>
<linearGradient id="paint15_linear_3904_34336" x1="604" y1="57" x2="604" y2="96" gradientUnits="userSpaceOnUse">
<stop stop-color="#D1C9C9"/>
<stop offset="1" stop-color="#383838" stop-opacity="0"/>
</linearGradient>
<linearGradient id="paint16_linear_3904_34336" x1="704" y1="179" x2="704" y2="218" gradientUnits="userSpaceOnUse">
<stop stop-color="#D1C9C9"/>
<stop offset="1" stop-color="#383838" stop-opacity="0"/>
</linearGradient>
</defs>
</svg>
