<svg width="800" height="237" viewBox="0 0 800 237" fill="none" xmlns="http://www.w3.org/2000/svg">
<rect y="48" width="800" height="142" rx="15" fill="#626262"/>
<path d="M690 57H782.5C786.642 57 790 60.3579 790 64.5V171.5C790 175.642 786.642 179 782.5 179H690V57Z" fill="#FBFBFB"/>
<mask id="mask0_3904_34336" style="mask-type:alpha" maskUnits="userSpaceOnUse" x="710" y="38" width="61" height="159">
<path d="M710.53 98V81.8L741.23 38H762.73V81H770.43V98H762.73V110H742.93V98H710.53ZM744.43 60.1L730.63 81H744.43V60.1Z" fill="url(#paint0_linear_3904_34336)"/>
<path d="M764.336 141.2H734.336V152.3C735.603 150.967 737.336 149.9 739.536 149.1C741.736 148.3 744.17 147.9 746.836 147.9C751.636 147.9 755.636 149 758.836 151.2C762.103 153.4 764.503 156.3 766.036 159.9C767.57 163.5 768.336 167.433 768.336 171.7C768.336 179.567 766.103 185.767 761.636 190.3C757.17 194.767 750.97 197 743.036 197C737.503 197 732.703 196.067 728.636 194.2C724.636 192.267 721.57 189.6 719.436 186.2C717.303 182.8 716.203 178.9 716.136 174.5H735.236C735.436 176.033 736.103 177.367 737.236 178.5C738.37 179.633 740.036 180.2 742.236 180.2C744.57 180.2 746.336 179.4 747.536 177.8C748.736 176.2 749.336 174.067 749.336 171.4C749.336 168.8 748.703 166.833 747.436 165.5C746.17 164.1 744.336 163.4 741.936 163.4C740.136 163.4 738.67 163.867 737.536 164.8C736.47 165.667 735.836 166.767 735.636 168.1H716.536V123.9H764.336V141.2Z" fill="url(#paint1_linear_3904_34336)"/>
</mask>
<g mask="url(#mask0_3904_34336)">
<path d="M690 57H782.5C786.642 57 790 60.3579 790 64.5V171.5C790 175.642 786.642 179 782.5 179H690V57Z" fill="url(#paint2_linear_3904_34336)"/>
</g>
<path d="M790 171.5C790 175.642 786.642 179 782.5 179H690V140H790V171.5Z" fill="url(#paint3_linear_3904_34336)"/>
<path d="M690 57H782.5C786.642 57 790 60.3579 790 64.5V96H690V57Z" fill="url(#paint4_linear_3904_34336)"/>
<path d="M9 64.5C9 60.3579 12.3579 57 16.5 57H109V179H16.5C12.3579 179 9 175.642 9 171.5V64.5Z" fill="#444444"/>
<path d="M9 64.5C9 60.3579 12.3579 57 16.5 57H109V96H9V64.5Z" fill="url(#paint5_linear_3904_34336)"/>
<path d="M109 179H16.5C12.3579 179 9 175.642 9 171.5V140H109V179Z" fill="url(#paint6_linear_3904_34336)"/>
<path d="M29.5297 143V126.8L60.2297 83H81.7297V126H89.4297V143H81.7297V155H61.9297V143H29.5297ZM63.4297 105.1L49.6297 126H63.4297V105.1Z" fill="white"/>

<rect x="118" y="57" width="100" height="122" fill="#444444"/>
<rect x="118" y="57" width="100" height="39" fill="url(#paint7_linear_3904_34336)"/>
<rect x="218" y="179" width="100" height="39" transform="rotate(-180 218 179)" fill="url(#paint8_linear_3904_34336)"/>
<path d="M138.53 141V124.8L169.23 81H190.73V124H198.43V141H190.73V153H170.93V141H138.53ZM172.43 103.1L158.63 124H172.43V103.1Z" fill="white"/>

<rect x="227" y="57" width="100" height="122" fill="#444444"/>
<rect x="227" y="57" width="100" height="39" fill="url(#paint9_linear_3904_34336)"/>
<rect x="327" y="179" width="100" height="39" transform="rotate(-180 327 179)" fill="url(#paint10_linear_3904_34336)"/>
<path d="M247.53 141V124.8L278.23 81H299.73V124H307.43V141H299.73V153H279.93V141H247.53ZM281.43 103.1L267.63 124H281.43V103.1Z" fill="white"/>

<rect x="336" y="57" width="100" height="122" fill="#444444"/>
<rect x="336" y="57" width="100" height="39" fill="url(#paint11_linear_3904_34336)"/>
<rect x="436" y="179" width="100" height="39" transform="rotate(-180 436 179)" fill="url(#paint12_linear_3904_34336)"/>
<path d="M356.53 141V124.8L387.23 81H408.73V124H416.43V141H408.73V153H388.93V141H356.53ZM390.43 103.1L376.63 124H390.43V103.1Z" fill="white"/>

<rect x="445" y="57" width="100" height="122" fill="#444444"/>
<rect x="445" y="57" width="100" height="39" fill="url(#paint13_linear_3904_34336)"/>
<rect x="545" y="179" width="100" height="39" transform="rotate(-180 545 179)" fill="url(#paint14_linear_3904_34336)"/>
<path d="M465.53 141V124.8L496.23 81H517.73V124H525.43V141H517.73V153H497.93V141H465.53ZM499.43 103.1L485.63 124H499.43V103.1Z" fill="white"/>

<rect x="554" y="57" width="100" height="122" fill="#444444"/>
<rect x="554" y="57" width="100" height="39" fill="url(#paint15_linear_3904_34336)"/>
<rect x="654" y="179" width="100" height="39" transform="rotate(-180 654 179)" fill="url(#paint16_linear_3904_34336)"/>
<path d="M574.53 141V124.8L605.23 81H626.73V124H634.43V141H626.73V153H606.93V141H574.53ZM608.43 103.1L594.63 124H608.43V103.1Z" fill="white"/>

<defs>
<linearGradient id="paint0_linear_3904_34336" x1="680.489" y1="-12.2545" x2="786.208" y2="125.049" gradientUnits="userSpaceOnUse">
<stop stop-color="#2F2F2F"/>
<stop offset="0.973958" stop-color="#151515"/>
</linearGradient>
<linearGradient id="paint1_linear_3904_34336" x1="680.489" y1="113.75" x2="775.125" y2="247.633" gradientUnits="userSpaceOnUse">
<stop stop-color="#2F2F2F"/>
<stop offset="0.973958" stop-color="#151515"/>
</linearGradient>
<linearGradient id="paint2_linear_3904_34336" x1="680.489" y1="44.7455" x2="786.208" y2="182.049" gradientUnits="userSpaceOnUse">
<stop stop-color="#2F2F2F"/>
<stop offset="0.973958" stop-color="#151515"/>
</linearGradient>
<linearGradient id="paint3_linear_3904_34336" x1="740" y1="179" x2="740" y2="140" gradientUnits="userSpaceOnUse">
<stop stop-color="#727171"/>
<stop offset="1" stop-color="white" stop-opacity="0"/>
</linearGradient>
<linearGradient id="paint4_linear_3904_34336" x1="740" y1="57" x2="740" y2="96" gradientUnits="userSpaceOnUse">
<stop stop-color="#727171"/>
<stop offset="1" stop-color="white" stop-opacity="0"/>
</linearGradient>
<linearGradient id="paint5_linear_3904_34336" x1="59" y1="57" x2="59" y2="96" gradientUnits="userSpaceOnUse">
<stop stop-color="#D1C9C9"/>
<stop offset="1" stop-color="#383838" stop-opacity="0"/>
</linearGradient>
<linearGradient id="paint6_linear_3904_34336" x1="59" y1="179" x2="59" y2="140" gradientUnits="userSpaceOnUse">
<stop stop-color="#D1C9C9"/>
<stop offset="1" stop-color="#383838" stop-opacity="0"/>
</linearGradient>
<linearGradient id="paint7_linear_3904_34336" x1="168" y1="57" x2="168" y2="96" gradientUnits="userSpaceOnUse">
<stop stop-color="#D1C9C9"/>
<stop offset="1" stop-color="#383838" stop-opacity="0"/>
</linearGradient>
<linearGradient id="paint8_linear_3904_34336" x1="268" y1="179" x2="268" y2="218" gradientUnits="userSpaceOnUse">
<stop stop-color="#D1C9C9"/>
<stop offset="1" stop-color="#383838" stop-opacity="0"/>
</linearGradient>
<linearGradient id="paint9_linear_3904_34336" x1="277" y1="57" x2="277" y2="96" gradientUnits="userSpaceOnUse">
<stop stop-color="#D1C9C9"/>
<stop offset="1" stop-color="#383838" stop-opacity="0"/>
</linearGradient>
<linearGradient id="paint10_linear_3904_34336" x1="377" y1="179" x2="377" y2="218" gradientUnits="userSpaceOnUse">
<stop stop-color="#D1C9C9"/>
<stop offset="1" stop-color="#383838" stop-opacity="0"/>
</linearGradient>
<linearGradient id="paint11_linear_3904_34336" x1="386" y1="57" x2="386" y2="96" gradientUnits="userSpaceOnUse">
<stop stop-color="#D1C9C9"/>
<stop offset="1" stop-color="#383838" stop-opacity="0"/>
</linearGradient>
<linearGradient id="paint12_linear_3904_34336" x1="486" y1="179" x2="486" y2="218" gradientUnits="userSpaceOnUse">
<stop stop-color="#D1C9C9"/>
<stop offset="1" stop-color="#383838" stop-opacity="0"/>
</linearGradient>
<linearGradient id="paint13_linear_3904_34336" x1="495" y1="57" x2="495" y2="96" gradientUnits="userSpaceOnUse">
<stop stop-color="#D1C9C9"/>
<stop offset="1" stop-color="#383838" stop-opacity="0"/>
</linearGradient>
<linearGradient id="paint14_linear_3904_34336" x1="595" y1="179" x2="595" y2="218" gradientUnits="userSpaceOnUse">
<stop stop-color="#D1C9C9"/>
<stop offset="1" stop-color="#383838" stop-opacity="0"/>
</linearGradient>
<linearGradient id="paint15_linear_3904_34336" x1="604" y1="57" x2="604" y2="96" gradientUnits="userSpaceOnUse">
<stop stop-color="#D1C9C9"/>
<stop offset="1" stop-color="#383838" stop-opacity="0"/>
</linearGradient>
<linearGradient id="paint16_linear_3904_34336" x1="704" y1="179" x2="704" y2="218" gradientUnits="userSpaceOnUse">
<stop stop-color="#D1C9C9"/>
<stop offset="1" stop-color="#383838" stop-opacity="0"/>
</linearGradient>
</defs>
</svg>
