<svg width="800" height="237" viewBox="0 0 800 237" fill="none" xmlns="http://www.w3.org/2000/svg">
<rect y="48" width="800" height="142" rx="15" fill="#626262"/>
<path d="M690 57H782.5C786.642 57 790 60.3579 790 64.5V171.5C790 175.642 786.642 179 782.5 179H690V57Z" fill="#FBFBFB"/>
<mask id="mask0_3904_34336" style="mask-type:alpha" maskUnits="userSpaceOnUse" x="710" y="38" width="61" height="159">
<path d="M710.53 98V81.8L741.23 38H762.73V81H770.43V98H762.73V110H742.93V98H710.53ZM744.43 60.1L730.63 81H744.43V60.1Z" fill="url(#paint0_linear_3904_34336)"/>
<path d="M764.336 141.2H734.336V152.3C735.603 150.967 737.336 149.9 739.536 149.1C741.736 148.3 744.17 147.9 746.836 147.9C751.636 147.9 755.636 149 758.836 151.2C762.103 153.4 764.503 156.3 766.036 159.9C767.57 163.5 768.336 167.433 768.336 171.7C768.336 179.567 766.103 185.767 761.636 190.3C757.17 194.767 750.97 197 743.036 197C737.503 197 732.703 196.067 728.636 194.2C724.636 192.267 721.57 189.6 719.436 186.2C717.303 182.8 716.203 178.9 716.136 174.5H735.236C735.436 176.033 736.103 177.367 737.236 178.5C738.37 179.633 740.036 180.2 742.236 180.2C744.57 180.2 746.336 179.4 747.536 177.8C748.736 176.2 749.336 174.067 749.336 171.4C749.336 168.8 748.703 166.833 747.436 165.5C746.17 164.1 744.336 163.4 741.936 163.4C740.136 163.4 738.67 163.867 737.536 164.8C736.47 165.667 735.836 166.767 735.636 168.1H716.536V123.9H764.336V141.2Z" fill="url(#paint1_linear_3904_34336)"/>
</mask>
<g mask="url(#mask0_3904_34336)">
<path d="M690 57H782.5C786.642 57 790 60.3579 790 64.5V171.5C790 175.642 786.642 179 782.5 179H690V57Z" fill="url(#paint2_linear_3904_34336)"/>
</g>
<path d="M790 171.5C790 175.642 786.642 179 782.5 179H690V140H790V171.5Z" fill="url(#paint3_linear_3904_34336)"/>
<path d="M690 57H782.5C786.642 57 790 60.3579 790 64.5V96H690V57Z" fill="url(#paint4_linear_3904_34336)"/>
<path d="M9 64.5C9 60.3579 12.3579 57 16.5 57H109V179H16.5C12.3579 179 9 175.642 9 171.5V64.5Z" fill="#444444"/>
<path d="M9 64.5C9 60.3579 12.3579 57 16.5 57H109V96H9V64.5Z" fill="url(#paint5_linear_3904_34336)"/>
<path d="M109 179H16.5C12.3579 179 9 175.642 9 171.5V140H109V179Z" fill="url(#paint6_linear_3904_34336)"/>
<path d="M83.3363 99.2H53.3363V110.3C54.603 108.967 56.3363 107.9 58.5363 107.1C60.7363 106.3 63.1697 105.9 65.8363 105.9C70.6363 105.9 74.6363 107 77.8363 109.2C81.103 111.4 83.503 114.3 85.0363 117.9C86.5697 121.5 87.3363 125.433 87.3363 129.7C87.3363 137.567 85.103 143.767 80.6363 148.3C76.1697 152.767 69.9697 155 62.0363 155C56.503 155 51.703 154.067 47.6363 152.2C43.6363 150.267 40.5697 147.6 38.4363 144.2C36.303 140.8 35.203 136.9 35.1363 132.5H54.2363C54.4363 134.033 55.103 135.367 56.2363 136.5C57.3697 137.633 59.0363 138.2 61.2363 138.2C63.5697 138.2 65.3363 137.4 66.5363 135.8C67.7363 134.2 68.3363 132.067 68.3363 129.4C68.3363 126.8 67.703 124.833 66.4363 123.5C65.1697 122.1 63.3363 121.4 60.9363 121.4C59.1363 121.4 57.6697 121.867 56.5363 122.8C55.4697 123.667 54.8363 124.767 54.6363 126.1H35.5363V81.9H83.3363V99.2Z" fill="white"/>

<rect x="118" y="57" width="100" height="122" fill="#444444"/>
<rect x="118" y="57" width="100" height="39" fill="url(#paint7_linear_3904_34336)"/>
<rect x="218" y="179" width="100" height="39" transform="rotate(-180 218 179)" fill="url(#paint8_linear_3904_34336)"/>
<path d="M192.336 97.2H162.336V108.3C163.603 106.967 165.336 105.9 167.536 105.1C169.736 104.3 172.17 103.9 174.836 103.9C179.636 103.9 183.636 105 186.836 107.2C190.103 109.4 192.503 112.3 194.036 115.9C195.57 119.5 196.336 123.433 196.336 127.7C196.336 135.567 194.103 141.767 189.636 146.3C185.17 150.767 178.97 153 171.036 153C165.503 153 160.703 152.067 156.636 150.2C152.636 148.267 149.57 145.6 147.436 142.2C145.303 138.8 144.203 134.9 144.136 130.5H163.236C163.436 132.033 164.103 133.367 165.236 134.5C166.37 135.633 168.036 136.2 170.236 136.2C172.57 136.2 174.336 135.4 175.536 133.8C176.736 132.2 177.336 130.067 177.336 127.4C177.336 124.8 176.703 122.833 175.436 121.5C174.17 120.1 172.336 119.4 169.936 119.4C168.136 119.4 166.67 119.867 165.536 120.8C164.47 121.667 163.836 122.767 163.636 124.1H144.536V79.9H192.336V97.2Z" fill="white"/>

<rect x="227" y="57" width="100" height="122" fill="#444444"/>
<rect x="227" y="57" width="100" height="39" fill="url(#paint9_linear_3904_34336)"/>
<rect x="327" y="179" width="100" height="39" transform="rotate(-180 327 179)" fill="url(#paint10_linear_3904_34336)"/>
<path d="M301.336 97.2H271.336V108.3C272.603 106.967 274.336 105.9 276.536 105.1C278.736 104.3 281.17 103.9 283.836 103.9C288.636 103.9 292.636 105 295.836 107.2C299.103 109.4 301.503 112.3 303.036 115.9C304.57 119.5 305.336 123.433 305.336 127.7C305.336 135.567 303.103 141.767 298.636 146.3C294.17 150.767 287.97 153 280.036 153C274.503 153 269.703 152.067 265.636 150.2C261.636 148.267 258.57 145.6 256.436 142.2C254.303 138.8 253.203 134.9 253.136 130.5H272.236C272.436 132.033 273.103 133.367 274.236 134.5C275.37 135.633 277.036 136.2 279.236 136.2C281.57 136.2 283.336 135.4 284.536 133.8C285.736 132.2 286.336 130.067 286.336 127.4C286.336 124.8 285.703 122.833 284.436 121.5C283.17 120.1 281.336 119.4 278.936 119.4C277.136 119.4 275.67 119.867 274.536 120.8C273.47 121.667 272.836 122.767 272.636 124.1H253.536V79.9H301.336V97.2Z" fill="white"/>

<rect x="336" y="57" width="100" height="122" fill="#444444"/>
<rect x="336" y="57" width="100" height="39" fill="url(#paint11_linear_3904_34336)"/>
<rect x="436" y="179" width="100" height="39" transform="rotate(-180 436 179)" fill="url(#paint12_linear_3904_34336)"/>
<path d="M410.336 97.2H380.336V108.3C381.603 106.967 383.336 105.9 385.536 105.1C387.736 104.3 390.17 103.9 392.836 103.9C397.636 103.9 401.636 105 404.836 107.2C408.103 109.4 410.503 112.3 412.036 115.9C413.57 119.5 414.336 123.433 414.336 127.7C414.336 135.567 412.103 141.767 407.636 146.3C403.17 150.767 396.97 153 389.036 153C383.503 153 378.703 152.067 374.636 150.2C370.636 148.267 367.57 145.6 365.436 142.2C363.303 138.8 362.203 134.9 362.136 130.5H381.236C381.436 132.033 382.103 133.367 383.236 134.5C384.37 135.633 386.036 136.2 388.236 136.2C390.57 136.2 392.336 135.4 393.536 133.8C394.736 132.2 395.336 130.067 395.336 127.4C395.336 124.8 394.703 122.833 393.436 121.5C392.17 120.1 390.336 119.4 387.936 119.4C386.136 119.4 384.67 119.867 383.536 120.8C382.47 121.667 381.836 122.767 381.636 124.1H362.536V79.9H410.336V97.2Z" fill="white"/>

<rect x="445" y="57" width="100" height="122" fill="#444444"/>
<rect x="445" y="57" width="100" height="39" fill="url(#paint13_linear_3904_34336)"/>
<rect x="545" y="179" width="100" height="39" transform="rotate(-180 545 179)" fill="url(#paint14_linear_3904_34336)"/>
<path d="M519.336 97.2H489.336V108.3C490.603 106.967 492.336 105.9 494.536 105.1C496.736 104.3 499.17 103.9 501.836 103.9C506.636 103.9 510.636 105 513.836 107.2C517.103 109.4 519.503 112.3 521.036 115.9C522.57 119.5 523.336 123.433 523.336 127.7C523.336 135.567 521.103 141.767 516.636 146.3C512.17 150.767 505.97 153 498.036 153C492.503 153 487.703 152.067 483.636 150.2C479.636 148.267 476.57 145.6 474.436 142.2C472.303 138.8 471.203 134.9 471.136 130.5H490.236C490.436 132.033 491.103 133.367 492.236 134.5C493.37 135.633 495.036 136.2 497.236 136.2C499.57 136.2 501.336 135.4 502.536 133.8C503.736 132.2 504.336 130.067 504.336 127.4C504.336 124.8 503.703 122.833 502.436 121.5C501.17 120.1 499.336 119.4 496.936 119.4C495.136 119.4 493.67 119.867 492.536 120.8C491.47 121.667 490.836 122.767 490.636 124.1H471.536V79.9H519.336V97.2Z" fill="white"/>

<rect x="554" y="57" width="100" height="122" fill="#444444"/>
<rect x="554" y="57" width="100" height="39" fill="url(#paint15_linear_3904_34336)"/>
<rect x="654" y="179" width="100" height="39" transform="rotate(-180 654 179)" fill="url(#paint16_linear_3904_34336)"/>
<path d="M628.336 97.2H598.336V108.3C599.603 106.967 601.336 105.9 603.536 105.1C605.736 104.3 608.17 103.9 610.836 103.9C615.636 103.9 619.636 105 622.836 107.2C626.103 109.4 628.503 112.3 630.036 115.9C631.57 119.5 632.336 123.433 632.336 127.7C632.336 135.567 630.103 141.767 625.636 146.3C621.17 150.767 614.97 153 607.036 153C601.503 153 596.703 152.067 592.636 150.2C588.636 148.267 585.57 145.6 583.436 142.2C581.303 138.8 580.203 134.9 580.136 130.5H599.236C599.436 132.033 600.103 133.367 601.236 134.5C602.37 135.633 604.036 136.2 606.236 136.2C608.57 136.2 610.336 135.4 611.536 133.8C612.736 132.2 613.336 130.067 613.336 127.4C613.336 124.8 612.703 122.833 611.436 121.5C610.17 120.1 608.336 119.4 605.936 119.4C604.136 119.4 602.67 119.867 601.536 120.8C600.47 121.667 599.836 122.767 599.636 124.1H580.536V79.9H628.336V97.2Z" fill="white"/>

<defs>
<linearGradient id="paint0_linear_3904_34336" x1="680.489" y1="-12.2545" x2="786.208" y2="125.049" gradientUnits="userSpaceOnUse">
<stop stop-color="#2F2F2F"/>
<stop offset="0.973958" stop-color="#151515"/>
</linearGradient>
<linearGradient id="paint1_linear_3904_34336" x1="680.489" y1="113.75" x2="775.125" y2="247.633" gradientUnits="userSpaceOnUse">
<stop stop-color="#2F2F2F"/>
<stop offset="0.973958" stop-color="#151515"/>
</linearGradient>
<linearGradient id="paint2_linear_3904_34336" x1="680.489" y1="44.7455" x2="786.208" y2="182.049" gradientUnits="userSpaceOnUse">
<stop stop-color="#2F2F2F"/>
<stop offset="0.973958" stop-color="#151515"/>
</linearGradient>
<linearGradient id="paint3_linear_3904_34336" x1="740" y1="179" x2="740" y2="140" gradientUnits="userSpaceOnUse">
<stop stop-color="#727171"/>
<stop offset="1" stop-color="white" stop-opacity="0"/>
</linearGradient>
<linearGradient id="paint4_linear_3904_34336" x1="740" y1="57" x2="740" y2="96" gradientUnits="userSpaceOnUse">
<stop stop-color="#727171"/>
<stop offset="1" stop-color="white" stop-opacity="0"/>
</linearGradient>
<linearGradient id="paint5_linear_3904_34336" x1="59" y1="57" x2="59" y2="96" gradientUnits="userSpaceOnUse">
<stop stop-color="#D1C9C9"/>
<stop offset="1" stop-color="#383838" stop-opacity="0"/>
</linearGradient>
<linearGradient id="paint6_linear_3904_34336" x1="59" y1="179" x2="59" y2="140" gradientUnits="userSpaceOnUse">
<stop stop-color="#D1C9C9"/>
<stop offset="1" stop-color="#383838" stop-opacity="0"/>
</linearGradient>
<linearGradient id="paint7_linear_3904_34336" x1="168" y1="57" x2="168" y2="96" gradientUnits="userSpaceOnUse">
<stop stop-color="#D1C9C9"/>
<stop offset="1" stop-color="#383838" stop-opacity="0"/>
</linearGradient>
<linearGradient id="paint8_linear_3904_34336" x1="268" y1="179" x2="268" y2="218" gradientUnits="userSpaceOnUse">
<stop stop-color="#D1C9C9"/>
<stop offset="1" stop-color="#383838" stop-opacity="0"/>
</linearGradient>
<linearGradient id="paint9_linear_3904_34336" x1="277" y1="57" x2="277" y2="96" gradientUnits="userSpaceOnUse">
<stop stop-color="#D1C9C9"/>
<stop offset="1" stop-color="#383838" stop-opacity="0"/>
</linearGradient>
<linearGradient id="paint10_linear_3904_34336" x1="377" y1="179" x2="377" y2="218" gradientUnits="userSpaceOnUse">
<stop stop-color="#D1C9C9"/>
<stop offset="1" stop-color="#383838" stop-opacity="0"/>
</linearGradient>
<linearGradient id="paint11_linear_3904_34336" x1="386" y1="57" x2="386" y2="96" gradientUnits="userSpaceOnUse">
<stop stop-color="#D1C9C9"/>
<stop offset="1" stop-color="#383838" stop-opacity="0"/>
</linearGradient>
<linearGradient id="paint12_linear_3904_34336" x1="486" y1="179" x2="486" y2="218" gradientUnits="userSpaceOnUse">
<stop stop-color="#D1C9C9"/>
<stop offset="1" stop-color="#383838" stop-opacity="0"/>
</linearGradient>
<linearGradient id="paint13_linear_3904_34336" x1="495" y1="57" x2="495" y2="96" gradientUnits="userSpaceOnUse">
<stop stop-color="#D1C9C9"/>
<stop offset="1" stop-color="#383838" stop-opacity="0"/>
</linearGradient>
<linearGradient id="paint14_linear_3904_34336" x1="595" y1="179" x2="595" y2="218" gradientUnits="userSpaceOnUse">
<stop stop-color="#D1C9C9"/>
<stop offset="1" stop-color="#383838" stop-opacity="0"/>
</linearGradient>
<linearGradient id="paint15_linear_3904_34336" x1="604" y1="57" x2="604" y2="96" gradientUnits="userSpaceOnUse">
<stop stop-color="#D1C9C9"/>
<stop offset="1" stop-color="#383838" stop-opacity="0"/>
</linearGradient>
<linearGradient id="paint16_linear_3904_34336" x1="704" y1="179" x2="704" y2="218" gradientUnits="userSpaceOnUse">
<stop stop-color="#D1C9C9"/>
<stop offset="1" stop-color="#383838" stop-opacity="0"/>
</linearGradient>
</defs>
</svg>
