<svg width="800" height="237" viewBox="0 0 800 237" fill="none" xmlns="http://www.w3.org/2000/svg">
<rect y="48" width="800" height="142" rx="15" fill="#626262"/>
<path d="M690 57H782.5C786.642 57 790 60.3579 790 64.5V171.5C790 175.642 786.642 179 782.5 179H690V57Z" fill="#FBFBFB"/>
<mask id="mask0_3904_34336" style="mask-type:alpha" maskUnits="userSpaceOnUse" x="710" y="38" width="61" height="159">
<path d="M710.53 98V81.8L741.23 38H762.73V81H770.43V98H762.73V110H742.93V98H710.53ZM744.43 60.1L730.63 81H744.43V60.1Z" fill="url(#paint0_linear_3904_34336)"/>
<path d="M764.336 141.2H734.336V152.3C735.603 150.967 737.336 149.9 739.536 149.1C741.736 148.3 744.17 147.9 746.836 147.9C751.636 147.9 755.636 149 758.836 151.2C762.103 153.4 764.503 156.3 766.036 159.9C767.57 163.5 768.336 167.433 768.336 171.7C768.336 179.567 766.103 185.767 761.636 190.3C757.17 194.767 750.97 197 743.036 197C737.503 197 732.703 196.067 728.636 194.2C724.636 192.267 721.57 189.6 719.436 186.2C717.303 182.8 716.203 178.9 716.136 174.5H735.236C735.436 176.033 736.103 177.367 737.236 178.5C738.37 179.633 740.036 180.2 742.236 180.2C744.57 180.2 746.336 179.4 747.536 177.8C748.736 176.2 749.336 174.067 749.336 171.4C749.336 168.8 748.703 166.833 747.436 165.5C746.17 164.1 744.336 163.4 741.936 163.4C740.136 163.4 738.67 163.867 737.536 164.8C736.47 165.667 735.836 166.767 735.636 168.1H716.536V123.9H764.336V141.2Z" fill="url(#paint1_linear_3904_34336)"/>
</mask>
<g mask="url(#mask0_3904_34336)">
<path d="M690 57H782.5C786.642 57 790 60.3579 790 64.5V171.5C790 175.642 786.642 179 782.5 179H690V57Z" fill="url(#paint2_linear_3904_34336)"/>
</g>
<path d="M790 171.5C790 175.642 786.642 179 782.5 179H690V140H790V171.5Z" fill="url(#paint3_linear_3904_34336)"/>
<path d="M690 57H782.5C786.642 57 790 60.3579 790 64.5V96H690V57Z" fill="url(#paint4_linear_3904_34336)"/>
<path d="M9 64.5C9 60.3579 12.3579 57 16.5 57H109V179H16.5C12.3579 179 9 175.642 9 171.5V64.5Z" fill="#444444"/>
<path d="M9 64.5C9 60.3579 12.3579 57 16.5 57H109V96H9V64.5Z" fill="url(#paint5_linear_3904_34336)"/>
<path d="M109 179H16.5C12.3579 179 9 175.642 9 171.5V140H109V179Z" fill="url(#paint6_linear_3904_34336)"/>
<path d="M65.8617 102.9C65.3951 100.633 64.6284 98.9667 63.5617 97.9C62.4951 96.8333 60.9284 96.3 58.8617 96.3C55.7284 96.3 53.5284 97.7667 52.2617 100.7C51.0617 103.633 50.4284 108.233 50.3617 114.5C51.6951 112.433 53.6284 110.8 56.1617 109.6C58.6951 108.4 61.4951 107.8 64.5617 107.8C71.0284 107.8 76.1951 109.8 80.0617 113.8C83.9951 117.8 85.9617 123.533 85.9617 131C85.9617 135.933 84.9284 140.267 82.8617 144C80.8617 147.667 77.9284 150.5 74.0617 152.5C70.2617 154.5 65.7617 155.5 60.5617 155.5C50.2284 155.5 43.0284 152.3 38.9617 145.9C34.9617 139.433 32.9617 130.3 32.9617 118.5C32.9617 105.433 35.0951 95.8333 39.3617 89.7C43.6284 83.5667 50.4951 80.5 59.9617 80.5C67.6284 80.5 73.4284 82.6667 77.3617 87C81.3617 91.2667 83.5951 96.5667 84.0617 102.9H65.8617ZM59.7617 123C57.4284 123 55.4951 123.667 53.9617 125C52.4951 126.333 51.7617 128.233 51.7617 130.7C51.7617 133.3 52.4617 135.3 53.8617 136.7C55.2617 138.1 57.2617 138.8 59.8617 138.8C62.2617 138.8 64.1284 138.133 65.4617 136.8C66.8617 135.4 67.5617 133.433 67.5617 130.9C67.5617 128.433 66.8617 126.5 65.4617 125.1C64.1284 123.7 62.2284 123 59.7617 123Z" fill="white"/>

<rect x="118" y="57" width="100" height="122" fill="#444444"/>
<rect x="118" y="57" width="100" height="39" fill="url(#paint7_linear_3904_34336)"/>
<rect x="218" y="179" width="100" height="39" transform="rotate(-180 218 179)" fill="url(#paint8_linear_3904_34336)"/>
<path d="M174.862 100.9C174.395 98.6333 173.628 96.9667 172.562 95.9C171.495 94.8333 169.928 94.3 167.862 94.3C164.728 94.3 162.528 95.7667 161.262 98.7C160.062 101.633 159.428 106.233 159.362 112.5C160.695 110.433 162.628 108.8 165.162 107.6C167.695 106.4 170.495 105.8 173.562 105.8C180.028 105.8 185.195 107.8 189.062 111.8C192.995 115.8 194.962 121.533 194.962 129C194.962 133.933 193.928 138.267 191.862 142C189.862 145.667 186.928 148.5 183.062 150.5C179.262 152.5 174.762 153.5 169.562 153.5C159.228 153.5 152.028 150.3 147.962 143.9C143.962 137.433 141.962 128.3 141.962 116.5C141.962 103.433 144.095 93.8333 148.362 87.7C152.628 81.5667 159.495 78.5 168.962 78.5C176.628 78.5 182.428 80.6667 186.362 85C190.362 89.2667 192.595 94.5667 193.062 100.9H174.862ZM168.762 121C166.428 121 164.495 121.667 162.962 123C161.495 124.333 160.762 126.233 160.762 128.7C160.762 131.3 161.462 133.3 162.862 134.7C164.262 136.1 166.262 136.8 168.862 136.8C171.262 136.8 173.128 136.133 174.462 134.8C175.862 133.4 176.562 131.433 176.562 128.9C176.562 126.433 175.862 124.5 174.462 123.1C173.128 121.7 171.228 121 168.762 121Z" fill="white"/>

<rect x="227" y="57" width="100" height="122" fill="#444444"/>
<rect x="227" y="57" width="100" height="39" fill="url(#paint9_linear_3904_34336)"/>
<rect x="327" y="179" width="100" height="39" transform="rotate(-180 327 179)" fill="url(#paint10_linear_3904_34336)"/>
<path d="M283.862 100.9C283.395 98.6333 282.628 96.9667 281.562 95.9C280.495 94.8333 278.928 94.3 276.862 94.3C273.728 94.3 271.528 95.7667 270.262 98.7C269.062 101.633 268.428 106.233 268.362 112.5C269.695 110.433 271.628 108.8 274.162 107.6C276.695 106.4 279.495 105.8 282.562 105.8C289.028 105.8 294.195 107.8 298.062 111.8C301.995 115.8 303.962 121.533 303.962 129C303.962 133.933 302.928 138.267 300.862 142C298.862 145.667 295.928 148.5 292.062 150.5C288.262 152.5 283.762 153.5 278.562 153.5C268.228 153.5 261.028 150.3 256.962 143.9C252.962 137.433 250.962 128.3 250.962 116.5C250.962 103.433 253.095 93.8333 257.362 87.7C261.628 81.5667 268.495 78.5 277.962 78.5C285.628 78.5 291.428 80.6667 295.362 85C299.362 89.2667 301.595 94.5667 302.062 100.9H283.862ZM277.762 121C275.428 121 273.495 121.667 271.962 123C270.495 124.333 269.762 126.233 269.762 128.7C269.762 131.3 270.462 133.3 271.862 134.7C273.262 136.1 275.262 136.8 277.862 136.8C280.262 136.8 282.128 136.133 283.462 134.8C284.862 133.4 285.562 131.433 285.562 128.9C285.562 126.433 284.862 124.5 283.462 123.1C282.128 121.7 280.228 121 277.762 121Z" fill="white"/>

<rect x="336" y="57" width="100" height="122" fill="#444444"/>
<rect x="336" y="57" width="100" height="39" fill="url(#paint11_linear_3904_34336)"/>
<rect x="436" y="179" width="100" height="39" transform="rotate(-180 436 179)" fill="url(#paint12_linear_3904_34336)"/>
<path d="M392.862 100.9C392.395 98.6333 391.628 96.9667 390.562 95.9C389.495 94.8333 387.928 94.3 385.862 94.3C382.728 94.3 380.528 95.7667 379.262 98.7C378.062 101.633 377.428 106.233 377.362 112.5C378.695 110.433 380.628 108.8 383.162 107.6C385.695 106.4 388.495 105.8 391.562 105.8C398.028 105.8 403.195 107.8 407.062 111.8C410.995 115.8 412.962 121.533 412.962 129C412.962 133.933 411.928 138.267 409.862 142C407.862 145.667 404.928 148.5 401.062 150.5C397.262 152.5 392.762 153.5 387.562 153.5C377.228 153.5 370.028 150.3 365.962 143.9C361.962 137.433 359.962 128.3 359.962 116.5C359.962 103.433 362.095 93.8333 366.362 87.7C370.628 81.5667 377.495 78.5 386.962 78.5C394.628 78.5 400.428 80.6667 404.362 85C408.362 89.2667 410.595 94.5667 411.062 100.9H392.862ZM386.762 121C384.428 121 382.495 121.667 380.962 123C379.495 124.333 378.762 126.233 378.762 128.7C378.762 131.3 379.462 133.3 380.862 134.7C382.262 136.1 384.262 136.8 386.862 136.8C389.262 136.8 391.128 136.133 392.462 134.8C393.862 133.4 394.562 131.433 394.562 128.9C394.562 126.433 393.862 124.5 392.462 123.1C391.128 121.7 389.228 121 386.762 121Z" fill="white"/>

<rect x="445" y="57" width="100" height="122" fill="#444444"/>
<rect x="445" y="57" width="100" height="39" fill="url(#paint13_linear_3904_34336)"/>
<rect x="545" y="179" width="100" height="39" transform="rotate(-180 545 179)" fill="url(#paint14_linear_3904_34336)"/>
<path d="M501.862 100.9C501.395 98.6333 500.628 96.9667 499.562 95.9C498.495 94.8333 496.928 94.3 494.862 94.3C491.728 94.3 489.528 95.7667 488.262 98.7C487.062 101.633 486.428 106.233 486.362 112.5C487.695 110.433 489.628 108.8 492.162 107.6C494.695 106.4 497.495 105.8 500.562 105.8C507.028 105.8 512.195 107.8 516.062 111.8C519.995 115.8 521.962 121.533 521.962 129C521.962 133.933 520.928 138.267 518.862 142C516.862 145.667 513.928 148.5 510.062 150.5C506.262 152.5 501.762 153.5 496.562 153.5C486.228 153.5 479.028 150.3 474.962 143.9C470.962 137.433 468.962 128.3 468.962 116.5C468.962 103.433 471.095 93.8333 475.362 87.7C479.628 81.5667 486.495 78.5 495.962 78.5C503.628 78.5 509.428 80.6667 513.362 85C517.362 89.2667 519.595 94.5667 520.062 100.9H501.862ZM495.762 121C493.428 121 491.495 121.667 489.962 123C488.495 124.333 487.762 126.233 487.762 128.7C487.762 131.3 488.462 133.3 489.862 134.7C491.262 136.1 493.262 136.8 495.862 136.8C498.262 136.8 500.128 136.133 501.462 134.8C502.862 133.4 503.562 131.433 503.562 128.9C503.562 126.433 502.862 124.5 501.462 123.1C500.128 121.7 498.228 121 495.762 121Z" fill="white"/>

<rect x="554" y="57" width="100" height="122" fill="#444444"/>
<rect x="554" y="57" width="100" height="39" fill="url(#paint15_linear_3904_34336)"/>
<rect x="654" y="179" width="100" height="39" transform="rotate(-180 654 179)" fill="url(#paint16_linear_3904_34336)"/>
<path d="M610.862 100.9C610.395 98.6333 609.628 96.9667 608.562 95.9C607.495 94.8333 605.928 94.3 603.862 94.3C600.728 94.3 598.528 95.7667 597.262 98.7C596.062 101.633 595.428 106.233 595.362 112.5C596.695 110.433 598.628 108.8 601.162 107.6C603.695 106.4 606.495 105.8 609.562 105.8C616.028 105.8 621.195 107.8 625.062 111.8C628.995 115.8 630.962 121.533 630.962 129C630.962 133.933 629.928 138.267 627.862 142C625.862 145.667 622.928 148.5 619.062 150.5C615.262 152.5 610.762 153.5 605.562 153.5C595.228 153.5 588.028 150.3 583.962 143.9C579.962 137.433 577.962 128.3 577.962 116.5C577.962 103.433 580.095 93.8333 584.362 87.7C588.628 81.5667 595.495 78.5 604.962 78.5C612.628 78.5 618.428 80.6667 622.362 85C626.362 89.2667 628.595 94.5667 629.062 100.9H610.862ZM604.762 121C602.428 121 600.495 121.667 598.962 123C597.495 124.333 596.762 126.233 596.762 128.7C596.762 131.3 597.462 133.3 598.862 134.7C600.262 136.1 602.262 136.8 604.862 136.8C607.262 136.8 609.128 136.133 610.462 134.8C611.862 133.4 612.562 131.433 612.562 128.9C612.562 126.433 611.862 124.5 610.462 123.1C609.128 121.7 607.228 121 604.762 121Z" fill="white"/>

<defs>
<linearGradient id="paint0_linear_3904_34336" x1="680.489" y1="-12.2545" x2="786.208" y2="125.049" gradientUnits="userSpaceOnUse">
<stop stop-color="#2F2F2F"/>
<stop offset="0.973958" stop-color="#151515"/>
</linearGradient>
<linearGradient id="paint1_linear_3904_34336" x1="680.489" y1="113.75" x2="775.125" y2="247.633" gradientUnits="userSpaceOnUse">
<stop stop-color="#2F2F2F"/>
<stop offset="0.973958" stop-color="#151515"/>
</linearGradient>
<linearGradient id="paint2_linear_3904_34336" x1="680.489" y1="44.7455" x2="786.208" y2="182.049" gradientUnits="userSpaceOnUse">
<stop stop-color="#2F2F2F"/>
<stop offset="0.973958" stop-color="#151515"/>
</linearGradient>
<linearGradient id="paint3_linear_3904_34336" x1="740" y1="179" x2="740" y2="140" gradientUnits="userSpaceOnUse">
<stop stop-color="#727171"/>
<stop offset="1" stop-color="white" stop-opacity="0"/>
</linearGradient>
<linearGradient id="paint4_linear_3904_34336" x1="740" y1="57" x2="740" y2="96" gradientUnits="userSpaceOnUse">
<stop stop-color="#727171"/>
<stop offset="1" stop-color="white" stop-opacity="0"/>
</linearGradient>
<linearGradient id="paint5_linear_3904_34336" x1="59" y1="57" x2="59" y2="96" gradientUnits="userSpaceOnUse">
<stop stop-color="#D1C9C9"/>
<stop offset="1" stop-color="#383838" stop-opacity="0"/>
</linearGradient>
<linearGradient id="paint6_linear_3904_34336" x1="59" y1="179" x2="59" y2="140" gradientUnits="userSpaceOnUse">
<stop stop-color="#D1C9C9"/>
<stop offset="1" stop-color="#383838" stop-opacity="0"/>
</linearGradient>
<linearGradient id="paint7_linear_3904_34336" x1="168" y1="57" x2="168" y2="96" gradientUnits="userSpaceOnUse">
<stop stop-color="#D1C9C9"/>
<stop offset="1" stop-color="#383838" stop-opacity="0"/>
</linearGradient>
<linearGradient id="paint8_linear_3904_34336" x1="268" y1="179" x2="268" y2="218" gradientUnits="userSpaceOnUse">
<stop stop-color="#D1C9C9"/>
<stop offset="1" stop-color="#383838" stop-opacity="0"/>
</linearGradient>
<linearGradient id="paint9_linear_3904_34336" x1="277" y1="57" x2="277" y2="96" gradientUnits="userSpaceOnUse">
<stop stop-color="#D1C9C9"/>
<stop offset="1" stop-color="#383838" stop-opacity="0"/>
</linearGradient>
<linearGradient id="paint10_linear_3904_34336" x1="377" y1="179" x2="377" y2="218" gradientUnits="userSpaceOnUse">
<stop stop-color="#D1C9C9"/>
<stop offset="1" stop-color="#383838" stop-opacity="0"/>
</linearGradient>
<linearGradient id="paint11_linear_3904_34336" x1="386" y1="57" x2="386" y2="96" gradientUnits="userSpaceOnUse">
<stop stop-color="#D1C9C9"/>
<stop offset="1" stop-color="#383838" stop-opacity="0"/>
</linearGradient>
<linearGradient id="paint12_linear_3904_34336" x1="486" y1="179" x2="486" y2="218" gradientUnits="userSpaceOnUse">
<stop stop-color="#D1C9C9"/>
<stop offset="1" stop-color="#383838" stop-opacity="0"/>
</linearGradient>
<linearGradient id="paint13_linear_3904_34336" x1="495" y1="57" x2="495" y2="96" gradientUnits="userSpaceOnUse">
<stop stop-color="#D1C9C9"/>
<stop offset="1" stop-color="#383838" stop-opacity="0"/>
</linearGradient>
<linearGradient id="paint14_linear_3904_34336" x1="595" y1="179" x2="595" y2="218" gradientUnits="userSpaceOnUse">
<stop stop-color="#D1C9C9"/>
<stop offset="1" stop-color="#383838" stop-opacity="0"/>
</linearGradient>
<linearGradient id="paint15_linear_3904_34336" x1="604" y1="57" x2="604" y2="96" gradientUnits="userSpaceOnUse">
<stop stop-color="#D1C9C9"/>
<stop offset="1" stop-color="#383838" stop-opacity="0"/>
</linearGradient>
<linearGradient id="paint16_linear_3904_34336" x1="704" y1="179" x2="704" y2="218" gradientUnits="userSpaceOnUse">
<stop stop-color="#D1C9C9"/>
<stop offset="1" stop-color="#383838" stop-opacity="0"/>
</linearGradient>
</defs>
</svg>
