<svg width="800" height="237" viewBox="0 0 800 237" fill="none" xmlns="http://www.w3.org/2000/svg">
<rect y="48" width="800" height="142" rx="15" fill="#626262"/>
<path d="M690 57H782.5C786.642 57 790 60.3579 790 64.5V171.5C790 175.642 786.642 179 782.5 179H690V57Z" fill="#FBFBFB"/>
<mask id="mask0_3904_34336" style="mask-type:alpha" maskUnits="userSpaceOnUse" x="710" y="38" width="61" height="159">
<path d="M710.53 98V81.8L741.23 38H762.73V81H770.43V98H762.73V110H742.93V98H710.53ZM744.43 60.1L730.63 81H744.43V60.1Z" fill="url(#paint0_linear_3904_34336)"/>
<path d="M764.336 141.2H734.336V152.3C735.603 150.967 737.336 149.9 739.536 149.1C741.736 148.3 744.17 147.9 746.836 147.9C751.636 147.9 755.636 149 758.836 151.2C762.103 153.4 764.503 156.3 766.036 159.9C767.57 163.5 768.336 167.433 768.336 171.7C768.336 179.567 766.103 185.767 761.636 190.3C757.17 194.767 750.97 197 743.036 197C737.503 197 732.703 196.067 728.636 194.2C724.636 192.267 721.57 189.6 719.436 186.2C717.303 182.8 716.203 178.9 716.136 174.5H735.236C735.436 176.033 736.103 177.367 737.236 178.5C738.37 179.633 740.036 180.2 742.236 180.2C744.57 180.2 746.336 179.4 747.536 177.8C748.736 176.2 749.336 174.067 749.336 171.4C749.336 168.8 748.703 166.833 747.436 165.5C746.17 164.1 744.336 163.4 741.936 163.4C740.136 163.4 738.67 163.867 737.536 164.8C736.47 165.667 735.836 166.767 735.636 168.1H716.536V123.9H764.336V141.2Z" fill="url(#paint1_linear_3904_34336)"/>
</mask>
<g mask="url(#mask0_3904_34336)">
<path d="M690 57H782.5C786.642 57 790 60.3579 790 64.5V171.5C790 175.642 786.642 179 782.5 179H690V57Z" fill="url(#paint2_linear_3904_34336)"/>
</g>
<path d="M790 171.5C790 175.642 786.642 179 782.5 179H690V140H790V171.5Z" fill="url(#paint3_linear_3904_34336)"/>
<path d="M690 57H782.5C786.642 57 790 60.3579 790 64.5V96H690V57Z" fill="url(#paint4_linear_3904_34336)"/>
<path d="M9 64.5C9 60.3579 12.3579 57 16.5 57H109V179H16.5C12.3579 179 9 175.642 9 171.5V64.5Z" fill="#444444"/>
<path d="M9 64.5C9 60.3579 12.3579 57 16.5 57H109V96H9V64.5Z" fill="url(#paint5_linear_3904_34336)"/>
<path d="M109 179H16.5C12.3579 179 9 175.642 9 171.5V140H109V179Z" fill="url(#paint6_linear_3904_34336)"/>
<path d="M42.034 115.3C36.1007 112.033 33.134 106.933 33.134 100C33.134 96.4 34.0673 93.1333 35.934 90.2C37.8673 87.2 40.7673 84.8333 44.634 83.1C48.5007 81.3 53.2673 80.4 58.934 80.4C64.6007 80.4 69.3673 81.3 73.234 83.1C77.1007 84.8333 79.9673 87.2 81.834 90.2C83.7673 93.1333 84.734 96.4 84.734 100C84.734 103.533 83.934 106.6 82.334 109.2C80.8007 111.733 78.634 113.767 75.834 115.3C79.3007 117.1 81.934 119.5 83.734 122.5C85.534 125.5 86.434 129.033 86.434 133.1C86.434 137.967 85.2007 142.167 82.734 145.7C80.2673 149.167 76.934 151.8 72.734 153.6C68.6007 155.4 64.0007 156.3 58.934 156.3C53.8673 156.3 49.234 155.4 45.034 153.6C40.9007 151.8 37.6007 149.167 35.134 145.7C32.6673 142.167 31.434 137.967 31.434 133.1C31.434 129.033 32.334 125.5 34.134 122.5C35.934 119.5 38.5673 117.1 42.034 115.3ZM65.534 103.1C65.534 100.767 64.934 98.9667 63.734 97.7C62.534 96.3667 60.934 95.7 58.934 95.7C57.0007 95.7 55.4007 96.3667 54.134 97.7C52.934 99.0333 52.334 100.833 52.334 103.1C52.334 105.367 52.934 107.133 54.134 108.4C55.4007 109.667 57.0007 110.3 58.934 110.3C60.8673 110.3 62.434 109.667 63.634 108.4C64.9007 107.133 65.534 105.367 65.534 103.1ZM58.934 123.7C56.4007 123.7 54.334 124.467 52.734 126C51.2007 127.467 50.434 129.467 50.434 132C50.434 134.4 51.2007 136.367 52.734 137.9C54.2673 139.433 56.334 140.2 58.934 140.2C61.534 140.2 63.5673 139.433 65.034 137.9C66.5673 136.367 67.334 134.4 67.334 132C67.334 129.467 66.5673 127.467 65.034 126C63.5007 124.467 61.4673 123.7 58.934 123.7Z" fill="white"/>

<rect x="118" y="57" width="100" height="122" fill="#444444"/>
<rect x="118" y="57" width="100" height="39" fill="url(#paint7_linear_3904_34336)"/>
<rect x="218" y="179" width="100" height="39" transform="rotate(-180 218 179)" fill="url(#paint8_linear_3904_34336)"/>
<path d="M151.034 113.3C145.101 110.033 142.134 104.933 142.134 98C142.134 94.4 143.067 91.1333 144.934 88.2C146.867 85.2 149.767 82.8333 153.634 81.1C157.501 79.3 162.267 78.4 167.934 78.4C173.601 78.4 178.367 79.3 182.234 81.1C186.101 82.8333 188.967 85.2 190.834 88.2C192.767 91.1333 193.734 94.4 193.734 98C193.734 101.533 192.934 104.6 191.334 107.2C189.801 109.733 187.634 111.767 184.834 113.3C188.301 115.1 190.934 117.5 192.734 120.5C194.534 123.5 195.434 127.033 195.434 131.1C195.434 135.967 194.201 140.167 191.734 143.7C189.267 147.167 185.934 149.8 181.734 151.6C177.601 153.4 173.001 154.3 167.934 154.3C162.867 154.3 158.234 153.4 154.034 151.6C149.901 149.8 146.601 147.167 144.134 143.7C141.667 140.167 140.434 135.967 140.434 131.1C140.434 127.033 141.334 123.5 143.134 120.5C144.934 117.5 147.567 115.1 151.034 113.3ZM174.534 101.1C174.534 98.7667 173.934 96.9667 172.734 95.7C171.534 94.3667 169.934 93.7 167.934 93.7C166.001 93.7 164.401 94.3667 163.134 95.7C161.934 97.0333 161.334 98.8333 161.334 101.1C161.334 103.367 161.934 105.133 163.134 106.4C164.401 107.667 166.001 108.3 167.934 108.3C169.867 108.3 171.434 107.667 172.634 106.4C173.901 105.133 174.534 103.367 174.534 101.1ZM167.934 121.7C165.401 121.7 163.334 122.467 161.734 124C160.201 125.467 159.434 127.467 159.434 130C159.434 132.4 160.201 134.367 161.734 135.9C163.267 137.433 165.334 138.2 167.934 138.2C170.534 138.2 172.567 137.433 174.034 135.9C175.567 134.367 176.334 132.4 176.334 130C176.334 127.467 175.567 125.467 174.034 124C172.501 122.467 170.467 121.7 167.934 121.7Z" fill="white"/>

<rect x="227" y="57" width="100" height="122" fill="#444444"/>
<rect x="227" y="57" width="100" height="39" fill="url(#paint9_linear_3904_34336)"/>
<rect x="327" y="179" width="100" height="39" transform="rotate(-180 327 179)" fill="url(#paint10_linear_3904_34336)"/>
<path d="M260.034 113.3C254.101 110.033 251.134 104.933 251.134 98C251.134 94.4 252.067 91.1333 253.934 88.2C255.867 85.2 258.767 82.8333 262.634 81.1C266.501 79.3 271.267 78.4 276.934 78.4C282.601 78.4 287.367 79.3 291.234 81.1C295.101 82.8333 297.967 85.2 299.834 88.2C301.767 91.1333 302.734 94.4 302.734 98C302.734 101.533 301.934 104.6 300.334 107.2C298.801 109.733 296.634 111.767 293.834 113.3C297.301 115.1 299.934 117.5 301.734 120.5C303.534 123.5 304.434 127.033 304.434 131.1C304.434 135.967 303.201 140.167 300.734 143.7C298.267 147.167 294.934 149.8 290.734 151.6C286.601 153.4 282.001 154.3 276.934 154.3C271.867 154.3 267.234 153.4 263.034 151.6C258.901 149.8 255.601 147.167 253.134 143.7C250.667 140.167 249.434 135.967 249.434 131.1C249.434 127.033 250.334 123.5 252.134 120.5C253.934 117.5 256.567 115.1 260.034 113.3ZM283.534 101.1C283.534 98.7667 282.934 96.9667 281.734 95.7C280.534 94.3667 278.934 93.7 276.934 93.7C275.001 93.7 273.401 94.3667 272.134 95.7C270.934 97.0333 270.334 98.8333 270.334 101.1C270.334 103.367 270.934 105.133 272.134 106.4C273.401 107.667 275.001 108.3 276.934 108.3C278.867 108.3 280.434 107.667 281.634 106.4C282.901 105.133 283.534 103.367 283.534 101.1ZM276.934 121.7C274.401 121.7 272.334 122.467 270.734 124C269.201 125.467 268.434 127.467 268.434 130C268.434 132.4 269.201 134.367 270.734 135.9C272.267 137.433 274.334 138.2 276.934 138.2C279.534 138.2 281.567 137.433 283.034 135.9C284.567 134.367 285.334 132.4 285.334 130C285.334 127.467 284.567 125.467 283.034 124C281.501 122.467 279.467 121.7 276.934 121.7Z" fill="white"/>

<rect x="336" y="57" width="100" height="122" fill="#444444"/>
<rect x="336" y="57" width="100" height="39" fill="url(#paint11_linear_3904_34336)"/>
<rect x="436" y="179" width="100" height="39" transform="rotate(-180 436 179)" fill="url(#paint12_linear_3904_34336)"/>
<path d="M369.034 113.3C363.101 110.033 360.134 104.933 360.134 98C360.134 94.4 361.067 91.1333 362.934 88.2C364.867 85.2 367.767 82.8333 371.634 81.1C375.501 79.3 380.267 78.4 385.934 78.4C391.601 78.4 396.367 79.3 400.234 81.1C404.101 82.8333 406.967 85.2 408.834 88.2C410.767 91.1333 411.734 94.4 411.734 98C411.734 101.533 410.934 104.6 409.334 107.2C407.801 109.733 405.634 111.767 402.834 113.3C406.301 115.1 408.934 117.5 410.734 120.5C412.534 123.5 413.434 127.033 413.434 131.1C413.434 135.967 412.201 140.167 409.734 143.7C407.267 147.167 403.934 149.8 399.734 151.6C395.601 153.4 391.001 154.3 385.934 154.3C380.867 154.3 376.234 153.4 372.034 151.6C367.901 149.8 364.601 147.167 362.134 143.7C359.667 140.167 358.434 135.967 358.434 131.1C358.434 127.033 359.334 123.5 361.134 120.5C362.934 117.5 365.567 115.1 369.034 113.3ZM392.534 101.1C392.534 98.7667 391.934 96.9667 390.734 95.7C389.534 94.3667 387.934 93.7 385.934 93.7C384.001 93.7 382.401 94.3667 381.134 95.7C379.934 97.0333 379.334 98.8333 379.334 101.1C379.334 103.367 379.934 105.133 381.134 106.4C382.401 107.667 384.001 108.3 385.934 108.3C387.867 108.3 389.434 107.667 390.634 106.4C391.901 105.133 392.534 103.367 392.534 101.1ZM385.934 121.7C383.401 121.7 381.334 122.467 379.734 124C378.201 125.467 377.434 127.467 377.434 130C377.434 132.4 378.201 134.367 379.734 135.9C381.267 137.433 383.334 138.2 385.934 138.2C388.534 138.2 390.567 137.433 392.034 135.9C393.567 134.367 394.334 132.4 394.334 130C394.334 127.467 393.567 125.467 392.034 124C390.501 122.467 388.467 121.7 385.934 121.7Z" fill="white"/>

<rect x="445" y="57" width="100" height="122" fill="#444444"/>
<rect x="445" y="57" width="100" height="39" fill="url(#paint13_linear_3904_34336)"/>
<rect x="545" y="179" width="100" height="39" transform="rotate(-180 545 179)" fill="url(#paint14_linear_3904_34336)"/>
<path d="M478.034 113.3C472.101 110.033 469.134 104.933 469.134 98C469.134 94.4 470.067 91.1333 471.934 88.2C473.867 85.2 476.767 82.8333 480.634 81.1C484.501 79.3 489.267 78.4 494.934 78.4C500.601 78.4 505.367 79.3 509.234 81.1C513.101 82.8333 515.967 85.2 517.834 88.2C519.767 91.1333 520.734 94.4 520.734 98C520.734 101.533 519.934 104.6 518.334 107.2C516.801 109.733 514.634 111.767 511.834 113.3C515.301 115.1 517.934 117.5 519.734 120.5C521.534 123.5 522.434 127.033 522.434 131.1C522.434 135.967 521.201 140.167 518.734 143.7C516.267 147.167 512.934 149.8 508.734 151.6C504.601 153.4 500.001 154.3 494.934 154.3C489.867 154.3 485.234 153.4 481.034 151.6C476.901 149.8 473.601 147.167 471.134 143.7C468.667 140.167 467.434 135.967 467.434 131.1C467.434 127.033 468.334 123.5 470.134 120.5C471.934 117.5 474.567 115.1 478.034 113.3ZM501.534 101.1C501.534 98.7667 500.934 96.9667 499.734 95.7C498.534 94.3667 496.934 93.7 494.934 93.7C493.001 93.7 491.401 94.3667 490.134 95.7C488.934 97.0333 488.334 98.8333 488.334 101.1C488.334 103.367 488.934 105.133 490.134 106.4C491.401 107.667 493.001 108.3 494.934 108.3C496.867 108.3 498.434 107.667 499.634 106.4C500.901 105.133 501.534 103.367 501.534 101.1ZM494.934 121.7C492.401 121.7 490.334 122.467 488.734 124C487.201 125.467 486.434 127.467 486.434 130C486.434 132.4 487.201 134.367 488.734 135.9C490.267 137.433 492.334 138.2 494.934 138.2C497.534 138.2 499.567 137.433 501.034 135.9C502.567 134.367 503.334 132.4 503.334 130C503.334 127.467 502.567 125.467 501.034 124C499.501 122.467 497.467 121.7 494.934 121.7Z" fill="white"/>

<rect x="554" y="57" width="100" height="122" fill="#444444"/>
<rect x="554" y="57" width="100" height="39" fill="url(#paint15_linear_3904_34336)"/>
<rect x="654" y="179" width="100" height="39" transform="rotate(-180 654 179)" fill="url(#paint16_linear_3904_34336)"/>
<path d="M587.034 113.3C581.101 110.033 578.134 104.933 578.134 98C578.134 94.4 579.067 91.1333 580.934 88.2C582.867 85.2 585.767 82.8333 589.634 81.1C593.501 79.3 598.267 78.4 603.934 78.4C609.601 78.4 614.367 79.3 618.234 81.1C622.101 82.8333 624.967 85.2 626.834 88.2C628.767 91.1333 629.734 94.4 629.734 98C629.734 101.533 628.934 104.6 627.334 107.2C625.801 109.733 623.634 111.767 620.834 113.3C624.301 115.1 626.934 117.5 628.734 120.5C630.534 123.5 631.434 127.033 631.434 131.1C631.434 135.967 630.201 140.167 627.734 143.7C625.267 147.167 621.934 149.8 617.734 151.6C613.601 153.4 609.001 154.3 603.934 154.3C598.867 154.3 594.234 153.4 590.034 151.6C585.901 149.8 582.601 147.167 580.134 143.7C577.667 140.167 576.434 135.967 576.434 131.1C576.434 127.033 577.334 123.5 579.134 120.5C580.934 117.5 583.567 115.1 587.034 113.3ZM610.534 101.1C610.534 98.7667 609.934 96.9667 608.734 95.7C607.534 94.3667 605.934 93.7 603.934 93.7C602.001 93.7 600.401 94.3667 599.134 95.7C597.934 97.0333 597.334 98.8333 597.334 101.1C597.334 103.367 597.934 105.133 599.134 106.4C600.401 107.667 602.001 108.3 603.934 108.3C605.867 108.3 607.434 107.667 608.634 106.4C609.901 105.133 610.534 103.367 610.534 101.1ZM603.934 121.7C601.401 121.7 599.334 122.467 597.734 124C596.201 125.467 595.434 127.467 595.434 130C595.434 132.4 596.201 134.367 597.734 135.9C599.267 137.433 601.334 138.2 603.934 138.2C606.534 138.2 608.567 137.433 610.034 135.9C611.567 134.367 612.334 132.4 612.334 130C612.334 127.467 611.567 125.467 610.034 124C608.501 122.467 606.467 121.7 603.934 121.7Z" fill="white"/>

<defs>
<linearGradient id="paint0_linear_3904_34336" x1="680.489" y1="-12.2545" x2="786.208" y2="125.049" gradientUnits="userSpaceOnUse">
<stop stop-color="#2F2F2F"/>
<stop offset="0.973958" stop-color="#151515"/>
</linearGradient>
<linearGradient id="paint1_linear_3904_34336" x1="680.489" y1="113.75" x2="775.125" y2="247.633" gradientUnits="userSpaceOnUse">
<stop stop-color="#2F2F2F"/>
<stop offset="0.973958" stop-color="#151515"/>
</linearGradient>
<linearGradient id="paint2_linear_3904_34336" x1="680.489" y1="44.7455" x2="786.208" y2="182.049" gradientUnits="userSpaceOnUse">
<stop stop-color="#2F2F2F"/>
<stop offset="0.973958" stop-color="#151515"/>
</linearGradient>
<linearGradient id="paint3_linear_3904_34336" x1="740" y1="179" x2="740" y2="140" gradientUnits="userSpaceOnUse">
<stop stop-color="#727171"/>
<stop offset="1" stop-color="white" stop-opacity="0"/>
</linearGradient>
<linearGradient id="paint4_linear_3904_34336" x1="740" y1="57" x2="740" y2="96" gradientUnits="userSpaceOnUse">
<stop stop-color="#727171"/>
<stop offset="1" stop-color="white" stop-opacity="0"/>
</linearGradient>
<linearGradient id="paint5_linear_3904_34336" x1="59" y1="57" x2="59" y2="96" gradientUnits="userSpaceOnUse">
<stop stop-color="#D1C9C9"/>
<stop offset="1" stop-color="#383838" stop-opacity="0"/>
</linearGradient>
<linearGradient id="paint6_linear_3904_34336" x1="59" y1="179" x2="59" y2="140" gradientUnits="userSpaceOnUse">
<stop stop-color="#D1C9C9"/>
<stop offset="1" stop-color="#383838" stop-opacity="0"/>
</linearGradient>
<linearGradient id="paint7_linear_3904_34336" x1="168" y1="57" x2="168" y2="96" gradientUnits="userSpaceOnUse">
<stop stop-color="#D1C9C9"/>
<stop offset="1" stop-color="#383838" stop-opacity="0"/>
</linearGradient>
<linearGradient id="paint8_linear_3904_34336" x1="268" y1="179" x2="268" y2="218" gradientUnits="userSpaceOnUse">
<stop stop-color="#D1C9C9"/>
<stop offset="1" stop-color="#383838" stop-opacity="0"/>
</linearGradient>
<linearGradient id="paint9_linear_3904_34336" x1="277" y1="57" x2="277" y2="96" gradientUnits="userSpaceOnUse">
<stop stop-color="#D1C9C9"/>
<stop offset="1" stop-color="#383838" stop-opacity="0"/>
</linearGradient>
<linearGradient id="paint10_linear_3904_34336" x1="377" y1="179" x2="377" y2="218" gradientUnits="userSpaceOnUse">
<stop stop-color="#D1C9C9"/>
<stop offset="1" stop-color="#383838" stop-opacity="0"/>
</linearGradient>
<linearGradient id="paint11_linear_3904_34336" x1="386" y1="57" x2="386" y2="96" gradientUnits="userSpaceOnUse">
<stop stop-color="#D1C9C9"/>
<stop offset="1" stop-color="#383838" stop-opacity="0"/>
</linearGradient>
<linearGradient id="paint12_linear_3904_34336" x1="486" y1="179" x2="486" y2="218" gradientUnits="userSpaceOnUse">
<stop stop-color="#D1C9C9"/>
<stop offset="1" stop-color="#383838" stop-opacity="0"/>
</linearGradient>
<linearGradient id="paint13_linear_3904_34336" x1="495" y1="57" x2="495" y2="96" gradientUnits="userSpaceOnUse">
<stop stop-color="#D1C9C9"/>
<stop offset="1" stop-color="#383838" stop-opacity="0"/>
</linearGradient>
<linearGradient id="paint14_linear_3904_34336" x1="595" y1="179" x2="595" y2="218" gradientUnits="userSpaceOnUse">
<stop stop-color="#D1C9C9"/>
<stop offset="1" stop-color="#383838" stop-opacity="0"/>
</linearGradient>
<linearGradient id="paint15_linear_3904_34336" x1="604" y1="57" x2="604" y2="96" gradientUnits="userSpaceOnUse">
<stop stop-color="#D1C9C9"/>
<stop offset="1" stop-color="#383838" stop-opacity="0"/>
</linearGradient>
<linearGradient id="paint16_linear_3904_34336" x1="704" y1="179" x2="704" y2="218" gradientUnits="userSpaceOnUse">
<stop stop-color="#D1C9C9"/>
<stop offset="1" stop-color="#383838" stop-opacity="0"/>
</linearGradient>
</defs>
</svg>
