<svg width="800" height="237" viewBox="0 0 800 237" fill="none" xmlns="http://www.w3.org/2000/svg">
<rect y="48" width="800" height="142" rx="15" fill="#626262"/>
<path d="M690 57H782.5C786.642 57 790 60.3579 790 64.5V171.5C790 175.642 786.642 179 782.5 179H690V57Z" fill="#FBFBFB"/>
<mask id="mask0_3904_34336" style="mask-type:alpha" maskUnits="userSpaceOnUse" x="710" y="38" width="61" height="159">
<path d="M710.53 98V81.8L741.23 38H762.73V81H770.43V98H762.73V110H742.93V98H710.53ZM744.43 60.1L730.63 81H744.43V60.1Z" fill="url(#paint0_linear_3904_34336)"/>
<path d="M764.336 141.2H734.336V152.3C735.603 150.967 737.336 149.9 739.536 149.1C741.736 148.3 744.17 147.9 746.836 147.9C751.636 147.9 755.636 149 758.836 151.2C762.103 153.4 764.503 156.3 766.036 159.9C767.57 163.5 768.336 167.433 768.336 171.7C768.336 179.567 766.103 185.767 761.636 190.3C757.17 194.767 750.97 197 743.036 197C737.503 197 732.703 196.067 728.636 194.2C724.636 192.267 721.57 189.6 719.436 186.2C717.303 182.8 716.203 178.9 716.136 174.5H735.236C735.436 176.033 736.103 177.367 737.236 178.5C738.37 179.633 740.036 180.2 742.236 180.2C744.57 180.2 746.336 179.4 747.536 177.8C748.736 176.2 749.336 174.067 749.336 171.4C749.336 168.8 748.703 166.833 747.436 165.5C746.17 164.1 744.336 163.4 741.936 163.4C740.136 163.4 738.67 163.867 737.536 164.8C736.47 165.667 735.836 166.767 735.636 168.1H716.536V123.9H764.336V141.2Z" fill="url(#paint1_linear_3904_34336)"/>
</mask>
<g mask="url(#mask0_3904_34336)">
<path d="M690 57H782.5C786.642 57 790 60.3579 790 64.5V171.5C790 175.642 786.642 179 782.5 179H690V57Z" fill="url(#paint2_linear_3904_34336)"/>
</g>
<path d="M790 171.5C790 175.642 786.642 179 782.5 179H690V140H790V171.5Z" fill="url(#paint3_linear_3904_34336)"/>
<path d="M690 57H782.5C786.642 57 790 60.3579 790 64.5V96H690V57Z" fill="url(#paint4_linear_3904_34336)"/>
<path d="M9 64.5C9 60.3579 12.3579 57 16.5 57H109V179H16.5C12.3579 179 9 175.642 9 171.5V64.5Z" fill="#444444"/>
<path d="M9 64.5C9 60.3579 12.3579 57 16.5 57H109V96H9V64.5Z" fill="url(#paint5_linear_3904_34336)"/>
<path d="M109 179H16.5C12.3579 179 9 175.642 9 171.5V140H109V179Z" fill="url(#paint6_linear_3904_34336)"/>
<path d="M52.8777 132.9C53.6777 137.433 56.1444 139.7 60.2777 139.7C63.2777 139.7 65.3111 138.3 66.3777 135.5C67.5111 132.633 68.0777 128.067 68.0777 121.8C66.7444 123.733 64.8777 125.267 62.4777 126.4C60.0777 127.533 57.3777 128.1 54.3777 128.1C47.9777 128.1 42.7777 126.1 38.7777 122.1C34.7777 118.1 32.7777 112.333 32.7777 104.8C32.7777 99.8667 33.8111 95.5667 35.8777 91.9C37.9444 88.1667 40.8777 85.3 44.6777 83.3C48.5444 81.3 53.0444 80.3 58.1777 80.3C68.3777 80.3 75.4777 83.4 79.4777 89.6C83.5444 95.7333 85.5777 104.667 85.5777 116.4C85.5777 129.533 83.6111 139.333 79.6777 145.8C75.8111 152.267 69.1444 155.5 59.6777 155.5C54.5444 155.5 50.1111 154.467 46.3777 152.4C42.7111 150.267 39.8777 147.5 37.8777 144.1C35.9444 140.633 34.8444 136.9 34.5777 132.9H52.8777ZM59.0777 112.9C61.4111 112.9 63.2444 112.233 64.5777 110.9C65.9111 109.5 66.5777 107.633 66.5777 105.3C66.5777 102.633 65.8777 100.633 64.4777 99.3C63.1444 97.9667 61.2777 97.3 58.8777 97.3C56.4777 97.3 54.5777 98 53.1777 99.4C51.8444 100.733 51.1777 102.667 51.1777 105.2C51.1777 107.533 51.8444 109.4 53.1777 110.8C54.5777 112.2 56.5444 112.9 59.0777 112.9Z" fill="white"/>
<rect x="118" y="57" width="100" height="122" fill="#444444"/>
<rect x="118" y="57" width="100" height="39" fill="url(#paint7_linear_3904_34336)"/>
<rect x="218" y="179" width="100" height="39" transform="rotate(-180 218 179)" fill="url(#paint8_linear_3904_34336)"/>
<path d="M161.878 130.9C162.678 135.433 165.144 137.7 169.278 137.7C172.278 137.7 174.311 136.3 175.378 133.5C176.511 130.633 177.078 126.067 177.078 119.8C175.744 121.733 173.878 123.267 171.478 124.4C169.078 125.533 166.378 126.1 163.378 126.1C156.978 126.1 151.778 124.1 147.778 120.1C143.778 116.1 141.778 110.333 141.778 102.8C141.778 97.8667 142.811 93.5667 144.878 89.9C146.944 86.1667 149.878 83.3 153.678 81.3C157.544 79.3 162.044 78.3 167.178 78.3C177.378 78.3 184.478 81.4 188.478 87.6C192.544 93.7333 194.578 102.667 194.578 114.4C194.578 127.533 192.611 137.333 188.678 143.8C184.811 150.267 178.144 153.5 168.678 153.5C163.544 153.5 159.111 152.467 155.378 150.4C151.711 148.267 148.878 145.5 146.878 142.1C144.944 138.633 143.844 134.9 143.578 130.9H161.878ZM168.078 110.9C170.411 110.9 172.244 110.233 173.578 108.9C174.911 107.5 175.578 105.633 175.578 103.3C175.578 100.633 174.878 98.6333 173.478 97.3C172.144 95.9667 170.278 95.3 167.878 95.3C165.478 95.3 163.578 96 162.178 97.4C160.844 98.7333 160.178 100.667 160.178 103.2C160.178 105.533 160.844 107.4 162.178 108.8C163.578 110.2 165.544 110.9 168.078 110.9Z" fill="white"/>

<rect x="227" y="57" width="100" height="122" fill="#444444"/>
<rect x="227" y="57" width="100" height="39" fill="url(#paint9_linear_3904_34336)"/>
<rect x="327" y="179" width="100" height="39" transform="rotate(-180 327 179)" fill="url(#paint10_linear_3904_34336)"/>
<path d="M270.878 130.9C271.678 135.433 274.144 137.7 278.278 137.7C281.278 137.7 283.311 136.3 284.378 133.5C285.511 130.633 286.078 126.067 286.078 119.8C284.744 121.733 282.878 123.267 280.478 124.4C278.078 125.533 275.378 126.1 272.378 126.1C265.978 126.1 260.778 124.1 256.778 120.1C252.778 116.1 250.778 110.333 250.778 102.8C250.778 97.8667 251.811 93.5667 253.878 89.9C255.944 86.1667 258.878 83.3 262.678 81.3C266.544 79.3 271.044 78.3 276.178 78.3C286.378 78.3 293.478 81.4 297.478 87.6C301.544 93.7333 303.578 102.667 303.578 114.4C303.578 127.533 301.611 137.333 297.678 143.8C293.811 150.267 287.144 153.5 277.678 153.5C272.544 153.5 268.111 152.467 264.378 150.4C260.711 148.267 257.878 145.5 255.878 142.1C253.944 138.633 252.844 134.9 252.578 130.9H270.878ZM277.078 110.9C279.411 110.9 281.244 110.233 282.578 108.9C283.911 107.5 284.578 105.633 284.578 103.3C284.578 100.633 283.878 98.6333 282.478 97.3C281.144 95.9667 279.278 95.3 276.878 95.3C274.478 95.3 272.578 96 271.178 97.4C269.844 98.7333 269.178 100.667 269.178 103.2C269.178 105.533 269.844 107.4 271.178 108.8C272.578 110.2 274.544 110.9 277.078 110.9Z" fill="white"/>

<rect x="336" y="57" width="100" height="122" fill="#444444"/>
<rect x="336" y="57" width="100" height="39" fill="url(#paint11_linear_3904_34336)"/>
<rect x="436" y="179" width="100" height="39" transform="rotate(-180 436 179)" fill="url(#paint12_linear_3904_34336)"/>
<path d="M379.878 130.9C380.678 135.433 383.144 137.7 387.278 137.7C390.278 137.7 392.311 136.3 393.378 133.5C394.511 130.633 395.078 126.067 395.078 119.8C393.744 121.733 391.878 123.267 389.478 124.4C387.078 125.533 384.378 126.1 381.378 126.1C374.978 126.1 369.778 124.1 365.778 120.1C361.778 116.1 359.778 110.333 359.778 102.8C359.778 97.8667 360.811 93.5667 362.878 89.9C364.944 86.1667 367.878 83.3 371.678 81.3C375.544 79.3 380.044 78.3 385.178 78.3C395.378 78.3 402.478 81.4 406.478 87.6C410.544 93.7333 412.578 102.667 412.578 114.4C412.578 127.533 410.611 137.333 406.678 143.8C402.811 150.267 396.144 153.5 386.678 153.5C381.544 153.5 377.111 152.467 373.378 150.4C369.711 148.267 366.878 145.5 364.878 142.1C362.944 138.633 361.844 134.9 361.578 130.9H379.878ZM386.078 110.9C388.411 110.9 390.244 110.233 391.578 108.9C392.911 107.5 393.578 105.633 393.578 103.3C393.578 100.633 392.878 98.6333 391.478 97.3C390.144 95.9667 388.278 95.3 385.878 95.3C383.478 95.3 381.578 96 380.178 97.4C378.844 98.7333 378.178 100.667 378.178 103.2C378.178 105.533 378.844 107.4 380.178 108.8C381.578 110.2 383.544 110.9 386.078 110.9Z" fill="white"/>

<rect x="445" y="57" width="100" height="122" fill="#444444"/>
<rect x="445" y="57" width="100" height="39" fill="url(#paint13_linear_3904_34336)"/>
<rect x="545" y="179" width="100" height="39" transform="rotate(-180 545 179)" fill="url(#paint14_linear_3904_34336)"/>
<path d="M488.878 130.9C489.678 135.433 492.144 137.7 496.278 137.7C499.278 137.7 501.311 136.3 502.378 133.5C503.511 130.633 504.078 126.067 504.078 119.8C502.744 121.733 500.878 123.267 498.478 124.4C496.078 125.533 493.378 126.1 490.378 126.1C483.978 126.1 478.778 124.1 474.778 120.1C470.778 116.1 468.778 110.333 468.778 102.8C468.778 97.8667 469.811 93.5667 471.878 89.9C473.944 86.1667 476.878 83.3 480.678 81.3C484.544 79.3 489.044 78.3 494.178 78.3C504.378 78.3 511.478 81.4 515.478 87.6C519.544 93.7333 521.578 102.667 521.578 114.4C521.578 127.533 519.611 137.333 515.678 143.8C511.811 150.267 505.144 153.5 495.678 153.5C490.544 153.5 486.111 152.467 482.378 150.4C478.711 148.267 475.878 145.5 473.878 142.1C471.944 138.633 470.844 134.9 470.578 130.9H488.878ZM495.078 110.9C497.411 110.9 499.244 110.233 500.578 108.9C501.911 107.5 502.578 105.633 502.578 103.3C502.578 100.633 501.878 98.6333 500.478 97.3C499.144 95.9667 497.278 95.3 494.878 95.3C492.478 95.3 490.578 96 489.178 97.4C487.844 98.7333 487.178 100.667 487.178 103.2C487.178 105.533 487.844 107.4 489.178 108.8C490.578 110.2 492.544 110.9 495.078 110.9Z" fill="white"/>
<rect x="554" y="57" width="100" height="122" fill="#444444"/>
<rect x="554" y="57" width="100" height="39" fill="url(#paint15_linear_3904_34336)"/>
<rect x="654" y="179" width="100" height="39" transform="rotate(-180 654 179)" fill="url(#paint16_linear_3904_34336)"/>
<path d="M597.878 130.9C598.678 135.433 601.144 137.7 605.278 137.7C608.278 137.7 610.311 136.3 611.378 133.5C612.511 130.633 613.078 126.067 613.078 119.8C611.744 121.733 609.878 123.267 607.478 124.4C605.078 125.533 602.378 126.1 599.378 126.1C592.978 126.1 587.778 124.1 583.778 120.1C579.778 116.1 577.778 110.333 577.778 102.8C577.778 97.8667 578.811 93.5667 580.878 89.9C582.944 86.1667 585.878 83.3 589.678 81.3C593.544 79.3 598.044 78.3 603.178 78.3C613.378 78.3 620.478 81.4 624.478 87.6C628.544 93.7333 630.578 102.667 630.578 114.4C630.578 127.533 628.611 137.333 624.678 143.8C620.811 150.267 614.144 153.5 604.678 153.5C599.544 153.5 595.111 152.467 591.378 150.4C587.711 148.267 584.878 145.5 582.878 142.1C580.944 138.633 579.844 134.9 579.578 130.9H597.878ZM604.078 110.9C606.411 110.9 608.244 110.233 609.578 108.9C610.911 107.5 611.578 105.633 611.578 103.3C611.578 100.633 610.878 98.6333 609.478 97.3C608.144 95.9667 606.278 95.3 603.878 95.3C601.478 95.3 599.578 96 598.178 97.4C596.844 98.7333 596.178 100.667 596.178 103.2C596.178 105.533 596.844 107.4 598.178 108.8C599.578 110.2 601.544 110.9 604.078 110.9Z" fill="white"/>

<defs>
<linearGradient id="paint0_linear_3904_34336" x1="680.489" y1="-12.2545" x2="786.208" y2="125.049" gradientUnits="userSpaceOnUse">
<stop stop-color="#2F2F2F"/>
<stop offset="0.973958" stop-color="#151515"/>
</linearGradient>
<linearGradient id="paint1_linear_3904_34336" x1="680.489" y1="113.75" x2="775.125" y2="247.633" gradientUnits="userSpaceOnUse">
<stop stop-color="#2F2F2F"/>
<stop offset="0.973958" stop-color="#151515"/>
</linearGradient>
<linearGradient id="paint2_linear_3904_34336" x1="680.489" y1="44.7455" x2="786.208" y2="182.049" gradientUnits="userSpaceOnUse">
<stop stop-color="#2F2F2F"/>
<stop offset="0.973958" stop-color="#151515"/>
</linearGradient>
<linearGradient id="paint3_linear_3904_34336" x1="740" y1="179" x2="740" y2="140" gradientUnits="userSpaceOnUse">
<stop stop-color="#727171"/>
<stop offset="1" stop-color="white" stop-opacity="0"/>
</linearGradient>
<linearGradient id="paint4_linear_3904_34336" x1="740" y1="57" x2="740" y2="96" gradientUnits="userSpaceOnUse">
<stop stop-color="#727171"/>
<stop offset="1" stop-color="white" stop-opacity="0"/>
</linearGradient>
<linearGradient id="paint5_linear_3904_34336" x1="59" y1="57" x2="59" y2="96" gradientUnits="userSpaceOnUse">
<stop stop-color="#D1C9C9"/>
<stop offset="1" stop-color="#383838" stop-opacity="0"/>
</linearGradient>
<linearGradient id="paint6_linear_3904_34336" x1="59" y1="179" x2="59" y2="140" gradientUnits="userSpaceOnUse">
<stop stop-color="#D1C9C9"/>
<stop offset="1" stop-color="#383838" stop-opacity="0"/>
</linearGradient>
<linearGradient id="paint7_linear_3904_34336" x1="168" y1="57" x2="168" y2="96" gradientUnits="userSpaceOnUse">
<stop stop-color="#D1C9C9"/>
<stop offset="1" stop-color="#383838" stop-opacity="0"/>
</linearGradient>
<linearGradient id="paint8_linear_3904_34336" x1="268" y1="179" x2="268" y2="218" gradientUnits="userSpaceOnUse">
<stop stop-color="#D1C9C9"/>
<stop offset="1" stop-color="#383838" stop-opacity="0"/>
</linearGradient>
<linearGradient id="paint9_linear_3904_34336" x1="277" y1="57" x2="277" y2="96" gradientUnits="userSpaceOnUse">
<stop stop-color="#D1C9C9"/>
<stop offset="1" stop-color="#383838" stop-opacity="0"/>
</linearGradient>
<linearGradient id="paint10_linear_3904_34336" x1="377" y1="179" x2="377" y2="218" gradientUnits="userSpaceOnUse">
<stop stop-color="#D1C9C9"/>
<stop offset="1" stop-color="#383838" stop-opacity="0"/>
</linearGradient>
<linearGradient id="paint11_linear_3904_34336" x1="386" y1="57" x2="386" y2="96" gradientUnits="userSpaceOnUse">
<stop stop-color="#D1C9C9"/>
<stop offset="1" stop-color="#383838" stop-opacity="0"/>
</linearGradient>
<linearGradient id="paint12_linear_3904_34336" x1="486" y1="179" x2="486" y2="218" gradientUnits="userSpaceOnUse">
<stop stop-color="#D1C9C9"/>
<stop offset="1" stop-color="#383838" stop-opacity="0"/>
</linearGradient>
<linearGradient id="paint13_linear_3904_34336" x1="495" y1="57" x2="495" y2="96" gradientUnits="userSpaceOnUse">
<stop stop-color="#D1C9C9"/>
<stop offset="1" stop-color="#383838" stop-opacity="0"/>
</linearGradient>
<linearGradient id="paint14_linear_3904_34336" x1="595" y1="179" x2="595" y2="218" gradientUnits="userSpaceOnUse">
<stop stop-color="#D1C9C9"/>
<stop offset="1" stop-color="#383838" stop-opacity="0"/>
</linearGradient>
<linearGradient id="paint15_linear_3904_34336" x1="604" y1="57" x2="604" y2="96" gradientUnits="userSpaceOnUse">
<stop stop-color="#D1C9C9"/>
<stop offset="1" stop-color="#383838" stop-opacity="0"/>
</linearGradient>
<linearGradient id="paint16_linear_3904_34336" x1="704" y1="179" x2="704" y2="218" gradientUnits="userSpaceOnUse">
<stop stop-color="#D1C9C9"/>
<stop offset="1" stop-color="#383838" stop-opacity="0"/>
</linearGradient>
</defs>
</svg>
