     <svg width="56" height="84" viewBox="0 0 69 84" fill="none"
                                                            xmlns="http://www.w3.org/2000/svg">
                                                            <path
                                                                d="M58.2216 84H10.7813C8.17089 83.9986 5.66766 82.9557 3.8213 81.1003C1.97494 79.2448 0.936356 76.7285 0.933594 74.1038L0.933594 9.89361C0.937045 7.26982 1.97557 4.75456 3.8213 2.89975C5.66702 1.04494 8.16918 0.00208008 10.7787 0L58.219 0C60.8294 0.00138726 63.3326 1.0443 65.179 2.89975C67.0254 4.7552 68.0639 7.27153 68.0667 9.89623V74.1064C68.0633 76.7302 67.0247 79.2454 65.179 81.1003C63.3333 82.9551 60.8311 83.9979 58.2216 84ZM10.7813 2.11763C8.72947 2.11901 6.76195 2.93882 5.31056 4.39714C3.85918 5.85546 3.04249 7.83316 3.03973 9.89623V74.1064C3.04249 76.1695 3.85918 78.1472 5.31056 79.6055C6.76195 81.0638 8.72947 81.8836 10.7813 81.885H58.2216C60.273 81.8822 62.2396 81.0614 63.6899 79.6027C65.1402 78.144 65.9559 76.1664 65.958 74.1038V9.89361C65.9538 7.83235 65.1373 5.85679 63.6871 4.39975C62.237 2.94272 60.2716 2.12302 58.2216 2.12025L10.7813 2.11763Z"
                                                                fill="#727372" />
                                                            <path
                                                                d="M40.7647 72.3086H32.3428C31.05 72.3065 29.8107 71.7892 28.8965 70.87C27.9824 69.9509 27.4679 68.7049 27.4658 67.405V15.3948C27.4679 14.0954 27.982 12.8497 28.8956 11.9307C29.8092 11.0116 31.0478 10.494 32.3402 10.4912H40.7673C42.0601 10.4933 43.2994 11.0106 44.2136 11.9297C45.1277 12.8489 45.6422 14.0949 45.6443 15.3948V67.405C45.6422 68.7042 45.128 69.9495 44.2143 70.8682C43.3007 71.7868 42.0621 72.3039 40.7699 72.3059L40.7647 72.3086ZM32.3428 12.6062C31.6077 12.6069 30.9029 12.901 30.3834 13.4239C29.8638 13.9468 29.572 14.6557 29.572 15.3948V67.405C29.5726 68.1437 29.8648 68.8519 30.3843 69.3742C30.9038 69.8965 31.6081 70.1902 32.3428 70.1909H40.7673C41.502 70.1902 42.2063 69.8965 42.7258 69.3742C43.2453 68.8519 43.5375 68.1437 43.5381 67.405V15.3948C43.5375 14.6561 43.2453 13.9479 42.7258 13.4256C42.2063 12.9033 41.502 12.6095 40.7673 12.6088L32.3428 12.6062Z"
                                                                fill="#727372" />
                                                            <path
                                                                d="M36.5527 63.9219C36.4241 63.9219 36.2968 63.8963 36.178 63.8468C36.0592 63.7972 35.9514 63.7246 35.8606 63.6331C35.7698 63.5415 35.6978 63.4329 35.6489 63.3133C35.5999 63.1938 35.5749 63.0657 35.5752 62.9364V18.4506C35.5752 18.1899 35.6782 17.9399 35.8615 17.7556C36.0448 17.5713 36.2934 17.4678 36.5527 17.4678C36.8119 17.4678 37.0605 17.5713 37.2439 17.7556C37.4272 17.9399 37.5302 18.1899 37.5302 18.4506V62.9364C37.5302 63.1971 37.4272 63.4471 37.2439 63.6314C37.0605 63.8157 36.8119 63.9192 36.5527 63.9192V63.9219Z"
                                                                fill="#727372" />
                                                            <path
                                                                d="M48.0162 24.9814H25.0885C22.9767 24.9814 21.2646 26.7028 21.2646 28.8262V36.2195C21.2646 38.3429 22.9767 40.0643 25.0885 40.0643H48.0162C50.1281 40.0643 51.8401 38.3429 51.8401 36.2195V28.8262C51.8401 26.7028 50.1281 24.9814 48.0162 24.9814Z"
                                                                fill="white" />
                                                            <path
                                                                d="M48.0162 41.0864H25.0885C23.8052 41.085 22.5748 40.5718 21.6673 39.6594C20.7598 38.747 20.2494 37.5099 20.248 36.2195V28.8288C20.2494 27.5384 20.7598 26.3013 21.6673 25.3889C22.5748 24.4765 23.8052 23.9633 25.0885 23.9619H48.0162C49.2994 23.964 50.5293 24.4774 51.4367 25.3897C52.344 26.3019 52.8546 27.5386 52.8567 28.8288V36.2195C52.8546 37.5101 52.3436 38.7472 51.4357 39.6595C50.5279 40.5719 49.2972 41.085 48.0136 41.0864H48.0162ZM25.0885 26.0035C24.3435 26.0042 23.6292 26.3021 23.1024 26.8318C22.5755 27.3615 22.2793 28.0797 22.2786 28.8288V36.2195C22.28 36.9681 22.5765 37.6857 23.1033 38.2148C23.63 38.7439 24.3439 39.0414 25.0885 39.0421H48.0162C48.7608 39.0414 49.4747 38.7439 50.0014 38.2148C50.5282 37.6857 50.8248 36.9681 50.8261 36.2195V28.8288C50.8254 28.0797 50.5292 27.3615 50.0024 26.8318C49.4756 26.3021 48.7612 26.0042 48.0162 26.0035H25.0885Z"
                                                                fill="#727372" />
                                                            <path
                                                                d="M21.3933 31.2111C21.3933 30.0358 20.4457 29.083 19.2767 29.083C18.1078 29.083 17.1602 30.0358 17.1602 31.2111V35.0218C17.1602 36.1971 18.1078 37.1499 19.2767 37.1499C20.4457 37.1499 21.3933 36.1971 21.3933 35.0218V31.2111Z"
                                                                fill="white" />
                                                            <path
                                                                d="M19.276 38.172C18.4453 38.1713 17.6488 37.8392 17.0613 37.2486C16.4739 36.6579 16.1436 35.8571 16.1429 35.0218V31.2137C16.1308 30.7926 16.2029 30.3732 16.3548 29.9806C16.5068 29.5879 16.7355 29.2299 17.0276 28.9277C17.3196 28.6255 17.6689 28.3853 18.0549 28.2212C18.4409 28.0572 18.8557 27.9727 19.2747 27.9727C19.6938 27.9727 20.1086 28.0572 20.4946 28.2212C20.8806 28.3853 21.2299 28.6255 21.5219 28.9277C21.8139 29.2299 22.0427 29.5879 22.1946 29.9806C22.3466 30.3732 22.4187 30.7926 22.4066 31.2137V35.0218C22.4059 35.8562 22.0763 36.6562 21.49 37.2467C20.9037 37.8372 20.1085 38.1699 19.2787 38.172H19.276ZM19.276 30.1051C18.9836 30.1051 18.7032 30.2219 18.4964 30.4298C18.2896 30.6377 18.1735 30.9197 18.1735 31.2137V35.0218C18.1735 35.1672 18.2019 35.3112 18.2573 35.4455C18.3126 35.5799 18.3937 35.702 18.496 35.8048C18.5983 35.9076 18.7197 35.9892 18.8533 36.0448C18.9869 36.1005 19.1301 36.1291 19.2747 36.1291C19.4194 36.1291 19.5626 36.1005 19.6962 36.0448C19.8298 35.9892 19.9512 35.9076 20.0535 35.8048C20.1557 35.702 20.2369 35.5799 20.2922 35.4455C20.3475 35.3112 20.376 35.1672 20.376 35.0218V31.2137C20.376 30.9202 20.2602 30.6386 20.054 30.4308C19.8478 30.2229 19.568 30.1058 19.276 30.1051Z"
                                                                fill="#727372" />
                                                            <path
                                                                d="M19.2763 23.2969C20.4165 23.2969 21.3408 22.3676 21.3408 21.2212C21.3408 20.0748 20.4165 19.1455 19.2763 19.1455C18.1362 19.1455 17.2119 20.0748 17.2119 21.2212C17.2119 22.3676 18.1362 23.2969 19.2763 23.2969Z"
                                                                fill="#727372" />
                                                            <path
                                                                d="M19.2763 46.292C20.4165 46.292 21.3408 45.3627 21.3408 44.2163C21.3408 43.0699 20.4165 42.1406 19.2763 42.1406C18.1362 42.1406 17.2119 43.0699 17.2119 44.2163C17.2119 45.3627 18.1362 46.292 19.2763 46.292Z"
                                                                fill="#727372" />
                                                            <path
                                                                d="M19.2763 54.6153C20.4165 54.6153 21.3408 53.6859 21.3408 52.5396C21.3408 51.3932 20.4165 50.4639 19.2763 50.4639C18.1362 50.4639 17.2119 51.3932 17.2119 52.5396C17.2119 53.6859 18.1362 54.6153 19.2763 54.6153Z"
                                                                fill="#727372" />
                                                            <path
                                                                d="M19.2763 62.9365C20.4165 62.9365 21.3408 62.0072 21.3408 60.8608C21.3408 59.7145 20.4165 58.7852 19.2763 58.7852C18.1362 58.7852 17.2119 59.7145 17.2119 60.8608C17.2119 62.0072 18.1362 62.9365 19.2763 62.9365Z"
                                                                fill="#727372" />
                                                        </svg>