   <svg width="105" height="60" viewBox="0 0 115 60" fill="none"
                                                            xmlns="http://www.w3.org/2000/svg">
                                                            <path d="M55.3604 8.03418H57.1073V25.2265H55.3604V8.03418Z"
                                                                fill="#727372" />
                                                            <path
                                                                d="M85.9233 25.6692L78.376 12.8852C77.7044 11.6469 76.709 10.6125 75.4951 9.89175C74.2812 9.17095 72.8942 8.79056 71.4809 8.79086H40.8943C39.4465 8.79248 38.0276 9.19467 36.796 9.95258C35.5643 10.7105 34.5684 11.7943 33.9193 13.083L26.5426 25.6692L25.0374 24.7919L32.3882 12.2573C33.1836 10.6918 34.3997 9.37685 35.9011 8.45884C37.4025 7.54082 39.1303 7.05576 40.8922 7.05765H71.4507C73.0988 7.05304 74.7204 7.4715 76.1589 8.27266C77.5974 9.07383 78.8043 10.2306 79.6631 11.6315L79.9481 12.0358L87.4306 24.794L85.9233 25.6692ZM48.1652 29.2733H52.7519V31.0086H48.1652V29.2733ZM78.5769 29.2733H83.1636V31.0086H78.579L78.5769 29.2733ZM25.7695 60.0022C23.2951 60.0018 20.8763 59.2708 18.8191 57.9016C16.7618 56.5324 15.1585 54.5865 14.2118 52.3099C13.265 50.0334 13.0174 47.5284 13.5003 45.1117C13.9831 42.695 15.1747 40.4752 16.9244 38.7329C18.6741 36.9905 20.9033 35.8039 23.3302 35.3231C25.7571 34.8423 28.2726 35.0888 30.5588 36.0316C32.8449 36.9743 34.799 38.571 36.174 40.6196C37.549 42.6682 38.2831 45.0767 38.2836 47.5408C38.2796 50.8443 36.9598 54.0114 34.6137 56.3472C32.2677 58.683 29.087 59.9967 25.7695 60.0001V60.0022ZM25.7695 36.8168C23.6395 36.8164 21.5571 37.445 19.7859 38.6231C18.0146 39.8012 16.6339 41.4759 15.8185 43.4354C15.0031 45.3949 14.7895 47.5512 15.2048 49.6316C15.6201 51.712 16.6456 53.623 18.1516 55.123C19.6576 56.623 21.5765 57.6446 23.6656 58.0585C25.7547 58.4725 27.9201 58.2602 29.888 57.4486C31.856 56.637 33.538 55.2625 34.7215 53.4989C35.9049 51.7353 36.5366 49.6619 36.5366 47.5408C36.5337 44.6978 35.3985 41.9721 33.3799 39.9617C31.3614 37.9512 28.6244 36.8202 25.7695 36.8168Z"
                                                                fill="#727372" />
                                                            <path
                                                                d="M25.7692 54.1528C24.4559 54.1528 23.1721 53.765 22.0801 53.0384C20.9881 52.3118 20.137 51.2791 19.6344 50.0709C19.1318 48.8626 19.0003 47.533 19.2565 46.2504C19.5127 44.9677 20.1452 43.7895 21.0738 42.8647C22.0025 41.9399 23.1857 41.3102 24.4738 41.055C25.7619 40.7999 27.097 40.9308 28.3104 41.4313C29.5237 41.9318 30.5608 42.7793 31.2905 43.8667C32.0201 44.9541 32.4096 46.2326 32.4096 47.5404C32.4073 49.2934 31.7069 50.974 30.4621 52.2136C29.2173 53.4531 27.5297 54.1505 25.7692 54.1528ZM25.7692 42.6633C24.8005 42.6629 23.8534 42.9486 23.0477 43.4842C22.242 44.0198 21.6139 44.7814 21.2429 45.6725C20.8718 46.5637 20.7745 47.5443 20.9633 48.4905C21.152 49.4367 21.6183 50.3059 22.3032 50.9882C22.988 51.6705 23.8607 52.1352 24.8108 52.3236C25.7609 52.5119 26.7458 52.4155 27.6408 52.0464C28.5359 51.6773 29.3009 51.0522 29.8392 50.2502C30.3774 49.4481 30.6647 48.5051 30.6647 47.5404C30.6636 46.2476 30.1475 45.0081 29.2297 44.0938C28.312 43.1795 27.0675 42.665 25.7692 42.6633ZM86.6983 59.9997C84.2238 59.9993 81.805 59.2682 79.7477 57.8989C77.6904 56.5296 76.087 54.5835 75.1404 52.3069C74.1937 50.0302 73.9462 47.5251 74.4293 45.1084C74.9123 42.6916 76.1041 40.4718 77.854 38.7296C79.6039 36.9873 81.8333 35.8009 84.2603 35.3203C86.6873 34.8397 89.2029 35.0866 91.4891 36.0297C93.7752 36.9728 95.7292 38.5697 97.1039 40.6186C98.4786 42.6675 99.2124 45.0763 99.2124 47.5404C99.2084 50.8439 97.8886 54.011 95.5425 56.3468C93.1965 58.6826 90.0158 59.9963 86.6983 59.9997ZM86.6983 36.8186C84.5682 36.8181 82.4858 37.4468 80.7145 38.625C78.9431 39.8032 77.5625 41.478 76.7471 43.4377C75.9318 45.3973 75.7183 47.5537 76.1338 49.6341C76.5492 51.7146 77.5749 53.6256 79.0812 55.1255C80.5874 56.6254 82.5065 57.6468 84.5957 58.0605C86.6849 58.4743 88.8504 58.2617 90.8184 57.4498C92.7863 56.6378 94.4682 55.263 95.6513 53.4991C96.8345 51.7352 97.4658 49.6616 97.4654 47.5404C97.4625 44.6975 96.3273 41.9718 94.3087 39.9613C92.2902 37.9508 89.5532 36.8198 86.6983 36.8164V36.8186Z"
                                                                fill="#727372" />
                                                            <path
                                                                d="M86.698 54.1531C85.3847 54.1531 84.1008 53.7653 83.0088 53.0387C81.9168 52.3122 81.0657 51.2794 80.5631 50.0712C80.0605 48.8629 79.929 47.5334 80.1852 46.2507C80.4415 44.968 81.0739 43.7898 82.0026 42.865C82.9312 41.9402 84.1144 41.3105 85.4025 41.0553C86.6906 40.8002 88.0258 40.9311 89.2391 41.4316C90.4525 41.9321 91.4896 42.7796 92.2192 43.867C92.9489 44.9544 93.3383 46.2329 93.3383 47.5407C93.336 49.2937 92.6357 50.9743 91.3909 52.2139C90.1461 53.4535 88.4584 54.1509 86.698 54.1531ZM86.698 42.6636C85.7291 42.6628 84.7818 42.9481 83.9758 43.4835C83.1698 44.0189 82.5414 44.7803 82.1701 45.6714C81.7987 46.5624 81.7011 47.5432 81.8896 48.4895C82.0781 49.4359 82.5442 50.3053 83.229 50.9878C83.9138 51.6703 84.7864 52.1352 85.7366 52.3237C86.6868 52.5123 87.6717 52.4159 88.5669 52.0469C89.4621 51.6779 90.2273 51.0528 90.7656 50.2507C91.304 49.4486 91.5913 48.5055 91.5913 47.5407C91.5902 46.2483 91.0744 45.0091 90.1571 44.0949C89.2398 43.1806 87.9958 42.6659 86.698 42.6636ZM3.08382 36.7651C2.4245 36.7659 1.77171 36.635 1.16406 36.3802L1.83997 34.7782C2.5497 35.0755 3.34316 35.1086 4.07537 34.8714C4.80757 34.6342 5.42964 34.1426 5.8279 33.4864C6.22616 32.8302 6.37403 32.0532 6.24449 31.2974C6.11494 30.5416 5.71664 29.8575 5.12235 29.37L6.23231 28.0303C7.02014 28.6757 7.58844 29.5477 7.85946 30.5271C8.13047 31.5065 8.09095 32.5454 7.7463 33.5015C7.40165 34.4577 6.76872 35.2844 5.93411 35.8686C5.0995 36.4528 4.10399 36.766 3.08382 36.7651ZM37.6697 46.6504H75.0132V48.3858H37.6697V46.6504Z"
                                                                fill="#727372" />
                                                            <path
                                                                d="M112.245 48.3856H98.6443V46.6503H110.5V38.4121C110.372 35.1049 108.965 31.9749 106.572 29.6775C104.18 27.38 100.988 26.0931 97.6639 26.0861H14.8142C11.4075 26.0896 8.14137 27.4387 5.7325 29.8374C3.32363 32.2362 1.96882 35.4886 1.96539 38.8809L1.96107 46.6503H14.0864V48.3856H0.211914L0.220552 38.8809C0.224553 35.0279 1.76338 31.3339 4.49934 28.6094C7.23531 25.885 10.9449 24.3526 14.8142 24.3486H97.6639C101.521 24.3559 105.22 25.8812 107.953 28.592C110.686 31.3028 112.233 34.9794 112.255 38.8207V39.6916H112.247L112.245 48.3856Z"
                                                                fill="#727372" />
                                                            <path
                                                                d="M87.7992 1.21484L113.568 19.8694L100.747 37.4273L74.9785 18.7684L87.7992 1.21484Z"
                                                                fill="white" />
                                                            <path
                                                                d="M100.942 38.6424L73.7607 18.9621L87.605 0L114.786 19.6803L100.942 38.6424ZM76.1966 18.5793L100.555 36.2146L112.35 20.0652L87.9916 2.42778L76.1966 18.5793Z"
                                                                fill="#727372" />
                                                            <path d="M83.6299 6.92383L109.489 25.458L83.6299 6.92383Z"
                                                                fill="white" />
                                                            <path
                                                                d="M83.1201 7.63155L84.1394 6.21875L109.999 24.7529L108.977 26.1636L83.1201 7.63155Z"
                                                                fill="#727372" />
                                                            <path d="M79.2354 12.9453L105.095 31.4773L79.2354 12.9453Z"
                                                                fill="white" />
                                                            <path
                                                                d="M78.7256 13.6511L79.7448 12.2383L105.604 30.7724L104.583 32.1831L78.7256 13.6511Z"
                                                                fill="#727372" />
                                                        </svg>