  <svg width="113" height="60" viewBox="0 0 123 60" fill="none"
                                                            xmlns="http://www.w3.org/2000/svg">
                                                            <path
                                                                d="M122.616 37.1631C122.611 34.0235 121.71 30.95 120.018 28.3008L106.826 5.50979C105.902 3.93249 104.581 2.62264 102.993 1.70988C101.404 0.797113 99.604 0.313074 97.77 0.305664H49.0159C47.1842 0.314212 45.3866 0.798869 43.8009 1.71165C42.2153 2.62444 40.8966 3.93369 39.9754 5.50979L31.2116 20.5864H17.0359C12.621 20.5905 8.38807 22.3383 5.26626 25.4461C2.14445 28.554 0.388837 32.768 0.384766 37.1631V47.0509H18.9116C19.1951 50.4984 20.7709 53.7135 23.326 56.0575C25.8811 58.4015 29.2285 59.7027 32.703 59.7027C36.1775 59.7027 39.5249 58.4015 42.08 56.0575C44.6351 53.7135 46.2109 50.4984 46.4944 47.0509H91.0819C91.3653 50.4984 92.9412 53.7135 95.4963 56.0575C98.0514 58.4015 101.399 59.7027 104.873 59.7027C108.348 59.7027 111.695 58.4015 114.25 56.0575C116.805 53.7135 118.381 50.4984 118.665 47.0509H122.662L122.616 37.1631ZM104.827 6.65776L114.144 22.7446C111.652 21.3308 108.833 20.5871 105.965 20.5864H73.539V2.6016H97.77C99.1992 2.60773 100.602 2.98515 101.84 3.69655C103.077 4.40794 104.107 5.42866 104.827 6.65776ZM41.9588 6.65776C42.6763 5.4266 43.7056 4.4042 44.9438 3.6925C46.1821 2.98081 47.5861 2.60467 49.0159 2.6016H71.2328V20.5864H33.8254L41.9588 6.65776ZM6.35027 27.6732C6.60255 28.1082 6.73476 28.6018 6.73348 29.1041C6.7322 29.6064 6.59747 30.0993 6.34297 30.533C6.08846 30.9667 5.72325 31.3256 5.28438 31.5734C4.84552 31.8211 4.34863 31.9489 3.84414 31.9437H3.70577C4.32519 30.375 5.22071 28.9289 6.35027 27.6732ZM32.703 57.398C30.4193 57.398 28.1869 56.7238 26.2881 55.4607C24.3892 54.1976 22.9093 52.4024 22.0353 50.3019C21.1614 48.2015 20.9327 45.8902 21.3783 43.6604C21.8238 41.4306 22.9235 39.3824 24.5383 37.7748C26.1531 36.1672 28.2106 35.0724 30.4504 34.6289C32.6902 34.1853 35.0118 34.413 37.1217 35.283C39.2316 36.153 41.0349 37.6264 42.3037 39.5167C43.5724 41.407 44.2496 43.6295 44.2496 45.903C44.2456 48.9504 43.0277 51.8718 40.8632 54.0267C38.6987 56.1815 35.7641 57.3939 32.703 57.398ZM104.827 57.398C102.543 57.398 100.311 56.7238 98.4122 55.4607C96.5133 54.1976 95.0334 52.4024 94.1594 50.3019C93.2855 48.2015 93.0568 45.8902 93.5024 43.6604C93.9479 41.4306 95.0476 39.3824 96.6624 37.7748C98.2773 36.1672 100.335 35.0724 102.575 34.6289C104.814 34.1853 107.136 34.413 109.246 35.283C111.356 36.153 113.159 37.6264 114.428 39.5167C115.697 41.407 116.374 43.6295 116.374 45.903C116.37 48.9504 115.152 51.8718 112.987 54.0267C110.823 56.1815 107.888 57.3939 104.827 57.398ZM120.31 44.755H118.619C118.335 41.3076 116.759 38.0924 114.204 35.7485C111.649 33.4045 108.302 32.1032 104.827 32.1032C101.353 32.1032 98.0053 33.4045 95.4502 35.7485C92.8951 38.0924 91.3192 41.3076 91.0358 44.755H46.4483C46.1648 41.3076 44.589 38.0924 42.0339 35.7485C39.4788 33.4045 36.1314 32.1032 32.6569 32.1032C29.1824 32.1032 25.835 33.4045 23.2799 35.7485C20.7248 38.0924 19.149 41.3076 18.8655 44.755H2.69102V37.1019C2.69313 36.0732 2.80132 35.0474 3.01389 34.0406C3.28764 34.0938 3.56533 34.1246 3.84414 34.1325C4.80226 34.1389 5.74331 33.88 6.5621 33.3846C7.38089 32.8892 8.04516 32.1769 8.48065 31.3273C8.91615 30.4776 9.10572 29.5242 9.02817 28.5734C8.95062 27.6227 8.60901 26.7122 8.04152 25.9436C10.5875 23.8946 13.762 22.7763 17.0359 22.7752H105.965C109.767 22.7833 113.411 24.2905 116.099 26.9669C118.788 29.6433 120.302 33.271 120.31 37.056V44.755Z"
                                                                fill="#727372" />
                                                        </svg>