         <svg width="78" height="83" viewBox="0 0 88 83" fill="none"
                                                            xmlns="http://www.w3.org/2000/svg">
                                                            <path
                                                                d="M74.778 63.4113C73.7427 63.4626 72.7084 63.294 71.743 62.9167C70.7776 62.5395 69.9032 61.9621 69.1773 61.2225C67.6037 59.2809 66.8048 56.8258 66.9347 54.3304C66.9347 54.21 67.2217 38.0477 66.9324 28.3015C67.0185 27.1184 66.8449 25.9308 66.4239 24.8218C66.0028 23.7127 65.3444 22.709 64.4948 21.8809C63.8608 21.4202 63.1423 21.0888 62.3802 20.9057C61.6181 20.7227 60.8274 20.6915 60.0533 20.814C59.8246 20.859 59.5874 20.8116 59.3936 20.6822C59.1997 20.5529 59.065 20.3521 59.0189 20.1237C58.9728 19.8954 59.019 19.6581 59.1475 19.4637C59.2759 19.2693 59.4762 19.1337 59.7044 19.0864C60.727 18.912 61.7744 18.9463 62.7835 19.1872C63.7925 19.4281 64.7424 19.8707 65.5758 20.4882C66.6383 21.4701 67.4694 22.6756 68.0089 24.0178C68.5483 25.3599 68.7828 26.805 68.6952 28.2487C68.9866 38.0374 68.6975 54.2409 68.6952 54.4038C68.5943 56.4294 69.2248 58.4238 70.4718 60.0237C71.5225 61.0689 72.9436 61.6568 74.4259 61.6596C75.9082 61.6624 77.3316 61.0798 78.3862 60.0387C79.0381 59.2711 79.5303 58.3812 79.8338 57.4211C80.1373 56.461 80.2461 55.4501 80.1537 54.4474L80.1721 23.3733C80.1722 23.1397 80.265 22.9156 80.4303 22.7504C80.5956 22.5852 80.8198 22.4924 81.0535 22.4923C81.2873 22.4924 81.5114 22.5852 81.6767 22.7504C81.842 22.9156 81.9349 23.1397 81.9349 23.3733L81.9166 54.4337C82.0183 55.6723 81.8677 56.9187 81.474 58.0976C81.0802 59.2765 80.4515 60.3633 79.6258 61.2925C78.3296 62.5766 76.6012 63.332 74.778 63.4113V63.4113ZM47.7111 32.1697H13.4185C12.202 32.1683 11.0357 31.6847 10.1755 30.8249C9.31531 29.9651 8.83145 28.7993 8.83008 27.5834V12.4203C8.83145 11.2044 9.31531 10.0386 10.1755 9.17881C11.0357 8.31901 12.202 7.83536 13.4185 7.83398H47.7111C48.9276 7.83536 50.0939 8.31901 50.9541 9.17881C51.8143 10.0386 52.2982 11.2044 52.2996 12.4203V27.5834C52.2982 28.7993 51.8143 29.9651 50.9541 30.8249C50.0939 31.6847 48.9276 32.1683 47.7111 32.1697V32.1697ZM13.4185 9.59601C12.6693 9.59669 11.951 9.89447 11.4212 10.424C10.8915 10.9535 10.5936 11.6715 10.5929 12.4203V27.5834C10.5936 28.3322 10.8915 29.0502 11.4212 29.5797C11.951 30.1092 12.6693 30.407 13.4185 30.4077H47.7111C48.4603 30.407 49.1786 30.1092 49.7084 29.5797C50.2381 29.0502 50.536 28.3322 50.5367 27.5834V12.4203C50.536 11.6715 50.2381 10.9535 49.7084 10.424C49.1786 9.89447 48.4603 9.59669 47.7111 9.59601H13.4185Z"
                                                                fill="#727372" />
                                                            <path
                                                                d="M51.5422 83H9.58763C7.14306 82.9973 4.7994 82.0254 3.07083 80.2976C1.34226 78.5698 0.369937 76.2272 0.367188 73.7838L0.367188 9.21623C0.369943 6.77278 1.34227 4.43019 3.07084 2.70241C4.79941 0.974632 7.14306 0.00275468 9.58763 0L51.5422 0C53.9867 0.00274847 56.3304 0.974624 58.059 2.70241C59.7876 4.43019 60.7599 6.77278 60.7626 9.21623V73.7838C60.7599 76.2272 59.7876 78.5698 58.059 80.2976C56.3304 82.0254 53.9867 82.9973 51.5422 83V83ZM9.58763 1.76203C7.61038 1.76407 5.7147 2.55008 4.31657 3.94757C2.91844 5.34506 2.13207 7.23988 2.13002 9.21623V73.7838C2.13207 75.7601 2.91844 77.6549 4.31657 79.0524C5.7147 80.4499 7.61038 81.2359 9.58763 81.238H51.5422C53.5194 81.2359 55.4151 80.4499 56.8132 79.0524C58.2114 77.6549 58.9977 75.7601 58.9998 73.7838V9.21623C58.9977 7.23988 58.2114 5.34506 56.8132 3.94757C55.4151 2.55008 53.5194 1.76407 51.5422 1.76203H9.58763Z"
                                                                fill="#727372" />
                                                            <path
                                                                d="M25.8116 72.3491C25.6665 72.3497 25.5237 72.3138 25.3961 72.2447C25.2139 72.1475 25.0718 71.9892 24.9946 71.7978C24.9174 71.6063 24.91 71.3938 24.9738 71.1974L28.5086 60.2294L22.2561 58.1462C22.1215 58.1014 21.9997 58.0249 21.9011 57.9231C21.8024 57.8213 21.7297 57.6972 21.6892 57.5613C21.6486 57.4255 21.6414 57.2819 21.6682 57.1427C21.695 57.0035 21.7549 56.8728 21.8429 56.7616L34.5638 40.7691C34.6888 40.6117 34.8639 40.5018 35.06 40.4575C35.2561 40.4132 35.4614 40.4372 35.642 40.5256C35.8226 40.6139 35.9675 40.7613 36.0528 40.9433C36.138 41.1253 36.1585 41.331 36.1108 41.5262L33.3472 52.8543L38.8492 54.4994C38.987 54.5407 39.1127 54.6152 39.2151 54.7163C39.3176 54.8173 39.3937 54.9419 39.4369 55.0791C39.4802 55.2163 39.4892 55.362 39.4631 55.5035C39.4371 55.645 39.3768 55.778 39.2876 55.8908L26.5025 72.0152C26.4199 72.1193 26.3149 72.2034 26.1953 72.2612C26.0756 72.3191 25.9445 72.3491 25.8116 72.3491V72.3491ZM24.0074 56.8729L29.8927 58.8334C30.1132 58.9068 30.2958 59.0643 30.4007 59.2716C30.5056 59.479 30.5243 59.7193 30.4528 59.9404L28.1437 67.1101L37.098 55.8152L32.0413 54.3033C31.8249 54.2384 31.6417 54.093 31.5294 53.897C31.417 53.7011 31.3842 53.4696 31.4376 53.2502L33.4483 45.0044L24.0074 56.8729ZM84.3478 23.5836H77.7578C76.887 23.5826 76.0521 23.2364 75.4363 22.6209C74.8206 22.0054 74.4742 21.1709 74.4731 20.3005V10.1642C74.4732 9.93058 74.5661 9.70652 74.7314 9.54131C74.8966 9.37611 75.1208 9.28327 75.3546 9.2832H86.7511C86.9849 9.28327 87.209 9.37611 87.3743 9.54131C87.5396 9.70652 87.6325 9.93058 87.6325 10.1642V20.3005C87.6315 21.1709 87.2851 22.0054 86.6693 22.6209C86.0535 23.2364 85.2186 23.5826 84.3478 23.5836V23.5836ZM76.236 11.0452V20.3005C76.2363 20.7038 76.3967 21.0905 76.6821 21.3757C76.9674 21.6609 77.3543 21.8213 77.7578 21.8216H84.3478C84.7513 21.8213 85.1382 21.6609 85.4235 21.3757C85.7088 21.0905 85.8692 20.7038 85.8696 20.3005V11.0452H76.236Z"
                                                                fill="#727372" />
                                                            <path
                                                                d="M78.1568 11.0451C77.9231 11.0451 77.6989 10.9522 77.5336 10.787C77.3683 10.6218 77.2755 10.3977 77.2754 10.1641V5.14762C77.2754 4.91396 77.3683 4.68987 77.5336 4.52464C77.6989 4.35942 77.923 4.2666 78.1568 4.2666C78.3906 4.2666 78.6148 4.35942 78.7801 4.52464C78.9454 4.68987 79.0382 4.91396 79.0382 5.14762V10.1641C79.0382 10.3977 78.9453 10.6218 78.78 10.787C78.6147 10.9522 78.3906 11.0451 78.1568 11.0451V11.0451ZM83.7621 11.0451C83.5283 11.0451 83.3042 10.9522 83.1389 10.787C82.9736 10.6218 82.8807 10.3977 82.8807 10.1641V5.14762C82.8807 4.91396 82.9735 4.68987 83.1388 4.52464C83.3041 4.35942 83.5283 4.2666 83.7621 4.2666C83.9958 4.2666 84.22 4.35942 84.3853 4.52464C84.5506 4.68987 84.6435 4.91396 84.6435 5.14762V10.1641C84.6434 10.3977 84.5506 10.6218 84.3853 10.787C84.22 10.9522 83.9958 11.0451 83.7621 11.0451V11.0451Z"
                                                                fill="#727372" />
                                                        </svg>