           <svg width="112" height="64" viewBox="0 0 122 64" fill="none"
                                                            xmlns="http://www.w3.org/2000/svg">
                                                            <path d="M58.7344 8.56934H60.5832V26.9071H58.7344V8.56934Z"
                                                                fill="#727372" />
                                                            <path
                                                                d="M91.0957 27.3785L83.1041 13.7438C82.3928 12.4229 81.3386 11.3197 80.0532 10.5509C78.7678 9.78216 77.2991 9.37649 75.8025 9.37688H43.4165C41.8836 9.37866 40.3814 9.80773 39.0775 10.6162C37.7736 11.4247 36.7193 12.5808 36.0323 13.9555L28.2216 27.3787L26.6273 26.4446L34.4112 13.0696C35.2534 11.4 36.5409 9.99772 38.1304 9.01872C39.7199 8.03972 41.5491 7.52243 43.4143 7.52445H75.7713C77.5164 7.52003 79.2332 7.96671 80.7561 8.82143C82.2791 9.67615 83.5569 10.9101 84.4662 12.4042L84.7677 12.8354L92.69 26.4445L91.0957 27.3785ZM51.1155 31.2247H55.9721V33.0771H51.1155V31.2247ZM83.3163 31.2247H88.1728V33.0771H83.3163V31.2247ZM27.4022 64.0003C24.7818 64 22.2204 63.2204 20.0417 61.7598C17.8631 60.2992 16.1651 58.2234 15.1625 55.7947C14.1599 53.3661 13.8977 50.6938 14.409 48.1156C14.9203 45.5375 16.1823 43.1694 18.0352 41.3107C19.8882 39.452 22.2489 38.1863 24.8189 37.6735C27.3889 37.1608 30.0528 37.4241 32.4737 38.4301C34.8945 39.4361 36.9637 41.1396 38.4194 43.3253C39.8752 45.5109 40.6522 48.0806 40.6522 50.7093C40.6482 54.2332 39.2509 57.6116 36.7669 60.1033C34.2828 62.595 30.915 63.9965 27.4022 64.0003ZM27.4022 39.2707C25.1469 39.2705 22.9423 39.9412 21.0671 41.1979C19.1918 42.4547 17.7302 44.2411 16.867 46.3312C16.0038 48.4213 15.7778 50.7212 16.2177 52.9401C16.6575 55.1591 17.7434 57.1973 19.338 58.7971C20.9326 60.397 22.9643 61.4865 25.1762 61.9279C27.388 62.3694 29.6807 62.1429 31.7643 61.2772C33.8479 60.4115 35.6287 58.9454 36.8817 57.0643C38.1346 55.1832 38.8034 52.9716 38.8034 50.7093C38.8002 47.6767 37.5981 44.7693 35.4606 42.6249C33.3232 40.4804 30.4251 39.2742 27.4022 39.2707Z"
                                                                fill="#727372" />
                                                            <path
                                                                d="M27.4025 57.7627C26.0118 57.7627 24.6524 57.3491 23.4961 56.574C22.3398 55.7989 21.4385 54.6973 20.9063 53.4084C20.3741 52.1194 20.2349 50.7012 20.5062 49.3329C20.7775 47.9646 21.4472 46.7077 22.4306 45.7212C23.4139 44.7348 24.6668 44.0629 26.0308 43.7908C27.3947 43.5186 28.8085 43.6583 30.0933 44.1922C31.3782 44.7261 32.4763 45.6302 33.2489 46.7901C34.0216 47.9501 34.434 49.3139 34.434 50.709C34.4317 52.5791 33.6901 54.3719 32.372 55.6942C31.0538 57.0165 29.2667 57.7604 27.4025 57.7627ZM27.4025 45.5077C26.377 45.5073 25.3743 45.812 24.5214 46.3832C23.6685 46.9545 23.0036 47.7666 22.6108 48.717C22.218 49.6674 22.115 50.7132 22.3148 51.7223C22.5146 52.7314 23.0083 53.6584 23.7333 54.3861C24.4583 55.1137 25.3821 55.6093 26.388 55.8102C27.3938 56.011 28.4364 55.9082 29.3839 55.5146C30.3314 55.121 31.1413 54.4543 31.7111 53.5989C32.281 52.7435 32.5851 51.7378 32.5851 50.709C32.5836 49.3304 32.0372 48.0086 31.0657 47.0336C30.0941 46.0585 28.7768 45.5098 27.4025 45.5077ZM91.9155 64C89.2952 63.9998 86.7337 63.2201 84.5551 61.7595C82.3765 60.299 80.6785 58.2231 79.6759 55.7945C78.6733 53.3658 78.4111 50.6935 78.9224 48.1154C79.4337 45.5372 80.6957 43.1691 82.5486 41.3104C84.4016 39.4518 86.7623 38.186 89.3323 37.6733C91.9023 37.1605 94.5662 37.4238 96.9871 38.4298C99.4079 39.4358 101.477 41.1393 102.933 43.325C104.389 45.5107 105.166 48.0803 105.166 50.709C105.162 54.2329 103.764 57.6114 101.28 60.1031C98.7962 62.5948 95.4283 63.9963 91.9155 64ZM91.9155 39.2705C89.6603 39.2703 87.4557 39.9409 85.5804 41.1977C83.7052 42.4544 82.2435 44.2408 81.3803 46.3309C80.5172 48.421 80.2912 50.721 80.731 52.9399C81.1709 55.1588 82.2567 57.1971 83.8513 58.7969C85.446 60.3967 87.4777 61.4862 89.6895 61.9277C91.9014 62.3691 94.1941 62.1427 96.2776 61.277C98.3612 60.4112 100.142 58.9451 101.395 57.064C102.648 55.1829 103.317 52.9714 103.317 50.709C103.314 47.6765 102.111 44.769 99.974 42.6246C97.8366 40.4802 94.9385 39.2739 91.9155 39.2705Z"
                                                                fill="#727372" />
                                                            <path
                                                                d="M91.9153 57.7627C90.5246 57.7627 89.1651 57.349 88.0088 56.5739C86.8525 55.7989 85.9513 54.6972 85.4191 53.4083C84.8869 52.1194 84.7476 50.7011 85.0189 49.3328C85.2903 47.9645 85.9599 46.7077 86.9433 45.7212C87.9267 44.7347 89.1795 44.0629 90.5435 43.7907C91.9075 43.5186 93.3213 43.6582 94.6061 44.1921C95.8909 44.726 96.9891 45.6301 97.7617 46.7901C98.5343 47.9501 98.9467 49.3138 98.9467 50.7089C98.9444 52.579 98.2029 54.3718 96.8847 55.6942C95.5665 57.0165 93.7794 57.7604 91.9153 57.7627ZM91.9153 45.5077C90.8897 45.5072 89.8871 45.8119 89.0341 46.3832C88.1812 46.9544 87.5163 47.7666 87.1235 48.717C86.7308 49.6673 86.6278 50.7132 86.8276 51.7223C87.0274 52.7314 87.521 53.6584 88.246 54.386C88.9711 55.1136 89.8949 55.6092 90.9007 55.8101C91.9065 56.011 92.9492 55.9081 93.8967 55.5145C94.8442 55.1209 95.6541 54.4542 96.2239 53.5988C96.7937 52.7435 97.0979 51.7378 97.0979 50.7089C97.0964 49.3303 96.55 48.0085 95.5784 47.0335C94.6069 46.0585 93.2895 45.5097 91.9153 45.5077ZM3.38281 39.2144C2.6841 39.216 1.99226 39.0762 1.34863 38.8034L2.06762 37.0965C2.4838 37.2727 2.93109 37.363 3.38281 37.3619C4.08197 37.3615 4.76397 37.1447 5.33569 36.7409C5.9074 36.3372 6.34096 35.7663 6.57717 35.1061C6.81337 34.446 6.8407 33.7288 6.65544 33.0525C6.47017 32.3762 6.08133 31.7737 5.54202 31.3274L6.72091 29.8994C7.55328 30.5889 8.15321 31.5193 8.43876 32.5637C8.72431 33.608 8.68156 34.7153 8.31636 35.7343C7.95116 36.7533 7.28131 37.6344 6.39828 38.2573C5.51525 38.8801 4.46209 39.2144 3.38263 39.2144L3.38281 39.2144ZM40.0047 49.7592H79.5427V51.6117H40.0047V49.7592Z"
                                                                fill="#727372" />
                                                            <path
                                                                d="M118.967 51.6118H104.565V49.7593H117.118V40.9729C116.983 37.4449 115.493 34.1061 112.959 31.6553C110.426 29.2045 107.046 27.8316 103.527 27.8241H15.8024C12.1958 27.8284 8.7382 29.2676 6.18806 31.8261C3.63791 34.3845 2.20353 37.8532 2.19957 41.4713L2.19063 49.7593H15.0299V51.6118H0.341797L0.350737 41.4713C0.355379 37.3618 1.98485 33.4219 4.88163 30.5162C7.77841 27.6104 11.7059 25.976 15.8024 25.9717H103.527C107.611 25.9804 111.526 27.6076 114.42 30.499C117.313 33.3903 118.951 37.3116 118.976 41.4086L118.978 42.3383H118.967L118.967 51.6118Z"
                                                                fill="#727372" />
                                                            <path
                                                                d="M93.0826 1.29492L120.367 21.1966L106.793 39.9239L79.5088 20.0222L93.0826 1.29492Z"
                                                                fill="white" />
                                                            <path
                                                                d="M106.996 41.2181L78.2188 20.2271L92.88 0L121.658 20.991L106.996 41.2181ZM80.8001 19.8172L106.59 38.6287L119.077 21.4009L93.2864 2.58944L80.8001 19.8172Z"
                                                                fill="#727372" />
                                                            <path
                                                                d="M99.9272 28.3818C98.1873 28.3782 96.4993 27.7873 95.135 26.7041C93.7707 25.621 92.8096 24.1087 92.4063 22.4109C92.003 20.713 92.1812 18.9284 92.912 17.3445C93.6428 15.7606 94.8838 14.4695 96.4351 13.6793C97.9864 12.889 99.7577 12.6455 101.464 12.9881C103.17 13.3306 104.711 14.2392 105.84 15.5675C106.968 16.8959 107.618 18.5666 107.685 20.3107C107.752 22.0548 107.232 23.7707 106.208 25.182C105.488 26.1752 104.543 26.9829 103.451 27.5391C102.359 28.0953 101.152 28.3841 99.9272 28.3818ZM99.9495 14.6854C99.637 14.6856 99.3249 14.7104 99.0161 14.7593C98.0572 14.9112 97.1504 15.2981 96.376 15.8856C95.6017 16.4732 94.9838 17.2432 94.577 18.1275C94.1702 19.0118 93.9871 19.9832 94.0439 20.9554C94.1007 21.9277 94.3957 22.8709 94.9027 23.7015C95.4097 24.5321 96.1131 25.2244 96.9505 25.7172C97.7879 26.2099 98.7336 26.4879 99.7037 26.5264C100.674 26.5649 101.638 26.3629 102.512 25.9381C103.386 25.5133 104.141 24.8789 104.712 24.0911C105.352 23.2084 105.736 22.1654 105.823 21.0775C105.909 19.9895 105.694 18.8988 105.201 17.9257C104.708 16.9527 103.957 16.1351 103.03 15.5633C102.104 14.9915 101.037 14.6877 99.9495 14.6854Z"
                                                                fill="#727372" />
                                                        </svg>