      <svg width="70" height="55" viewBox="0 0 124 55" fill="none"
                                                            xmlns="http://www.w3.org/2000/svg">
                                                            <path
                                                                d="M123.613 32.1632C123.609 27.768 121.839 23.554 118.692 20.4462C115.544 17.3383 111.277 15.5906 106.826 15.5865H105.106L72.1837 2.0405C67.9682 0.290206 63.3198 -0.178663 58.833 0.693846C54.3462 1.56636 50.2249 3.74059 46.9962 6.9385L38.1767 15.6478H17.1742C12.7341 15.6517 8.47613 17.3911 5.33071 20.4857C2.18529 23.5804 0.408174 27.7787 0.387695 32.1632V42.051H14.3377C14.6235 45.4985 16.2121 48.7136 18.788 51.0576C21.3639 53.4016 24.7384 54.7028 28.2412 54.7028C31.744 54.7028 35.1185 53.4016 37.6944 51.0576C40.2703 48.7136 41.8589 45.4985 42.1447 42.051H81.3132C81.599 45.4985 83.1876 48.7136 85.7635 51.0576C88.3394 53.4016 91.7139 54.7028 95.2167 54.7028C98.7195 54.7028 102.094 53.4016 104.67 51.0576C107.246 48.7136 108.834 45.4985 109.12 42.051H123.613V32.1632ZM99.0762 15.5865H82.0262V8.53034L99.0762 15.5865ZM48.6392 8.49973C51.5408 5.61734 55.2497 3.6586 59.2883 2.8757C63.327 2.0928 67.5105 2.52158 71.3002 4.10684L79.6702 7.56605V15.5865H41.4627L48.6392 8.49973ZM6.4017 22.6733C6.65603 23.1083 6.78932 23.6019 6.78802 24.1042C6.78673 24.6064 6.65091 25.0994 6.39434 25.5331C6.13776 25.9668 5.76958 26.3257 5.32715 26.5735C4.88472 26.8212 4.38379 26.949 3.8752 26.9438H3.7357C4.36015 25.3751 5.26296 23.9289 6.4017 22.6733ZM28.2722 52.3981C25.9699 52.3981 23.7194 51.7239 21.8051 50.4608C19.8908 49.1977 18.3988 47.4024 17.5178 45.302C16.6367 43.2016 16.4062 40.8903 16.8554 38.6605C17.3045 36.4307 18.4132 34.3825 20.0411 32.7749C21.6691 31.1673 23.7432 30.0725 26.0012 29.6289C28.2593 29.1854 30.5998 29.413 32.7268 30.2831C34.8538 31.1531 36.6718 32.6264 37.9509 34.5168C39.23 36.4071 39.9127 38.6296 39.9127 40.9031C39.9086 43.9505 38.6809 46.8719 36.4987 49.0268C34.3166 51.1816 31.3582 52.394 28.2722 52.3981ZM95.2167 52.3981C92.9144 52.3981 90.6638 51.7239 88.7496 50.4608C86.8353 49.1977 85.3433 47.4024 84.4623 45.302C83.5812 43.2016 83.3507 40.8903 83.7999 38.6605C84.249 36.4307 85.3577 34.3825 86.9856 32.7749C88.6136 31.1673 90.6877 30.0725 92.9457 29.6289C95.2038 29.1854 97.5443 29.413 99.6713 30.2831C101.798 31.1531 103.616 32.6264 104.895 34.5168C106.174 36.4071 106.857 38.6296 106.857 40.9031C106.853 43.9505 105.625 46.8719 103.443 49.0268C101.261 51.1816 98.3027 52.394 95.2167 52.3981ZM121.288 39.7551H109.12C108.834 36.3076 107.246 33.0925 104.67 30.7485C102.094 28.4046 98.7195 27.1033 95.2167 27.1033C91.7139 27.1033 88.3394 28.4046 85.7635 30.7485C83.1876 33.0925 81.599 36.3076 81.3132 39.7551H42.1757C41.8899 36.3076 40.3013 33.0925 37.7254 30.7485C35.1495 28.4046 31.775 27.1033 28.2722 27.1033C24.7694 27.1033 21.3949 28.4046 18.819 30.7485C16.2431 33.0925 14.6545 36.3076 14.3687 39.7551H2.7127V32.102C2.71482 31.0732 2.8239 30.0474 3.0382 29.0407C3.31418 29.0939 3.59412 29.1246 3.8752 29.1326C4.8411 29.139 5.7898 28.8801 6.61525 28.3847C7.4407 27.8893 8.11037 27.177 8.54941 26.3274C8.98844 25.4777 9.17955 24.5242 9.10137 23.5735C9.02319 22.6228 8.6788 21.7123 8.1067 20.9437C10.6733 18.8947 13.8737 17.7764 17.1742 17.7753H106.826C110.659 17.7834 114.333 19.2906 117.043 21.967C119.753 24.6434 121.28 28.2711 121.288 32.0561V39.7551Z"
                                                                fill="#727372" />
                                                        </svg>