   <svg width="104" height="60" viewBox="0 0 114 60" fill="none"
                                                            xmlns="http://www.w3.org/2000/svg">
                                                            <path d="M54.8779 8.03418H56.6102V25.2243H54.8779V8.03418Z"
                                                                fill="#727372" />
                                                            <path
                                                                d="M26.3024 25.6673L24.8099 24.7921L32.1011 12.2553C32.8889 10.6895 34.0942 9.37427 35.5828 8.45617C37.0713 7.53807 38.7846 7.05322 40.5314 7.0557H70.8331C72.4675 7.05111 74.0755 7.46934 75.5022 8.27007C76.9289 9.07081 78.1262 10.2271 78.9787 11.6274L79.2613 12.0338L86.6788 24.7921L85.1842 25.6673L77.7024 12.8854C77.036 11.6471 76.0485 10.6128 74.8445 9.892C73.6405 9.17123 72.2648 8.79083 70.8631 8.79106H40.5336C39.0982 8.79258 37.6914 9.19476 36.4705 9.9527C35.2495 10.7106 34.2624 11.7945 33.6193 13.0832L26.3024 25.6673ZM47.7455 29.2735H52.2915V31.0088H47.7455V29.2735ZM77.9016 29.2735H82.4497V31.0088H77.9016V29.2735ZM25.5358 60.0024C23.0817 60.0024 20.6826 59.2716 18.6421 57.9025C16.6015 56.5333 15.011 54.5872 14.0717 52.3103C13.1325 50.0334 12.8866 47.5279 13.3652 45.1106C13.8439 42.6934 15.0255 40.473 16.7607 38.7301C18.4959 36.9873 20.7067 35.8003 23.1137 35.3192C25.5206 34.8381 28.0156 35.0846 30.283 36.0275C32.5505 36.9703 34.4887 38.5672 35.8524 40.6162C37.2162 42.6652 37.9443 45.0743 37.9447 47.5388C37.9408 50.8426 36.6321 54.0099 34.3059 56.346C31.9796 58.6821 28.8257 59.9963 25.5358 60.0003V60.0024ZM25.5358 36.817C23.4236 36.8166 21.3587 37.4452 19.6023 38.6234C17.8458 39.8016 16.4768 41.4765 15.6683 43.4361C14.8598 45.3957 14.6481 47.5521 15.0601 49.6326C15.4721 51.713 16.4891 53.6241 17.9827 55.124C19.4763 56.6239 21.3793 57.6453 23.4509 58.059C25.5226 58.4727 27.6699 58.2601 29.6213 57.4482C31.5726 56.6363 33.2404 55.2614 34.4136 53.4975C35.5869 51.7337 36.2128 49.66 36.2124 47.5388C36.209 44.6963 35.0831 41.9711 33.0816 39.9611C31.0801 37.9511 28.3664 36.8204 25.5358 36.817Z"
                                                                fill="#727372" />
                                                            <path
                                                                d="M25.5355 54.1532C24.2334 54.1528 22.9606 53.7647 21.8782 53.0379C20.7957 52.3112 19.952 51.2784 19.4539 50.0703C18.9558 48.8621 18.8256 47.5327 19.0798 46.2502C19.3339 44.9677 19.961 43.7897 20.8817 42.8651C21.8024 41.9404 22.9755 41.3107 24.2526 41.0555C25.5296 40.8003 26.8534 40.9311 28.0565 41.4313C29.2595 41.9315 30.2879 42.7787 31.0116 43.8658C31.7353 44.9528 32.1218 46.231 32.1222 47.5386C32.1205 49.2924 31.426 50.9739 30.1911 52.214C28.9562 53.4541 27.2819 54.1515 25.5355 54.1532ZM25.5355 42.6637C24.5749 42.6637 23.6359 42.9498 22.8372 43.4858C22.0385 44.0218 21.416 44.7836 21.0485 45.6749C20.681 46.5662 20.5849 47.5469 20.7725 48.493C20.9601 49.4392 21.4228 50.3082 22.1022 50.9901C22.7816 51.6721 23.6472 52.1365 24.5894 52.3244C25.5316 52.5123 26.5081 52.4154 27.3955 52.046C28.2829 51.6765 29.0412 51.0511 29.5746 50.2488C30.108 49.4465 30.3924 48.5033 30.392 47.5386C30.3903 46.2459 29.878 45.0066 28.9676 44.0927C28.0571 43.1787 26.8228 42.6648 25.5355 42.6637ZM85.9526 60.0001C83.4983 60.0001 81.0992 59.2693 79.0586 57.9C77.0179 56.5307 75.4275 54.5845 74.4883 52.3074C73.5491 50.0304 73.3033 47.5248 73.7821 45.1075C74.2609 42.6902 75.4427 40.4698 77.1782 38.727C78.9136 36.9843 81.1246 35.7974 83.5317 35.3166C85.9388 34.8358 88.4338 35.0825 90.7013 36.0257C92.9687 36.9689 94.9067 38.5661 96.2702 40.6154C97.6337 42.6647 98.3615 45.074 98.3615 47.5386C98.3575 50.8424 97.0489 54.0097 94.7226 56.3458C92.3963 58.6819 89.2424 59.9961 85.9526 60.0001ZM85.9526 36.8168C83.8403 36.8164 81.7754 37.445 80.019 38.6232C78.2626 39.8014 76.8935 41.4763 76.085 43.4359C75.2765 45.3955 75.0648 47.5519 75.4768 49.6324C75.8888 51.7128 76.9059 53.6239 78.3994 55.1238C79.893 56.6237 81.796 57.6451 83.8676 58.0588C85.9393 58.4725 88.0866 58.26 90.038 57.448C91.9894 56.6361 93.6571 55.2612 94.8304 53.4974C96.0036 51.7335 96.6296 49.6598 96.6292 47.5386C96.6257 44.6961 95.4998 41.9709 93.4983 39.9609C91.4968 37.9509 88.7831 36.8202 85.9526 36.8168Z"
                                                                fill="#727372" />
                                                            <path
                                                                d="M85.953 54.1531C84.6509 54.1527 83.3782 53.7646 82.2957 53.0378C81.2132 52.3111 80.3696 51.2784 79.8715 50.0702C79.3734 48.862 79.2431 47.5326 79.4973 46.2502C79.7514 44.9677 80.3785 43.7896 81.2992 42.865C82.2199 41.9404 83.393 41.3106 84.6701 41.0554C85.9471 40.8002 87.2709 40.931 88.474 41.4312C89.6771 41.9314 90.7054 42.7786 91.4291 43.8657C92.1528 44.9528 92.5393 46.2309 92.5397 47.5386C92.538 49.2923 91.8435 50.9738 90.6086 52.2139C89.3738 53.454 87.6994 54.1514 85.953 54.1531ZM85.953 42.6636C84.9923 42.6632 84.0531 42.9489 83.2541 43.4847C82.4551 44.0204 81.8323 44.7821 81.4645 45.6733C81.0966 46.5646 81.0003 47.5454 81.1876 48.4916C81.3749 49.4379 81.8375 50.3071 82.5168 50.9893C83.1962 51.6715 84.0617 52.1361 85.004 52.3242C85.9462 52.5123 86.9229 52.4155 87.8104 52.0461C88.6979 51.6767 89.4563 51.0513 89.9898 50.2489C90.5233 49.4466 90.8078 48.5033 90.8074 47.5386C90.8057 46.2462 90.2937 45.0072 89.3837 44.0934C88.4737 43.1795 87.24 42.6653 85.953 42.6636ZM3.04151 36.763C2.38697 36.7644 1.73885 36.6335 1.13574 36.3781L1.81025 34.7782C2.51402 35.0755 3.30081 35.1086 4.02686 34.8714C4.75291 34.6342 5.36975 34.1426 5.76467 33.4864C6.15958 32.8302 6.30621 32.0532 6.17776 31.2974C6.0493 30.5416 5.65434 29.8575 5.06505 29.37L6.16354 28.0303C6.94391 28.6759 7.50668 29.5478 7.77491 30.5268C8.04314 31.5058 8.00373 32.5441 7.66207 33.4997C7.32042 34.4554 6.69319 35.2817 5.86615 35.8658C5.0391 36.4499 4.0526 36.7633 3.04151 36.763ZM37.3367 46.6483H74.3685V48.3858H37.3389L37.3367 46.6483Z"
                                                                fill="#727372" />
                                                            <path
                                                                d="M111.289 48.3856H97.8007V46.6481H109.556V38.4702C109.446 35.1521 108.057 32.0068 105.683 29.6964C103.309 27.3861 100.134 26.091 96.8285 26.084H14.6729C11.2949 26.0874 8.05618 27.4365 5.66755 29.8353C3.27893 32.234 1.9355 35.4864 1.9321 38.8788L1.92782 46.6481H13.9534V48.3856H0.193359L0.201925 38.8809C0.205893 35.0279 1.73178 31.3339 4.44476 28.6094C7.15773 25.885 10.8362 24.3526 14.6729 24.3486H96.8285C100.653 24.3565 104.32 25.882 107.03 28.5927C109.739 31.3035 111.273 34.9798 111.295 38.8207V39.6916H111.289V48.3856Z"
                                                                fill="#727372" />
                                                            <path
                                                                d="M87.0448 1.21289L112.597 19.8718L99.8862 37.4275L74.334 18.7729L87.0448 1.21289Z"
                                                                fill="white" />
                                                            <path
                                                                d="M100.076 38.6424L73.126 18.9621L86.8561 0L113.807 19.6803L100.076 38.6424ZM75.5435 18.5793L99.6953 36.2125L111.387 20.0631L87.2372 2.42993L75.5435 18.5793Z"
                                                                fill="#727372" />
                                                            <path
                                                                d="M93.1904 25.5527C96.633 25.5527 99.4237 22.7501 99.4237 19.293C99.4237 15.8358 96.633 13.0332 93.1904 13.0332C89.7478 13.0332 86.957 15.8358 86.957 19.293C86.957 22.7501 89.7478 25.5527 93.1904 25.5527Z"
                                                                fill="white" />
                                                            <path
                                                                d="M93.1778 26.3612C91.6126 26.359 90.0928 25.8329 88.8587 24.8661C87.6246 23.8993 86.7466 22.5471 86.3635 21.0231C85.9804 19.4991 86.1141 17.8903 86.7433 16.4512C87.3726 15.012 88.4616 13.8245 89.8381 13.0764C91.2147 12.3284 92.8002 12.0624 94.3441 12.3206C95.888 12.5788 97.3022 13.3465 98.363 14.5022C99.4239 15.6578 100.071 17.1357 100.202 18.7019C100.333 20.2682 99.9399 21.8337 99.0856 23.1507C98.5825 23.9298 97.9306 24.601 97.1676 25.1255C96.4046 25.65 95.5456 26.0174 94.6403 26.2064C94.1594 26.3087 93.6693 26.3606 93.1778 26.3612ZM93.1992 13.8417C92.2585 13.8405 91.3338 14.0848 90.5155 14.5506C89.6972 15.0164 89.0134 15.6878 88.5313 16.4989C88.0492 17.31 87.7852 18.233 87.7653 19.1774C87.7454 20.1218 87.9702 21.0552 88.4176 21.8861C88.8651 22.717 89.5199 23.4168 90.3178 23.9171C91.1157 24.4173 92.0293 24.7007 92.9692 24.7395C93.909 24.7784 94.8428 24.5713 95.6789 24.1386C96.515 23.7058 97.2248 23.0624 97.7387 22.2712C98.2735 21.4493 98.5771 20.4976 98.6177 19.5167C98.6582 18.5358 98.4341 17.5622 97.9691 16.6986C97.504 15.8351 96.8153 15.1137 95.9757 14.6109C95.1361 14.108 94.1768 13.8422 93.1992 13.8417Z"
                                                                fill="#727372" />
                                                            <path
                                                                d="M90.1177 13.8574C89.4702 14.3116 89.0194 14.9964 88.8567 15.7725C88.694 16.5486 88.8317 17.3578 89.2419 18.0356C89.5347 18.6016 90.0085 19.0523 90.5872 19.3152C91.1659 19.578 91.8158 19.6379 92.4324 19.485C93.0539 19.2704 93.6987 19.1318 94.3532 19.0721C95.033 19.0304 95.7066 19.2232 96.2624 19.6186C96.8181 20.014 97.2226 20.5882 97.4088 21.2461C97.642 21.8602 97.6625 22.5353 97.4671 23.1625C97.2718 23.7898 96.8718 24.3327 96.3318 24.704"
                                                                fill="white" />
                                                            <path
                                                                d="M96.7341 25.3977L95.9269 24.0043C96.3125 23.7224 96.5922 23.3182 96.7209 22.857C96.8495 22.3958 96.8194 21.9045 96.6356 21.4625C96.5027 20.9808 96.2084 20.5598 95.8023 20.2707C95.3962 19.9816 94.9032 19.842 94.4065 19.8755C93.8194 19.9322 93.2408 20.0578 92.6828 20.2497C91.8993 20.4742 91.0628 20.4208 90.314 20.0985C89.5651 19.7762 88.9498 19.2046 88.5715 18.4799C88.0565 17.6415 87.8741 16.6393 88.0605 15.6722C88.247 14.7051 88.7885 13.8436 89.5779 13.2588L90.6571 14.4544C89.0297 15.9339 89.6764 17.2284 89.9119 17.594C90.1111 18.0088 90.4427 18.3449 90.854 18.5487C91.2653 18.7525 91.7327 18.8123 92.1817 18.7186C92.8698 18.4826 93.5837 18.331 94.308 18.267C95.171 18.204 96.029 18.4441 96.7352 18.9462C97.4414 19.4483 97.9519 20.1812 98.1795 21.0195C98.458 21.8068 98.467 22.6648 98.2052 23.4578C97.9434 24.2508 97.4258 24.9334 96.7341 25.3977ZM102.899 16.9919L103.965 17.0865L103.441 23.0774L102.374 22.9828L102.899 16.9919Z"
                                                                fill="#727372" />
                                                            <path
                                                                d="M103.73 23.4221L102.032 23.2716L102.61 16.6484L104.308 16.799L103.73 23.4221ZM102.717 22.6953L103.152 22.7319L103.623 17.3774L103.188 17.3366L102.717 22.6953ZM98.7983 27.3337L99.1174 28.3616L93.398 30.1421L93.0811 29.1142L98.7983 27.3337Z"
                                                                fill="#727372" />
                                                            <path
                                                                d="M93.1882 30.54L92.685 28.9036L99.0083 26.9338L99.5158 28.5703L93.1882 30.54ZM93.4751 29.3229L93.6058 29.7444L98.7214 28.1509L98.5929 27.7316L93.4751 29.3229ZM83.0705 15.2422L84.139 15.3368L83.6144 21.3256L82.5459 21.231L83.0705 15.2422Z"
                                                                fill="#727372" />
                                                            <path
                                                                d="M83.9033 21.6714L82.2031 21.5209L82.7813 14.8977L84.4793 15.0482L83.9033 21.6714ZM82.8883 20.9424L83.3252 20.9811L83.7941 15.6245L83.3594 15.5858L82.8883 20.9424ZM93.1131 8.17773L93.4322 9.20562L87.7127 10.9861L87.3937 9.95825L93.1131 8.17773Z"
                                                                fill="#727372" />
                                                            <path
                                                                d="M87.5011 11.3843L87 9.75002L93.3233 7.78027L93.8308 9.41456L87.5011 11.3843ZM87.7901 10.1693L87.9186 10.5887L93.0364 8.99739L92.9057 8.57592L87.7901 10.1693Z"
                                                                fill="#727372" />
                                                        </svg>