    <svg width="62" height="72" viewBox="0 0 72 72" fill="none"
                                                            xmlns="http://www.w3.org/2000/svg">
                                                            <path
                                                                d="M65.8907 32.9191H47.1387C45.5212 32.9166 43.9707 32.2721 42.827 31.1267C41.6832 29.9814 41.0396 28.4287 41.0371 26.8089V6.11254C41.039 4.49278 41.682 2.93982 42.8253 1.79403C43.9686 0.648246 45.5189 0.00310193 47.1364 0H65.8907C67.509 0.00186166 69.0605 0.646458 70.2048 1.79238C71.3491 2.9383 71.9928 4.49197 71.9947 6.11254V26.8089C71.9928 28.4299 71.3488 29.9839 70.204 31.1299C69.0592 32.2759 67.5071 32.9202 65.8884 32.9215L65.8907 32.9191ZM47.1387 2.05393C46.0642 2.05517 45.034 2.48317 44.2742 3.24404C43.5144 4.00491 43.087 5.03651 43.0858 6.11254V26.8089C43.0864 27.8853 43.5136 28.9176 44.2734 29.6789C45.0333 30.4403 46.0638 30.8686 47.1387 30.8699H65.8931C66.9682 30.8686 67.999 30.4404 68.7592 29.6791C69.5194 28.9178 69.9471 27.8856 69.9483 26.8089V6.11254C69.9471 5.03549 69.5191 4.00293 68.7584 3.24155C67.9976 2.48018 66.9663 2.0522 65.8907 2.05158L47.1387 2.05393Z"
                                                                fill="#727372" />
                                                            <path
                                                                d="M42.0595 24.6986H38.4678C37.6713 24.698 36.9076 24.3809 36.3444 23.8169C35.7812 23.2528 35.4645 22.4881 35.4639 21.6904V11.2309C35.4645 10.4332 35.7812 9.66844 36.3444 9.10443C36.9076 8.54041 37.6713 8.22328 38.4678 8.22266H41.9143V10.2742H38.4678C38.2147 10.2749 37.9721 10.3758 37.793 10.5551C37.614 10.7344 37.5132 10.9773 37.5126 11.2309V21.6928C37.5132 21.9463 37.614 22.1892 37.793 22.3685C37.9721 22.5478 38.2147 22.6488 38.4678 22.6494H42.0595V24.6986ZM60.7038 21.681C59.6726 21.6806 58.6647 21.3739 57.8076 20.7999C56.9504 20.2259 56.2825 19.4102 55.8882 18.4561C55.4939 17.5019 55.3909 16.4521 55.5924 15.4394C55.7939 14.4266 56.2907 13.4964 57.02 12.7664C57.7493 12.0364 58.6784 11.5393 59.6898 11.3381C60.7012 11.1368 61.7495 11.2403 62.7021 11.6356C63.6547 12.0309 64.4689 12.7001 65.0418 13.5588C65.6146 14.4174 65.9204 15.4268 65.9204 16.4595C65.9185 17.8441 65.3682 19.1715 64.3903 20.1504C63.4123 21.1293 62.0865 21.6798 60.7038 21.681ZM60.7038 13.2895C60.0778 13.2899 59.466 13.4763 58.9458 13.8249C58.4255 14.1735 58.0201 14.6687 57.7809 15.248C57.5417 15.8273 57.4793 16.4646 57.6017 17.0793C57.7241 17.6941 58.0258 18.2587 58.4686 18.7018C58.9114 19.1449 59.4755 19.4466 60.0895 19.5687C60.7034 19.6908 61.3398 19.6279 61.9181 19.3879C62.4964 19.1479 62.9906 18.7416 63.3384 18.2204C63.6861 17.6991 63.8717 17.0863 63.8717 16.4595C63.8711 15.6185 63.537 14.8122 62.943 14.2178C62.349 13.6234 61.5436 13.2895 60.7038 13.2895Z"
                                                                fill="#727372" />
                                                            <path
                                                                d="M18.8264 24.4034C18.7551 24.403 18.6839 24.3975 18.6134 24.387C18.3792 24.352 18.1553 24.2668 17.9569 24.1373C17.7585 24.0079 17.5903 23.8371 17.4637 23.6367C17.3045 23.4749 16.5904 22.6918 16.1104 22.2604C15.7374 22.6143 15.3698 22.9738 15.0076 23.3389C14.6543 23.7656 14.1505 24.0396 13.6008 24.1042C13.051 24.1688 12.4976 24.019 12.0552 23.6859L10.243 22.115C10.0759 21.9906 9.89126 21.8918 9.69508 21.8219C8.82914 21.7735 7.96097 21.7822 7.09616 21.8477C6.57546 21.943 6.04009 21.9204 5.52923 21.7817C5.01838 21.6429 4.54498 21.3915 4.14369 21.0458C4.12028 21.0341 1.5518 19.0318 0.694857 18.2276C0.474183 18.0386 0.297865 17.8032 0.178475 17.5381C0.0590842 17.2731 -0.000437761 16.9849 0.00415298 16.6942C0.0218684 16.4112 0.0967892 16.1348 0.224372 15.8817C0.351956 15.6285 0.529543 15.404 0.746367 15.2217C0.75105 15.217 2.88638 13.4679 4.19754 12.3495C4.62636 11.9453 5.13801 11.6397 5.69685 11.4538C6.25568 11.268 6.84827 11.2064 7.43332 11.2733H36.4897V13.3249L7.08679 13.2944C6.79771 13.2835 6.50951 13.3327 6.24033 13.4388C5.97115 13.5449 5.72683 13.7057 5.52276 13.911C4.20223 15.0412 2.04817 16.8067 2.04817 16.8067C2.88638 17.4726 5.46188 19.4796 5.4853 19.5007C5.67297 19.647 5.89009 19.7509 6.12169 19.8051C6.3533 19.8594 6.59389 19.8627 6.8269 19.8149C7.86287 19.7315 8.90334 19.7197 9.94092 19.7797L10.1914 19.8243C10.7 19.9817 11.1742 20.2339 11.5892 20.5675L13.357 22.1009C13.3336 22.0611 13.4179 22.0259 13.5583 21.8852C14.4644 20.9779 14.921 20.5722 14.921 20.5722C15.2496 20.2651 15.684 20.097 16.1334 20.1031C16.5828 20.1092 17.0125 20.2891 17.3326 20.6051C17.8792 21.0997 18.3982 21.6242 18.8873 22.176C19.6084 21.5265 20.4935 20.7598 20.4935 20.7598C21.1374 20.2176 21.9448 19.9079 22.7857 19.8806C23.3125 19.9157 31.0647 19.9228 36.1479 19.9157V21.9673C34.8414 21.9673 23.3406 21.979 22.6382 21.9298C22.3268 21.995 22.0369 22.1377 21.7953 22.3448C21.7953 22.3448 20.7627 23.2405 20.1001 23.8501C19.7628 24.1923 19.3064 24.3906 18.8264 24.4034ZM19.0629 22.3729L19.1027 22.4198C19.0938 22.4009 19.0801 22.3847 19.0629 22.3729ZM16.361 22.0283L16.2977 22.0845C16.3204 22.0677 16.3416 22.0489 16.361 22.0283ZM24.8601 72.0001H6.10576C4.48746 71.9977 2.93623 71.3525 1.79236 70.2061C0.648486 69.0597 0.00539116 67.5058 0.00415298 65.8852V45.1889C0.00601203 43.5683 0.649702 42.0146 1.79401 40.8687C2.93832 39.7228 4.4898 39.0782 6.1081 39.0763H24.8601C26.478 39.0788 28.0289 39.7237 29.1727 40.8695C30.3165 42.0154 30.9599 43.5687 30.9617 45.1889V65.8852C30.9599 67.5054 30.3165 69.0587 29.1727 70.2046C28.0289 71.3504 26.478 71.9953 24.8601 71.9978V72.0001ZM6.10576 41.1303C5.03124 41.1321 4.00134 41.5607 3.24198 42.322C2.48261 43.0833 2.05581 44.1152 2.05519 45.1912V65.8852C2.05581 66.9613 2.48261 67.9931 3.24198 68.7544C4.00134 69.5157 5.03124 69.9443 6.10576 69.9462H24.8601C25.935 69.945 26.9656 69.5166 27.7254 68.7553C28.4853 67.9939 28.9124 66.9617 28.913 65.8852V45.1889C28.9124 44.1124 28.4853 43.0802 27.7254 42.3189C26.9656 41.5575 25.935 41.1292 24.8601 41.1279L6.10576 41.1303Z"
                                                                fill="#727372" />
                                                            <path
                                                                d="M33.533 63.7771H30.0842V61.7256H33.533C33.786 61.7249 34.0283 61.6239 34.207 61.4445C34.3856 61.2652 34.4859 61.0222 34.4859 60.7689V50.307C34.4859 50.0537 34.3856 49.8108 34.207 49.6314C34.0283 49.4521 33.786 49.351 33.533 49.3504H29.939V47.2988H33.533C34.3291 47.3001 35.0922 47.6175 35.6549 48.1814C36.2177 48.7454 36.534 49.5098 36.5346 50.307V60.7689C36.534 61.5662 36.2177 62.3306 35.6549 62.8945C35.0922 63.4585 34.3291 63.7759 33.533 63.7771ZM11.2947 60.7596C10.2633 60.76 9.25497 60.4542 8.39719 59.8807C7.5394 59.3072 6.87072 58.4919 6.47571 57.5378C6.0807 56.5837 5.9771 55.5338 6.17803 54.5207C6.37896 53.5077 6.87538 52.5771 7.60451 51.8466C8.33364 51.1161 9.26272 50.6186 10.2742 50.4169C11.2858 50.2153 12.3343 50.3185 13.2872 50.7137C14.2401 51.1088 15.0546 51.7781 15.6277 52.6368C16.2007 53.4955 16.5066 54.5052 16.5066 55.538C16.5047 56.9219 15.9551 58.2485 14.9781 59.2273C14.0012 60.2061 12.6766 60.7571 11.2947 60.7596ZM11.2947 52.368C10.6685 52.3675 10.0563 52.5531 9.53538 52.9011C9.01451 53.2491 8.60841 53.7441 8.36846 54.3233C8.12851 54.9025 8.06549 55.5399 8.18736 56.155C8.30924 56.7701 8.61054 57.3351 9.05316 57.7787C9.49577 58.2222 10.0598 58.5244 10.6739 58.6469C11.288 58.7694 11.9246 58.7068 12.5032 58.4669C13.0818 58.227 13.5763 57.8207 13.9242 57.2994C14.2722 56.778 14.4579 56.165 14.4579 55.538C14.4573 54.6978 14.1239 53.8923 13.5309 53.298C12.9379 52.7037 12.1336 52.3692 11.2947 52.368Z"
                                                                fill="#727372" />
                                                            <path
                                                                d="M65.0334 60.7595C64.8767 60.7599 64.7201 60.7481 64.5652 60.7244H35.5088V58.6728L64.9117 58.7056C65.2001 58.7151 65.4874 58.6651 65.7557 58.5586C66.0239 58.4521 66.2675 58.2914 66.471 58.0866C67.7963 56.9588 69.9503 55.191 69.9503 55.191C69.1144 54.5251 66.5366 52.5181 66.5132 52.4993C66.3253 52.3534 66.1082 52.2496 65.8767 52.195C65.6453 52.1404 65.4048 52.1362 65.1716 52.1828C64.1357 52.2681 63.0952 52.2807 62.0576 52.2203L61.807 52.1757C61.2983 52.0176 60.8241 51.7646 60.4092 51.4301L58.6415 49.8991C58.6649 49.9389 58.5783 49.9741 58.4401 50.1124C57.534 51.0222 57.0775 51.4254 57.0775 51.4254C56.7489 51.7326 56.3145 51.9007 55.8651 51.8946C55.4156 51.8884 54.986 51.7086 54.6659 51.3926C54.1193 50.8979 53.6002 50.3735 53.1112 49.8217C52.3924 50.4712 51.5074 51.2379 51.5074 51.2379C50.8636 51.7804 50.0561 52.0901 49.2152 52.1171C48.686 52.0796 40.9384 52.0749 35.853 52.0819V50.0304C37.1618 50.0304 48.6603 50.021 49.3603 50.0702C49.664 49.979 49.9504 49.838 50.2079 49.6529C50.2056 49.6529 51.2381 48.7572 51.8984 48.1476C52.0886 47.9499 52.3215 47.7985 52.5792 47.705C52.8369 47.6115 53.1126 47.5785 53.3851 47.6083C53.6202 47.6436 53.8449 47.729 54.044 47.8589C54.2432 47.9888 54.4121 48.16 54.5394 48.361C54.6963 48.5251 55.4104 49.3082 55.8881 49.7373C56.1058 49.5309 56.4687 49.1863 56.9908 48.6611C57.3436 48.2328 57.848 47.9576 58.3986 47.8929C58.9492 47.8282 59.5035 47.9791 59.9456 48.3141L61.7602 49.885C61.9256 50.0093 62.1087 50.1081 62.3034 50.1781C63.1694 50.2263 64.0376 50.2169 64.9023 50.1499C65.423 50.0565 65.958 50.08 66.4685 50.2187C66.9791 50.3573 67.4526 50.6077 67.8548 50.9518C67.8782 50.9635 70.449 52.9682 71.3036 53.7724C71.5244 53.9613 71.7008 54.1967 71.8202 54.4618C71.9396 54.7269 71.9991 55.0151 71.9943 55.3059C71.9766 55.5888 71.9017 55.8652 71.7741 56.1184C71.6465 56.3715 71.4689 56.596 71.2521 56.7783C71.2474 56.7807 69.1121 58.5298 67.8033 59.6482C67.0445 60.3417 66.0605 60.7365 65.0334 60.7595ZM55.7007 49.9131C55.678 49.9307 55.6568 49.9503 55.6375 49.9717L55.7007 49.9131ZM52.8958 49.5778C52.9047 49.5974 52.9194 49.6138 52.9379 49.6247L52.8958 49.5778Z"
                                                                fill="#727372" />
                                                        </svg>