      <svg width="114" height="61" viewBox="0 0 124 61" fill="none"
                                                            xmlns="http://www.w3.org/2000/svg">
                                                            <path
                                                                d="M124 37.8521C123.996 33.3383 122.215 29.0106 119.048 25.8189C115.881 22.6272 111.587 20.8323 107.108 20.8281H96.1897L87.2679 5.34457C86.3321 3.72364 84.9919 2.37759 83.3803 1.44003C81.7687 0.502483 79.9418 0.00604342 78.081 0H45.919C44.0582 0.00604342 42.2313 0.502483 40.6197 1.44003C39.0082 2.37759 37.6679 3.72364 36.7321 5.34457L27.8727 20.8281H16.9545C14.7315 20.8219 12.5291 21.2575 10.4734 22.1101C8.41769 22.9627 6.54897 24.2154 4.97419 25.7967C3.39942 27.3779 2.1495 29.2566 1.29596 31.3252C0.442431 33.3938 0.0020422 35.6118 0 37.8521V48.0068H14.0377C14.3253 51.5473 15.9239 54.8492 18.516 57.2564C21.1081 59.6636 24.5039 61 28.0287 61C31.5535 61 34.9493 59.6636 37.5413 57.2564C40.1334 54.8492 41.7321 51.5473 42.0196 48.0068H81.4345C81.722 51.5473 83.3207 54.8492 85.9127 57.2564C88.5048 59.6636 91.9006 61 95.4254 61C98.9502 61 102.346 59.6636 104.938 57.2564C107.53 54.8492 109.129 51.5473 109.416 48.0068H124V37.8521ZM85.2402 6.52352L93.4289 20.8281H63.5597V2.3579H78.0342C79.4926 2.35278 80.9266 2.73514 82.1917 3.46646C83.4568 4.19777 84.5083 5.25221 85.2402 6.52352ZM38.7598 6.52352C39.4877 5.25913 40.5318 4.20914 41.788 3.47824C43.0442 2.74733 44.4685 2.36105 45.919 2.3579H61.2669V20.8281H30.5711L38.7598 6.52352ZM6.00503 28.1061C6.26035 28.5389 6.39506 29.0331 6.39497 29.5366C6.39507 30.3123 6.09256 31.0569 5.55272 31.6098C5.01288 32.1626 4.279 32.4794 3.50943 32.4918H3.36906C3.99744 30.8808 4.90593 29.3956 6.05182 28.1061H6.00503ZM28.0599 58.633C25.7431 58.633 23.4784 57.9407 21.5521 56.6435C19.6258 55.3463 18.1244 53.5026 17.2378 51.3455C16.3512 49.1884 16.1193 46.8147 16.5712 44.5248C17.0232 42.2348 18.1388 40.1313 19.777 38.4803C21.4152 36.8293 23.5024 35.705 25.7746 35.2495C28.0469 34.794 30.4021 35.0277 32.5425 35.9212C34.6829 36.8148 36.5123 38.3279 37.7995 40.2692C39.0866 42.2106 39.7736 44.493 39.7736 46.8278C39.7695 49.9575 38.534 52.9578 36.3382 55.1708C34.1423 57.3838 31.1653 58.6289 28.0599 58.633ZM95.4254 58.633C93.1087 58.633 90.8439 57.9407 88.9176 56.6435C86.9913 55.3463 85.4899 53.5026 84.6033 51.3455C83.7168 49.1884 83.4848 46.8147 83.9368 44.5248C84.3887 42.2348 85.5044 40.1313 87.1426 38.4803C88.7808 36.8293 90.8679 35.705 93.1402 35.2495C95.4124 34.794 97.7677 35.0277 99.9081 35.9212C102.048 36.8148 103.878 38.3279 105.165 40.2692C106.452 42.2106 107.139 44.493 107.139 46.8278C107.135 49.9575 105.9 52.9578 103.704 55.1708C101.508 57.3838 98.5308 58.6289 95.4254 58.633ZM121.66 45.6489H109.416C109.129 42.1084 107.53 38.8065 104.938 36.3993C102.346 33.9921 98.9502 32.6557 95.4254 32.6557C91.9006 32.6557 88.5048 33.9921 85.9127 36.3993C83.3207 38.8065 81.722 42.1084 81.4345 45.6489H42.0508C41.7633 42.1084 40.1646 38.8065 37.5725 36.3993C34.9805 33.9921 31.5847 32.6557 28.0599 32.6557C24.5351 32.6557 21.1393 33.9921 18.5472 36.3993C15.9551 38.8065 14.3565 42.1084 14.0689 45.6489H2.33962V37.7892C2.34177 36.7327 2.45152 35.6793 2.66717 34.6454C2.94489 34.7 3.22659 34.7316 3.50943 34.7397C4.48142 34.7463 5.43608 34.4804 6.26672 33.9716C7.09736 33.4629 7.77124 32.7313 8.21304 31.8588C8.65484 30.9862 8.84715 30.007 8.76848 29.0306C8.68981 28.0542 8.34325 27.1191 7.76755 26.3299C10.3503 24.2255 13.5708 23.0771 16.8921 23.076H107.108C110.965 23.0843 114.662 24.6321 117.389 27.3807C120.116 30.1294 121.652 33.8549 121.66 37.7421V45.6489Z"
                                                                fill="#727372" />
                                                        </svg>