    <svg width="116" height="64" viewBox="0 0 126 64" fill="none"
                                                            xmlns="http://www.w3.org/2000/svg">
                                                            <path
                                                                d="M27.9175 21.3484H27.8964C27.7449 21.3448 27.5975 21.2989 27.4712 21.2162C27.345 21.1334 27.2449 21.0171 27.1826 20.8806L25.6582 17.5787L22.1589 15.8976C22.0234 15.8325 21.9091 15.7312 21.8287 15.6053C21.7483 15.4795 21.7052 15.3339 21.7041 15.1851C21.703 15.0363 21.744 14.8901 21.8225 14.7631C21.901 14.6361 22.0139 14.5332 22.1484 14.4661L25.6583 12.7164L27.1848 9.47071C27.2478 9.33745 27.3467 9.22392 27.4708 9.14266C27.5949 9.0614 27.7393 9.01555 27.8881 9.01018C28.0383 8.99468 28.1898 9.02568 28.3214 9.09887C28.4531 9.17206 28.5584 9.28384 28.6229 9.41874L30.3874 12.5428L33.7099 14.3372C33.8368 14.4055 33.9428 14.5062 34.0169 14.6287C34.091 14.7513 34.1304 14.8912 34.131 15.034C34.1317 15.1767 34.0935 15.317 34.0206 15.4402C33.9476 15.5634 33.8425 15.665 33.7162 15.7344L30.4021 17.5662L28.6355 20.919C28.5668 21.0484 28.4636 21.1568 28.3371 21.2325C28.2105 21.3081 28.0654 21.3482 27.9175 21.3484V21.3484ZM24.3317 15.1658L26.6268 16.2678C26.7954 16.3497 26.9301 16.4867 27.0079 16.6556L27.9659 18.7286L29.0776 16.6171C29.1512 16.4792 29.2639 16.3654 29.4019 16.2897L31.6527 15.0462L29.4082 13.834C29.2745 13.7619 29.1642 13.6537 29.0903 13.5222L27.9828 11.5635L27.0058 13.6407C26.9293 13.8034 26.7995 13.936 26.6373 14.017L24.3317 15.1658ZM6.21131 33.4246H6.19025C6.03873 33.421 5.89134 33.3751 5.76506 33.2924C5.63878 33.2096 5.53875 33.0933 5.47647 32.9568L3.95212 29.655L0.454835 27.9739C0.31937 27.9089 0.205007 27.8077 0.124644 27.6819C0.0442816 27.5561 0.0011177 27.4106 2.1415e-05 27.2619C-0.00107487 27.1132 0.0399401 26.9671 0.11844 26.8401C0.196939 26.7132 0.3098 26.6104 0.444292 26.5434L3.95225 24.7927L5.47876 21.547C5.54166 21.4138 5.64059 21.3003 5.76464 21.219C5.8887 21.1377 6.03307 21.0919 6.18184 21.0865C6.33146 21.0755 6.48103 21.1084 6.61176 21.1811C6.7425 21.2538 6.84857 21.363 6.91668 21.495L8.68113 24.6191L12.0037 26.4135C12.1306 26.4818 12.2366 26.5825 12.3106 26.705C12.3847 26.8276 12.4241 26.9675 12.4248 27.1102C12.4254 27.253 12.3873 27.3932 12.3143 27.5164C12.2414 27.6396 12.1363 27.7413 12.01 27.8107L8.69584 29.6425L6.92929 32.9953C6.86057 33.1246 6.75737 33.233 6.63084 33.3087C6.5043 33.3843 6.35924 33.4244 6.21131 33.4246V33.4246ZM2.62766 27.242L4.92061 28.344C5.08923 28.4259 5.2239 28.5629 5.3017 28.7318L6.25974 30.8048L7.37146 28.6933C7.44505 28.5554 7.55772 28.4416 7.69572 28.3659L9.94667 27.1225L7.70218 25.9103C7.56844 25.8381 7.45819 25.73 7.38425 25.5984L6.27673 23.6397L5.29957 25.7169C5.22332 25.8796 5.09341 26.0119 4.93109 26.0922L2.62766 27.242ZM12.0795 16.6619H12.0584C11.9071 16.6579 11.76 16.612 11.6338 16.5295C11.5076 16.447 11.4074 16.3311 11.3447 16.1951L9.15698 11.4586L4.14576 9.04976C4.0103 8.9847 3.89594 8.88356 3.81558 8.75775C3.73523 8.63194 3.69207 8.48645 3.69098 8.33771C3.68989 8.18896 3.73091 8.04288 3.80942 7.91593C3.88792 7.78898 4.00079 7.68622 4.13528 7.61923L9.15703 5.11377L11.3468 0.462562C11.4097 0.329282 11.5086 0.215745 11.6327 0.134472C11.7568 0.0531976 11.9012 0.0073437 12.05 0.00196588C12.1996 -0.0087201 12.3491 0.0243271 12.4797 0.0969841C12.6104 0.169641 12.7165 0.278691 12.7849 0.410526L15.3032 4.87154L20.0448 7.4321C20.1715 7.50045 20.2774 7.60106 20.3515 7.72348C20.4256 7.8459 20.4651 7.98567 20.4659 8.12827C20.4668 8.27087 20.429 8.4111 20.3564 8.53439C20.2838 8.65767 20.1791 8.75952 20.0532 8.82935L15.3178 11.4461L12.7975 16.2314C12.729 16.3611 12.6259 16.4697 12.4993 16.5456C12.3727 16.6214 12.2276 16.6617 12.0795 16.6619V16.6619ZM6.31869 8.31787L10.1255 10.1476C10.2939 10.2293 10.4285 10.3659 10.5067 10.5343L12.1279 14.042L13.9934 10.498C14.0665 10.3601 14.1783 10.246 14.3156 10.1694L17.9877 8.14113L14.324 6.16273C14.1902 6.0906 14.08 5.98244 14.006 5.85086L12.1448 2.55527L10.5045 6.03799C10.4283 6.20068 10.2984 6.333 10.1361 6.41329L6.31869 8.31787ZM68.82 11.7049H70.5634V28.7266H68.82V11.7049Z"
                                                                fill="#727372" />
                                                            <path
                                                                d="M99.3355 29.1658L91.7998 16.5085C91.129 15.2825 90.135 14.2584 88.9229 13.5448C87.7108 12.8312 86.3258 12.4547 84.9146 12.455H54.3756C52.9301 12.4569 51.5135 12.8554 50.284 13.606C49.0544 14.3566 48.0603 15.4299 47.4125 16.706L40.0473 29.1657L38.544 28.2987L45.8839 15.8836C46.6781 14.3339 47.8922 13.0322 49.391 12.1235C50.8899 11.2147 52.6147 10.7346 54.3735 10.7364L84.8852 10.7354C86.5308 10.7311 88.1497 11.1456 89.5859 11.939C91.022 12.7324 92.2269 13.8779 93.0842 15.265L93.3684 15.6653L100.839 28.2987L99.3355 29.1658ZM61.6356 32.7348H66.2152V34.4544H61.6356V32.7348ZM91.9998 32.7348H96.5794V34.4544H91.9998V32.7348ZM39.2746 63.1593C36.8035 63.1592 34.388 62.4355 32.3335 61.0797C30.2789 59.7239 28.6776 57.797 27.7321 55.5425C26.7866 53.2881 26.5392 50.8074 27.0214 48.4141C27.5036 46.0209 28.6936 43.8226 30.441 42.0972C32.1884 40.3718 34.4146 39.1968 36.8382 38.7209C39.2618 38.2449 41.7739 38.4894 44.0568 39.4233C46.3397 40.3572 48.2909 41.9386 49.6637 43.9676C51.0364 45.9966 51.7691 48.382 51.7689 50.8221C51.7651 54.0932 50.4475 57.2291 48.1052 59.542C45.7628 61.8549 42.587 63.1558 39.2746 63.1593V63.1593ZM39.2746 40.2035C37.1479 40.2032 35.0689 40.8256 33.3004 41.9922C31.532 43.1587 30.1535 44.8169 29.3395 46.757C28.5254 48.6972 28.3122 50.8322 28.7268 52.892C29.1415 54.9518 30.1654 56.8439 31.6691 58.329C33.1727 59.8142 35.0886 60.8257 37.1744 61.2356C39.2602 61.6454 41.4222 61.4353 43.3871 60.6318C45.352 59.8283 47.0314 58.4674 48.2131 56.7213C49.3947 54.9752 50.0255 52.9222 50.0256 50.8221C50.0228 48.0071 48.8893 45.3081 46.8738 43.3173C44.8582 41.3266 42.1253 40.2067 39.2746 40.2034V40.2035Z"
                                                                fill="#727372" />
                                                            <path
                                                                d="M39.2751 57.368C37.9638 57.368 36.682 56.9839 35.5917 56.2644C34.5015 55.5449 33.6517 54.5224 33.15 53.326C32.6483 52.1296 32.5171 50.8132 32.773 49.5432C33.0289 48.2732 33.6605 47.1066 34.5878 46.1911C35.5151 45.2755 36.6965 44.652 37.9826 44.3995C39.2687 44.147 40.6018 44.2768 41.8132 44.7724C43.0247 45.2681 44.0601 46.1073 44.7885 47.1841C45.5169 48.2608 45.9056 49.5267 45.9055 50.8216C45.903 52.5573 45.2037 54.2211 43.9607 55.4483C42.7178 56.6755 41.0328 57.3659 39.2751 57.368V57.368ZM39.2751 45.9936C38.3082 45.9932 37.3629 46.2761 36.5588 46.8063C35.7547 47.3366 35.1278 48.0904 34.7576 48.9724C34.3873 49.8545 34.2902 50.8251 34.4786 51.7617C34.667 52.6982 35.1325 53.5585 35.816 54.2338C36.4996 54.9092 37.3706 55.3691 38.3189 55.5556C39.2672 55.742 40.2502 55.6466 41.1436 55.2813C42.0369 54.9161 42.8006 54.2974 43.3379 53.5036C43.8752 52.7097 44.162 51.7764 44.1621 50.8215C44.1607 49.5419 43.6454 48.315 42.7293 47.4099C41.8132 46.5049 40.571 45.9955 39.2751 45.9936V45.9936ZM100.109 63.1587C97.6378 63.1586 95.2222 62.435 93.1677 61.0792C91.1131 59.7234 89.5119 57.7965 88.5663 55.542C87.6208 53.2876 87.3735 50.8069 87.8557 48.4136C88.3378 46.0204 89.5279 43.822 91.2752 42.0967C93.0226 40.3713 95.2488 39.1963 97.6724 38.7204C100.096 38.2444 102.608 38.4888 104.891 39.4228C107.174 40.3567 109.125 41.9381 110.498 43.9671C111.871 45.9961 112.603 48.3814 112.603 50.8216C112.599 54.0926 111.282 57.2286 108.939 59.5415C106.597 61.8544 103.421 63.1553 100.109 63.1587V63.1587ZM100.109 40.203C97.9821 40.2027 95.9031 40.8251 94.1347 41.9917C92.3662 43.1582 90.9878 44.8164 90.1737 46.7565C89.3596 48.6967 89.1464 50.8316 89.5611 52.8915C89.9757 54.9513 90.9997 56.8434 92.5033 58.3285C94.007 59.8137 95.9228 60.8251 98.0086 61.235C100.094 61.6449 102.256 61.4348 104.221 60.6313C106.186 59.8277 107.866 58.4669 109.047 56.7207C110.229 54.9746 110.86 52.9217 110.86 50.8216C110.857 48.0066 109.724 45.3075 107.708 43.3168C105.692 41.3261 102.96 40.2062 100.109 40.2029V40.203Z"
                                                                fill="#727372" />
                                                            <path
                                                                d="M100.108 57.3683C98.7968 57.3683 97.515 56.9842 96.4247 56.2647C95.3345 55.5452 94.4848 54.5226 93.9831 53.3263C93.4813 52.1299 93.3501 50.8135 93.6061 49.5435C93.862 48.2735 94.4935 47.1069 95.4208 46.1914C96.3481 45.2758 97.5295 44.6524 98.8156 44.3998C100.102 44.1473 101.435 44.2771 102.646 44.7727C103.858 45.2684 104.893 46.1076 105.621 47.1844C106.35 48.2611 106.739 49.527 106.739 50.8219C106.736 52.5575 106.037 54.2214 104.794 55.4487C103.551 56.6759 101.866 57.3662 100.108 57.3683V57.3683ZM100.108 45.9939C99.1412 45.9936 98.1959 46.2764 97.3918 46.8067C96.5876 47.3369 95.9608 48.0907 95.5906 48.9727C95.2203 49.8548 95.1232 50.8255 95.3116 51.762C95.5 52.6985 95.9654 53.5588 96.649 54.2342C97.3326 54.9095 98.2036 55.3694 99.1519 55.5559C100.1 55.7423 101.083 55.6469 101.977 55.2817C102.87 54.9164 103.634 54.2977 104.171 53.5039C104.708 52.71 104.995 51.7767 104.995 50.8219C104.994 49.5422 104.478 48.3153 103.562 47.4102C102.646 46.5052 101.404 45.9959 100.108 45.9939V45.9939ZM16.6251 40.1513C15.9671 40.1522 15.3157 40.0232 14.709 39.7718L15.3828 38.1854C16.0913 38.4794 16.8832 38.5121 17.6141 38.2773C18.3449 38.0425 18.9659 37.556 19.3635 36.9065C19.7612 36.2571 19.909 35.4881 19.7801 34.7399C19.6511 33.9917 19.254 33.3143 18.6611 32.8313L19.7729 31.5049C20.5578 32.1449 21.1235 33.0086 21.3927 33.9779C21.662 34.9473 21.6217 35.9751 21.2773 36.921C20.9329 37.8669 20.3013 38.6848 19.4686 39.2629C18.636 39.8411 17.6429 40.1513 16.625 40.1513L16.6251 40.1513ZM51.1582 49.9393H88.4412V51.6588H51.1582V49.9393Z"
                                                                fill="#727372" />
                                                            <path
                                                                d="M125.618 51.6583H112.037V49.9388H123.874V41.783C123.746 38.5083 122.341 35.4094 119.952 33.1347C117.563 30.86 114.376 29.5858 111.058 29.5789H28.3367C24.9359 29.5828 21.6756 30.9186 19.2709 33.2932C16.8663 35.6678 15.5136 38.8874 15.5096 42.2456L15.5012 49.9388H27.6082V51.6583H13.7578L13.7662 42.2456C13.7706 38.4311 15.3072 34.7741 18.0388 32.0771C20.7704 29.38 24.4739 27.8632 28.3367 27.8594H111.058C114.909 27.8672 118.601 29.3774 121.329 32.0611C124.058 34.7448 125.602 38.3845 125.626 42.1874L125.628 43.0503H125.618L125.618 51.6583Z"
                                                                fill="#727372" />
                                                        </svg>