      <svg width="88" height="85" viewBox="0 0 98 85" fill="none"
                                                            xmlns="http://www.w3.org/2000/svg">
                                                            <path
                                                                d="M74.3507 46.6756C73.3481 46.6707 72.3763 46.329 71.5916 45.7053L69.3191 43.9001C68.8434 43.4235 68.4668 42.8577 68.2107 42.2351C67.9546 41.6126 67.8242 40.9456 67.827 40.2725C67.9179 38.6959 68.5988 37.211 69.7345 36.1128L61.9024 28.244C60.6885 29.3037 59.13 29.8855 57.5181 29.8806C56.2729 29.8379 55.0901 29.3253 54.208 28.4459L52.8675 27.0547C52.37 26.54 51.9876 25.9257 51.7454 25.2523C51.5032 24.5789 51.4068 23.8618 51.4627 23.1484C51.8698 20.9737 53.0413 19.016 54.7658 17.6285L70.678 1.72702C71.0742 1.34314 71.5435 1.04261 72.0581 0.84324C72.5726 0.643869 73.122 0.549705 73.6736 0.566326C74.5275 0.656651 75.3519 0.929806 76.0907 1.36719C76.8295 1.80457 77.4652 2.39591 77.9547 3.10093C81.1592 6.96823 95.6918 20.8225 95.8364 20.9625C96.7532 21.8915 97.2867 23.1312 97.3308 24.4352C97.3125 25.0348 97.1703 25.624 96.9131 26.166C96.656 26.708 96.2894 27.191 95.8364 27.5846L79.8668 43.5424C79.2176 44.4208 78.3912 45.1535 77.4411 45.6932C76.491 46.2328 75.4382 46.5675 74.3507 46.6756ZM62.0126 25.4731L64.2461 27.799L72.6085 36.1598L71.821 36.8628C71.2697 37.2695 70.8081 37.7853 70.4649 38.378C70.1217 38.9707 69.9043 39.6277 69.8263 40.308C69.824 41.0818 70.1124 41.8283 70.6343 42.3999L72.8195 44.1306C75.34 46.0425 78.3447 42.2612 78.3723 42.221L94.4406 26.1555C94.7001 25.9439 94.9131 25.6811 95.0663 25.3835C95.2196 25.0859 95.3098 24.7599 95.3312 24.426C95.2809 23.664 94.9659 22.9436 94.4406 22.3891C93.8577 21.8352 79.6945 8.33176 76.4165 4.37387C76.0983 3.90026 75.6876 3.49574 75.2092 3.18456C74.7307 2.87337 74.1943 2.66194 73.6321 2.56293C73.352 2.55072 73.0723 2.59454 72.8093 2.69183C72.5464 2.78912 72.3056 2.93792 72.101 3.12949L55.0802 20.1402L55.0665 20.1264C54.2133 21.0009 53.65 22.1164 53.4528 23.3216C53.4221 23.7574 53.4846 24.1947 53.6361 24.6044C53.7877 25.0141 54.0249 25.3869 54.3319 25.698L55.6633 27.0776C55.8928 27.3172 57.9312 29.251 61.2917 26.1406L62.0126 25.4731Z"
                                                                fill="#727372" />
                                                            <path
                                                                d="M67.9009 5.91683L69.3149 4.50391L93.4174 28.5896L92.0033 30.0025L67.9009 5.91683ZM28.0859 62.0762L62.3206 27.867L63.7346 29.28L29.5 63.4892L28.0859 62.0762ZM35.1789 67.1042L68.3829 33.9249L69.7969 35.3378L36.593 68.5171L35.1789 67.1042Z"
                                                                fill="#727372" />
                                                            <path
                                                                d="M25.5333 85.0004C23.1206 85.0005 20.762 84.2857 18.7558 82.9463C16.7497 81.6069 15.186 79.7032 14.2627 77.4758C13.3393 75.2484 13.0977 72.7974 13.5684 70.4328C14.039 68.0682 15.2008 65.8962 16.9069 64.1914C18.6129 62.4866 20.7866 61.3256 23.153 60.8553C25.5193 60.385 27.9721 60.6264 30.2012 61.5491C32.4302 62.4717 34.3354 64.0342 35.6758 66.0389C37.0162 68.0435 37.7315 70.4003 37.7314 72.8113C37.7277 76.0429 36.4414 79.1411 34.1546 81.4262C31.8678 83.7113 28.7673 84.9967 25.5333 85.0004ZM25.5333 62.6167C23.5156 62.6166 21.5432 63.2143 19.8655 64.3344C18.1877 65.4544 16.8801 67.0464 16.1078 68.9091C15.3356 70.7718 15.1334 72.8215 15.527 74.799C15.9205 76.7764 16.892 78.5929 18.3187 80.0186C19.7453 81.4444 21.563 82.4154 23.5419 82.8088C25.5208 83.2023 27.5721 83.0005 29.4362 82.229C31.3004 81.4576 32.8937 80.151 34.0148 78.4747C35.1358 76.7983 35.7343 74.8275 35.7344 72.8113C35.7311 70.1087 34.6553 67.5177 32.743 65.6066C30.8306 63.6955 28.2379 62.6203 25.5333 62.6167Z"
                                                                fill="#727372" />
                                                            <path
                                                                d="M25.5331 78.621C24.3831 78.621 23.2589 78.2803 22.3027 77.6419C21.3465 77.0034 20.6013 76.096 20.1612 75.0344C19.7211 73.9727 19.606 72.8045 19.8303 71.6775C20.0546 70.5504 20.6084 69.5151 21.4216 68.7026C22.2347 67.89 23.2708 67.3366 24.3987 67.1124C25.5265 66.8883 26.6956 67.0033 27.7581 67.4431C28.8205 67.8828 29.7286 68.6275 30.3675 69.583C31.0065 70.5384 31.3475 71.6617 31.3475 72.8109C31.346 74.3513 30.7329 75.8283 29.6428 76.9176C28.5527 78.0069 27.0747 78.6195 25.5331 78.621ZM25.5331 68.9964C24.7781 68.9964 24.04 69.2201 23.4123 69.6393C22.7845 70.0584 22.2952 70.6541 22.0063 71.3511C21.7174 72.0481 21.6418 72.8151 21.7891 73.555C21.9364 74.295 22.2999 74.9746 22.8338 75.5081C23.3677 76.0416 24.0478 76.4049 24.7883 76.5521C25.5288 76.6992 26.2964 76.6237 26.9939 76.335C27.6914 76.0463 28.2876 75.5574 28.707 74.9301C29.1265 74.3028 29.3504 73.5653 29.3504 72.8109C29.3492 71.7996 28.9467 70.83 28.231 70.1149C27.5154 69.3998 26.5451 68.9976 25.5331 68.9964ZM23.7013 45.8512C23.5567 45.8512 23.4143 45.8454 23.2697 45.8328C21.0959 45.4272 19.1388 44.2586 17.7514 42.5378L1.8323 26.6306C1.44826 26.2351 1.14758 25.7665 0.948066 25.2527C0.748552 24.7389 0.654267 24.1904 0.670797 23.6395C0.760678 22.7859 1.03381 21.9618 1.47156 21.2233C1.90931 20.4848 2.50135 19.8495 3.20729 19.3605C7.07745 16.1596 20.9421 1.63888 21.0821 1.49208C22.0021 0.587896 23.2247 0.05633 24.5139 0L24.5575 0C25.1575 0.0182865 25.7472 0.160382 26.2896 0.417357C26.832 0.674331 27.3153 1.04063 27.7092 1.49323L43.6788 17.4487C45.4555 18.8296 48.3317 22.4549 45.8434 25.7189L44.0392 27.9897C43.0959 28.9284 41.8238 29.4632 40.4927 29.4807L40.4054 29.4795C38.8277 29.3897 37.3418 28.7091 36.2438 27.5734L28.368 35.4009C29.4273 36.6147 30.0096 38.1714 30.007 39.7819C29.9653 41.0264 29.4516 42.2085 28.57 43.0884L27.1789 44.4291C26.2422 45.3268 24.999 45.8352 23.7013 45.8512ZM20.2443 42.2305C21.119 43.0836 22.2355 43.6467 23.4419 43.843C23.8779 43.8746 24.3157 43.8126 24.7259 43.6613C25.136 43.51 25.5091 43.2728 25.82 42.9656L27.2019 41.6341C27.4429 41.4024 29.3757 39.3656 26.263 36.0121L25.595 35.293L27.9249 33.0589L36.2896 24.7027L36.9943 25.4883C37.4015 26.0392 37.9177 26.5007 38.5108 26.844C39.1039 27.1873 39.7613 27.4051 40.4421 27.4839C41.204 27.4252 41.9319 27.1445 42.5356 26.6765L44.2664 24.4928C46.1831 21.98 42.3956 18.9717 42.3566 18.9419L26.2791 2.88775C26.0664 2.62655 25.8017 2.41244 25.5018 2.25904C25.2018 2.10564 24.8732 2.01631 24.5368 1.99673H24.5162C23.768 2.05937 23.0629 2.37206 22.5144 2.88434C21.9543 3.47155 8.44089 17.6229 4.4812 20.8996C4.00246 21.2183 3.59443 21.632 3.28247 22.115C2.97051 22.598 2.76128 23.1399 2.66779 23.7071C2.65839 24.257 2.85768 24.7901 3.22558 25.1992L20.258 42.2178L20.2443 42.2305Z"
                                                                fill="#727372" />
                                                            <path
                                                                d="M4.61133 27.9948L28.7149 3.90918L30.1289 5.32214L6.02534 29.4078L4.61133 27.9948ZM27.9917 35.0824L29.4049 33.6709L43.6621 47.9232L42.2489 49.3347L27.9917 35.0824ZM34.1528 28.9249L35.5659 27.5132L49.8253 41.7655L48.4123 43.1772L34.1528 28.9249ZM48.4146 55.4912L49.8276 54.0796L62.859 67.1047L61.4459 68.5164L48.4146 55.4912ZM54.5756 49.3325L55.9887 47.9208L68.8594 60.7854L67.4463 62.197L54.5756 49.3325Z"
                                                                fill="#727372" />
                                                            <path
                                                                d="M72.9688 83.933C70.5561 83.9331 68.1975 83.2183 66.1914 81.8789C64.1852 80.5395 62.6216 78.6358 61.6982 76.4084C60.7749 74.181 60.5332 71.73 61.0039 69.3654C61.4746 67.0008 62.6364 64.8288 64.3424 63.124C66.0485 61.4192 68.2222 60.2582 70.5885 59.7879C72.9549 59.3176 75.4077 59.559 77.6367 60.4817C79.8658 61.4044 81.771 62.9668 83.1113 64.9715C84.4517 66.9762 85.1671 69.333 85.1669 71.7439C85.1634 74.9756 83.8771 78.0738 81.5903 80.3589C79.3034 82.6441 76.2029 83.9294 72.9688 83.933ZM72.9688 61.5493C70.9511 61.5492 68.9787 62.1469 67.301 63.267C65.6233 64.387 64.3156 65.979 63.5434 67.8417C62.7711 69.7044 62.569 71.7541 62.9625 73.7315C63.356 75.709 64.3275 77.5255 65.7542 78.9512C67.1808 80.377 68.9985 81.348 70.9774 81.7414C72.9563 82.1349 75.0076 81.9331 76.8717 81.1617C78.7359 80.3902 80.3292 79.0837 81.4503 77.4073C82.5714 75.731 83.1698 73.7601 83.1699 71.7439C83.1667 69.0413 82.091 66.4503 80.1787 64.5391C78.2663 62.628 75.6735 61.5527 72.9688 61.5493Z"
                                                                fill="#727372" />
                                                            <path
                                                                d="M72.9689 77.554C71.8188 77.5541 70.6944 77.2134 69.7381 76.575C68.7817 75.9365 68.0363 75.029 67.5961 73.9672C67.1559 72.9054 67.0407 71.7371 67.265 70.6098C67.4894 69.4826 68.0432 68.4472 68.8565 67.6345C69.6698 66.8219 70.706 66.2684 71.834 66.0442C72.9621 65.8201 74.1313 65.9352 75.1939 66.375C76.2565 66.8149 77.1647 67.5598 77.8036 68.5154C78.4425 69.4711 78.7835 70.5946 78.7833 71.7439C78.7818 73.2844 78.1688 74.7613 77.0787 75.8506C75.9886 76.9399 74.5105 77.5525 72.9689 77.554ZM72.9689 67.9282C72.2138 67.9281 71.4756 68.1517 70.8477 68.5708C70.2197 68.9899 69.7303 69.5857 69.4412 70.2828C69.1521 70.9799 69.0764 71.7469 69.2236 72.487C69.3708 73.2271 69.7343 73.9069 70.2682 74.4406C70.802 74.9742 71.4823 75.3377 72.2229 75.485C72.9635 75.6323 73.7311 75.5569 74.4288 75.2683C75.1265 74.9796 75.7229 74.4907 76.1425 73.8634C76.5621 73.236 76.7861 72.4984 76.7862 71.7439C76.7852 70.7324 76.3827 69.7627 75.667 69.0474C74.9514 68.3321 73.9811 67.9296 72.9689 67.9282Z"
                                                                fill="#727372" />
                                                        </svg>