     <svg width="102" height="82" viewBox="0 0 112 82" fill="none"
                                                            xmlns="http://www.w3.org/2000/svg">
                                                            <path
                                                                d="M83.2001 82H43.3212C41.0793 82.0507 38.9032 81.221 37.2387 79.6808C35.5741 78.1406 34.547 76.0064 34.3676 73.7152V68.9273C34.5056 67.7368 34.1792 66.5387 33.4596 65.5937C33.3457 65.4885 33.2119 65.4085 33.0666 65.3584C32.9213 65.3084 32.7676 65.2895 32.6148 65.3028L21.6203 65.3163C20.9731 65.2963 20.3366 65.1416 19.7495 64.8617C19.1623 64.5818 18.6368 64.1825 18.2049 63.6881C17.7729 63.1937 17.4435 62.6144 17.2367 61.9855C17.0298 61.3565 16.9499 60.6911 17.0016 60.0295V42.509C16.9766 41.5025 17.1642 40.5024 17.5515 39.5771C17.9388 38.6519 18.5166 37.8234 19.2455 37.1484C20.3526 36.2938 21.745 35.9238 23.1177 36.1192L31.9273 36.1081C32.275 36.1508 32.6277 36.1126 32.9591 35.9964C33.2906 35.8802 33.5922 35.689 33.8415 35.4369C34.8061 33.8411 35.1859 31.9459 34.9133 30.0897C34.8089 28.6304 34.9971 27.1647 35.4664 25.7829C35.9357 24.401 36.676 23.1323 37.6419 22.0549C38.6077 20.9775 39.7786 20.1142 41.0823 19.5183C42.386 18.9224 43.795 18.6064 45.2224 18.5898H84.8306C94.5286 20.9726 94.0615 31.3269 94.0549 31.4321L94.0571 47.2342C94.0343 47.7437 94.1221 48.2521 94.3142 48.7225C94.5064 49.193 94.798 49.6139 95.1681 49.9548C95.8273 50.3675 96.6184 50.4977 97.3705 50.3173C97.4389 50.2992 97.5094 50.2902 97.58 50.2904H107.889C108.295 50.2799 108.699 50.3574 109.074 50.5177C109.449 50.6781 109.787 50.9178 110.065 51.2211C110.873 52.3292 111.258 53.702 111.146 55.0805L111.148 69.7573C111.248 70.3895 111.189 71.0375 110.976 71.6395C110.762 72.2415 110.402 72.7775 109.929 73.1964C109.457 73.6152 108.887 73.9029 108.275 74.0321C107.663 74.1613 107.029 74.1277 106.433 73.9344H96.493C93.8301 73.9344 93.5398 76.7311 93.5136 77.051C93.5074 77.1361 93.489 77.2197 93.459 77.2993C91.6451 81.944 83.545 81.9977 83.2001 81.9977V82ZM32.7283 63.6159C33.3671 63.6238 33.9837 63.8569 34.4745 64.2759C35.0465 64.8889 35.4799 65.6233 35.744 66.4272C36.008 67.231 36.0963 68.0846 36.0025 68.9273V73.6525C36.1476 75.5176 36.9904 77.253 38.3548 78.4959C39.7191 79.7388 41.4994 80.3931 43.3234 80.322H83.2023C85.2104 80.322 90.6411 79.6776 91.894 76.787C91.9529 75.5735 92.4618 74.4289 93.3167 73.5872C94.1715 72.7455 95.3077 72.2703 96.493 72.2587H106.532C106.607 72.2589 106.682 72.2702 106.754 72.2922C107.088 72.3841 107.436 72.4071 107.779 72.3598C108.121 72.3126 108.451 72.1961 108.749 72.017C109.036 71.726 109.254 71.3714 109.387 70.9804C109.519 70.5894 109.562 70.1726 109.513 69.7618V55.0224C109.6 54.0865 109.371 53.1485 108.865 52.3644C108.74 52.2301 108.588 52.1252 108.419 52.0572C108.251 51.9892 108.07 51.9597 107.889 51.9706H97.6739C97.0824 52.1051 96.4706 52.1163 95.8748 52.0037C95.279 51.8911 94.7113 51.6569 94.2055 51.3151C93.6277 50.8273 93.1665 50.2103 92.8574 49.5114C92.5483 48.8126 92.3994 48.0504 92.4222 47.2835L92.42 31.3873C92.4419 30.9712 92.8042 22.2747 84.6385 20.2455L45.2224 20.2678C44.013 20.2699 42.8173 20.5295 41.711 21.0304C40.6047 21.5312 39.6121 22.2622 38.7961 23.1771C37.98 24.092 37.3584 25.1708 36.9707 26.345C36.583 27.5191 36.4376 28.7631 36.5438 29.9979C36.8395 32.3105 36.3016 34.6542 35.0311 36.5891C34.6293 37.0213 34.1365 37.3539 33.5903 37.5613C33.0441 37.7687 32.4588 37.8456 31.8792 37.786H22.9736C22.0093 37.6427 21.0287 37.8934 20.243 38.4841C19.7118 39.0104 19.2943 39.6453 19.0175 40.3475C18.7408 41.0497 18.611 41.8036 18.6365 42.5605L18.6387 60.0295C18.6409 60.3964 18.7435 63.6383 21.6203 63.6383H32.4708C32.5551 63.6179 32.6419 63.6104 32.7283 63.6159Z"
                                                                fill="#727372" />
                                                            <path
                                                                d="M103.028 73.9365C102.811 73.9365 102.603 73.8481 102.449 73.6908C102.296 73.5334 102.209 73.32 102.209 73.0975V51.2165C102.209 50.994 102.296 50.7806 102.449 50.6233C102.603 50.4659 102.811 50.3775 103.028 50.3775C103.245 50.3775 103.453 50.4659 103.607 50.6233C103.76 50.7806 103.846 50.994 103.846 51.2165V73.0975C103.846 73.32 103.76 73.5334 103.607 73.6908C103.453 73.8481 103.245 73.9365 103.028 73.9365ZM79.2969 71.5112C77.9431 71.492 76.619 71.1019 75.4618 70.3814C72.3856 68.5542 69.3101 66.7226 66.2354 64.8865L58.4822 60.2732C54.7999 58.0873 51.1133 55.9037 47.4637 53.6641C45.2649 52.3619 43.4509 50.474 42.2142 48.2006C41.4544 46.6995 41.0492 45.0366 41.0311 43.3456C40.9714 41.5754 41.2599 39.8109 41.8794 38.1574C42.4989 36.5038 43.4367 34.995 44.637 33.7207C45.8427 32.4187 47.3003 31.3892 48.9165 30.698C50.5327 30.0069 52.272 29.6693 54.0229 29.7069H54.036C55.8122 29.7203 57.5637 30.1357 59.1651 30.9236C60.7665 31.7114 62.1783 32.8522 63.2996 34.2644L84.6469 58.7138C85.4578 59.6414 86.041 60.754 86.3477 61.9592C86.6545 63.1644 86.676 64.4273 86.4105 65.6427C86.0425 67.299 85.1399 68.7794 83.8489 69.8444C82.5579 70.9094 80.9541 71.4967 79.2969 71.5112ZM53.9639 31.3849C52.4511 31.3728 50.9515 31.6746 49.5555 32.272C48.1594 32.8695 46.8957 33.7503 45.8404 34.8615C44.7851 35.9726 43.96 37.2911 43.4149 38.7376C42.8697 40.1841 42.6157 41.7288 42.6682 43.2785C42.6775 44.7105 43.0139 46.1204 43.6504 47.3952C44.7487 49.4051 46.3566 51.0733 48.3041 52.2233C51.9492 54.4606 55.625 56.6398 59.3008 58.8189L67.0604 63.4368C70.1308 65.2699 73.2056 67.1015 76.2847 68.9316C77.05 69.436 77.9249 69.7391 78.8319 69.8141C79.7388 69.889 80.6498 69.7334 81.484 69.3612C82.3204 69.0061 83.0602 68.4486 83.6404 67.7363C84.2205 67.024 84.6235 66.1782 84.8149 65.2714C85.0288 64.3172 85.0142 63.3242 84.7725 62.3771C84.5307 61.4301 84.069 60.557 83.4267 59.8324L62.0859 35.3875C61.1139 34.1546 59.8885 33.1566 58.497 32.4648C57.1056 31.7729 55.5824 31.4042 54.036 31.3849H53.9639Z"
                                                                fill="#727372" />
                                                            <path
                                                                d="M53.6431 51.682C52.441 51.6887 51.2498 51.4493 50.1392 50.9779C49.0286 50.5065 48.0211 49.8125 47.1756 48.9368C46.3427 48.0832 45.6856 47.0669 45.2432 45.9482C44.8008 44.8294 44.582 43.631 44.5999 42.4239C44.6067 41.1879 44.8527 39.9655 45.3237 38.8275C45.7946 37.6896 46.4812 36.6588 47.3436 35.7948C49.0278 34.1144 51.2884 33.1792 53.6387 33.1905H53.7762C54.9777 33.2126 56.1632 33.4777 57.2644 33.9707C58.3657 34.4637 59.3611 35.1748 60.1935 36.0632C61.4002 37.3757 62.207 39.0205 62.5149 40.7961C62.8228 42.5716 62.6184 44.4007 61.9269 46.0589C61.2354 47.7172 60.0867 49.1325 58.6218 50.1313C57.157 51.1302 55.4395 51.6691 53.6802 51.682H53.6431ZM53.6387 34.8685C51.7158 34.8579 49.8658 35.622 48.4874 36.9962C47.7788 37.7066 47.215 38.5542 46.8287 39.4898C46.4423 40.4254 46.2412 41.4304 46.237 42.4463C46.223 43.4302 46.4016 44.407 46.7623 45.3189C47.123 46.2308 47.6583 47.0593 48.3368 47.7555C49.0307 48.4729 49.8571 49.0412 50.7679 49.4273C51.6786 49.8134 52.6553 50.0094 53.6409 50.004H53.6736C55.1124 49.9912 56.5164 49.5489 57.7139 48.7313C58.9114 47.9137 59.8505 46.7561 60.4165 45.4002C60.9824 44.0442 61.1506 42.5486 60.9005 41.0962C60.6504 39.6438 59.9929 38.2976 59.0083 37.2222C58.3261 36.4946 57.5104 35.9123 56.608 35.5087C55.7056 35.1052 54.7344 34.8884 53.75 34.8708L53.6387 34.8685ZM78.7818 67.6005H78.7381C78.2068 67.5985 77.6812 67.4883 77.1919 67.2763C76.7025 67.0643 76.2591 66.7547 75.8875 66.3655C75.5094 65.9671 75.2121 65.4958 75.0128 64.9789C74.8135 64.462 74.7161 63.9098 74.7262 63.3541C74.7325 62.809 74.8438 62.2706 75.0539 61.7698C75.2639 61.269 75.5685 60.8157 75.95 60.436C76.3316 60.0563 76.7827 59.7577 77.2773 59.5574C77.7719 59.357 78.3003 59.2589 78.832 59.2687H78.8713C79.394 59.2731 79.9106 59.3838 80.3913 59.5942C80.872 59.8047 81.3072 60.1108 81.6718 60.4948C82.0545 60.8957 82.3558 61.3705 82.5581 61.8917C82.7604 62.4128 82.8598 62.97 82.8504 63.5308C82.8451 64.0672 82.7358 64.5972 82.529 65.09C82.3222 65.5827 82.0219 66.0285 81.6456 66.4013C80.8824 67.1721 79.8532 67.6031 78.7818 67.6005ZM78.832 60.9467C78.5141 60.9387 78.1978 60.9953 77.9013 61.1131C77.6048 61.231 77.334 61.4079 77.1045 61.6335C76.875 61.8592 76.6914 62.1292 76.5642 62.4279C76.437 62.7267 76.3687 63.0483 76.3633 63.3742C76.3558 63.709 76.4133 64.0421 76.5325 64.354C76.6517 64.6658 76.8301 64.9503 77.0574 65.1909C77.2788 65.4219 77.5427 65.6055 77.8338 65.731C78.125 65.8566 78.4376 65.9217 78.7534 65.9225C79.3901 65.934 80.0054 65.6876 80.466 65.2369C80.9265 64.7862 81.1951 64.1675 81.2134 63.5152C81.2199 63.1745 81.1604 62.836 81.0382 62.5191C80.9161 62.2022 80.7337 61.9134 80.5018 61.6694C80.2883 61.4431 80.0331 61.2628 79.7509 61.1387C79.4687 61.0146 79.1652 60.9494 78.8582 60.9467H78.832ZM12.4982 52.0578H8.08904C7.87195 52.0578 7.66375 51.9694 7.51025 51.8121C7.35675 51.6548 7.27051 51.4414 7.27051 51.2188C7.27051 50.9963 7.35675 50.7829 7.51025 50.6256C7.66375 50.4682 7.87195 50.3799 8.08904 50.3799H12.4982C12.7153 50.3799 12.9235 50.4682 13.077 50.6256C13.2305 50.7829 13.3167 50.9963 13.3167 51.2188C13.3167 51.4414 13.2305 51.6548 13.077 51.8121C12.9235 51.9694 12.7153 52.0578 12.4982 52.0578Z"
                                                                fill="#727372" />
                                                            <path
                                                                d="M4.87431 68.245C3.80544 68.2438 2.78067 67.808 2.02486 67.0333C1.26905 66.2586 0.843929 65.2082 0.842773 64.1126L0.842773 38.323C0.842773 37.2271 1.26752 36.176 2.02358 35.4011C2.77965 34.6261 3.80508 34.1907 4.87431 34.1907C5.94355 34.1907 6.96898 34.6261 7.72504 35.4011C8.48111 36.176 8.90586 37.2271 8.90586 38.323V64.1126C8.90412 65.2081 8.47882 66.2581 7.72313 67.0327C6.96745 67.8073 5.94301 68.2432 4.87431 68.245ZM4.87431 35.8687C4.23944 35.8693 3.63073 36.1281 3.1818 36.5882C2.73287 37.0484 2.48041 37.6723 2.47984 38.323V64.1126C2.47984 64.7636 2.73211 65.3878 3.18116 65.8481C3.63021 66.3084 4.23926 66.567 4.87431 66.567C5.50937 66.567 6.11841 66.3084 6.56747 65.8481C7.01652 65.3878 7.26879 64.7636 7.26879 64.1126V38.323C7.26764 37.6725 7.01499 37.0489 6.56619 36.5889C6.11739 36.1289 5.50902 35.8699 4.87431 35.8687ZM84.0907 8.26466H45.0064C44.0207 8.26288 43.0758 7.86058 42.379 7.14594C41.6822 6.4313 41.2903 5.46263 41.2892 4.45227V3.81239C41.2903 2.80203 41.6822 1.83336 42.379 1.11872C43.0758 0.404079 44.0207 0.00177602 45.0064 0L84.0929 0C85.079 0.00118424 86.0244 0.403226 86.7216 1.11793C87.4189 1.83264 87.8111 2.80165 87.8123 3.81239V4.45227C87.8111 5.46301 87.4189 6.43202 86.7216 7.14673C86.0244 7.86143 85.079 8.26347 84.0929 8.26466H84.0907ZM45.0064 1.67799C44.4543 1.67858 43.925 1.90365 43.5346 2.3038C43.1442 2.70395 42.9246 3.2465 42.924 3.81239V4.45227C42.9246 5.01816 43.1442 5.56071 43.5346 5.96086C43.925 6.36101 44.4543 6.58608 45.0064 6.58667H84.0929C84.645 6.58608 85.1743 6.36101 85.5647 5.96086C85.9551 5.56071 86.1747 5.01816 86.1752 4.45227V3.81239C86.1747 3.2465 85.9551 2.70395 85.5647 2.3038C85.1743 1.90365 84.645 1.67858 84.0929 1.67799H45.0064ZM17.8202 60.5285H14.2405C13.4662 60.4267 12.7624 60.0155 12.2825 59.3845C11.8025 58.7534 11.5853 57.9535 11.6779 57.159V45.2744C11.5859 44.4803 11.8034 43.681 12.2833 43.0504C12.7632 42.4198 13.4666 42.009 14.2405 41.9072H17.8202C18.0373 41.9072 18.2455 41.9956 18.399 42.153C18.5525 42.3103 18.6387 42.5237 18.6387 42.7462V59.6895C18.6387 59.912 18.5525 60.1254 18.399 60.2827C18.2455 60.4401 18.0373 60.5285 17.8202 60.5285ZM14.2405 43.5852C13.8039 43.5852 13.315 44.3079 13.315 45.2744V57.159C13.315 58.1278 13.8018 58.8505 14.2405 58.8505H17.0017V43.583L14.2405 43.5852Z"
                                                                fill="#727372" />
                                                            <path
                                                                d="M56.0578 20.2704C55.8407 20.2704 55.6325 20.182 55.479 20.0246C55.3255 19.8673 55.2393 19.6539 55.2393 19.4314V7.42591C55.2393 7.20339 55.3255 6.98999 55.479 6.83265C55.6325 6.67531 55.8407 6.58691 56.0578 6.58691C56.2749 6.58691 56.4831 6.67531 56.6366 6.83265C56.7901 6.98999 56.8763 7.20339 56.8763 7.42591V19.4314C56.8763 19.6539 56.7901 19.8673 56.6366 20.0246C56.4831 20.182 56.2749 20.2704 56.0578 20.2704ZM72.7187 20.2704C72.5016 20.2704 72.2934 20.182 72.1399 20.0246C71.9864 19.8673 71.9002 19.6539 71.9002 19.4314V7.42591C71.9002 7.20339 71.9864 6.98999 72.1399 6.83265C72.2934 6.67531 72.5016 6.58691 72.7187 6.58691C72.9358 6.58691 73.144 6.67531 73.2975 6.83265C73.451 6.98999 73.5373 7.20339 73.5373 7.42591V19.4314C73.5373 19.6539 73.451 19.8673 73.2975 20.0246C73.144 20.182 72.9358 20.2704 72.7187 20.2704Z"
                                                                fill="#727372" />
                                                        </svg>