     <svg width="118" height="61" viewBox="0 0 128 61" fill="none"
                                                            xmlns="http://www.w3.org/2000/svg">
                                                            <path
                                                                d="M110.4 0.407227H30.3998C28.2226 0.408936 26.084 0.983304 24.1973 2.073C22.3107 3.1627 20.742 4.72962 19.6478 6.61737L11.3118 21.0596C8.09741 22.3291 5.33722 24.5375 3.38879 27.3986C1.44036 30.2597 0.393488 33.6417 0.383789 37.1064V47.4727H14.7838C15.1894 50.9665 16.8608 54.1892 19.4802 56.5281C22.0997 58.8671 25.4846 60.1593 28.9918 60.1593C32.499 60.1593 35.8839 58.8671 38.5033 56.5281C41.1228 54.1892 42.7941 50.9665 43.1998 47.4727H84.1598C84.4537 51.0621 86.083 54.4093 88.7241 56.8495C91.3652 59.2897 94.8248 60.6443 98.4158 60.6443C102.007 60.6443 105.466 59.2897 108.107 56.8495C110.749 54.4093 112.378 51.0621 112.672 47.4727H127.552V17.6737C127.548 13.1067 125.741 8.72707 122.527 5.49174C119.313 2.25641 114.953 0.428427 110.4 0.407227ZM45.1678 19.8721V2.81426H97.2478V19.8721H45.1678ZM21.7438 7.82088C22.6246 6.30054 23.8873 5.03824 25.406 4.1598C26.9248 3.28135 28.6466 2.81743 30.3998 2.81426H42.7518V19.8721H17.5998C16.602 19.8804 15.6066 19.9716 14.6238 20.1449L21.7438 7.82088ZM6.57579 27.3018C6.82386 27.7369 6.95611 28.2287 6.95979 28.73C6.95979 29.1219 6.88281 29.51 6.73325 29.8722C6.5837 30.2343 6.36449 30.5633 6.08814 30.8405C5.81179 31.1176 5.48372 31.3375 5.12265 31.4875C4.76159 31.6375 4.3746 31.7147 3.98379 31.7147H3.85579C4.49349 30.0931 5.41459 28.5988 6.57579 27.3018ZM28.9758 58.2241C26.6182 58.2241 24.3136 57.523 22.3534 56.2093C20.3932 54.8957 18.8653 53.0286 17.9631 50.8441C17.0609 48.6597 16.8249 46.2559 17.2848 43.9369C17.7448 41.6179 18.88 39.4877 20.5471 37.8158C22.2141 36.1439 24.3381 35.0053 26.6503 34.544C28.9626 34.0827 31.3593 34.3194 33.5374 35.2243C35.7155 36.1291 37.5771 37.6614 38.8869 39.6274C40.1967 41.5934 40.8958 43.9047 40.8958 46.2692C40.8916 49.4358 39.6365 52.4717 37.4055 54.7123C35.1744 56.9529 32.1491 58.2156 28.9918 58.2241H28.9758ZM98.4478 58.2241C96.0916 58.2178 93.7901 57.5112 91.8341 56.1938C89.8781 54.8763 88.3553 53.007 87.458 50.8219C86.5607 48.6369 86.3292 46.2342 86.7927 43.9173C87.2563 41.6004 88.3941 39.4732 90.0624 37.8045C91.7307 36.1358 93.8547 35.0004 96.166 34.5417C98.4774 34.083 100.872 34.3216 103.049 35.2274C105.225 36.1332 107.085 37.6655 108.393 39.6307C109.701 41.596 110.4 43.9061 110.4 46.2692C110.396 49.4413 109.136 52.4821 106.898 54.7236C104.66 56.9651 101.627 58.2241 98.4638 58.2241H98.4478ZM125.184 45.0657H112.704C112.41 41.4763 110.781 38.1291 108.139 35.6889C105.498 33.2487 102.039 31.894 98.4478 31.894C94.8568 31.894 91.3972 33.2487 88.7561 35.6889C86.115 38.1291 84.4857 41.4763 84.1918 45.0657H43.1998C42.9058 41.4763 41.2765 38.1291 38.6354 35.6889C35.9944 33.2487 32.5348 31.894 28.9438 31.894C25.3528 31.894 21.8932 33.2487 19.2521 35.6889C16.611 38.1291 14.9817 41.4763 14.6878 45.0657H2.79979V37.1706C2.7998 36.092 2.91242 35.0163 3.13579 33.9612C3.41674 34.0039 3.69985 34.0306 3.98379 34.0415C5.40959 34.0415 6.777 33.4734 7.78519 32.4623C8.79339 31.4511 9.35979 30.0797 9.35979 28.6497C9.34903 27.5256 8.9913 26.4325 8.33579 25.5206C10.9682 23.422 14.2371 22.2896 17.5998 22.3112H125.2L125.184 45.0657ZM99.6478 19.8721V2.81426H110.4C114.328 2.81851 118.094 4.38541 120.872 7.17117C123.649 9.95693 125.212 13.734 125.216 17.6737V19.8721H99.6478Z"
                                                                fill="#727372" />
                                                        </svg>