      <svg width="109" height="58" viewBox="0 0 119 58" fill="none"
                                                            xmlns="http://www.w3.org/2000/svg">
                                                            <path
                                                                d="M118.628 19.8902H60.9877V0.263672H44.1641C42.3895 0.269367 40.6472 0.737168 39.1103 1.62063C37.5733 2.5041 36.2952 3.7725 35.4027 5.29992L26.9537 19.8902H16.5412C14.4212 19.8844 12.3208 20.2949 10.3603 21.0983C8.39985 21.9017 6.61769 23.0822 5.11586 24.5722C3.61402 26.0622 2.422 27.8325 1.608 29.7818C0.794007 31.7311 0.374018 33.8211 0.37207 35.9322V45.501H13.7596C14.0338 48.8373 15.5584 51.9487 18.0304 54.2171C20.5024 56.4854 23.7409 57.7447 27.1024 57.7447C30.464 57.7447 33.7025 56.4854 36.1745 54.2171C38.6465 51.9487 40.1711 48.8373 40.4453 45.501H78.0344C78.3087 48.8373 79.8333 51.9487 82.3053 54.2171C84.7773 56.4854 88.0158 57.7447 91.3773 57.7447C94.7388 57.7447 97.9773 56.4854 100.449 54.2171C102.921 51.9487 104.446 48.8373 104.72 45.501H118.628V19.8902ZM37.3364 6.41086C38.0307 5.21941 39.0264 4.23 40.2244 3.54126C41.4224 2.85252 42.7808 2.48852 44.1641 2.48555H58.8011V19.8902H29.5271L37.3364 6.41086ZM6.09895 26.7484C6.34243 27.1562 6.47091 27.6219 6.47082 28.0964C6.47091 28.8273 6.18242 29.5289 5.66758 30.0499C5.15275 30.5709 4.45286 30.8694 3.71895 30.8811H3.58507C4.18435 29.363 5.05075 27.9635 6.14357 26.7484H6.09895ZM2.5587 35.9322C2.56074 34.9366 2.66541 33.9439 2.87107 32.9697C3.13592 33.0212 3.40458 33.0509 3.67432 33.0585C4.60128 33.0648 5.51173 32.8142 6.30389 32.3348C7.09605 31.8554 7.73872 31.1661 8.16005 30.3438C8.58139 29.5216 8.76479 28.5989 8.68976 27.6788C8.61474 26.7588 8.28423 25.8776 7.73519 25.1339C10.1983 23.1509 13.2697 22.0687 16.4371 22.0677H58.8011V43.2792H40.4751C40.2008 39.9429 38.6762 36.8315 36.2042 34.5632C33.7322 32.2948 30.4937 31.0355 27.1322 31.0355C23.7707 31.0355 20.5322 32.2948 18.0602 34.5632C15.5881 36.8315 14.0636 39.9429 13.7893 43.2792H2.60332L2.5587 35.9322ZM27.1322 55.5143C24.9228 55.5143 22.7629 54.8619 20.9258 53.6395C19.0888 52.4172 17.6569 50.6798 16.8114 48.6472C15.9659 46.6145 15.7447 44.3778 16.1757 42.2199C16.6068 40.062 17.6707 38.0799 19.233 36.5241C20.7953 34.9684 22.7858 33.9089 24.9528 33.4797C27.1198 33.0504 29.3659 33.2707 31.4072 34.1127C33.4485 34.9547 35.1931 36.3805 36.4206 38.2098C37.6481 40.0392 38.3033 42.1899 38.3033 44.3901C38.2994 47.3392 37.1212 50.1664 35.027 52.2518C32.9329 54.3371 30.0938 55.5104 27.1322 55.5143ZM91.3773 55.5143C89.1679 55.5143 87.0081 54.8619 85.171 53.6395C83.3339 52.4172 81.9021 50.6798 81.0565 48.6472C80.211 46.6145 79.9898 44.3778 80.4208 42.2199C80.8519 40.062 81.9158 38.0799 83.4781 36.5241C85.0405 34.9684 87.031 33.9089 89.1979 33.4797C91.3649 33.0504 93.6111 33.2707 95.6523 34.1127C97.6936 34.9547 99.4383 36.3805 100.666 38.2098C101.893 40.0392 102.548 42.1899 102.548 44.3901C102.545 47.3392 101.366 50.1664 99.2721 52.2518C97.178 54.3371 94.3389 55.5104 91.3773 55.5143ZM116.397 43.2792H104.72C104.446 39.9429 102.921 36.8315 100.449 34.5632C97.9773 32.2948 94.7388 31.0355 91.3773 31.0355C88.0158 31.0355 84.7773 32.2948 82.3053 34.5632C79.8333 36.8315 78.3087 39.9429 78.0344 43.2792H60.9877V22.1121H116.397V43.2792Z"
                                                                fill="#727372" />
                                                        </svg>