<svg width="134" height="36" viewBox="0 0 134 36" fill="none" xmlns="http://www.w3.org/2000/svg">
<path d="M111.491 33.4781H111.491C110.447 33.4773 109.446 33.0599 108.707 32.3179C107.969 31.5759 107.554 30.5699 107.552 29.5207V29.5205V4.80865V4.80849C107.553 3.75887 107.969 2.75243 108.707 2.01019C109.446 1.26792 110.448 0.850555 111.492 0.85H111.492L129.75 0.85L129.75 0.85C130.794 0.850832 131.796 1.26818 132.534 2.01019C133.272 2.75217 133.688 3.75819 133.689 4.80744V4.80764L133.689 29.5195L133.689 29.5196C133.688 30.5692 133.273 31.5757 132.534 32.3179C131.795 33.0602 130.794 33.4776 129.749 33.4781H129.749H111.491ZM109.494 2.7991L109.388 2.69328L109.494 2.7991C108.964 3.33173 108.665 4.05408 108.664 4.80794V29.5193C108.665 30.2737 108.963 30.9968 109.493 31.53C110.023 32.0632 110.742 32.3631 111.492 32.3641H129.749C130.499 32.3636 131.218 32.0641 131.748 31.531C132.279 30.998 132.577 30.2749 132.578 29.5204V4.80872C132.577 4.05424 132.279 3.33116 131.748 2.79809C131.218 2.26502 130.499 1.96549 129.749 1.96499L111.492 1.96599C111.491 1.96599 111.491 1.96599 111.491 1.96599C110.742 1.96703 110.024 2.26651 109.494 2.7991Z" fill="#444444" stroke="#444444" stroke-width="0.3"/>
<path d="M118.21 28.8285H121.451C121.949 28.8277 122.426 28.6286 122.778 28.2749C123.129 27.9212 123.327 27.4416 123.328 26.9413V6.92477C123.327 6.42468 123.129 5.94529 122.778 5.59158C122.426 5.23787 121.95 5.03866 121.452 5.0376H118.209C117.711 5.0384 117.234 5.23748 116.883 5.59122C116.531 5.94496 116.333 6.42451 116.332 6.92477V26.9413C116.333 27.4413 116.531 27.9206 116.882 28.2742C117.234 28.6277 117.711 28.8267 118.208 28.8275L118.21 28.8285ZM121.451 5.85157C121.734 5.85184 122.005 5.96503 122.205 6.16626C122.405 6.3675 122.518 6.64032 122.518 6.92477V26.9413C122.517 27.2256 122.405 27.4982 122.205 27.6992C122.005 27.9002 121.734 28.0133 121.451 28.0135H118.209C117.926 28.0133 117.655 27.9002 117.455 27.6992C117.255 27.4982 117.143 27.2256 117.143 26.9413V6.92477C117.143 6.64049 117.255 6.36793 117.455 6.16692C117.655 5.9659 117.926 5.85285 118.209 5.85258L121.451 5.85157Z" fill="#444444"/>
<path d="M119.827 25.5999C119.876 25.5999 119.925 25.5901 119.971 25.571C120.017 25.552 120.058 25.524 120.093 25.4888C120.128 25.4536 120.156 25.4117 120.175 25.3657C120.194 25.3197 120.203 25.2704 120.203 25.2207V8.09992C120.203 7.99961 120.163 7.9034 120.093 7.83246C120.022 7.76153 119.927 7.72168 119.827 7.72168C119.727 7.72168 119.631 7.76153 119.561 7.83246C119.49 7.9034 119.451 7.99961 119.451 8.09992V25.2207C119.451 25.321 119.49 25.4172 119.561 25.4881C119.631 25.5591 119.727 25.5989 119.827 25.5989V25.5999Z" fill="#444444"/>
<path d="M115.415 10.6147H124.239C125.052 10.6147 125.711 11.2772 125.711 12.0944V14.9398C125.711 15.757 125.052 16.4195 124.239 16.4195H115.415C114.603 16.4195 113.944 15.757 113.944 14.9398V12.0944C113.944 11.2772 114.603 10.6147 115.415 10.6147Z" fill="#444444"/>
<path d="M115.415 16.8122H124.239C124.733 16.8116 125.206 16.6141 125.555 16.263C125.905 15.9118 126.101 15.4357 126.102 14.9391V12.0947C126.101 11.5981 125.905 11.122 125.555 10.7709C125.206 10.4197 124.733 10.2222 124.239 10.2217H115.415C114.921 10.2225 114.448 10.4201 114.098 10.7712C113.749 11.1223 113.553 11.5982 113.552 12.0947V14.9391C113.553 15.4358 113.749 15.9119 114.099 16.263C114.448 16.6142 114.922 16.8116 115.416 16.8122H115.415ZM124.239 11.0074C124.525 11.0077 124.8 11.1223 125.003 11.3262C125.206 11.53 125.32 11.8064 125.32 12.0947V14.9391C125.32 15.2272 125.205 15.5034 125.003 15.707C124.8 15.9107 124.525 16.0252 124.239 16.0254H115.415C115.128 16.0252 114.853 15.9107 114.651 15.707C114.448 15.5034 114.334 15.2272 114.333 14.9391V12.0947C114.334 11.8064 114.448 11.53 114.65 11.3262C114.853 11.1223 115.128 11.0077 115.415 11.0074H124.239Z" fill="#444444"/>
<path d="M125.668 8.4533C125.668 8.00097 126.032 7.63428 126.482 7.63428C126.932 7.63428 127.297 8.00097 127.297 8.4533V9.91987C127.297 10.3722 126.932 10.7389 126.482 10.7389C126.032 10.7389 125.668 10.3722 125.668 9.91987V8.4533Z" fill="#444444"/>
<path d="M126.481 15.6936C126.801 15.6934 127.107 15.5655 127.334 15.3382C127.56 15.1109 127.687 14.8027 127.687 14.4812V13.0157C127.692 12.8536 127.664 12.6922 127.605 12.5411C127.547 12.39 127.459 12.2522 127.347 12.1359C127.234 12.0196 127.1 11.9271 126.951 11.864C126.803 11.8008 126.643 11.7683 126.482 11.7683C126.32 11.7683 126.161 11.8008 126.012 11.864C125.864 11.9271 125.729 12.0196 125.617 12.1359C125.504 12.2522 125.416 12.39 125.358 12.5411C125.299 12.6922 125.272 12.8536 125.276 13.0157V14.4812C125.277 14.8023 125.403 15.1103 125.629 15.3375C125.855 15.5648 126.161 15.6928 126.48 15.6936H126.481ZM126.481 12.589C126.594 12.589 126.702 12.634 126.781 12.714C126.861 12.794 126.906 12.9025 126.906 13.0157V14.4812C126.906 14.5372 126.895 14.5926 126.873 14.6443C126.852 14.696 126.821 14.743 126.781 14.7826C126.742 14.8221 126.695 14.8535 126.644 14.8749C126.592 14.8964 126.537 14.9074 126.482 14.9074C126.426 14.9074 126.371 14.8964 126.319 14.8749C126.268 14.8535 126.221 14.8221 126.182 14.7826C126.143 14.743 126.111 14.696 126.09 14.6443C126.069 14.5926 126.058 14.5372 126.058 14.4812V13.0157C126.058 12.9027 126.102 12.7943 126.182 12.7143C126.261 12.6343 126.369 12.5893 126.481 12.589Z" fill="#444444"/>
<path d="M126.479 9.96733C126.04 9.96733 125.684 9.60967 125.684 9.16848C125.684 8.72729 126.04 8.36963 126.479 8.36963C126.918 8.36963 127.273 8.72729 127.273 9.16848C127.273 9.60967 126.918 9.96733 126.479 9.96733Z" fill="#444444"/>
<path d="M126.479 18.8167C126.04 18.8167 125.684 18.459 125.684 18.0178C125.684 17.5766 126.04 17.219 126.479 17.219C126.918 17.219 127.273 17.5766 127.273 18.0178C127.273 18.459 126.918 18.8167 126.479 18.8167Z" fill="#444444"/>
<path d="M126.479 22.0201C126.04 22.0201 125.684 21.6624 125.684 21.2212C125.684 20.78 126.04 20.4224 126.479 20.4224C126.918 20.4224 127.273 20.78 127.273 21.2212C127.273 21.6624 126.918 22.0201 126.479 22.0201Z" fill="#444444"/>
<path d="M126.479 25.2234C126.04 25.2234 125.684 24.8658 125.684 24.4246C125.684 23.9834 126.04 23.6257 126.479 23.6257C126.918 23.6257 127.273 23.9834 127.273 24.4246C127.273 24.8658 126.918 25.2234 126.479 25.2234Z" fill="#444444"/>
<path d="M26.6084 25.1297L27.1284 23.4897C28.3818 23.4897 29.4284 23.4431 30.2684 23.3497C31.1084 23.2431 31.7751 23.1097 32.2684 22.9497C32.7618 22.7764 33.1151 22.5964 33.3284 22.4097C33.5418 22.2231 33.6484 22.0497 33.6484 21.8897C33.6484 21.5697 33.5284 21.2164 33.2884 20.8297C33.0484 20.4431 32.7418 20.0497 32.3684 19.6497C31.9951 19.2364 31.5951 18.8297 31.1684 18.4297C30.7551 18.0297 30.3618 17.663 29.9884 17.3297C29.6151 16.9964 29.3084 16.7097 29.0684 16.4697C28.8284 16.2164 28.7084 16.0364 28.7084 15.9297C28.7084 15.7297 28.7218 15.5364 28.7484 15.3497C28.7884 15.163 28.8351 14.9897 28.8884 14.8297C28.9551 14.6697 29.0351 14.543 29.1284 14.4497C29.4884 14.063 30.0151 13.663 30.7084 13.2497C31.4151 12.823 32.2218 12.3897 33.1284 11.9497C34.0351 11.4964 34.9618 11.0364 35.9084 10.5697L36.5884 12.0497C35.7351 12.4764 34.8818 12.8964 34.0284 13.3097C33.1884 13.723 32.3951 14.1364 31.6484 14.5497C30.9151 14.9497 30.2618 15.3697 29.6884 15.8097L29.8084 15.1297C30.4084 15.6364 30.9751 16.123 31.5084 16.5897C32.0418 17.0564 32.5484 17.5364 33.0284 18.0297C33.5084 18.5097 33.9551 19.0297 34.3684 19.5897C34.7818 20.1497 35.1684 20.7697 35.5284 21.4497C35.7284 21.8364 35.9618 22.1497 36.2284 22.3897C36.5084 22.6164 36.7884 22.7897 37.0684 22.9097C37.3484 23.0164 37.6151 23.0897 37.8684 23.1297C38.1218 23.1564 38.3351 23.1697 38.5084 23.1697C38.7884 23.1697 38.9884 23.2497 39.1084 23.4097C39.2418 23.5564 39.3084 23.7364 39.3084 23.9497C39.3084 24.1631 39.2151 24.3631 39.0284 24.5497C38.8418 24.7231 38.6018 24.8097 38.3084 24.8097C37.9484 24.8097 37.5218 24.7564 37.0284 24.6497C36.5484 24.5297 36.0751 24.3031 35.6084 23.9697C35.1418 23.6364 34.7551 23.1297 34.4484 22.4497L35.0484 22.6897C34.8484 23.0497 34.5751 23.3764 34.2284 23.6697C33.8818 23.9631 33.3951 24.2231 32.7684 24.4497C32.1551 24.6631 31.3484 24.8297 30.3484 24.9497C29.3618 25.0697 28.1151 25.1297 26.6084 25.1297ZM26.6084 25.1297C25.4218 25.1297 24.3751 25.0497 23.4684 24.8897C22.5751 24.7431 21.8284 24.5097 21.2284 24.1897C20.6284 23.8697 20.1751 23.4564 19.8684 22.9497C19.5618 22.4297 19.4084 21.8031 19.4084 21.0697C19.4084 20.7364 19.4351 20.3964 19.4884 20.0497C19.5418 19.6897 19.6084 19.3297 19.6884 18.9697C19.7818 18.6097 19.8751 18.263 19.9684 17.9297L21.4684 18.3097C21.4151 18.5097 21.3551 18.7497 21.2884 19.0297C21.2218 19.2964 21.1618 19.5697 21.1084 19.8497C21.0684 20.1297 21.0484 20.383 21.0484 20.6097C21.0484 21.303 21.2218 21.863 21.5684 22.2897C21.9284 22.7031 22.5484 23.0097 23.4284 23.2097C24.3084 23.3964 25.5418 23.4897 27.1284 23.4897L27.5284 24.4897L26.6084 25.1297ZM38.3006 24.8097L38.5006 23.1697C39.1673 23.1697 39.6873 23.123 40.0606 23.0297C40.4339 22.923 40.7139 22.7297 40.9006 22.4497C41.1006 22.1564 41.2606 21.7364 41.3806 21.1897C41.5006 20.643 41.6473 19.9297 41.8206 19.0497L43.3806 19.3497C43.3273 19.5897 43.2673 19.8564 43.2006 20.1497C43.1339 20.443 43.0739 20.7364 43.0206 21.0297C42.9806 21.3097 42.9606 21.5564 42.9606 21.7697C42.9606 21.9697 42.9739 22.1564 43.0006 22.3297C43.0273 22.5031 43.1273 22.6497 43.3006 22.7697C43.4739 22.8897 43.7673 22.9897 44.1806 23.0697C44.5939 23.1364 45.1873 23.1697 45.9606 23.1697C46.2406 23.1697 46.4406 23.2497 46.5606 23.4097C46.6939 23.5564 46.7606 23.7364 46.7606 23.9497C46.7606 24.1631 46.6673 24.3631 46.4806 24.5497C46.2939 24.7231 46.0539 24.8097 45.7606 24.8097C44.9473 24.8097 44.3006 24.7697 43.8206 24.6897C43.3406 24.5964 42.9739 24.4631 42.7206 24.2897C42.4806 24.1164 42.3073 23.9031 42.2006 23.6497C42.1073 23.3831 42.0339 23.0764 41.9806 22.7297L42.5806 22.7697C42.3673 23.1964 42.1339 23.5431 41.8806 23.8097C41.6406 24.0764 41.3606 24.2831 41.0406 24.4297C40.7206 24.5764 40.3339 24.6764 39.8806 24.7297C39.4406 24.7831 38.9139 24.8097 38.3006 24.8097ZM43.3406 28.5897C43.0606 28.5897 42.8206 28.4897 42.6206 28.2897C42.4339 28.1031 42.3406 27.8764 42.3406 27.6097C42.3406 27.3431 42.4339 27.1097 42.6206 26.9097C42.8206 26.7097 43.0606 26.6097 43.3406 26.6097C43.6073 26.6097 43.8339 26.7097 44.0206 26.9097C44.2206 27.1097 44.3206 27.3431 44.3206 27.6097C44.3206 27.8764 44.2206 28.1031 44.0206 28.2897C43.8339 28.4897 43.6073 28.5897 43.3406 28.5897ZM40.6006 28.5897C40.3206 28.5897 40.0806 28.4897 39.8806 28.2897C39.6939 28.1031 39.6006 27.8764 39.6006 27.6097C39.6006 27.3431 39.6939 27.1097 39.8806 26.9097C40.0806 26.7097 40.3206 26.6097 40.6006 26.6097C40.8673 26.6097 41.0939 26.7097 41.2806 26.9097C41.4806 27.1097 41.5806 27.3431 41.5806 27.6097C41.5806 27.8764 41.4806 28.1031 41.2806 28.2897C41.0939 28.4897 40.8673 28.5897 40.6006 28.5897ZM45.7615 24.8097L45.9615 23.1697C46.7482 23.1697 47.3615 23.1431 47.8015 23.0897C48.2415 23.0231 48.5549 22.8697 48.7415 22.6297C48.9282 22.3764 49.0215 21.9831 49.0215 21.4497C49.0215 21.1164 48.9682 20.723 48.8615 20.2697C48.7549 19.8031 48.6149 19.3097 48.4415 18.7897C48.2682 18.2697 48.0815 17.7564 47.8815 17.2497L49.5015 16.6497C49.6749 17.0764 49.8349 17.563 49.9815 18.1097C50.1415 18.6564 50.2749 19.1964 50.3815 19.7297C50.4882 20.263 50.5415 20.7297 50.5415 21.1297C50.5415 21.7964 50.4482 22.363 50.2615 22.8297C50.0882 23.2964 49.8082 23.6764 49.4215 23.9697C49.0349 24.2631 48.5349 24.4764 47.9215 24.6097C47.3215 24.7431 46.6015 24.8097 45.7615 24.8097ZM50.1215 14.5697C49.8415 14.5697 49.6015 14.4764 49.4015 14.2897C49.2149 14.0897 49.1215 13.8564 49.1215 13.5897C49.1215 13.323 49.2149 13.0897 49.4015 12.8897C49.6015 12.6897 49.8415 12.5897 50.1215 12.5897C50.3882 12.5897 50.6149 12.6897 50.8015 12.8897C51.0015 13.0897 51.1015 13.323 51.1015 13.5897C51.1015 13.8564 51.0015 14.0897 50.8015 14.2897C50.6149 14.4764 50.3882 14.5697 50.1215 14.5697ZM47.3815 14.5697C47.1015 14.5697 46.8615 14.4764 46.6615 14.2897C46.4749 14.0897 46.3815 13.8564 46.3815 13.5897C46.3815 13.323 46.4749 13.0897 46.6615 12.8897C46.8615 12.6897 47.1015 12.5897 47.3815 12.5897C47.6482 12.5897 47.8749 12.6897 48.0615 12.8897C48.2615 13.0897 48.3615 13.323 48.3615 13.5897C48.3615 13.8564 48.2615 14.0897 48.0615 14.2897C47.8749 14.4764 47.6482 14.5697 47.3815 14.5697ZM57.5581 24.8097C56.4914 24.8097 55.6714 24.6897 55.0981 24.4497C54.5381 24.2097 54.1514 23.8364 53.9381 23.3297C53.7248 22.823 53.6048 22.1697 53.5781 21.3697L53.1781 10.4297H54.8181L55.2181 20.7297C55.2448 21.383 55.3048 21.8897 55.3981 22.2497C55.5048 22.5964 55.7314 22.8364 56.0781 22.9697C56.4381 23.1031 56.9981 23.1697 57.7581 23.1697C58.0381 23.1697 58.2381 23.2497 58.3581 23.4097C58.4914 23.5564 58.5581 23.7364 58.5581 23.9497C58.5581 24.1631 58.4648 24.3631 58.2781 24.5497C58.0914 24.7231 57.8514 24.8097 57.5581 24.8097ZM57.5584 24.8097L57.7584 23.1697C58.1318 23.1697 58.4451 23.0897 58.6984 22.9297C58.9518 22.7697 59.1984 22.5031 59.4384 22.1297C59.6784 21.7564 59.9384 21.2564 60.2184 20.6297C60.6051 19.7764 60.9851 19.1297 61.3584 18.6897C61.7451 18.2497 62.1251 17.9497 62.4984 17.7897C62.8851 17.6297 63.2651 17.5497 63.6384 17.5497C64.0918 17.5497 64.5118 17.6697 64.8984 17.9097C65.2851 18.1364 65.6251 18.443 65.9184 18.8297C66.2118 19.2164 66.4384 19.643 66.5984 20.1097C66.7718 20.563 66.8584 21.0164 66.8584 21.4697C66.8584 22.2697 66.7184 22.9097 66.4384 23.3897C66.1584 23.8564 65.7984 24.1964 65.3584 24.4097C64.9318 24.6097 64.4851 24.7097 64.0184 24.7097C63.6051 24.7097 63.0718 24.6297 62.4184 24.4697C61.7784 24.3097 60.9651 23.9031 59.9784 23.2497L60.7584 21.9897C61.4118 22.4031 61.9984 22.6897 62.5184 22.8497C63.0518 22.9964 63.4918 23.0697 63.8384 23.0697C64.2251 23.0697 64.5318 23.0164 64.7584 22.9097C64.9851 22.7897 65.1518 22.6231 65.2584 22.4097C65.3651 22.1964 65.4184 21.9564 65.4184 21.6897C65.4184 21.303 65.3251 20.9164 65.1384 20.5297C64.9518 20.1431 64.7118 19.8231 64.4184 19.5697C64.1384 19.3164 63.8384 19.1897 63.5184 19.1897C63.2784 19.1897 63.0451 19.2564 62.8184 19.3897C62.5918 19.523 62.3584 19.7697 62.1184 20.1297C61.8784 20.4897 61.6051 21.0097 61.2984 21.6897C60.9784 22.4097 60.6718 22.9831 60.3784 23.4097C60.0984 23.8231 59.8118 24.1297 59.5184 24.3297C59.2251 24.5297 58.9184 24.6564 58.5984 24.7097C58.2918 24.7764 57.9451 24.8097 57.5584 24.8097ZM69.2262 29.3097L68.8662 27.6697C69.6662 27.5631 70.3996 27.4097 71.0662 27.2097C71.7462 27.0231 72.3262 26.7497 72.8062 26.3897C73.2996 26.0297 73.6796 25.5564 73.9462 24.9697C74.2129 24.3831 74.3462 23.6497 74.3462 22.7697C74.3462 21.8631 74.1796 21.1097 73.8462 20.5097C73.5129 19.9097 73.0796 19.6097 72.5462 19.6097C72.2662 19.6097 72.0062 19.7164 71.7662 19.9297C71.5262 20.1431 71.3262 20.4297 71.1662 20.7897C71.0196 21.1497 70.9462 21.543 70.9462 21.9697C70.9462 22.2097 70.9996 22.4097 71.1062 22.5697C71.2129 22.7164 71.3662 22.8364 71.5662 22.9297C71.7796 23.0097 72.0462 23.0697 72.3662 23.1097C72.6862 23.1497 73.0596 23.1697 73.4862 23.1697H77.7062C77.9862 23.1697 78.1862 23.2497 78.3062 23.4097C78.4396 23.5564 78.5062 23.7364 78.5062 23.9497C78.5062 24.1631 78.4129 24.3631 78.2262 24.5497C78.0396 24.7231 77.7996 24.8097 77.5062 24.8097H72.7262C72.1262 24.8097 71.5662 24.7231 71.0462 24.5497C70.5396 24.3764 70.1262 24.1097 69.8062 23.7497C69.4996 23.3764 69.3462 22.8897 69.3462 22.2897C69.3462 21.7297 69.4329 21.1964 69.6062 20.6897C69.7796 20.1697 70.0129 19.7097 70.3062 19.3097C70.6129 18.8964 70.9662 18.5697 71.3662 18.3297C71.7796 18.0897 72.2262 17.9697 72.7062 17.9697C73.3196 17.9697 73.8662 18.1497 74.3462 18.5097C74.8262 18.8697 75.2062 19.4164 75.4862 20.1497C75.7662 20.8697 75.9062 21.783 75.9062 22.8897C75.9062 24.1297 75.6529 25.1964 75.1462 26.0897C74.6529 26.9964 73.9062 27.7164 72.9062 28.2497C71.9196 28.7831 70.6929 29.1364 69.2262 29.3097ZM77.4998 24.8097L77.6998 23.1697C78.4865 23.1697 79.0998 23.1431 79.5398 23.0897C79.9798 23.0231 80.2932 22.8697 80.4798 22.6297C80.6665 22.3764 80.7598 21.9831 80.7598 21.4497C80.7598 21.1164 80.7065 20.723 80.5998 20.2697C80.4932 19.8031 80.3532 19.3097 80.1798 18.7897C80.0065 18.2697 79.8198 17.7564 79.6198 17.2497L81.2398 16.6497C81.4132 17.0764 81.5732 17.563 81.7198 18.1097C81.8798 18.6564 82.0132 19.1964 82.1198 19.7297C82.2265 20.263 82.2798 20.7297 82.2798 21.1297C82.2798 21.7964 82.1865 22.363 81.9998 22.8297C81.8265 23.2964 81.5465 23.6764 81.1598 23.9697C80.7732 24.2631 80.2732 24.4764 79.6598 24.6097C79.0598 24.7431 78.3398 24.8097 77.4998 24.8097ZM81.8598 14.5697C81.5798 14.5697 81.3398 14.4764 81.1398 14.2897C80.9532 14.0897 80.8598 13.8564 80.8598 13.5897C80.8598 13.323 80.9532 13.0897 81.1398 12.8897C81.3398 12.6897 81.5798 12.5897 81.8598 12.5897C82.1265 12.5897 82.3532 12.6897 82.5398 12.8897C82.7398 13.0897 82.8398 13.323 82.8398 13.5897C82.8398 13.8564 82.7398 14.0897 82.5398 14.2897C82.3532 14.4764 82.1265 14.5697 81.8598 14.5697ZM79.1198 14.5697C78.8398 14.5697 78.5998 14.4764 78.3998 14.2897C78.2132 14.0897 78.1198 13.8564 78.1198 13.5897C78.1198 13.323 78.2132 13.0897 78.3998 12.8897C78.5998 12.6897 78.8398 12.5897 79.1198 12.5897C79.3865 12.5897 79.6132 12.6897 79.7998 12.8897C79.9998 13.0897 80.0998 13.323 80.0998 13.5897C80.0998 13.8564 79.9998 14.0897 79.7998 14.2897C79.6132 14.4764 79.3865 14.5697 79.1198 14.5697ZM85.3164 24.7097L84.9164 10.4297H86.5364L86.9364 24.7097H85.3164Z" fill="white"/>
</svg>
