<svg viewBox="0 0 103 38" fill="none" xmlns="http://www.w3.org/2000/svg">
<path d="M72.9511 2.5874H78.2067C78.312 2.5874 78.4129 2.62922 78.4873 2.70365C78.5618 2.77808 78.6036 2.87903 78.6036 2.98429C78.6036 3.05192 78.5822 3.11243 78.5529 3.1676V6.19141C78.5527 6.30223 78.5745 6.41198 78.6168 6.51438C78.6592 6.61679 78.7213 6.70983 78.7997 6.78819C78.878 6.86655 78.9711 6.92868 79.0735 6.97104C79.1759 7.01339 79.2857 7.03513 79.3965 7.03501H81.0321C81.1349 7.03501 81.2367 7.01476 81.3317 6.9754C81.4267 6.93605 81.5131 6.87837 81.5858 6.80565C81.6585 6.73293 81.7162 6.64661 81.7555 6.5516C81.7949 6.45659 81.8152 6.35476 81.8152 6.25192V3.21655C81.7627 3.15033 81.7333 3.06876 81.7315 2.98429C81.7314 2.93214 81.7416 2.88047 81.7615 2.83227C81.7814 2.78406 81.8106 2.74026 81.8475 2.70339C81.8844 2.66651 81.9282 2.63728 81.9764 2.61738C82.0246 2.59747 82.0762 2.58729 82.1284 2.5874H92.7224C92.8277 2.5874 92.9286 2.62922 93.003 2.70365C93.0775 2.77808 93.1193 2.87903 93.1193 2.98429C93.1193 3.04569 93.1024 3.10175 93.0775 3.15426V6.21277C93.0775 6.32086 93.0987 6.4279 93.1401 6.52777C93.1815 6.62764 93.2421 6.71838 93.3185 6.79481C93.395 6.87125 93.4857 6.93188 93.5856 6.97325C93.6855 7.01461 93.7925 7.0359 93.9006 7.0359H95.3529C95.5733 7.0359 95.7847 6.94834 95.9406 6.79247C96.0965 6.6366 96.184 6.42519 96.184 6.20476V3.1765C96.1487 3.11851 96.1293 3.05219 96.128 2.98429C96.1278 2.93214 96.138 2.88047 96.1579 2.83227C96.1778 2.78406 96.2071 2.74026 96.2439 2.70339C96.2808 2.66651 96.3246 2.63728 96.3728 2.61738C96.421 2.59747 96.4727 2.58729 96.5248 2.5874H102.063C102.296 2.58764 102.521 2.6806 102.686 2.8459C102.852 3.01121 102.945 3.23538 102.945 3.46927V29.7509C102.945 30.2386 102.549 30.6346 102.063 30.6346H72.9511C72.717 30.6341 72.4927 30.5408 72.3274 30.3751C72.1621 30.2095 72.0692 29.985 72.0692 29.7509V3.46927C72.0697 3.23553 72.1627 3.0115 72.328 2.84622C72.4933 2.68094 72.7173 2.58787 72.9511 2.5874ZM72.9511 29.8408H102.063C102.074 29.8408 102.086 29.8385 102.097 29.834C102.108 29.8294 102.118 29.8228 102.126 29.8144C102.134 29.8061 102.141 29.7962 102.145 29.7853C102.149 29.7744 102.152 29.7627 102.152 29.7509V9.93068H72.863V29.75C72.8627 29.7618 72.8648 29.7735 72.8692 29.7844C72.8735 29.7954 72.8799 29.8054 72.8881 29.8138C72.8963 29.8222 72.9061 29.829 72.9169 29.8336C72.9277 29.8383 72.9393 29.8407 72.9511 29.8408Z" fill="#444444"/>
<path d="M94.525 6.13126C94.3061 6.13126 94.1281 5.95328 94.1281 5.73437V0.396886C94.1281 0.344766 94.1384 0.293157 94.1583 0.245004C94.1783 0.196852 94.2075 0.153099 94.2443 0.116245C94.2812 0.079391 94.325 0.0501566 94.3731 0.0302112C94.4213 0.0102659 94.4729 0 94.525 0C94.5771 0 94.6287 0.0102659 94.6769 0.0302112C94.725 0.0501566 94.7688 0.079391 94.8056 0.116245C94.8425 0.153099 94.8717 0.196852 94.8917 0.245004C94.9116 0.293157 94.9219 0.344766 94.9219 0.396886V5.73526C94.9219 5.95417 94.7439 6.13126 94.525 6.13126Z" fill="#444444"/>
<path d="M80.15 6.13126C79.9311 6.13126 79.7531 5.95328 79.7531 5.73437V0.396886C79.7531 0.291625 79.7949 0.190676 79.8693 0.116245C79.9438 0.0418147 80.0447 0 80.15 0C80.2552 0 80.3562 0.0418147 80.4306 0.116245C80.5051 0.190676 80.5469 0.291625 80.5469 0.396886V5.73526C80.5469 5.95417 80.3698 6.13126 80.15 6.13126Z" fill="#444444"/>
<path d="M96.5783 15.9357C95.3703 15.9357 94.391 14.9564 94.391 13.7484C94.391 12.5403 95.3703 11.561 96.5783 11.561C97.7863 11.561 98.7656 12.5403 98.7656 13.7484C98.7656 14.9564 97.7863 15.9357 96.5783 15.9357Z" fill="#444444"/>
<path d="M90.2892 15.9357C89.0812 15.9357 88.1019 14.9564 88.1019 13.7484C88.1019 12.5403 89.0812 11.561 90.2892 11.561C91.4973 11.561 92.4766 12.5403 92.4766 13.7484C92.4766 14.9564 91.4973 15.9357 90.2892 15.9357Z" fill="#444444"/>
<path d="M84.0002 15.9357C82.7922 15.9357 81.8129 14.9564 81.8129 13.7484C81.8129 12.5403 82.7922 11.561 84.0002 11.561C85.2082 11.561 86.1875 12.5403 86.1875 13.7484C86.1875 14.9564 85.2082 15.9357 84.0002 15.9357Z" fill="#444444"/>
<path d="M96.5783 22.0253C95.3703 22.0253 94.391 21.046 94.391 19.838C94.391 18.6299 95.3703 17.6506 96.5783 17.6506C97.7863 17.6506 98.7656 18.6299 98.7656 19.838C98.7656 21.046 97.7863 22.0253 96.5783 22.0253Z" fill="#444444"/>
<path d="M90.2892 22.0253C89.0812 22.0253 88.1019 21.046 88.1019 19.838C88.1019 18.6299 89.0812 17.6506 90.2892 17.6506C91.4973 17.6506 92.4766 18.6299 92.4766 19.838C92.4766 21.046 91.4973 22.0253 90.2892 22.0253Z" fill="#444444"/>
<path d="M84.0002 22.0253C82.7922 22.0253 81.8129 21.046 81.8129 19.838C81.8129 18.6299 82.7922 17.6506 84.0002 17.6506C85.2082 17.6506 86.1875 18.6299 86.1875 19.838C86.1875 21.046 85.2082 22.0253 84.0002 22.0253Z" fill="#444444"/>
<path d="M96.5783 28.1173C95.3703 28.1173 94.391 27.138 94.391 25.93C94.391 24.722 95.3703 23.7427 96.5783 23.7427C97.7863 23.7427 98.7656 24.722 98.7656 25.93C98.7656 27.138 97.7863 28.1173 96.5783 28.1173Z" fill="#444444"/>
<path d="M90.2892 28.1173C89.0812 28.1173 88.1019 27.138 88.1019 25.93C88.1019 24.722 89.0812 23.7427 90.2892 23.7427C91.4973 23.7427 92.4766 24.722 92.4766 25.93C92.4766 27.138 91.4973 28.1173 90.2892 28.1173Z" fill="#444444"/>
<path d="M84.0002 28.1173C82.7922 28.1173 81.8129 27.138 81.8129 25.93C81.8129 24.722 82.7922 23.7427 84.0002 23.7427C85.2082 23.7427 86.1875 24.722 86.1875 25.93C86.1875 27.138 85.2082 28.1173 84.0002 28.1173Z" fill="#444444"/>
<path d="M77.8674 15.9357C76.6593 15.9357 75.68 14.9564 75.68 13.7484C75.68 12.5403 76.6593 11.561 77.8674 11.561C79.0754 11.561 80.0547 12.5403 80.0547 13.7484C80.0547 14.9564 79.0754 15.9357 77.8674 15.9357Z" fill="#444444"/>
<path d="M77.8674 22.0253C76.6593 22.0253 75.68 21.046 75.68 19.838C75.68 18.6299 76.6593 17.6506 77.8674 17.6506C79.0754 17.6506 80.0547 18.6299 80.0547 19.838C80.0547 21.046 79.0754 22.0253 77.8674 22.0253Z" fill="#444444"/>
</svg>
