<svg width="416" height="288" viewBox="0 0 416 288" fill="none" xmlns="http://www.w3.org/2000/svg">
<rect width="414.776" height="287.433" transform="translate(0.363281 0.267578)" fill="#F3F4F2"/>
<path d="M236.38 147.7C235.582 147.702 234.784 147.748 233.99 147.84C233.197 147.749 232.399 147.702 231.6 147.7C217.69 147.7 206.4 161.12 206.4 177.7C206.4 194.28 217.69 207.7 231.6 207.7H236.38C250.29 207.7 261.57 194.28 261.57 177.7C261.57 161.12 250.29 147.7 236.38 147.7Z" fill="#C9CAC8"/>
<path d="M244.24 178.64C250.18 178.64 254.99 170.82 254.99 161.16C254.99 151.5 250.18 143.69 244.24 143.69C238.3 143.69 233.49 151.51 233.49 161.16C233.49 170.81 238.31 178.64 244.24 178.64Z" fill="#E5E6E4"/>
<path d="M322.41 145.92H311.56C307.26 145.92 303.77 156.25 303.77 169C303.77 181.75 307.26 192.08 311.56 192.08H322.41C326.71 192.08 330.2 181.74 330.2 169C330.2 156.26 326.71 145.92 322.41 145.92Z" fill="#C9CAC8"/>
<path d="M117.64 147.7C116.841 147.702 116.043 147.749 115.25 147.84C114.457 147.748 113.659 147.702 112.86 147.7C98.9499 147.7 87.6699 161.12 87.6699 177.7C87.6699 194.28 98.9499 207.7 112.86 207.7H117.64C131.55 207.7 142.83 194.28 142.83 177.7C142.83 161.12 131.54 147.7 117.64 147.7Z" fill="#C9CAC8"/>
<path d="M323.41 185.54C326.26 185.54 328.58 178.09 328.58 168.89C328.58 159.69 326.26 152.23 323.41 152.23C320.56 152.23 318.24 159.69 318.24 168.89C318.24 178.09 320.55 185.54 323.41 185.54Z" fill="white"/>
<path d="M329.45 119.35C328.194 116.816 326.319 114.638 324 113.02C324 113.02 310.72 97.41 293.94 89.02C292.34 88.22 290.7 87.48 289.05 86.83C270.05 79.42 247.97 80.3 231.42 80.3C214.87 80.3 188.5 81.3 173.28 85.93C171.241 86.5807 169.258 87.3933 167.35 88.36C161.365 91.4852 155.646 95.0938 150.25 99.15C140.52 106.15 131.7 113.58 127.97 115.4C121.45 118.56 102.97 126.76 102.97 126.85C102.97 126.94 93.4496 130.98 93.4496 130.98L90.2196 132.56C88.7096 133.18 87.2196 133.56 86.3196 135.78C86.3196 135.78 79.3896 147.67 80.4796 173.26C80.6596 177.64 81.5696 196.39 90.0196 196.39C106.17 196.39 181.28 192.78 226.02 198.52C258.34 202.67 259.02 183.36 285.77 182.96C330.67 182.29 332.55 172.52 332.55 172.52C332.55 172.52 335.14 170.44 335.14 150.52C335.14 130.6 329.94 120.36 329.45 119.35Z" fill="#E5E6E4"/>
<path d="M241.391 135.21C241.391 135.21 296.391 133.86 316.991 125.33C318.892 124.565 320.972 124.358 322.987 124.736C325.001 125.113 326.866 126.058 328.361 127.46C325.273 127.187 322.168 127.735 319.361 129.05C315.101 131.2 308.051 135.05 298.671 137.14C287.541 139.6 264.371 139.96 241.391 135.21Z" fill="white"/>
<path d="M298.05 111.68C298.05 111.68 273.97 124.51 256.5 118.54C251.6 116.86 258.38 106.78 266.6 106.78C271.94 106.78 273.6 112.35 280.21 113.24C291.18 114.72 298.05 111.68 298.05 111.68Z" fill="white"/>
<path d="M293.941 89.0395C292.341 88.2395 290.701 87.4995 289.051 86.8495C270.051 79.4395 247.971 80.3195 231.421 80.3195C214.871 80.3195 188.501 81.3195 173.281 85.9495C171.243 86.6002 169.26 87.4128 167.351 88.3795C153.351 95.1695 144.481 104.43 132.071 110.89C119.661 117.35 87.8809 133.66 87.8809 133.66C87.8809 137.05 103.591 140.11 130.521 141.25C157.451 142.39 189.431 139.03 197.231 137.79C213.861 135.15 236.041 123.11 255.791 91.7895C263.641 79.3295 293.981 89.0595 293.981 89.0595L293.941 89.0395Z" fill="white"/>
<path d="M322.001 139.96C316.371 139.96 311.811 151.27 311.811 168.89C312.81 168.888 313.77 168.502 314.491 167.81C315.193 167.098 315.603 166.149 315.641 165.15C316.251 152.98 319.861 143.64 324.221 143.64C326.691 143.64 328.911 146.64 330.501 151.48C328.731 142.78 325.581 139.96 322.001 139.96Z" fill="white"/>
<path d="M314.791 147.83C312.061 155.61 300.651 160.46 283.091 156.35C252.021 149.1 244.711 156.81 244.711 156.81C244.711 156.81 255.791 149.94 287.531 162.06C298.731 166.34 312.101 159.18 314.461 156.81C316.821 154.44 315.131 150.81 315.131 150.81L314.791 147.83Z" fill="white"/>
</svg>
