<svg width="66" height="59" viewBox="0 0 66 59" fill="none" xmlns="http://www.w3.org/2000/svg">
<g filter="url(#filter0_dii_3545_30046)">
<g filter="url(#filter1_ii_3545_30046)">
<rect x="3" width="60" height="52" rx="8" fill="#D3D3D3"/>
</g>
<g filter="url(#filter2_dii_3545_30046)">
<path d="M19.2816 16.1994C19.7376 14.2555 21.2555 12.7376 23.1994 12.2816C23.9891 12.0964 24.8109 12.0964 25.6006 12.2816C27.5445 12.7376 29.0624 14.2555 29.5184 16.1994C29.7036 16.9891 29.7036 17.8109 29.5184 18.6006C29.0624 20.5445 27.5445 22.0624 25.6006 22.5184C24.8109 22.7036 23.9891 22.7036 23.1994 22.5184C21.2555 22.0624 19.7376 20.5445 19.2816 18.6006C19.0964 17.8109 19.0964 16.9891 19.2816 16.1994Z" fill="white" stroke="white" stroke-width="3"/>
<path d="M19.2816 32.9992C19.7376 31.0553 21.2555 29.5374 23.1994 29.0814C23.9891 28.8962 24.8109 28.8962 25.6006 29.0814C27.5445 29.5374 29.0624 31.0553 29.5184 32.9992C29.7036 33.7889 29.7036 34.6107 29.5184 35.4004C29.0624 37.3444 27.5445 38.8622 25.6006 39.3182C24.8109 39.5034 23.9891 39.5034 23.1994 39.3182C21.2555 38.8622 19.7376 37.3444 19.2816 35.4004C19.0964 34.6107 19.0964 33.7889 19.2816 32.9992Z" fill="white" stroke="white" stroke-width="3"/>
<path d="M37.1218 15.8887C37.499 14.1346 38.836 12.7449 40.5741 12.3001C41.3436 12.1032 42.1502 12.1032 42.9197 12.3001C44.6578 12.7449 45.9948 14.1346 46.3719 15.8887L46.4544 16.2723C46.6142 17.0156 46.6142 17.7844 46.4544 18.5277L46.3719 18.9113C45.9948 20.6654 44.6578 22.0551 42.9196 22.4999C42.1502 22.6968 41.3436 22.6968 40.5741 22.4999C38.836 22.0551 37.499 20.6654 37.1218 18.9113L37.0394 18.5277C36.8795 17.7844 36.8795 17.0156 37.0394 16.2723L37.1218 15.8887Z" fill="white" stroke="white" stroke-width="3"/>
<path d="M37.1218 32.6885C37.499 30.9344 38.836 29.5447 40.5741 29.0999C41.3436 28.903 42.1502 28.903 42.9197 29.0999C44.6578 29.5447 45.9948 30.9344 46.3719 32.6885L46.4544 33.0721C46.6142 33.8154 46.6142 34.5842 46.4544 35.3275L46.3719 35.7111C45.9948 37.4652 44.6578 38.8549 42.9196 39.2997C42.1502 39.4966 41.3436 39.4966 40.5741 39.2997C38.836 38.8549 37.499 37.4652 37.1218 35.7111L37.0394 35.3275C36.8795 34.5842 36.8795 33.8154 37.0394 33.0721L37.1218 32.6885Z" fill="white" stroke="white" stroke-width="3"/>
</g>
</g>
<defs>
<filter id="filter0_dii_3545_30046" x="0" y="-1" width="66" height="60" filterUnits="userSpaceOnUse" color-interpolation-filters="sRGB">
<feFlood flood-opacity="0" result="BackgroundImageFix"/>
<feColorMatrix in="SourceAlpha" type="matrix" values="0 0 0 0 0 0 0 0 0 0 0 0 0 0 0 0 0 0 127 0" result="hardAlpha"/>
<feOffset dy="4"/>
<feGaussianBlur stdDeviation="1.5"/>
<feComposite in2="hardAlpha" operator="out"/>
<feColorMatrix type="matrix" values="0 0 0 0 0 0 0 0 0 0 0 0 0 0 0 0 0 0 0.08 0"/>
<feBlend mode="normal" in2="BackgroundImageFix" result="effect1_dropShadow_3545_30046"/>
<feBlend mode="normal" in="SourceGraphic" in2="effect1_dropShadow_3545_30046" result="shape"/>
<feColorMatrix in="SourceAlpha" type="matrix" values="0 0 0 0 0 0 0 0 0 0 0 0 0 0 0 0 0 0 127 0" result="hardAlpha"/>
<feOffset dy="4"/>
<feGaussianBlur stdDeviation="2"/>
<feComposite in2="hardAlpha" operator="arithmetic" k2="-1" k3="1"/>
<feColorMatrix type="matrix" values="0 0 0 0 1 0 0 0 0 1 0 0 0 0 1 0 0 0 0.38 0"/>
<feBlend mode="normal" in2="shape" result="effect2_innerShadow_3545_30046"/>
<feColorMatrix in="SourceAlpha" type="matrix" values="0 0 0 0 0 0 0 0 0 0 0 0 0 0 0 0 0 0 127 0" result="hardAlpha"/>
<feOffset dy="-1"/>
<feGaussianBlur stdDeviation="1"/>
<feComposite in2="hardAlpha" operator="arithmetic" k2="-1" k3="1"/>
<feColorMatrix type="matrix" values="0 0 0 0 0 0 0 0 0 0 0 0 0 0 0 0 0 0 0.15 0"/>
<feBlend mode="normal" in2="effect2_innerShadow_3545_30046" result="effect3_innerShadow_3545_30046"/>
</filter>
<filter id="filter1_ii_3545_30046" x="3" y="-2" width="60" height="58" filterUnits="userSpaceOnUse" color-interpolation-filters="sRGB">
<feFlood flood-opacity="0" result="BackgroundImageFix"/>
<feBlend mode="normal" in="SourceGraphic" in2="BackgroundImageFix" result="shape"/>
<feColorMatrix in="SourceAlpha" type="matrix" values="0 0 0 0 0 0 0 0 0 0 0 0 0 0 0 0 0 0 127 0" result="hardAlpha"/>
<feOffset dy="4"/>
<feGaussianBlur stdDeviation="2"/>
<feComposite in2="hardAlpha" operator="arithmetic" k2="-1" k3="1"/>
<feColorMatrix type="matrix" values="0 0 0 0 1 0 0 0 0 1 0 0 0 0 1 0 0 0 0.38 0"/>
<feBlend mode="normal" in2="shape" result="effect1_innerShadow_3545_30046"/>
<feColorMatrix in="SourceAlpha" type="matrix" values="0 0 0 0 0 0 0 0 0 0 0 0 0 0 0 0 0 0 127 0" result="hardAlpha"/>
<feOffset dy="-2"/>
<feGaussianBlur stdDeviation="1"/>
<feComposite in2="hardAlpha" operator="arithmetic" k2="-1" k3="1"/>
<feColorMatrix type="matrix" values="0 0 0 0 0 0 0 0 0 0 0 0 0 0 0 0 0 0 0.15 0"/>
<feBlend mode="normal" in2="effect1_innerShadow_3545_30046" result="effect2_innerShadow_3545_30046"/>
</filter>
<filter id="filter2_dii_3545_30046" x="14.6406" y="9.64258" width="36.4375" height="38.3145" filterUnits="userSpaceOnUse" color-interpolation-filters="sRGB">
<feFlood flood-opacity="0" result="BackgroundImageFix"/>
<feColorMatrix in="SourceAlpha" type="matrix" values="0 0 0 0 0 0 0 0 0 0 0 0 0 0 0 0 0 0 127 0" result="hardAlpha"/>
<feOffset dy="4"/>
<feGaussianBlur stdDeviation="1.5"/>
<feComposite in2="hardAlpha" operator="out"/>
<feColorMatrix type="matrix" values="0 0 0 0 0 0 0 0 0 0 0 0 0 0 0 0 0 0 0.08 0"/>
<feBlend mode="normal" in2="BackgroundImageFix" result="effect1_dropShadow_3545_30046"/>
<feBlend mode="normal" in="SourceGraphic" in2="effect1_dropShadow_3545_30046" result="shape"/>
<feColorMatrix in="SourceAlpha" type="matrix" values="0 0 0 0 0 0 0 0 0 0 0 0 0 0 0 0 0 0 127 0" result="hardAlpha"/>
<feOffset dy="4"/>
<feGaussianBlur stdDeviation="2"/>
<feComposite in2="hardAlpha" operator="arithmetic" k2="-1" k3="1"/>
<feColorMatrix type="matrix" values="0 0 0 0 1 0 0 0 0 1 0 0 0 0 1 0 0 0 0.38 0"/>
<feBlend mode="normal" in2="shape" result="effect2_innerShadow_3545_30046"/>
<feColorMatrix in="SourceAlpha" type="matrix" values="0 0 0 0 0 0 0 0 0 0 0 0 0 0 0 0 0 0 127 0" result="hardAlpha"/>
<feOffset dy="-1"/>
<feGaussianBlur stdDeviation="1"/>
<feComposite in2="hardAlpha" operator="arithmetic" k2="-1" k3="1"/>
<feColorMatrix type="matrix" values="0 0 0 0 0 0 0 0 0 0 0 0 0 0 0 0 0 0 0.15 0"/>
<feBlend mode="normal" in2="effect2_innerShadow_3545_30046" result="effect3_innerShadow_3545_30046"/>
</filter>
</defs>
</svg>
