<svg width="107" height="107" viewBox="0 0 107 107" fill="none" xmlns="http://www.w3.org/2000/svg">
<path d="M53.5 0C39.3109 -1.69203e-07 25.703 5.63659 15.6698 15.6698C5.63659 25.703 1.24045e-06 39.3109 0 53.5C-1.24045e-06 67.6891 5.63659 81.297 15.6698 91.3302C25.703 101.363 39.3109 107 53.5 107L53.5 53.5V0Z" fill="#626262"/>
<path d="M53.5 107C67.6891 107 81.297 101.363 91.3302 91.3302C101.363 81.297 107 67.6891 107 53.5C107 39.3109 101.363 25.703 91.3302 15.6698C81.297 5.6366 67.6891 2.76272e-06 53.5 0L53.5 53.5L53.5 107Z" fill="#696969"/>
<path d="M53.5 52.4551L67.0049 64.4017" stroke="#FED215" stroke-width="2" stroke-linecap="round"/>
<path d="M53.5 20.7886V52.473" stroke="#FED215" stroke-width="2" stroke-linecap="round"/>
</svg>
