<svg width="101" height="33" viewBox="0 0 101 33" fill="none" xmlns="http://www.w3.org/2000/svg">
<path d="M15.1561 22.02C15.1561 21.54 15.2228 21.0067 15.3561 20.42C15.4895 19.8333 15.7028 19.1867 15.9961 18.48L17.4361 19.04C17.2228 19.6 17.0628 20.1133 16.9561 20.58C16.8495 21.0467 16.7961 21.48 16.7961 21.88C16.7961 22.6133 16.9761 23.2067 17.3361 23.66C17.7095 24.1267 18.2028 24.4667 18.8161 24.68C19.4428 24.8933 20.1295 25 20.8761 25C21.7828 25 22.5428 24.9 23.1561 24.7C23.7695 24.5133 24.2561 24.2533 24.6161 23.92C24.9761 23.5867 25.2295 23.2067 25.3761 22.78C25.5361 22.3667 25.6161 21.9333 25.6161 21.48C25.6161 20.8933 25.5695 20.34 25.4761 19.82C25.3961 19.3 25.2828 18.7933 25.1361 18.3C25.0028 17.7933 24.8561 17.28 24.6961 16.76L26.3161 16.32C26.4628 16.8267 26.5761 17.24 26.6561 17.56C26.7361 17.8667 26.7961 18.1133 26.8361 18.3C26.8895 18.4867 26.9361 18.6533 26.9761 18.8C27.1228 19.2933 27.3161 19.66 27.5561 19.9C27.7961 20.1267 28.0695 20.28 28.3761 20.36C28.6961 20.4267 29.0228 20.46 29.3561 20.46C29.6361 20.46 29.8361 20.54 29.9561 20.7C30.0895 20.8467 30.1561 21.0267 30.1561 21.24C30.1561 21.4533 30.0628 21.6533 29.8761 21.84C29.6895 22.0133 29.4495 22.1 29.1561 22.1C28.5961 22.1 28.1295 22.0067 27.7561 21.82C27.3828 21.62 27.0895 21.3733 26.8761 21.08C26.6761 20.7867 26.5428 20.48 26.4761 20.16L27.2961 21.18C27.2561 21.86 27.1228 22.52 26.8961 23.16C26.6828 23.8133 26.3361 24.4 25.8561 24.92C25.3761 25.4533 24.7228 25.8733 23.8961 26.18C23.0828 26.4867 22.0561 26.64 20.8161 26.64C20.0561 26.64 19.3361 26.5467 18.6561 26.36C17.9761 26.1733 17.3695 25.8867 16.8361 25.5C16.3161 25.1267 15.9028 24.6467 15.5961 24.06C15.3028 23.4867 15.1561 22.8067 15.1561 22.02ZM21.1961 14.04C20.9161 14.04 20.6761 13.9467 20.4761 13.76C20.2895 13.56 20.1961 13.3267 20.1961 13.06C20.1961 12.7933 20.2895 12.56 20.4761 12.36C20.6761 12.16 20.9161 12.06 21.1961 12.06C21.4628 12.06 21.6895 12.16 21.8761 12.36C22.0761 12.56 22.1761 12.7933 22.1761 13.06C22.1761 13.3267 22.0761 13.56 21.8761 13.76C21.6895 13.9467 21.4628 14.04 21.1961 14.04ZM29.1655 22.1L29.3655 20.46C30.1522 20.46 30.7655 20.4333 31.2055 20.38C31.6455 20.3133 31.9588 20.16 32.1455 19.92C32.3322 19.6667 32.4255 19.2733 32.4255 18.74C32.4255 18.4067 32.3722 18.0133 32.2655 17.56C32.1588 17.0933 32.0188 16.6 31.8455 16.08C31.6722 15.56 31.4855 15.0467 31.2855 14.54L32.9055 13.94C33.0788 14.3667 33.2388 14.8533 33.3855 15.4C33.5455 15.9467 33.6788 16.4867 33.7855 17.02C33.8922 17.5533 33.9455 18.02 33.9455 18.42C33.9455 19.0867 33.8522 19.6533 33.6655 20.12C33.4922 20.5867 33.2122 20.9667 32.8255 21.26C32.4388 21.5533 31.9388 21.7667 31.3255 21.9C30.7255 22.0333 30.0055 22.1 29.1655 22.1ZM32.8655 25.88C32.5855 25.88 32.3455 25.78 32.1455 25.58C31.9588 25.3933 31.8655 25.1667 31.8655 24.9C31.8655 24.6333 31.9588 24.4 32.1455 24.2C32.3455 24 32.5855 23.9 32.8655 23.9C33.1322 23.9 33.3588 24 33.5455 24.2C33.7455 24.4 33.8455 24.6333 33.8455 24.9C33.8455 25.1667 33.7455 25.3933 33.5455 25.58C33.3588 25.78 33.1322 25.88 32.8655 25.88ZM30.1255 25.88C29.8455 25.88 29.6055 25.78 29.4055 25.58C29.2188 25.3933 29.1255 25.1667 29.1255 24.9C29.1255 24.6333 29.2188 24.4 29.4055 24.2C29.6055 24 29.8455 23.9 30.1255 23.9C30.3922 23.9 30.6188 24 30.8055 24.2C31.0055 24.4 31.1055 24.6333 31.1055 24.9C31.1055 25.1667 31.0055 25.3933 30.8055 25.58C30.6188 25.78 30.3922 25.88 30.1255 25.88ZM35.2221 26.64L34.6421 25.12C35.6154 24.8 36.4221 24.4333 37.0621 24.02C37.7154 23.6067 38.2287 23.1667 38.6021 22.7C38.9887 22.2333 39.2621 21.76 39.4221 21.28C39.5821 20.7867 39.6621 20.3133 39.6621 19.86C39.6621 19.2067 39.5154 18.5467 39.2221 17.88C38.9421 17.2 38.6287 16.56 38.2821 15.96L39.7421 15.22C39.9954 15.6867 40.2154 16.1467 40.4021 16.6C40.6021 17.0533 40.7754 17.48 40.9221 17.88C41.0821 18.28 41.2087 18.6467 41.3021 18.98C41.4887 19.5533 41.7287 19.9467 42.0221 20.16C42.3287 20.36 42.7421 20.46 43.2621 20.46C43.5421 20.46 43.7421 20.54 43.8621 20.7C43.9954 20.8467 44.0621 21.0267 44.0621 21.24C44.0621 21.4533 43.9687 21.6533 43.7821 21.84C43.5954 22.0133 43.3554 22.1 43.0621 22.1C42.4754 22.1 41.9954 22 41.6221 21.8C41.2621 21.5867 40.9887 21.3133 40.8021 20.98C40.6154 20.6333 40.4887 20.2733 40.4221 19.9L41.0621 20.26C41.0621 21.14 40.8621 21.94 40.4621 22.66C40.0754 23.3933 39.5754 24.0267 38.9621 24.56C38.3487 25.1067 37.7087 25.5533 37.0421 25.9C36.3754 26.2467 35.7687 26.4933 35.2221 26.64ZM38.4021 12.92C38.1221 12.92 37.8821 12.8267 37.6821 12.64C37.4954 12.44 37.4021 12.2067 37.4021 11.94C37.4021 11.6733 37.4954 11.44 37.6821 11.24C37.8821 11.04 38.1221 10.94 38.4021 10.94C38.6687 10.94 38.8954 11.04 39.0821 11.24C39.2821 11.44 39.3821 11.6733 39.3821 11.94C39.3821 12.2067 39.2821 12.44 39.0821 12.64C38.8954 12.8267 38.6687 12.92 38.4021 12.92ZM43.0718 22.1L43.2718 20.46C43.8318 20.46 44.2718 20.4133 44.5918 20.32C44.9118 20.2133 45.1518 20.02 45.3118 19.74C45.4851 19.4467 45.6318 19.0267 45.7518 18.48C45.8718 17.9333 46.0184 17.22 46.1918 16.34L47.7518 16.64C47.6984 16.88 47.6384 17.1467 47.5718 17.44C47.5051 17.7333 47.4451 18.0267 47.3918 18.32C47.3518 18.6 47.3318 18.8467 47.3318 19.06C47.3318 19.3267 47.3918 19.5667 47.5118 19.78C47.6318 19.9933 47.8918 20.16 48.2918 20.28C48.6918 20.4 49.3051 20.46 50.1318 20.46C50.4118 20.46 50.6118 20.54 50.7318 20.7C50.8651 20.8467 50.9318 21.0267 50.9318 21.24C50.9318 21.4533 50.8384 21.6533 50.6518 21.84C50.4651 22.0133 50.2251 22.1 49.9318 22.1C49.0651 22.1 48.3851 22.0267 47.8918 21.88C47.3984 21.72 47.0384 21.4867 46.8118 21.18C46.5851 20.86 46.4318 20.4733 46.3518 20.02L46.9518 20.06C46.7384 20.4867 46.5051 20.8333 46.2518 21.1C46.0118 21.3667 45.7451 21.5733 45.4518 21.72C45.1584 21.8667 44.8184 21.9667 44.4318 22.02C44.0451 22.0733 43.5918 22.1 43.0718 22.1ZM46.1918 14.28C45.9118 14.28 45.6718 14.1867 45.4718 14C45.2851 13.8 45.1918 13.5667 45.1918 13.3C45.1918 13.0333 45.2851 12.8 45.4718 12.6C45.6718 12.4 45.9118 12.3 46.1918 12.3C46.4584 12.3 46.6851 12.4 46.8718 12.6C47.0718 12.8 47.1718 13.0333 47.1718 13.3C47.1718 13.5667 47.0718 13.8 46.8718 14C46.6851 14.1867 46.4584 14.28 46.1918 14.28ZM49.9272 22.1L50.1272 20.46C50.7806 20.46 51.3006 20.42 51.6872 20.34C52.0739 20.26 52.3539 20.1 52.5272 19.86C52.7006 19.6067 52.7872 19.2333 52.7872 18.74C52.7872 18.4067 52.7339 18.0133 52.6272 17.56C52.5206 17.0933 52.3806 16.6 52.2072 16.08C52.0339 15.56 51.8472 15.0467 51.6472 14.54L53.2672 13.94C53.4406 14.3667 53.6006 14.8533 53.7472 15.4C53.9072 15.9467 54.0406 16.4867 54.1472 17.02C54.2539 17.5533 54.3072 18.02 54.3072 18.42C54.3072 18.9533 54.2472 19.4267 54.1272 19.84C54.0206 20.24 53.8539 20.5867 53.6272 20.88C53.4006 21.16 53.1072 21.3933 52.7472 21.58C52.4006 21.7533 51.9939 21.8867 51.5272 21.98C51.0606 22.06 50.5272 22.1 49.9272 22.1ZM52.0672 25.82C51.7872 25.82 51.5472 25.72 51.3472 25.52C51.1606 25.3333 51.0672 25.1067 51.0672 24.84C51.0672 24.5733 51.1606 24.34 51.3472 24.14C51.5472 23.94 51.7872 23.84 52.0672 23.84C52.3339 23.84 52.5606 23.94 52.7472 24.14C52.9472 24.34 53.0472 24.5733 53.0472 24.84C53.0472 25.1067 52.9472 25.3333 52.7472 25.52C52.5606 25.72 52.3339 25.82 52.0672 25.82Z" fill="white"/>
<path d="M84.3442 29.7635H97.4973C97.8455 29.7746 98.1925 29.7156 98.5175 29.59C98.8425 29.4644 99.139 29.2747 99.3892 29.0322C99.6395 28.7898 99.8384 28.4995 99.9742 28.1786C100.11 27.8577 100.18 27.5127 100.18 27.1643V2.80986C100.153 2.09993 99.8461 1.42951 99.3259 0.945698C98.8057 0.461888 98.1148 0.204209 97.4048 0.229201H84.2517C83.9112 0.221572 83.5726 0.283179 83.2566 0.410288C82.9405 0.537397 82.6536 0.72736 82.4132 0.968661C82.1727 1.20996 81.9838 1.49758 81.8578 1.81407C81.7319 2.13056 81.6715 2.46934 81.6803 2.80986V27.1643C81.6815 27.5108 81.7516 27.8536 81.8867 28.1726C82.0218 28.4917 82.2191 28.7806 82.4671 29.0226C82.7151 29.2646 83.0088 29.4547 83.3311 29.5819C83.6534 29.7091 83.9978 29.7708 84.3442 29.7635ZM97.4973 2.01439C97.6045 2.01069 97.7114 2.02845 97.8116 2.06665C97.9119 2.10485 98.0035 2.16271 98.081 2.23683C98.1586 2.31094 98.2205 2.39982 98.2633 2.49823C98.306 2.59663 98.3286 2.70259 98.3297 2.80986V27.1643C98.3297 27.3777 98.245 27.5824 98.0941 27.7333C97.9431 27.8842 97.7385 27.969 97.525 27.969H84.3442C84.1228 27.972 83.9086 27.8904 83.7453 27.7408C83.5821 27.5913 83.482 27.3851 83.4655 27.1643V2.80986C83.4842 2.59072 83.5853 2.3868 83.7483 2.23919C83.9114 2.09158 84.1243 2.01125 84.3442 2.01439H97.4973Z" fill="#444444"/>
<path d="M75.6373 29.7632C76.0647 29.7669 76.4887 29.6858 76.8847 29.5248C77.2807 29.3637 77.6408 29.1259 77.9444 28.8249C78.248 28.5239 78.4889 28.1658 78.6533 27.7712C78.8178 27.3766 78.9024 26.9533 78.9024 26.5258V19.5886C78.9024 19.0979 79.0973 18.6274 79.4442 18.2805C79.7912 17.9335 80.2617 17.7386 80.7523 17.7386H82.075C82.3203 17.7386 82.5556 17.6412 82.7291 17.4677C82.9025 17.2942 83 17.059 83 16.8137C83 16.5683 82.9025 16.3331 82.7291 16.1596C82.5556 15.9861 82.3203 15.8887 82.075 15.8887H80.7523C79.7711 15.8887 78.83 16.2785 78.1361 16.9724C77.4423 17.6662 77.0525 18.6073 77.0525 19.5886V26.5258C77.0525 26.8938 76.9063 27.2467 76.6461 27.5069C76.3859 27.7671 76.033 27.9133 75.665 27.9133C75.297 27.9133 74.9441 27.7671 74.6839 27.5069C74.4237 27.2467 74.2775 26.8938 74.2775 26.5258V14.3162L77.1727 7.84146C77.3457 7.48065 77.6173 7.17621 77.9562 6.9634C78.295 6.75059 78.6872 6.63812 79.0874 6.639H79.7626C80.0079 6.639 80.2432 6.54155 80.4167 6.36808C80.5901 6.19462 80.6876 5.95935 80.6876 5.71403C80.6876 5.46871 80.5901 5.23345 80.4167 5.05998C80.2432 4.88651 80.0079 4.78906 79.7626 4.78906H79.0874C78.3183 4.78867 77.5656 5.01126 76.9204 5.42989C76.2752 5.84851 75.7653 6.44522 75.4523 7.14773L72.4831 13.7705C72.4288 13.8896 72.4005 14.0189 72.3999 14.1497V26.5258C72.3999 27.3844 72.7409 28.2079 73.3481 28.815C73.9552 29.4221 74.7786 29.7632 75.6373 29.7632Z" fill="#444444"/>
<path d="M86.3019 6.639H95.5516C95.7969 6.639 96.0322 6.54155 96.2056 6.36808C96.3791 6.19462 96.4766 5.95935 96.4766 5.71403C96.4766 5.46871 96.3791 5.23344 96.2056 5.05998C96.0322 4.88651 95.7969 4.78906 95.5516 4.78906H86.3019C86.0566 4.78906 85.8213 4.88651 85.6479 5.05998C85.4744 5.23344 85.3769 5.46871 85.3769 5.71403C85.3769 5.95935 85.4744 6.19462 85.6479 6.36808C85.8213 6.54155 86.0566 6.639 86.3019 6.639Z" fill="#444444"/>
<path d="M86.3019 10.3363H95.5516C95.7969 10.3363 96.0322 10.2388 96.2056 10.0653C96.3791 9.89188 96.4766 9.65661 96.4766 9.4113C96.4766 9.16598 96.3791 8.93071 96.2056 8.75725C96.0322 8.58378 95.7969 8.48633 95.5516 8.48633H86.3019C86.0566 8.48633 85.8213 8.58378 85.6479 8.75725C85.4744 8.93071 85.3769 9.16598 85.3769 9.4113C85.3769 9.65661 85.4744 9.89188 85.6479 10.0653C85.8213 10.2388 86.0566 10.3363 86.3019 10.3363Z" fill="#444444"/>
</svg>
