<svg width="42" height="37" viewBox="0 0 42 37" fill="none" xmlns="http://www.w3.org/2000/svg">
<path d="M10.5016 20.446L10.4938 20.446L10.486 20.4452C10.0156 20.3985 9.56021 20.2537 9.14923 20.0203C8.74154 19.7887 8.38652 19.475 8.10669 19.099L1.51657 12.5138C1.31557 12.3381 1.1528 12.1231 1.03838 11.8819C0.923201 11.6392 0.859509 11.3753 0.851311 11.1067L0.851 11.1068L0.851328 11.0971C0.870836 10.5204 1.10677 9.97209 1.51221 9.56122L1.51218 9.5612L1.51468 9.55877C1.51746 9.55609 1.53197 9.54222 1.55728 9.51803C1.81661 9.27013 3.20995 7.93827 4.73575 6.44535C6.40985 4.80732 8.23203 2.98638 8.89152 2.192C9.10565 1.88521 9.38308 1.62781 9.70513 1.43714C10.0291 1.24535 10.3906 1.12559 10.765 1.08598L10.7649 1.08556L10.7762 1.08522C11.0243 1.07774 11.2714 1.12009 11.5028 1.20975C11.7342 1.29942 11.9452 1.43458 12.1234 1.60723L12.1234 1.60722L12.1251 1.60886L18.6973 8.17662C19.4346 8.77231 19.9354 9.61111 20.1098 10.5426L20.1113 10.5505L20.1119 10.5585C20.1367 10.8746 20.094 11.1923 19.9867 11.4907C19.8794 11.789 19.7099 12.0612 19.4895 12.2893L18.9355 12.8642L18.9355 12.8642L18.9334 12.8663C18.5419 13.2566 18.017 13.4842 17.4643 13.5031L17.4643 13.5032L17.4596 13.5032C16.8039 13.5052 16.1684 13.2845 15.6564 12.8796L12.6198 15.9304C13.0524 16.3976 13.3106 17.0018 13.3474 17.6404L13.3476 17.6404L13.3476 17.6484C13.3489 17.9465 13.2911 18.2418 13.1777 18.5174C13.0644 18.7931 12.8976 19.0436 12.687 19.2546L12.6809 19.2607L12.6741 19.2661L11.7348 20.0123C11.384 20.2911 10.9497 20.4438 10.5016 20.446ZM15.493 11.4273L15.595 11.3211L15.7031 11.4212L16.0011 11.6971C16.6721 12.3181 17.1875 12.4157 17.5286 12.3714C17.8768 12.3261 18.0817 12.1282 18.1176 12.0907L18.118 12.0903L18.6684 11.52L18.6684 11.52L18.6695 11.5188C18.7815 11.4054 18.868 11.2695 18.9232 11.1201C18.9777 10.9728 19.0006 10.8158 18.9905 10.6591C18.9213 10.244 18.7401 9.85656 18.4678 9.53792L18.4669 9.53873L18.3609 9.43276L11.3266 2.40262C11.257 2.33785 11.1752 2.2875 11.086 2.25448C10.999 2.2223 10.9066 2.20721 10.814 2.21002C10.6051 2.24816 10.4058 2.32743 10.2277 2.44323C10.0469 2.56086 9.89166 2.71377 9.77138 2.89278L9.76719 2.89902L9.7624 2.9048C9.07868 3.73033 7.26945 5.54123 5.60859 7.16758C3.95715 8.78472 2.44302 10.2284 2.30228 10.3623C2.11299 10.5633 1.99862 10.8232 1.97819 11.0983C1.98682 11.2124 2.01826 11.3237 2.07068 11.4255C2.12458 11.5302 2.19951 11.6226 2.29079 11.697L2.29668 11.7018L2.30205 11.7072L8.94443 18.3484L8.95425 18.3583L8.9621 18.3697C8.96131 18.3686 8.96281 18.3704 8.9665 18.3749C8.98427 18.3964 9.05283 18.4796 9.16224 18.5908C9.2921 18.7228 9.47299 18.8875 9.6827 19.0269C10.109 19.3104 10.6006 19.4591 11.042 19.1253L11.9342 18.4187C12.1179 18.2133 12.2199 17.9478 12.2212 17.6724C12.1904 17.4147 12.1075 17.1658 11.9773 16.9411C11.8458 16.7139 11.6689 16.5161 11.4575 16.3602L11.4571 16.3608L11.4467 16.3514L11.1212 16.0608L11.0027 15.9551L11.115 15.8428L14.5708 12.3877L15.493 11.4273Z" fill="#444444" stroke="#444444" stroke-width="0.3"/>
<path d="M13.2722 3.3371L13.3784 3.44321L13.2722 3.54932L3.30862 13.5059L3.20259 13.6119L3.09657 13.5059L2.51202 12.9219L2.40583 12.8158L2.51201 12.7097L12.4756 2.75303L12.5816 2.64708L12.6876 2.75302L13.2722 3.3371ZM29.731 26.5525L29.8372 26.6586L29.731 26.7647L29.1465 27.3488L29.0405 27.4547L28.9344 27.3488L14.7824 13.2073L14.6762 13.1012L14.7824 12.9951L15.3669 12.411L15.4729 12.305L15.579 12.411L29.731 26.5525ZM26.7989 28.631L26.9051 28.7371L26.7989 28.8432L26.2144 29.4273L26.1083 29.5332L26.0023 29.4273L12.2763 15.7115L12.1701 15.6054L12.2763 15.4993L12.8608 14.9152L12.9669 14.8092L13.0729 14.9152L26.7989 28.631Z" fill="#444444" stroke="#444444" stroke-width="0.3"/>
<path d="M30.6836 36.2873L30.6834 36.2873C29.3068 36.2858 27.987 35.7386 27.0136 34.7659C26.0402 33.7932 25.4926 32.4744 25.4911 31.0987V31.0985C25.491 30.0722 25.7955 29.0689 26.3661 28.2156C26.9367 27.3622 27.7477 26.6971 28.6966 26.3043C29.6454 25.9116 30.6895 25.8088 31.6968 26.009C32.7041 26.2092 33.6294 26.7034 34.3556 27.4291C35.0818 28.1548 35.5764 29.0794 35.7768 30.0861C35.9772 31.0927 35.8743 32.136 35.4812 33.0842C35.0881 34.0324 34.4225 34.8428 33.5685 35.413C32.7146 35.9831 31.7106 36.2874 30.6836 36.2873ZM32.9433 27.7191C32.2744 27.2726 31.4881 27.0342 30.6837 27.0343C29.6054 27.0357 28.5717 27.4644 27.8092 28.2264C27.0468 28.9883 26.6179 30.0213 26.6166 31.0987C26.6167 31.9024 26.8552 32.6881 27.3021 33.3563C27.7491 34.0246 28.3843 34.5455 29.1275 34.8531C29.8707 35.1607 30.6885 35.2411 31.4775 35.0843C32.2665 34.9274 32.9912 34.5403 33.5599 33.9719C34.1287 33.4034 34.516 32.6793 34.6729 31.8909C34.8298 31.1026 34.7492 30.2855 34.4413 29.5429C34.1335 28.8003 33.6121 28.1656 32.9433 27.7191Z" fill="#444444" stroke="#444444" stroke-width="0.3"/>
<path d="M30.6825 33.6507H30.6824C30.0054 33.65 29.3563 33.381 28.8776 32.9026C28.3988 32.4242 28.1296 31.7756 28.1289 31.099V31.0988C28.1289 30.5941 28.2787 30.1007 28.5593 29.6811C28.8399 29.2614 29.2388 28.9344 29.7054 28.7413C30.172 28.5481 30.6854 28.4976 31.1807 28.5961C31.676 28.6945 32.131 28.9376 32.4882 29.2944C32.8453 29.6513 33.0885 30.106 33.1871 30.601C33.2856 31.096 33.235 31.6091 33.0417 32.0754C32.8484 32.5417 32.5211 32.9403 32.1012 33.2206C31.6812 33.501 31.1875 33.6507 30.6825 33.6507ZM31.4397 20.1042L31.4379 20.1041C30.8634 20.097 30.313 19.872 29.8984 19.4746L29.898 19.4743L29.323 18.9201L29.323 18.9201L29.3211 18.9182C28.9297 18.5276 28.7017 18.0028 28.6832 17.4502L28.6831 17.4502L28.6831 17.4455C28.682 16.7904 28.9029 16.1557 29.3076 15.6439L26.254 12.609C25.7868 13.0417 25.1821 13.2997 24.543 13.3361L24.543 13.3363L24.5365 13.3363L24.5004 13.3368V13.3369L24.4965 13.3368C23.9073 13.3291 23.3442 13.0924 22.9266 12.6768L22.9204 12.6706L22.915 12.6638L22.1691 11.7251L22.1691 11.7251L22.1673 11.7227C21.6122 10.9946 21.659 10.2225 21.9347 9.57194C22.2058 8.93212 22.701 8.39834 23.0819 8.1004L29.6733 1.51479C29.8491 1.31393 30.0643 1.15129 30.3056 1.03697C30.5485 0.921891 30.8126 0.858259 31.0812 0.85007L31.0812 0.85H31.0858H31.1038V0.849857L31.1104 0.850143C31.6803 0.875046 32.2208 1.11005 32.6276 1.50982L32.6277 1.50977L32.631 1.51327C32.6597 1.54339 34.1065 3.05867 35.7459 4.73163C37.3852 6.40442 39.2075 8.22499 40.0024 8.88376C40.3096 9.09766 40.5673 9.37493 40.7582 9.69689L40.6291 9.77338L40.7582 9.69689C40.9501 10.0207 41.0699 10.3822 41.1093 10.7565L41.1098 10.7564L41.1101 10.7677C41.1175 11.0155 41.0751 11.2623 40.9854 11.4934C40.8956 11.7245 40.7604 11.9352 40.5876 12.1131L40.5861 12.1148L34.011 18.6849C33.4153 19.4207 32.5767 19.9203 31.6457 20.094L31.6385 20.0953L31.6312 20.096C31.5668 20.1016 31.5036 20.1041 31.4397 20.1042ZM32.6471 18.4566L32.6468 18.4563L32.7571 18.346L39.7951 11.3138C39.9178 11.1759 39.9853 10.9978 39.9848 10.8134C39.9486 10.6033 39.8703 10.4026 39.7545 10.2234C39.6367 10.041 39.4827 9.88476 39.3019 9.7644L39.2954 9.76007L39.2894 9.7551C38.4635 9.07169 36.6514 7.26385 35.0236 5.60405C33.406 3.95464 31.9613 2.44211 31.8249 2.2991C31.625 2.11365 31.3691 1.99983 31.0975 1.97551C30.9811 1.98304 30.8675 2.01431 30.7637 2.0674C30.6583 2.12134 30.5652 2.19662 30.4904 2.28845L30.4856 2.29444L30.4801 2.29989L23.8339 8.93641L23.8269 8.94342L23.8191 8.94944L23.8188 8.94965C23.8131 8.95421 23.7191 9.02929 23.5916 9.15483C23.4594 9.28495 23.2945 9.46603 23.1549 9.67581C22.8709 10.1024 22.7225 10.5933 23.0569 11.0329C23.0572 11.0332 23.0575 11.0336 23.0577 11.034L23.7599 11.9199C23.9797 12.086 24.2419 12.1868 24.5165 12.2107C24.7724 12.1791 25.0194 12.0962 25.2426 11.967C25.47 11.8354 25.6679 11.6585 25.824 11.4473L25.8282 11.4416L25.8329 11.4363L26.1243 11.1115L26.23 10.9937L26.3419 11.1056L29.7987 14.5588L30.7607 15.4813L30.8673 15.5835L30.7668 15.6916L30.4907 15.9889C29.8692 16.6584 29.7714 17.1729 29.8156 17.5135C29.8607 17.8612 30.0586 18.0662 30.0966 18.1027L30.0967 18.1029L30.668 18.6533L30.6693 18.6546C30.7826 18.7665 30.9186 18.853 31.0681 18.9081C31.2156 18.9625 31.3728 18.9853 31.5296 18.9748C31.9431 18.9063 32.3292 18.7267 32.6471 18.4566ZM31.4759 29.9125C31.2411 29.7557 30.9651 29.672 30.6827 29.672C30.304 29.6724 29.941 29.8229 29.6732 30.0905C29.4055 30.358 29.2549 30.7207 29.2545 31.099C29.2545 31.3811 29.3383 31.6569 29.4951 31.8915C29.652 32.1261 29.8751 32.309 30.136 32.4171C30.3969 32.5251 30.6841 32.5533 30.9611 32.4983C31.2382 32.4432 31.4926 32.3073 31.6923 32.1077C31.892 31.9082 32.028 31.6539 32.0831 31.3772C32.1382 31.1004 32.1099 30.8136 32.0018 30.5528C31.8938 30.2921 31.7108 30.0693 31.4759 29.9125Z" fill="#444444" stroke="#444444" stroke-width="0.3"/>
<path d="M39.4342 12.4638L39.5403 12.5699L39.4342 12.676L38.8496 13.2601L38.7436 13.3661L38.6376 13.2601L28.6735 3.30348L28.5673 3.19738L28.6735 3.09127L29.2581 2.50718L29.3641 2.40123L29.4701 2.50718L39.4342 12.4638ZM29.7691 15.3937L29.8753 15.4997L29.7691 15.6059L23.8754 21.4975L23.7694 21.6035L23.6634 21.4976L23.0792 20.9141L22.973 20.808L23.0791 20.7019L28.9728 14.8102L29.0788 14.7042L29.1849 14.8102L29.7691 15.3937ZM27.2222 12.8482L27.3284 12.9543L27.2222 13.0605L21.3276 18.9521L21.2215 19.0581L21.1155 18.9522L20.5314 18.3686L20.4252 18.2625L20.5313 18.1564L26.426 12.2647L26.532 12.1588L26.638 12.2647L27.2222 12.8482ZM21.3266 23.8303L21.4328 23.9364L21.3266 24.0426L15.9397 29.4269L15.8336 29.5329L15.7276 29.427L15.1435 28.8434L15.0373 28.7373L15.1434 28.6312L20.5304 23.2468L20.6364 23.1409L20.7425 23.2468L21.3266 23.8303ZM18.7797 21.2844L18.8859 21.3905L18.7797 21.4966L13.4592 26.8146L13.3532 26.9206L13.2471 26.8147L12.663 26.2311L12.5568 26.125L12.663 26.0189L17.9835 20.7009L18.0895 20.5949L18.1956 20.7009L18.7797 21.2844Z" fill="#444444" stroke="#444444" stroke-width="0.3"/>
<path d="M11.0742 35.8462H11.074C9.69744 35.8446 8.37764 35.2975 7.40421 34.3248C6.43077 33.3521 5.88321 32.0332 5.88169 30.6576V30.6574C5.88164 29.6311 6.18617 28.6278 6.75675 27.7744C7.32734 26.9211 8.13834 26.2559 9.08719 25.8632C10.036 25.4704 11.0801 25.3677 12.0874 25.5679C13.0947 25.7681 14.02 26.2623 14.7462 26.988C15.4725 27.7137 15.9671 28.6383 16.1674 29.6449C16.3678 30.6515 16.2649 31.6949 15.8718 32.6431C15.4788 33.5913 14.8132 34.4017 13.9592 34.9718C13.1052 35.5419 12.1012 35.8462 11.0742 35.8462ZM13.3339 27.2779C12.665 26.8314 11.8787 26.5931 11.0743 26.5931C9.99596 26.5945 8.96222 27.0232 8.1998 27.7852C7.43736 28.5471 7.0085 29.5801 7.00724 30.6576C7.00732 31.4613 7.24589 32.2469 7.69278 32.9152C8.13972 33.5835 8.77495 34.1044 9.51816 34.4119C10.2614 34.7195 11.0792 34.8 11.8682 34.6431C12.6571 34.4862 13.3818 34.0991 13.9506 33.5307C14.5193 32.9623 14.9067 32.2381 15.0635 31.4498C15.2204 30.6614 15.1398 29.8443 14.832 29.1017C14.5241 28.3592 14.0028 27.7245 13.3339 27.2779Z" fill="#444444" stroke="#444444" stroke-width="0.3"/>
<path d="M11.0725 33.2102H11.0723C10.3954 33.2095 9.74628 32.9405 9.26755 32.4621C8.78882 31.9838 8.51956 31.3351 8.5189 30.6585V30.6584C8.51885 30.1536 8.6686 29.6601 8.94922 29.2404C9.22983 28.8207 9.62869 28.4936 10.0953 28.3004C10.562 28.1072 11.0755 28.0567 11.5709 28.1551C12.0663 28.2536 12.5213 28.4966 12.8785 28.8535C13.2357 29.2105 13.479 29.6652 13.5775 30.1603C13.676 30.6554 13.6254 31.1686 13.4321 31.6349C13.2388 32.1013 12.9114 32.4998 12.4914 32.7802C12.0713 33.0606 11.5776 33.2102 11.0725 33.2102ZM11.8661 29.4715C11.6312 29.3147 11.3551 29.231 11.0726 29.2311C10.6939 29.2316 10.3309 29.3822 10.0632 29.6498C9.79548 29.9174 9.64492 30.2801 9.64447 30.6584C9.64451 30.9406 9.72831 31.2165 9.88527 31.4511C10.0422 31.6858 10.2653 31.8687 10.5263 31.9767C10.7873 32.0847 11.0746 32.1129 11.3516 32.0578C11.6287 32.0027 11.8832 31.8667 12.0829 31.6671C12.2826 31.4674 12.4186 31.2131 12.4736 30.9363C12.5287 30.6595 12.5004 30.3726 12.3922 30.1118C12.2841 29.8511 12.101 29.6282 11.8661 29.4715Z" fill="#444444" stroke="#444444" stroke-width="0.3"/>
</svg>
