<svg id="Layer_1" data-name="Layer 1" xmlns="http://www.w3.org/2000/svg" viewBox="0 0 450 300"><title>Artboard 13</title><rect width="450" height="300" style="fill:#dcdcdc"/><path d="M382.46,168.6a42.6,42.6,0,0,0-42.56-42.55H316.67L293.94,86.68a26.59,26.59,0,0,0-23-13.27H179a26.59,26.59,0,0,0-23,13.27l-22.73,39.37H110.1A42.6,42.6,0,0,0,67.54,168.6v25.18h35.8a35.3,35.3,0,0,0,70.43,0H274.92a35.3,35.3,0,0,0,70.43,0h37.11ZM289.61,89.18l21.29,36.87H223.61V78.41H271A21.59,21.59,0,0,1,289.61,89.18Zm-129.22,0A21.59,21.59,0,0,1,179,78.41h39.57v47.64H139.1ZM82.55,143.11A7.92,7.92,0,0,1,76,155.51a7.71,7.71,0,0,1-1.07-.08A37.64,37.64,0,0,1,82.55,143.11Zm56,78.48a30.32,30.32,0,1,1,30.32-30.31A30.35,30.35,0,0,1,138.55,221.59Zm171.59,0a30.32,30.32,0,1,1,30.31-30.31A30.34,30.34,0,0,1,310.14,221.59Zm67.32-32.81H345.35a35.3,35.3,0,0,0-70.43,0H173.77a35.3,35.3,0,0,0-70.43,0H72.54V168.6a37.54,37.54,0,0,1,.95-8.34,13.11,13.11,0,0,0,2.51.25,12.93,12.93,0,0,0,10.22-20.87,37.4,37.4,0,0,1,23.88-8.59H339.9a37.6,37.6,0,0,1,37.56,37.55Z" style="fill:#828282"/><path d="M310.14,172.78a18.5,18.5,0,1,0,18.5,18.5A18.52,18.52,0,0,0,310.14,172.78Zm0,32a13.5,13.5,0,1,1,13.5-13.5A13.51,13.51,0,0,1,310.14,204.78Z" style="fill:#828282"/><path d="M138.55,172.78a18.5,18.5,0,1,0,18.5,18.5A18.52,18.52,0,0,0,138.55,172.78Zm0,32a13.5,13.5,0,1,1,13.5-13.5A13.52,13.52,0,0,1,138.55,204.78Z" style="fill:#828282"/><path d="M214.18,139.81h-13a2.5,2.5,0,0,0,0,5h13a2.5,2.5,0,0,0,0-5Z" style="fill:#828282"/><path d="M300.65,139.81h-13a2.5,2.5,0,0,0,0,5h13a2.5,2.5,0,0,0,0-5Z" style="fill:#828282"/></svg>