<svg width="41" height="31" viewBox="0 0 41 31" fill="none" xmlns="http://www.w3.org/2000/svg">
<path d="M30.2539 30.2329H30.1039H16.0119C15.1806 30.2513 14.3745 29.9423 13.7585 29.3703C13.1421 28.7979 12.7626 28.0057 12.6963 27.1562L12.6954 27.1445H12.6959V25.4464V25.4378L12.6969 25.4292C12.7407 25.0498 12.6388 24.6684 12.4141 24.3662C12.391 24.3468 12.3649 24.332 12.3371 24.3224C12.3056 24.3115 12.2725 24.3075 12.2396 24.3103L12.2266 24.3115L12.2266 24.3109L8.34102 24.3157L8.33618 24.3157L8.33618 24.3156C8.08651 24.3079 7.84111 24.248 7.61492 24.1398C7.38874 24.0316 7.1866 23.8774 7.02064 23.6867C6.85469 23.4961 6.72834 23.273 6.64906 23.0311C6.57039 22.791 6.53963 22.5373 6.55853 22.2849V16.0785C6.54945 15.7012 6.61964 15.3262 6.76442 14.9791C6.90945 14.6314 7.12597 14.3197 7.39942 14.0655L7.40931 14.0564L7.40968 14.0568C7.82976 13.7314 8.35813 13.5887 8.88037 13.6604L11.9832 13.6564L11.9925 13.6564L12.0018 13.6576C12.1017 13.6699 12.203 13.6589 12.2983 13.6253C12.3884 13.5937 12.4711 13.5425 12.5409 13.4752C12.8568 12.9425 12.9808 12.3118 12.8903 11.6936L12.8887 11.6826L12.8891 11.6826C12.8508 11.1452 12.9199 10.6054 13.0921 10.0963C13.2644 9.58727 13.5362 9.11962 13.8912 8.72228C14.2461 8.32493 14.6767 8.00628 15.1564 7.78622C15.6361 7.56615 16.1548 7.44939 16.6804 7.44327L16.6821 7.44325L30.6801 7.44326H30.6983L30.716 7.44762C32.4893 7.88487 33.3371 9.05857 33.7366 10.1207C34.121 11.1425 34.0939 12.0661 34.0901 12.1516L34.0909 17.7525L34.0909 17.7592L34.0907 17.7592C34.0836 17.9184 34.111 18.0771 34.1707 18.2239C34.2286 18.3662 34.3155 18.4936 34.4251 18.5977C34.6213 18.7167 34.854 18.7534 35.0753 18.7005C35.1115 18.6911 35.1487 18.6864 35.1861 18.6865H35.1859V18.8365L35.1864 18.6865L30.2539 30.2329ZM30.2539 30.2329V30.2287M30.2539 30.2329V30.2287M30.2539 30.2287C30.5261 30.2185 31.1228 30.1773 31.7597 30.0118C32.5795 29.7989 33.5208 29.3657 33.8693 28.4701L33.8699 28.4684C33.8856 28.4267 33.8952 28.3829 33.8984 28.3385L33.7488 28.3276L33.8983 28.3398C33.9024 28.2899 33.9282 28.039 34.0572 27.8048C34.1817 27.5789 34.3979 27.3723 34.8018 27.3723H38.2916M30.2539 30.2287L40.1302 20.5413M38.2916 27.3723C38.5204 27.4424 38.7627 27.4533 38.9968 27.4037C39.2389 27.3524 39.4637 27.2383 39.65 27.0726C39.8363 26.907 39.9778 26.6954 40.0616 26.4583C40.1439 26.225 40.1678 25.9743 40.131 25.7293M38.2916 27.3723H38.3148V27.2223L38.2683 27.3649C38.2761 27.3674 38.2839 27.3699 38.2916 27.3723ZM40.131 25.7293L40.1302 20.5413M40.131 25.7293V25.7408L39.981 25.7408L40.1292 25.7174C40.1298 25.7213 40.1304 25.7253 40.131 25.7293ZM40.1302 20.5413C40.1301 20.5434 40.1299 20.5454 40.1298 20.5475L39.9802 20.5354L40.1302 20.5354V20.5413ZM12.9877 23.6883L12.9935 23.6946C13.2106 23.928 13.3749 24.2075 13.4749 24.513C13.574 24.8159 13.6077 25.1372 13.5737 25.4546V27.1164C13.6233 27.7384 13.904 28.316 14.3562 28.7294C14.8096 29.144 15.4005 29.3615 16.0051 29.3379L16.011 29.3376V29.3377H30.1046C30.4481 29.3377 31.0905 29.2819 31.6979 29.1015C32.3042 28.9215 32.827 28.6318 33.0282 28.198C33.0573 27.7413 33.2513 27.3111 33.5738 26.9924C33.9032 26.667 34.3418 26.4825 34.8003 26.4779L34.8018 26.4779L38.3495 26.4779H38.35C38.3905 26.4781 38.4309 26.4841 38.4697 26.4957M12.9877 23.6883L38.4282 26.6398M12.9877 23.6883L12.9813 23.6828C12.7824 23.5124 12.5321 23.4168 12.272 23.4127M12.9877 23.6883L30.5937 8.33047L16.6824 8.33839C16.6823 8.33839 16.6823 8.33839 16.6823 8.33839C16.2763 8.33909 15.8748 8.42656 15.5032 8.59541C15.1315 8.76426 14.7977 9.01089 14.5231 9.31988C14.2484 9.62888 14.039 9.99348 13.9083 10.3906C13.778 10.7869 13.7289 11.2067 13.7642 11.6235C13.8723 12.4778 13.6741 13.3437 13.2059 14.0592L13.199 14.0697L13.1904 14.079C13.0329 14.249 12.8394 14.3801 12.6246 14.462C12.4122 14.543 12.1846 14.5736 11.959 14.5516H8.81911H8.80798L8.79697 14.5499C8.49972 14.5056 8.19701 14.5816 7.95254 14.7628C7.78315 14.9332 7.64962 15.1382 7.5606 15.3649C7.47031 15.5948 7.4279 15.8418 7.43623 16.0899L7.4364 16.0949H7.43632L7.43708 22.2897C7.43709 22.2899 7.43709 22.29 7.43709 22.2901C7.43747 22.3496 7.44679 22.6437 7.56984 22.918C7.63074 23.0537 7.71674 23.1784 7.83739 23.2689C7.95616 23.358 8.117 23.4206 8.34083 23.4206H12.1594C12.1965 23.4133 12.2343 23.4106 12.272 23.4127M38.4697 26.4957C38.4705 26.4959 38.4713 26.4962 38.472 26.4964L38.4282 26.6398M38.4697 26.4957C38.4692 26.4956 38.4687 26.4954 38.4681 26.4953L38.4282 26.6398M38.4697 26.4957C38.5675 26.5225 38.6694 26.5291 38.7696 26.5152C38.8642 26.5022 38.9557 26.471 39.0394 26.4234M38.4282 26.6398C38.5461 26.6724 38.6692 26.6806 38.7902 26.6638C38.9113 26.6471 39.0279 26.6057 39.1332 26.5422M39.0394 26.4234C39.0351 26.428 39.0307 26.4326 39.0262 26.4371L39.1332 26.5422M39.0394 26.4234C39.0449 26.4202 39.0504 26.417 39.0558 26.4138L39.1332 26.5422M39.0394 26.4234L39.1332 26.5422M12.272 23.4127C12.2734 23.4128 12.2748 23.4128 12.2761 23.4129L12.2665 23.5626L12.2684 23.4126C12.2696 23.4126 12.2708 23.4127 12.272 23.4127ZM38.8274 18.6865C38.8267 18.6865 38.8261 18.6865 38.8254 18.6865L38.8293 18.8365V18.6865H38.8274ZM39.0556 19.6652C39.0585 19.6681 39.0613 19.671 39.0641 19.674L39.1741 19.5721L39.048 19.6532C39.0505 19.6572 39.0531 19.6612 39.0556 19.6652ZM35.2356 19.5824C35.2412 19.5812 35.2468 19.5799 35.2524 19.5787L35.2191 19.4324V19.5824H35.2356ZM33.2131 17.7678V17.77L33.3631 17.77L33.2131 17.7656C33.2131 17.7663 33.2131 17.7671 33.2131 17.7678Z" fill="#444444" stroke="#444444" stroke-width="0.3"/>
<path d="M28.7273 26.5126L28.7273 26.5126C28.2218 26.5054 27.7276 26.3593 27.296 26.09C26.2092 25.4422 25.1227 24.7928 24.0364 24.1418L28.7273 26.5126ZM28.7273 26.5126L28.7308 26.5126M28.7273 26.5126L28.7308 26.5126M28.7308 26.5126C29.3513 26.5072 29.9514 26.2864 30.4338 25.887C30.9162 25.4876 31.2528 24.9331 31.3899 24.3137L31.39 24.3131C31.4888 23.8594 31.4808 23.3879 31.3667 22.9379C31.2525 22.4879 31.0355 22.0721 30.7333 21.7252L23.1912 13.0565C22.7817 12.5397 22.2661 12.1218 21.681 11.8329C21.0949 11.5435 20.4536 11.3908 19.803 11.3859V11.3859H19.8019H19.7989C19.1591 11.3724 18.5238 11.4963 17.9335 11.7496C17.3429 12.0031 16.8105 12.3804 16.3704 12.8573C15.9327 13.3238 15.5908 13.8759 15.3651 14.4806C15.1395 15.0849 15.0344 15.7297 15.0559 16.3765C15.0628 16.9984 15.2114 17.6101 15.49 18.1626L15.49 18.1626M28.7308 26.5126L15.49 18.1626M15.49 18.1626L15.4921 18.1665M15.49 18.1626L15.4921 18.1665M15.4921 18.1665C15.9417 18.9959 16.6013 19.6853 17.4016 20.1612M15.4921 18.1665L17.4016 20.1612M17.4016 20.1612C18.6168 20.9095 19.8436 21.6403 21.0687 22.37C21.1446 22.4152 21.2205 22.4604 21.2964 22.5056L17.4016 20.1612ZM21.2965 22.5057L24.0362 24.1417L21.2965 22.5057ZM19.7752 12.281V12.281H19.7765H19.801C20.3244 12.2877 20.8402 12.413 21.3115 12.6482C21.7832 12.8836 22.1989 13.2233 22.5289 13.6433L22.5288 13.6434L22.5337 13.6491L30.0758 22.319L30.0765 22.3198C30.2876 22.5587 30.4396 22.8469 30.5192 23.16C30.5988 23.4731 30.6036 23.8014 30.5332 24.1168L30.5328 24.1186C30.47 24.4172 30.3378 24.6953 30.148 24.9292C29.9582 25.1631 29.7164 25.3458 29.4436 25.4621L29.4436 25.462L29.4411 25.4632C29.1693 25.5849 28.8727 25.6357 28.5775 25.6112C28.2823 25.5867 27.9973 25.4877 27.7476 25.3226L27.7477 25.3225L27.7417 25.3189C26.6536 24.6698 25.567 24.0203 24.482 23.3702L24.4818 23.3701L21.7395 21.7323L21.7392 21.7321C20.44 20.9592 19.142 20.1869 17.8549 19.3941L17.8549 19.394L17.8527 19.3927C17.1888 18.9993 16.64 18.4285 16.2646 17.7401C16.0507 17.3092 15.9375 16.8326 15.9344 16.3484L15.9345 16.3484L15.9343 16.3443C15.9164 15.8143 16.003 15.2861 16.1887 14.7916C16.3744 14.297 16.6554 13.8466 17.0144 13.4672C17.3735 13.0878 17.8032 12.7873 18.2776 12.5835C18.752 12.3798 19.2614 12.2769 19.7752 12.281ZM36.8041 27.2402C36.8861 27.3246 36.9983 27.3728 37.1162 27.3728C37.2341 27.3728 37.3463 27.3246 37.4283 27.2402C37.5102 27.1559 37.5555 27.0426 37.5555 26.9252V19.1647C37.5555 19.0473 37.5102 18.934 37.4283 18.8497C37.3463 18.7654 37.2341 18.7171 37.1162 18.7171C36.9983 18.7171 36.8861 18.7654 36.8041 18.8497C36.7222 18.934 36.6769 19.0473 36.6769 19.1647V26.9252C36.6769 27.0426 36.7222 27.1559 36.8041 27.2402Z" fill="#444444" stroke="#444444" stroke-width="0.3"/>
<path d="M28.531 25.1257H28.5304C28.3221 25.1249 28.1162 25.0815 27.9247 24.9982C27.7331 24.915 27.5599 24.7935 27.4148 24.6411L27.4145 24.6407C27.2673 24.485 27.1518 24.3011 27.0744 24.0997C26.997 23.8984 26.9593 23.6836 26.9631 23.4674M28.531 25.1257L29.6767 22.3524C29.6766 22.3523 29.6765 22.3522 29.6765 22.3522M28.531 25.1257H28.546M28.531 25.1257L30.1343 23.5343M26.9631 23.4674C26.9656 23.2551 27.0089 23.0452 27.0905 22.8499C27.1722 22.6544 27.2908 22.4771 27.4396 22.3285C27.5885 22.1799 27.7647 22.0627 27.9582 21.9841C28.1513 21.9056 28.3577 21.867 28.5655 21.8706H28.578H28.5793C28.7845 21.8724 28.9871 21.916 29.1756 21.9988C29.3639 22.0815 29.5341 22.2017 29.6765 22.3522M26.9631 23.4674C26.9631 23.4676 26.9631 23.4677 26.9631 23.4679L27.1131 23.4696L26.9631 23.4669C26.9631 23.467 26.9631 23.4672 26.9631 23.4674ZM29.6765 22.3522C29.8254 22.5087 29.9424 22.6939 30.0209 22.8968C30.0993 23.0996 30.1378 23.3163 30.1343 23.5343M29.6765 22.3522L30.1343 23.5343M30.1343 23.5343C30.1321 23.7436 30.0896 23.9506 30.0091 24.1432C29.9286 24.3357 29.8116 24.5101 29.6647 24.6562C29.3673 24.9575 28.9653 25.1267 28.546 25.1257M28.546 25.1257L28.5464 24.9757V25.1257H28.546ZM17.3296 13.5892L17.3294 13.5894C17.0106 13.9099 16.7571 14.292 16.5832 14.7136C16.4094 15.1349 16.3187 15.5874 16.3161 16.0448C16.3096 16.4922 16.3904 16.9364 16.5539 17.3513C16.7174 17.7662 16.9603 18.1434 17.2685 18.4605C17.5811 18.7853 17.9538 19.043 18.365 19.2181C18.7761 19.3933 19.2172 19.4823 19.6625 19.4799L19.6752 19.4799L19.6763 19.4799C20.3282 19.4751 20.9642 19.2747 21.5063 18.9037C22.0484 18.5328 22.4728 18.0076 22.7282 17.3931C22.9835 16.7786 23.0589 16.1011 22.9453 15.4434C22.8316 14.7858 22.5338 14.176 22.0877 13.689L22.0867 13.688C21.7791 13.3585 21.4109 13.0945 21.0034 12.9114C20.5958 12.7283 20.1569 12.6297 19.7119 12.6215V12.6215H19.7091H19.6609C18.7897 12.6174 17.9526 12.9654 17.3296 13.5892ZM17.1946 16.0564L17.1947 16.0549C17.1961 15.7138 17.2634 15.3766 17.3925 15.0628C17.5216 14.749 17.7098 14.465 17.9462 14.2272C18.4052 13.7681 19.0202 13.5134 19.6586 13.5166C19.659 13.5166 19.6593 13.5166 19.6597 13.5166L19.6968 13.5174L19.6972 13.5174C20.0247 13.5233 20.348 13.5957 20.6485 13.7306C20.9487 13.8653 21.2205 14.0598 21.4479 14.3032C21.776 14.663 21.9955 15.1139 22.0791 15.6008C22.1627 16.088 22.1064 16.5897 21.9174 17.0443C21.7283 17.4989 21.4149 17.8863 21.016 18.1596C20.6173 18.4328 20.1504 18.5803 19.6722 18.5847L19.6613 18.5847L19.6604 18.5847C19.3327 18.5866 19.0078 18.5211 18.7047 18.3922C18.4015 18.2632 18.1261 18.0732 17.8948 17.8332L17.8944 17.8328C17.6686 17.6002 17.4901 17.3232 17.3699 17.0181C17.2496 16.7129 17.19 16.3859 17.1946 16.0564ZM28.5603 22.7657L28.5603 22.7658H28.5641H28.5726C28.6604 22.7666 28.7473 22.7854 28.8283 22.8211C28.9095 22.8569 28.9832 22.9091 29.045 22.9748L29.0453 22.9752C29.1137 23.0474 29.1676 23.133 29.2038 23.2272C29.2399 23.3213 29.2576 23.4218 29.2558 23.5231C29.2502 23.7161 29.171 23.8983 29.0365 24.0304C28.902 24.1624 28.7232 24.2339 28.5391 24.2305L28.5367 24.2305C28.4456 24.2303 28.3552 24.2115 28.271 24.175C28.1868 24.1386 28.1103 24.0852 28.0458 24.0178C27.9792 23.947 27.9268 23.8631 27.8916 23.7709C27.8564 23.6784 27.8394 23.5795 27.8416 23.4801L27.8416 23.4792C27.8432 23.3828 27.8633 23.2878 27.9007 23.1997C27.9381 23.1116 27.992 23.0323 28.059 22.9661C28.126 22.9 28.2048 22.8484 28.2908 22.8141C28.3768 22.7798 28.4684 22.7634 28.5603 22.7657ZM3.25061 18.8506L3.35784 18.9549L3.25061 18.8506C3.16872 18.9349 3.12344 19.0483 3.12344 19.1656C3.12344 19.283 3.16872 19.3963 3.25061 19.4806C3.33265 19.565 3.44482 19.6132 3.56272 19.6132H5.12097C5.23886 19.6132 5.35104 19.565 5.43307 19.4806C5.51496 19.3963 5.56024 19.283 5.56024 19.1656C5.56024 19.0483 5.51496 18.9349 5.43307 18.8506C5.35104 18.7663 5.23886 18.718 5.12097 18.718H3.56272C3.44482 18.718 3.33265 18.7663 3.25061 18.8506Z" fill="#444444" stroke="#444444" stroke-width="0.3"/>
<path d="M16.1954 1.92164L16.0878 1.81709L16.1954 1.92164C16.085 2.03517 16.0222 2.18997 16.022 2.35229V2.57893C16.0222 2.74125 16.085 2.89605 16.1954 3.00958C16.3055 3.12292 16.454 3.18588 16.608 3.18609M16.1954 1.92164L16.608 3.33609L16.6081 3.18609M16.1954 1.92164C16.3056 1.80829 16.454 1.74532 16.608 1.74513M16.1954 1.92164L16.608 1.74513M16.608 3.18609C16.608 3.18609 16.6081 3.18609 16.6081 3.18609M16.608 3.18609L16.6081 3.18609M16.608 3.18609L30.4214 3.18609M16.6081 3.18609H30.4214M30.4214 3.18609L30.4216 3.18609L30.4214 3.18609ZM16.608 1.74513H30.4215C30.5755 1.74532 30.724 1.80829 30.8342 1.92164L30.9418 1.81709L30.8342 1.92164C30.9446 2.03517 31.0074 2.18997 31.0075 2.35229V2.57893C31.0074 2.74125 30.9446 2.89605 30.8342 3.00958L30.9418 3.11413L16.608 1.74513ZM1.31021 24.8792L1.41776 24.7747L1.31021 24.8792C1.60507 25.1825 2.00576 25.3539 2.42463 25.3544H2.42505C2.84382 25.3537 3.24436 25.1822 3.53915 24.879C3.83381 24.5759 3.99892 24.1659 3.99959 23.739V23.7388V14.592C3.99959 14.1649 3.83468 13.7544 3.53983 13.4511C3.24485 13.1477 2.84385 12.9764 2.4248 12.9764C2.00574 12.9764 1.60474 13.1477 1.30976 13.4511C1.01492 13.7544 0.85 14.1649 0.85 14.592L0.85 23.7388L0.85 23.7389C0.850449 24.1659 1.01549 24.576 1.31021 24.8792ZM16.6077 4.08122H16.608H30.4208H30.4216L30.4218 4.08122C30.8114 4.08075 31.184 3.9213 31.4582 3.63928C31.7322 3.35741 31.8856 2.97611 31.8861 2.57925V2.57908V2.35214V2.35197C31.8856 1.95511 31.7322 1.57381 31.4582 1.29194C31.184 1.00992 30.8114 0.85047 30.4218 0.85H30.4216L16.608 0.85L16.6077 0.85C16.2182 0.850704 15.8458 1.01026 15.5718 1.29225C15.298 1.5741 15.1447 1.95526 15.1442 2.35197V2.35214L15.1442 2.57908L15.1442 2.57925C15.1447 2.97596 15.298 3.35712 15.5718 3.63897C15.8458 3.92096 16.2182 4.08052 16.6077 4.08122ZM5.71531 22.6163L5.72507 22.6176H5.73492H7.00003C7.11793 22.6176 7.2301 22.5694 7.31214 22.485C7.39403 22.4007 7.43931 22.2874 7.43931 22.17V16.1608C7.43931 16.0434 7.39403 15.93 7.31214 15.8458C7.2301 15.7614 7.11792 15.7132 7.00003 15.7132H5.73492H5.72507L5.7153 15.7145C5.40131 15.7559 5.11705 15.9231 4.92371 16.178C4.73227 16.4305 4.64497 16.7491 4.67928 17.0658V21.2641C4.64474 21.581 4.73193 21.8998 4.92339 22.1524C5.11674 22.4076 5.40115 22.5749 5.71531 22.6163ZM5.73492 16.6083H5.73504L6.56075 16.6077V21.7224H5.73492C5.73536 21.7224 5.73516 21.7224 5.73437 21.7221C5.72851 21.7201 5.68993 21.7066 5.64282 21.6258C5.59512 21.544 5.55784 21.4205 5.55784 21.2726V17.0574C5.55784 16.91 5.59522 16.7868 5.64303 16.705C5.68986 16.6249 5.72818 16.611 5.73434 16.6087C5.73523 16.6084 5.73545 16.6083 5.73492 16.6083ZM1.93419 14.0813C2.06504 13.9467 2.24151 13.8718 2.42467 13.8715C2.60786 13.8719 2.78431 13.9469 2.91517 14.0815C3.04618 14.2163 3.12066 14.3998 3.12103 14.5921C3.12103 14.5922 3.12103 14.5922 3.12103 14.5923L3.12103 23.7388C3.12103 23.9312 3.04668 24.1149 2.91562 24.2497C2.7847 24.3844 2.60806 24.4593 2.4248 24.4593C2.24153 24.4593 2.06489 24.3844 1.93397 24.2497C1.80291 24.1149 1.72856 23.9312 1.72856 23.7388V14.5921C1.72873 14.3997 1.80315 14.2161 1.93419 14.0813Z" fill="#444444" stroke="#444444" stroke-width="0.3"/>
<path d="M20.2037 8.20693C20.2858 8.29131 20.3979 8.33952 20.5158 8.33952C20.6337 8.33952 20.7459 8.29131 20.8279 8.20693C20.9098 8.12269 20.9551 8.00931 20.9551 7.89196V3.63399C20.9551 3.51664 20.9098 3.40326 20.8279 3.31902C20.7459 3.23464 20.6337 3.18643 20.5158 3.18643C20.3979 3.18643 20.2858 3.23464 20.2037 3.31902C20.1218 3.40326 20.0766 3.51664 20.0766 3.63399V7.89196C20.0766 8.00931 20.1218 8.12269 20.2037 8.20693ZM26.0919 8.20693C26.1739 8.29131 26.2861 8.33952 26.404 8.33952C26.5219 8.33952 26.6341 8.29131 26.7161 8.20693C26.798 8.12269 26.8433 8.00932 26.8433 7.89196V3.63399C26.8433 3.51663 26.798 3.40326 26.7161 3.31902C26.6341 3.23464 26.5219 3.18643 26.404 3.18643C26.2861 3.18643 26.1739 3.23464 26.0919 3.31902C26.01 3.40326 25.9647 3.51664 25.9647 3.63399V7.89196C25.9647 8.00931 26.01 8.12269 26.0919 8.20693Z" fill="#444444" stroke="#444444" stroke-width="0.3"/>
</svg>
