<svg width="18" height="19" viewBox="0 0 18 19" fill="none" xmlns="http://www.w3.org/2000/svg">
<path d="M6 4.49854L6 14.4985C6 15.4304 6 15.8964 6.15224 16.2639C6.35523 16.754 6.74458 17.1433 7.23463 17.3463C7.60217 17.4985 8.06812 17.4985 9 17.4985C9.93188 17.4985 10.3978 17.4985 10.7654 17.3463C11.2554 17.1433 11.6448 16.754 11.8478 16.2639C12 15.8964 12 15.4304 12 14.4985L12 4.49854C12 3.56665 12 3.10071 11.8478 2.73317C11.6448 2.24311 11.2554 1.85377 10.7654 1.65078C10.3978 1.49854 9.93188 1.49854 9 1.49854C8.06812 1.49854 7.60218 1.49854 7.23463 1.65078C6.74458 1.85377 6.35523 2.24311 6.15224 2.73317C6 3.10071 6 3.56665 6 4.49854Z" stroke="white" stroke-width="1.5" stroke-linecap="round" stroke-linejoin="round"/>
<path d="M14 13.4985L12 13.4985L12 16.4985L17 16.4985C17 14.4985 15.8 13.4985 14 13.4985Z" stroke="white" stroke-width="1.5" stroke-linejoin="round"/>
<path d="M6.0003 8.67011L4.88939 9.68052C3.82873 10.7412 2.41452 10.7412 1.0003 9.32696L6.00031 4.67012" stroke="white" stroke-width="1.5" stroke-linejoin="round"/>
<path d="M12 13.4985L16 9.49854" stroke="white" stroke-width="1.5" stroke-linecap="round"/>
<path d="M9 4.49854V5.49854" stroke="white" stroke-width="1.5" stroke-linecap="round"/>
</svg>
