<svg width="19" height="19" viewBox="0 0 19 19" fill="none" xmlns="http://www.w3.org/2000/svg">
<path d="M9.5 14.4985V15.4985V17.4985M7.5 17.4985H11.5" stroke="white" stroke-width="1.5" stroke-linecap="round"/>
<path d="M14 1.49853C15.4045 1.49854 16.1067 1.49854 16.6111 1.8356C16.8295 1.98151 17.017 2.16901 17.1629 2.38739C17.5 2.89184 17.5 3.59407 17.5 4.99853L17.5 10.9985C17.5 12.403 17.5 13.1052 17.1629 13.6097C17.017 13.8281 16.8295 14.0156 16.6111 14.1615C16.1067 14.4985 15.4045 14.4985 14 14.4985L5 14.4985C3.59554 14.4985 2.89331 14.4985 2.38886 14.1615C2.17048 14.0156 1.98298 13.8281 1.83706 13.6097C1.5 13.1052 1.5 12.403 1.5 10.9985L1.5 4.99853C1.5 3.59407 1.5 2.89184 1.83706 2.38739C1.98298 2.16901 2.17048 1.98151 2.38886 1.8356C2.89331 1.49853 3.59554 1.49853 5 1.49853L14 1.49853Z" stroke="white" stroke-width="1.5"/>
<path d="M8.5 6.49854L6.5 9.49854" stroke="white" stroke-width="1.5" stroke-linecap="round"/>
<path d="M12.7422 6.49854L10.7422 9.49854" stroke="white" stroke-width="1.5" stroke-linecap="round"/>
</svg>
