<svg width="16" height="19" viewBox="0 0 16 19" fill="none" xmlns="http://www.w3.org/2000/svg">
<path d="M1 4.99854C1 3.59407 1 2.89184 1.33706 2.38739C1.48298 2.16901 1.67048 1.98151 1.88886 1.8356C2.39331 1.49854 3.09554 1.49854 4.5 1.49854H11.5C12.9045 1.49854 13.6067 1.49854 14.1111 1.8356C14.3295 1.98151 14.517 2.16901 14.6629 2.38739C15 2.89184 15 3.59407 15 4.99854V13.9985C15 15.403 15 16.1052 14.6629 16.6097C14.517 16.8281 14.3295 17.0156 14.1111 17.1615C13.6067 17.4985 12.9045 17.4985 11.5 17.4985H4.5C3.09554 17.4985 2.39331 17.4985 1.88886 17.1615C1.67048 17.0156 1.48298 16.8281 1.33706 16.6097C1 16.1052 1 15.403 1 13.9985V4.99854Z" stroke="white" stroke-width="1.5"/>
<path d="M6 5.49854H10" stroke="white" stroke-width="1.5" stroke-linecap="round"/>
<path d="M6 9.49854H10" stroke="white" stroke-width="1.5" stroke-linecap="round"/>
<path d="M6 13.4985H10" stroke="white" stroke-width="1.5" stroke-linecap="round"/>
</svg>
