<svg width="18" height="19" viewBox="0 0 18 19" fill="none" xmlns="http://www.w3.org/2000/svg">
<path d="M3 9.49854V13.9985C3 15.403 3 16.1052 3.33706 16.6097C3.48298 16.8281 3.67048 17.0156 3.88886 17.1615C4.39331 17.4985 5.09554 17.4985 6.5 17.4985H11.5C12.9045 17.4985 13.6067 17.4985 14.1111 17.1615C14.3295 17.0156 14.517 16.8281 14.6629 16.6097C15 16.1052 15 15.403 15 13.9985V9.49854" stroke="white" stroke-width="1.5" stroke-linejoin="round"/>
<path d="M11 17.4985V13.3735C11 13.0224 11 12.8469 10.9157 12.7208C10.8793 12.6662 10.8324 12.6193 10.7778 12.5828C10.6517 12.4985 10.4761 12.4985 10.125 12.4985H7.875C7.52388 12.4985 7.34833 12.4985 7.22221 12.5828C7.16762 12.6193 7.12074 12.6662 7.08427 12.7208C7 12.8469 7 13.0224 7 13.3735V17.4985" stroke="white" stroke-width="1.5"/>
<path d="M1 8.99854L2.30715 4.09672C2.59125 3.03137 2.73329 2.49869 3.07581 2.13244C3.22529 1.9726 3.4 1.83837 3.59297 1.73512C4.03511 1.49854 4.5864 1.49854 5.68897 1.49854H12.311C13.4136 1.49854 13.9649 1.49854 14.407 1.73512C14.6 1.83837 14.7747 1.9726 14.9242 2.13244C15.2667 2.49869 15.4088 3.03137 15.6928 4.09672L17 8.99854" stroke="white" stroke-width="1.5" stroke-linecap="round"/>
<path d="M1 8.99854H4.39023C5.0676 8.99854 5.40629 8.99854 5.71555 8.89491C5.85193 8.84921 5.98299 8.78894 6.10644 8.71513C6.38638 8.54776 6.6068 8.29061 7.04763 7.7763L8.33565 6.27361C8.59815 5.96736 8.7294 5.81423 8.89306 5.7784C8.96352 5.76297 9.03648 5.76297 9.10694 5.7784C9.2706 5.81423 9.40185 5.96736 9.66435 6.27361L10.9524 7.77631C11.3932 8.29061 11.6136 8.54776 11.8936 8.71513C12.017 8.78894 12.1481 8.84921 12.2844 8.89491C12.5937 8.99854 12.9324 8.99854 13.6098 8.99854H17" stroke="white" stroke-width="1.5" stroke-linecap="round"/>
</svg>
