<svg width="19" height="18" viewBox="0 0 19 18" fill="none" xmlns="http://www.w3.org/2000/svg">
<path d="M7.5 13L7.78283 15.4684C7.85276 16.0786 7.88772 16.3837 8.05097 16.6009C8.13047 16.7067 8.23017 16.7956 8.3443 16.8625C8.57862 17 8.88575 17 9.5 17V17C10.1143 17 10.4214 17 10.6557 16.8625C10.7698 16.7956 10.8695 16.7067 10.949 16.6009C11.1123 16.3837 11.1472 16.0786 11.2172 15.4684L11.5 13" stroke="white" stroke-width="1.5" stroke-linecap="round"/>
<path d="M14.5 6C14.5 9.1518 13 9.5 12.5 10.5C12 11.5 12.1096 13.5 9.5 13.5C6.89038 13.5 7 11.5 6.5 10.5C6 9.5 4.5 9.1518 4.5 6C4.5 3.23858 6.73858 1 9.5 1C12.2614 1 14.5 3.23858 14.5 6Z" stroke="white" stroke-width="1.5"/>
<path d="M17.5 6L17 6" stroke="white" stroke-width="1.5" stroke-linecap="round"/>
<path d="M16.4688 2L15.9858 2.12941" stroke="white" stroke-width="1.5" stroke-linecap="round"/>
<path d="M16.4688 10.2588L15.9858 10.1294" stroke="white" stroke-width="1.5" stroke-linecap="round"/>
<path d="M1.5 6L2 6" stroke="white" stroke-width="1.5" stroke-linecap="round"/>
<path d="M2.53125 2L3.01421 2.12941" stroke="white" stroke-width="1.5" stroke-linecap="round"/>
<path d="M2.53125 10.2588L3.01421 10.1294" stroke="white" stroke-width="1.5" stroke-linecap="round"/>
</svg>
