<svg width="13" height="18" viewBox="0 0 13 18" fill="none" xmlns="http://www.w3.org/2000/svg">
<path d="M1.5 11.6667C1.5 11.0467 1.5 10.7367 1.56815 10.4824C1.75308 9.79218 2.29218 9.25308 2.98236 9.06815C3.23669 9 3.54669 9 4.16667 9H8.83333C9.45331 9 9.76331 9 10.0176 9.06815C10.7078 9.25308 11.2469 9.79218 11.4319 10.4824C11.5 10.7367 11.5 11.0467 11.5 11.6667V12C11.5 12.9293 11.5 13.394 11.4231 13.7804C11.1075 15.3671 9.86712 16.6075 8.28036 16.9231C7.89397 17 7.42931 17 6.5 17V17C5.57069 17 5.10603 17 4.71964 16.9231C3.13288 16.6075 1.89249 15.3671 1.57686 13.7804C1.5 13.394 1.5 12.9293 1.5 12V11.6667Z" stroke="white" stroke-width="1.5"/>
<path d="M7.5 14H6.5H5.5" stroke="white" stroke-width="1.5" stroke-linecap="round"/>
<path d="M9.5 5V4C9.5 2.34315 8.15685 1 6.5 1V1C4.84315 1 3.5 2.34315 3.5 4V9" stroke="white" stroke-width="1.5" stroke-linecap="round"/>
</svg>
