   <svg style="height: 20px;" viewBox="0 0 25 33" fill="none" xmlns="http://www.w3.org/2000/svg">
                                <path d="M20.6 5.09977C18.8 4.69977 16.4 4.19977 14 4.09977V3.59977C14 3.39977 14.2 3.19976 14.4 3.09977L14.9 2.99977C15.7 2.79977 16.2 1.99977 16 1.19977C15.8 0.399765 15 -0.100235 14.2 0.0997652L13.7 0.199765C12.1 0.599765 11 1.99977 11 3.59977V4.09977C8.6 4.19977 6.1 4.69977 4.4 4.99977C1.8 5.59977 0 7.89977 0 10.6998V11.6998C0 13.2998 0.7 14.8998 2 15.9998L2.7 23.3998C2.9 25.8998 4.3 28.1998 6.3 29.5998L8.2 30.8998C9.5 31.7998 11 32.1998 12.4 32.1998C13.8 32.1998 15.4 31.7998 16.6 30.8998L18.5 29.5998C20.6 28.1998 21.9 25.8998 22.2 23.3998L23 15.9998C24.3 14.8998 25 13.2998 25 11.6998V10.6998C25 7.89977 23.2 5.59977 20.6 5.09977ZM3 10.6998C3 9.39977 3.8 8.19977 5 7.99977C7 7.59977 9.9 6.99977 12.5 6.99977C15.1 6.99977 18 7.49977 20 7.99977C21.2 8.29977 22 9.39977 22 10.6998V11.6998C22 12.7998 21.4 13.4998 21 13.7998C20.2 14.3998 19.2 14.6998 18.3 14.3998C16.2 13.8998 14.2 13.6998 12.6 13.6998C11 13.6998 9 13.8998 6.9 14.3998C6 14.5998 4.9 14.3998 4.2 13.7998C3.8 13.4998 3.2 12.7998 3.2 11.6998V10.6998H3ZM16.9 27.0998L15 28.3998C13.5 29.3998 11.4 29.3998 9.9 28.3998L8 27.0998C6.6 26.1998 5.8 24.6998 5.6 23.0998L5.1 17.3998C5.8 17.4998 6.6 17.4998 7.3 17.2998C9.2 16.8998 10.9 16.6998 12.4 16.6998C13.9 16.6998 15.6 16.8998 17.5 17.2998C17.9 17.3998 18.4 17.3998 18.8 17.3998C19.1 17.3998 19.4 17.3998 19.7 17.2998L19.2 22.9998C19.2 24.6998 18.3 26.1998 16.9 27.0998Z" fill="white"/>
                                </svg>