<svg width="15" height="18" viewBox="0 0 15 18" fill="none" xmlns="http://www.w3.org/2000/svg">
<path opacity="0.9" d="M8.5 17H7.5H6.5" stroke="white" stroke-width="1.5" stroke-linecap="round"/>
<path d="M3.5 6.38161V4.6718C3.5 3.25597 4.33142 1.97212 5.62338 1.39297C6.20126 1.13392 6.82738 1 7.46066 1H7.53934C8.17262 1 8.79874 1.13392 9.37662 1.39297C10.6686 1.97212 11.5 3.25597 11.5 4.6718V6.38161C11.5 7.44715 11.7374 8.4993 12.1949 9.46162L13.078 11.3193C13.3428 11.8762 13.3216 12.5267 13.0213 13.0653C12.6995 13.6423 12.0905 14 11.4297 14H3.57028C2.90953 14 2.30053 13.6423 1.9787 13.0653C1.67837 12.5267 1.65724 11.8762 1.92198 11.3193L2.80513 9.46162C3.26263 8.4993 3.5 7.44715 3.5 6.38161Z" stroke="white" stroke-width="1.5"/>
</svg>
